<?xml version="1.0" encoding="utf-8" standalone="no"?>
<!DOCTYPE svg PUBLIC "-//W3C//DTD SVG 1.1//EN"
  "http://www.w3.org/Graphics/SVG/1.1/DTD/svg11.dtd">
<svg xmlns:xlink="http://www.w3.org/1999/xlink" width="1009.64387pt" height="669.6pt" viewBox="0 0 1009.64387 669.6" xmlns="http://www.w3.org/2000/svg" version="1.1">
 <metadata>
  <rdf:RDF xmlns:dc="http://purl.org/dc/elements/1.1/" xmlns:cc="http://creativecommons.org/ns#" xmlns:rdf="http://www.w3.org/1999/02/22-rdf-syntax-ns#">
   <cc:Work>
    <dc:type rdf:resource="http://purl.org/dc/dcmitype/StillImage"/>
    <dc:format>image/svg+xml</dc:format>
    <dc:creator>
     <cc:Agent>
      <dc:title>Matplotlib v3.10.8, https://matplotlib.org/</dc:title>
     </cc:Agent>
    </dc:creator>
   </cc:Work>
  </rdf:RDF>
 </metadata>
 <defs>
  <style type="text/css">*{stroke-linejoin: round; stroke-linecap: butt}</style>
 </defs>
 <g id="figure_1">
  <g id="patch_1">
   <path d="M 0 669.6 
L 1009.64387 669.6 
L 1009.64387 0 
L 0 0 
z
" style="fill: #ffffff"/>
  </g>
  <g id="axes_1">
   <g id="patch_2">
    <path d="M 63.89837 583.2 
L 958.24637 583.2 
L 958.24637 93.6 
L 63.89837 93.6 
z
" style="fill: #ffffff"/>
   </g>
   <g id="matplotlib.axis_1">
    <g id="xtick_1">
     <g id="line2d_1">
      <path d="M 63.89837 583.2 
L 63.89837 93.6 
" clip-path="url(#p21747caf0c)" style="fill: none; stroke: #eeeeee; stroke-linecap: square"/>
     </g>
     <g id="line2d_2"/>
     <g id="text_1">
      <!-- 1700 -->
      <g style="fill: #666666" transform="translate(48.62837 595.818125) scale(0.12 -0.12)">
       <defs>
        <path id="DejaVuSans-31" d="M 794 531 
L 1825 531 
L 1825 4091 
L 703 3866 
L 703 4441 
L 1819 4666 
L 2450 4666 
L 2450 531 
L 3481 531 
L 3481 0 
L 794 0 
L 794 531 
z
" transform="scale(0.015625)"/>
        <path id="DejaVuSans-37" d="M 525 4666 
L 3525 4666 
L 3525 4397 
L 1831 0 
L 1172 0 
L 2766 4134 
L 525 4134 
L 525 4666 
z
" transform="scale(0.015625)"/>
        <path id="DejaVuSans-30" d="M 2034 4250 
Q 1547 4250 1301 3770 
Q 1056 3291 1056 2328 
Q 1056 1369 1301 889 
Q 1547 409 2034 409 
Q 2525 409 2770 889 
Q 3016 1369 3016 2328 
Q 3016 3291 2770 3770 
Q 2525 4250 2034 4250 
z
M 2034 4750 
Q 2819 4750 3233 4129 
Q 3647 3509 3647 2328 
Q 3647 1150 3233 529 
Q 2819 -91 2034 -91 
Q 1250 -91 836 529 
Q 422 1150 422 2328 
Q 422 3509 836 4129 
Q 1250 4750 2034 4750 
z
" transform="scale(0.015625)"/>
       </defs>
       <use xlink:href="#DejaVuSans-31"/>
       <use xlink:href="#DejaVuSans-37" transform="translate(63.623047 0)"/>
       <use xlink:href="#DejaVuSans-30" transform="translate(127.246094 0)"/>
       <use xlink:href="#DejaVuSans-30" transform="translate(190.869141 0)"/>
      </g>
     </g>
    </g>
    <g id="xtick_2">
     <g id="line2d_3">
      <path d="M 175.69187 583.2 
L 175.69187 93.6 
" clip-path="url(#p21747caf0c)" style="fill: none; stroke: #eeeeee; stroke-linecap: square"/>
     </g>
     <g id="line2d_4"/>
     <g id="text_2">
      <!-- 1750 -->
      <g style="fill: #666666" transform="translate(160.42187 595.818125) scale(0.12 -0.12)">
       <defs>
        <path id="DejaVuSans-35" d="M 691 4666 
L 3169 4666 
L 3169 4134 
L 1269 4134 
L 1269 2991 
Q 1406 3038 1543 3061 
Q 1681 3084 1819 3084 
Q 2600 3084 3056 2656 
Q 3513 2228 3513 1497 
Q 3513 744 3044 326 
Q 2575 -91 1722 -91 
Q 1428 -91 1123 -41 
Q 819 9 494 109 
L 494 744 
Q 775 591 1075 516 
Q 1375 441 1709 441 
Q 2250 441 2565 725 
Q 2881 1009 2881 1497 
Q 2881 1984 2565 2268 
Q 2250 2553 1709 2553 
Q 1456 2553 1204 2497 
Q 953 2441 691 2322 
L 691 4666 
z
" transform="scale(0.015625)"/>
       </defs>
       <use xlink:href="#DejaVuSans-31"/>
       <use xlink:href="#DejaVuSans-37" transform="translate(63.623047 0)"/>
       <use xlink:href="#DejaVuSans-35" transform="translate(127.246094 0)"/>
       <use xlink:href="#DejaVuSans-30" transform="translate(190.869141 0)"/>
      </g>
     </g>
    </g>
    <g id="xtick_3">
     <g id="line2d_5">
      <path d="M 287.48537 583.2 
L 287.48537 93.6 
" clip-path="url(#p21747caf0c)" style="fill: none; stroke: #eeeeee; stroke-linecap: square"/>
     </g>
     <g id="line2d_6"/>
     <g id="text_3">
      <!-- 1800 -->
      <g style="fill: #666666" transform="translate(272.21537 595.818125) scale(0.12 -0.12)">
       <defs>
        <path id="DejaVuSans-38" d="M 2034 2216 
Q 1584 2216 1326 1975 
Q 1069 1734 1069 1313 
Q 1069 891 1326 650 
Q 1584 409 2034 409 
Q 2484 409 2743 651 
Q 3003 894 3003 1313 
Q 3003 1734 2745 1975 
Q 2488 2216 2034 2216 
z
M 1403 2484 
Q 997 2584 770 2862 
Q 544 3141 544 3541 
Q 544 4100 942 4425 
Q 1341 4750 2034 4750 
Q 2731 4750 3128 4425 
Q 3525 4100 3525 3541 
Q 3525 3141 3298 2862 
Q 3072 2584 2669 2484 
Q 3125 2378 3379 2068 
Q 3634 1759 3634 1313 
Q 3634 634 3220 271 
Q 2806 -91 2034 -91 
Q 1263 -91 848 271 
Q 434 634 434 1313 
Q 434 1759 690 2068 
Q 947 2378 1403 2484 
z
M 1172 3481 
Q 1172 3119 1398 2916 
Q 1625 2713 2034 2713 
Q 2441 2713 2670 2916 
Q 2900 3119 2900 3481 
Q 2900 3844 2670 4047 
Q 2441 4250 2034 4250 
Q 1625 4250 1398 4047 
Q 1172 3844 1172 3481 
z
" transform="scale(0.015625)"/>
       </defs>
       <use xlink:href="#DejaVuSans-31"/>
       <use xlink:href="#DejaVuSans-38" transform="translate(63.623047 0)"/>
       <use xlink:href="#DejaVuSans-30" transform="translate(127.246094 0)"/>
       <use xlink:href="#DejaVuSans-30" transform="translate(190.869141 0)"/>
      </g>
     </g>
    </g>
    <g id="xtick_4">
     <g id="line2d_7">
      <path d="M 399.27887 583.2 
L 399.27887 93.6 
" clip-path="url(#p21747caf0c)" style="fill: none; stroke: #eeeeee; stroke-linecap: square"/>
     </g>
     <g id="line2d_8"/>
     <g id="text_4">
      <!-- 1850 -->
      <g style="fill: #666666" transform="translate(384.00887 595.818125) scale(0.12 -0.12)">
       <use xlink:href="#DejaVuSans-31"/>
       <use xlink:href="#DejaVuSans-38" transform="translate(63.623047 0)"/>
       <use xlink:href="#DejaVuSans-35" transform="translate(127.246094 0)"/>
       <use xlink:href="#DejaVuSans-30" transform="translate(190.869141 0)"/>
      </g>
     </g>
    </g>
    <g id="xtick_5">
     <g id="line2d_9">
      <path d="M 511.07237 583.2 
L 511.07237 93.6 
" clip-path="url(#p21747caf0c)" style="fill: none; stroke: #eeeeee; stroke-linecap: square"/>
     </g>
     <g id="line2d_10"/>
     <g id="text_5">
      <!-- 1900 -->
      <g style="fill: #666666" transform="translate(495.80237 595.818125) scale(0.12 -0.12)">
       <defs>
        <path id="DejaVuSans-39" d="M 703 97 
L 703 672 
Q 941 559 1184 500 
Q 1428 441 1663 441 
Q 2288 441 2617 861 
Q 2947 1281 2994 2138 
Q 2813 1869 2534 1725 
Q 2256 1581 1919 1581 
Q 1219 1581 811 2004 
Q 403 2428 403 3163 
Q 403 3881 828 4315 
Q 1253 4750 1959 4750 
Q 2769 4750 3195 4129 
Q 3622 3509 3622 2328 
Q 3622 1225 3098 567 
Q 2575 -91 1691 -91 
Q 1453 -91 1209 -44 
Q 966 3 703 97 
z
M 1959 2075 
Q 2384 2075 2632 2365 
Q 2881 2656 2881 3163 
Q 2881 3666 2632 3958 
Q 2384 4250 1959 4250 
Q 1534 4250 1286 3958 
Q 1038 3666 1038 3163 
Q 1038 2656 1286 2365 
Q 1534 2075 1959 2075 
z
" transform="scale(0.015625)"/>
       </defs>
       <use xlink:href="#DejaVuSans-31"/>
       <use xlink:href="#DejaVuSans-39" transform="translate(63.623047 0)"/>
       <use xlink:href="#DejaVuSans-30" transform="translate(127.246094 0)"/>
       <use xlink:href="#DejaVuSans-30" transform="translate(190.869141 0)"/>
      </g>
     </g>
    </g>
    <g id="xtick_6">
     <g id="line2d_11">
      <path d="M 622.86587 583.2 
L 622.86587 93.6 
" clip-path="url(#p21747caf0c)" style="fill: none; stroke: #eeeeee; stroke-linecap: square"/>
     </g>
     <g id="line2d_12"/>
     <g id="text_6">
      <!-- 1950 -->
      <g style="fill: #666666" transform="translate(607.59587 595.818125) scale(0.12 -0.12)">
       <use xlink:href="#DejaVuSans-31"/>
       <use xlink:href="#DejaVuSans-39" transform="translate(63.623047 0)"/>
       <use xlink:href="#DejaVuSans-35" transform="translate(127.246094 0)"/>
       <use xlink:href="#DejaVuSans-30" transform="translate(190.869141 0)"/>
      </g>
     </g>
    </g>
    <g id="xtick_7">
     <g id="line2d_13">
      <path d="M 734.65937 583.2 
L 734.65937 93.6 
" clip-path="url(#p21747caf0c)" style="fill: none; stroke: #eeeeee; stroke-linecap: square"/>
     </g>
     <g id="line2d_14"/>
     <g id="text_7">
      <!-- 2000 -->
      <g style="fill: #666666" transform="translate(719.38937 595.818125) scale(0.12 -0.12)">
       <defs>
        <path id="DejaVuSans-32" d="M 1228 531 
L 3431 531 
L 3431 0 
L 469 0 
L 469 531 
Q 828 903 1448 1529 
Q 2069 2156 2228 2338 
Q 2531 2678 2651 2914 
Q 2772 3150 2772 3378 
Q 2772 3750 2511 3984 
Q 2250 4219 1831 4219 
Q 1534 4219 1204 4116 
Q 875 4013 500 3803 
L 500 4441 
Q 881 4594 1212 4672 
Q 1544 4750 1819 4750 
Q 2544 4750 2975 4387 
Q 3406 4025 3406 3419 
Q 3406 3131 3298 2873 
Q 3191 2616 2906 2266 
Q 2828 2175 2409 1742 
Q 1991 1309 1228 531 
z
" transform="scale(0.015625)"/>
       </defs>
       <use xlink:href="#DejaVuSans-32"/>
       <use xlink:href="#DejaVuSans-30" transform="translate(63.623047 0)"/>
       <use xlink:href="#DejaVuSans-30" transform="translate(127.246094 0)"/>
       <use xlink:href="#DejaVuSans-30" transform="translate(190.869141 0)"/>
      </g>
     </g>
    </g>
    <g id="xtick_8">
     <g id="line2d_15">
      <path d="M 786.08438 583.2 
L 786.08438 93.6 
" clip-path="url(#p21747caf0c)" style="fill: none; stroke: #eeeeee; stroke-linecap: square"/>
     </g>
     <g id="line2d_16"/>
     <g id="text_8">
      <!-- 2023 -->
      <g style="fill: #666666" transform="translate(770.81438 595.818125) scale(0.12 -0.12)">
       <defs>
        <path id="DejaVuSans-33" d="M 2597 2516 
Q 3050 2419 3304 2112 
Q 3559 1806 3559 1356 
Q 3559 666 3084 287 
Q 2609 -91 1734 -91 
Q 1441 -91 1130 -33 
Q 819 25 488 141 
L 488 750 
Q 750 597 1062 519 
Q 1375 441 1716 441 
Q 2309 441 2620 675 
Q 2931 909 2931 1356 
Q 2931 1769 2642 2001 
Q 2353 2234 1838 2234 
L 1294 2234 
L 1294 2753 
L 1863 2753 
Q 2328 2753 2575 2939 
Q 2822 3125 2822 3475 
Q 2822 3834 2567 4026 
Q 2313 4219 1838 4219 
Q 1578 4219 1281 4162 
Q 984 4106 628 3988 
L 628 4550 
Q 988 4650 1302 4700 
Q 1616 4750 1894 4750 
Q 2613 4750 3031 4423 
Q 3450 4097 3450 3541 
Q 3450 3153 3228 2886 
Q 3006 2619 2597 2516 
z
" transform="scale(0.015625)"/>
       </defs>
       <use xlink:href="#DejaVuSans-32"/>
       <use xlink:href="#DejaVuSans-30" transform="translate(63.623047 0)"/>
       <use xlink:href="#DejaVuSans-32" transform="translate(127.246094 0)"/>
       <use xlink:href="#DejaVuSans-33" transform="translate(190.869141 0)"/>
      </g>
     </g>
    </g>
    <g id="xtick_9">
     <g id="line2d_17">
      <path d="M 846.45287 583.2 
L 846.45287 93.6 
" clip-path="url(#p21747caf0c)" style="fill: none; stroke: #eeeeee; stroke-linecap: square"/>
     </g>
     <g id="line2d_18"/>
     <g id="text_9">
      <!-- 2050 -->
      <g style="fill: #666666" transform="translate(831.18287 595.818125) scale(0.12 -0.12)">
       <use xlink:href="#DejaVuSans-32"/>
       <use xlink:href="#DejaVuSans-30" transform="translate(63.623047 0)"/>
       <use xlink:href="#DejaVuSans-35" transform="translate(127.246094 0)"/>
       <use xlink:href="#DejaVuSans-30" transform="translate(190.869141 0)"/>
      </g>
     </g>
    </g>
    <g id="xtick_10">
     <g id="line2d_19">
      <path d="M 958.24637 583.2 
L 958.24637 93.6 
" clip-path="url(#p21747caf0c)" style="fill: none; stroke: #eeeeee; stroke-linecap: square"/>
     </g>
     <g id="line2d_20"/>
     <g id="text_10">
      <!-- 2100 -->
      <g style="fill: #666666" transform="translate(942.97637 595.818125) scale(0.12 -0.12)">
       <use xlink:href="#DejaVuSans-32"/>
       <use xlink:href="#DejaVuSans-31" transform="translate(63.623047 0)"/>
       <use xlink:href="#DejaVuSans-30" transform="translate(127.246094 0)"/>
       <use xlink:href="#DejaVuSans-30" transform="translate(190.869141 0)"/>
      </g>
     </g>
    </g>
   </g>
   <g id="matplotlib.axis_2">
    <g id="ytick_1">
     <g id="line2d_21"/>
     <g id="text_11">
      <!-- 0 -->
      <g style="fill: #666666" transform="translate(52.76337 508.080091) scale(0.12 -0.12)">
       <use xlink:href="#DejaVuSans-30"/>
      </g>
     </g>
    </g>
    <g id="ytick_2">
     <g id="line2d_22"/>
     <g id="text_12">
      <!-- 2 -->
      <g style="fill: #666666" transform="translate(52.76337 428.401119) scale(0.12 -0.12)">
       <use xlink:href="#DejaVuSans-32"/>
      </g>
     </g>
    </g>
    <g id="ytick_3">
     <g id="line2d_23"/>
     <g id="text_13">
      <!-- 4 -->
      <g style="fill: #666666" transform="translate(52.76337 348.722148) scale(0.12 -0.12)">
       <defs>
        <path id="DejaVuSans-34" d="M 2419 4116 
L 825 1625 
L 2419 1625 
L 2419 4116 
z
M 2253 4666 
L 3047 4666 
L 3047 1625 
L 3713 1625 
L 3713 1100 
L 3047 1100 
L 3047 0 
L 2419 0 
L 2419 1100 
L 313 1100 
L 313 1709 
L 2253 4666 
z
" transform="scale(0.015625)"/>
       </defs>
       <use xlink:href="#DejaVuSans-34"/>
      </g>
     </g>
    </g>
    <g id="ytick_4">
     <g id="line2d_24"/>
     <g id="text_14">
      <!-- 6 -->
      <g style="fill: #666666" transform="translate(52.76337 269.043176) scale(0.12 -0.12)">
       <defs>
        <path id="DejaVuSans-36" d="M 2113 2584 
Q 1688 2584 1439 2293 
Q 1191 2003 1191 1497 
Q 1191 994 1439 701 
Q 1688 409 2113 409 
Q 2538 409 2786 701 
Q 3034 994 3034 1497 
Q 3034 2003 2786 2293 
Q 2538 2584 2113 2584 
z
M 3366 4563 
L 3366 3988 
Q 3128 4100 2886 4159 
Q 2644 4219 2406 4219 
Q 1781 4219 1451 3797 
Q 1122 3375 1075 2522 
Q 1259 2794 1537 2939 
Q 1816 3084 2150 3084 
Q 2853 3084 3261 2657 
Q 3669 2231 3669 1497 
Q 3669 778 3244 343 
Q 2819 -91 2113 -91 
Q 1303 -91 875 529 
Q 447 1150 447 2328 
Q 447 3434 972 4092 
Q 1497 4750 2381 4750 
Q 2619 4750 2861 4703 
Q 3103 4656 3366 4563 
z
" transform="scale(0.015625)"/>
       </defs>
       <use xlink:href="#DejaVuSans-36"/>
      </g>
     </g>
    </g>
    <g id="ytick_5">
     <g id="line2d_25"/>
     <g id="text_15">
      <!-- 8 -->
      <g style="fill: #666666" transform="translate(52.76337 189.364204) scale(0.12 -0.12)">
       <use xlink:href="#DejaVuSans-38"/>
      </g>
     </g>
    </g>
    <g id="ytick_6">
     <g id="line2d_26"/>
     <g id="text_16">
      <!-- 10 -->
      <g style="fill: #666666" transform="translate(45.12837 109.685233) scale(0.12 -0.12)">
       <use xlink:href="#DejaVuSans-31"/>
       <use xlink:href="#DejaVuSans-30" transform="translate(63.623047 0)"/>
      </g>
     </g>
    </g>
   </g>
   <g id="FillBetweenPolyCollection_1">
    <defs>
     <path id="m8d76c55fde" d="M 63.89837 -189.801668 
L 63.89837 -166.078972 
L 86.25707 -166.078972 
L 108.61577 -166.078972 
L 130.97447 -166.078972 
L 153.33317 -166.078972 
L 175.69187 -166.078972 
L 198.05057 -166.078972 
L 220.40927 -166.078972 
L 242.76797 -166.078972 
L 265.12667 -166.078972 
L 287.48537 -166.078972 
L 289.72124 -166.078972 
L 291.95711 -166.078972 
L 294.19298 -166.078972 
L 296.42885 -166.078972 
L 298.66472 -166.078972 
L 300.90059 -166.078972 
L 303.13646 -166.078972 
L 305.37233 -166.078972 
L 307.6082 -166.078972 
L 309.84407 -166.078972 
L 312.07994 -166.078972 
L 314.31581 -166.078972 
L 316.55168 -166.078972 
L 318.78755 -166.078972 
L 321.02342 -166.078972 
L 323.25929 -166.078972 
L 325.49516 -166.078972 
L 327.73103 -166.078972 
L 329.9669 -166.078972 
L 332.20277 -166.078972 
L 334.43864 -166.078972 
L 336.67451 -166.078972 
L 338.91038 -166.078972 
L 341.14625 -166.078972 
L 343.38212 -166.078972 
L 345.61799 -166.078972 
L 347.85386 -166.078972 
L 350.08973 -166.078972 
L 352.3256 -166.078972 
L 354.56147 -166.078972 
L 356.79734 -166.078972 
L 359.03321 -166.078972 
L 361.26908 -166.078972 
L 363.50495 -166.078972 
L 365.74082 -166.078972 
L 367.97669 -166.078972 
L 370.21256 -166.078972 
L 372.44843 -166.078972 
L 374.6843 -166.078972 
L 376.92017 -166.078972 
L 379.15604 -166.078972 
L 381.39191 -166.078972 
L 383.62778 -166.078972 
L 385.86365 -166.078972 
L 388.09952 -166.078972 
L 390.33539 -166.078972 
L 392.57126 -166.078972 
L 394.80713 -166.078972 
L 397.043 -166.078972 
L 399.27887 -166.078972 
L 401.51474 -166.078972 
L 403.75061 -166.078972 
L 405.98648 -166.078972 
L 408.22235 -166.078972 
L 410.45822 -166.078972 
L 412.69409 -166.078972 
L 414.92996 -166.078972 
L 417.16583 -166.078972 
L 419.4017 -166.078972 
L 421.63757 -166.078972 
L 423.87344 -166.078972 
L 426.10931 -166.078972 
L 428.34518 -166.078972 
L 430.58105 -166.078972 
L 432.81692 -166.078972 
L 435.05279 -166.078972 
L 437.28866 -166.078972 
L 439.52453 -166.078972 
L 441.7604 -166.078972 
L 443.99627 -166.078972 
L 446.23214 -166.078972 
L 448.46801 -166.078972 
L 450.70388 -166.078972 
L 452.93975 -166.078972 
L 455.17562 -166.078972 
L 457.41149 -166.078972 
L 459.64736 -166.078972 
L 461.88323 -166.078972 
L 464.1191 -166.078972 
L 466.35497 -166.078972 
L 468.59084 -166.078972 
L 470.82671 -166.078972 
L 473.06258 -166.078972 
L 475.29845 -166.078972 
L 477.53432 -166.078972 
L 479.77019 -166.078972 
L 482.00606 -166.078972 
L 484.24193 -166.078972 
L 486.4778 -166.078972 
L 488.71367 -166.078972 
L 490.94954 -166.078972 
L 493.18541 -166.078972 
L 495.42128 -166.078972 
L 497.65715 -166.078972 
L 499.89302 -166.078972 
L 502.12889 -166.078972 
L 504.36476 -166.078972 
L 506.60063 -166.078972 
L 508.8365 -166.078972 
L 511.07237 -166.078972 
L 513.30824 -166.078972 
L 515.54411 -166.078972 
L 517.77998 -166.078972 
L 520.01585 -166.078972 
L 522.25172 -166.078972 
L 524.48759 -166.078972 
L 526.72346 -166.078972 
L 528.95933 -166.078972 
L 531.1952 -166.078972 
L 533.43107 -166.078972 
L 535.66694 -166.078972 
L 537.90281 -166.078972 
L 540.13868 -166.078972 
L 542.37455 -166.078972 
L 544.61042 -166.078972 
L 546.84629 -166.078972 
L 549.08216 -166.078972 
L 551.31803 -166.078972 
L 553.5539 -166.078972 
L 555.78977 -166.078972 
L 558.02564 -166.078972 
L 560.26151 -166.078972 
L 562.49738 -166.078972 
L 564.73325 -166.078972 
L 566.96912 -166.078972 
L 569.20499 -166.078972 
L 571.44086 -166.078972 
L 573.67673 -166.078972 
L 575.9126 -166.078972 
L 578.14847 -166.078972 
L 580.38434 -166.078972 
L 582.62021 -166.078972 
L 584.85608 -166.078972 
L 587.09195 -166.078972 
L 589.32782 -166.078972 
L 591.56369 -166.078972 
L 593.79956 -166.078972 
L 596.03543 -166.078972 
L 598.2713 -166.078972 
L 600.50717 -166.078972 
L 602.74304 -166.078972 
L 604.97891 -166.078972 
L 607.21478 -166.078972 
L 609.45065 -166.078972 
L 611.68652 -166.078972 
L 613.92239 -166.078972 
L 616.15826 -166.078972 
L 618.39413 -166.078972 
L 620.63 -166.078972 
L 622.86587 -166.078972 
L 625.10174 -166.078972 
L 627.33761 -166.078972 
L 629.57348 -166.078972 
L 631.80935 -166.078972 
L 634.04522 -166.078972 
L 636.28109 -166.078972 
L 638.51696 -166.078972 
L 640.75283 -166.078972 
L 642.9887 -166.078972 
L 645.22457 -166.078972 
L 647.46044 -166.078972 
L 649.69631 -166.078972 
L 651.93218 -166.078972 
L 654.16805 -166.078972 
L 656.40392 -166.078972 
L 658.63979 -166.078972 
L 660.87566 -166.078972 
L 663.11153 -166.078972 
L 665.3474 -166.078972 
L 667.58327 -166.078972 
L 669.81914 -166.078972 
L 672.05501 -166.078972 
L 674.29088 -166.078972 
L 676.52675 -166.078972 
L 678.76262 -166.078972 
L 680.99849 -166.078972 
L 683.23436 -166.078972 
L 685.47023 -166.078972 
L 687.7061 -166.078972 
L 689.94197 -166.078972 
L 692.17784 -166.078972 
L 694.41371 -166.078972 
L 696.64958 -166.078972 
L 698.88545 -166.078972 
L 701.12132 -166.078972 
L 703.35719 -166.078972 
L 705.59306 -166.078972 
L 707.82893 -166.078972 
L 710.0648 -166.078972 
L 712.30067 -166.078972 
L 714.53654 -166.078972 
L 716.77241 -166.078972 
L 719.00828 -166.078972 
L 721.24415 -166.078972 
L 723.48002 -166.078972 
L 725.71589 -166.078972 
L 727.95176 -166.078972 
L 730.18763 -166.078972 
L 732.4235 -166.078972 
L 734.65937 -166.078972 
L 736.89524 -166.078972 
L 739.13111 -166.078972 
L 741.36698 -166.078972 
L 743.60285 -166.078972 
L 745.83872 -166.078972 
L 748.07459 -166.078972 
L 750.31046 -166.078972 
L 752.54633 -166.078972 
L 754.7822 -166.078972 
L 757.01807 -166.078972 
L 759.25394 -166.078972 
L 761.48981 -166.078972 
L 763.72568 -166.078972 
L 765.96155 -166.078972 
L 768.19742 -166.078972 
L 770.43329 -166.078972 
L 772.66916 -166.078972 
L 774.90503 -166.078972 
L 777.1409 -166.078972 
L 779.37677 -166.078972 
L 781.61264 -166.078972 
L 783.84851 -166.078972 
L 786.08438 -166.078972 
L 786.08438 -488.449531 
L 786.08438 -488.449531 
L 783.84851 -485.64771 
L 781.61264 -482.980105 
L 779.37677 -480.293047 
L 777.1409 -477.276896 
L 774.90503 -474.034324 
L 772.66916 -470.676459 
L 770.43329 -467.207897 
L 768.19742 -463.699527 
L 765.96155 -460.158767 
L 763.72568 -456.580279 
L 761.48981 -452.971175 
L 759.25394 -449.374518 
L 757.01807 -445.82117 
L 754.7822 -442.276821 
L 752.54633 -438.758645 
L 750.31046 -435.286679 
L 748.07459 -431.86619 
L 745.83872 -428.500475 
L 743.60285 -425.170198 
L 741.36698 -421.862878 
L 739.13111 -418.57089 
L 736.89524 -415.272424 
L 734.65937 -411.956445 
L 732.4235 -408.661853 
L 730.18763 -405.39742 
L 727.95176 -402.119472 
L 725.71589 -398.823468 
L 723.48002 -395.509749 
L 721.24415 -392.190015 
L 719.00828 -388.843241 
L 716.77241 -385.434775 
L 714.53654 -381.958623 
L 712.30067 -378.335908 
L 710.0648 -374.61604 
L 707.82893 -370.93331 
L 705.59306 -367.258271 
L 703.35719 -363.606044 
L 701.12132 -360.055175 
L 698.88545 -356.598385 
L 696.64958 -353.218087 
L 694.41371 -349.845509 
L 692.17784 -346.503131 
L 689.94197 -343.269317 
L 687.7061 -340.11934 
L 685.47023 -337.073929 
L 683.23436 -334.116496 
L 680.99849 -331.183617 
L 678.76262 -328.254972 
L 676.52675 -325.294134 
L 674.29088 -322.281828 
L 672.05501 -319.258515 
L 669.81914 -316.267772 
L 667.58327 -313.273274 
L 665.3474 -310.277655 
L 663.11153 -307.317409 
L 660.87566 -304.457955 
L 658.63979 -301.69422 
L 656.40392 -298.92508 
L 654.16805 -296.134469 
L 651.93218 -293.278794 
L 649.69631 -290.512598 
L 647.46044 -288.181804 
L 645.22457 -286.213781 
L 642.9887 -284.240908 
L 640.75283 -282.061662 
L 638.51696 -279.725819 
L 636.28109 -277.446668 
L 634.04522 -275.24768 
L 631.80935 -273.083642 
L 629.57348 -271.02041 
L 627.33761 -269.027643 
L 625.10174 -267.14884 
L 622.86587 -265.402509 
L 620.63 -264.399756 
L 618.39413 -263.3629 
L 616.15826 -262.541993 
L 613.92239 -261.785439 
L 611.68652 -261.083069 
L 609.45065 -260.375801 
L 607.21478 -259.662506 
L 604.97891 -258.950206 
L 602.74304 -258.191806 
L 600.50717 -257.390259 
L 598.2713 -256.541504 
L 596.03543 -255.643208 
L 593.79956 -254.711094 
L 591.56369 -253.796074 
L 589.32782 -252.894824 
L 587.09195 -252.008467 
L 584.85608 -251.133072 
L 582.62021 -250.268393 
L 580.38434 -249.429494 
L 578.14847 -248.617889 
L 575.9126 -247.834594 
L 573.67673 -247.079033 
L 571.44086 -246.349509 
L 569.20499 -245.630999 
L 566.96912 -244.922416 
L 564.73325 -244.223693 
L 562.49738 -243.535571 
L 560.26151 -242.857933 
L 558.02564 -242.208893 
L 555.78977 -241.591796 
L 553.5539 -241.002101 
L 551.31803 -240.450482 
L 549.08216 -239.932497 
L 546.84629 -239.439229 
L 544.61042 -238.949491 
L 542.37455 -238.462724 
L 540.13868 -237.98141 
L 537.90281 -237.507679 
L 535.66694 -237.010077 
L 533.43107 -236.491995 
L 531.1952 -235.946643 
L 528.95933 -235.377426 
L 526.72346 -234.784489 
L 524.48759 -234.200002 
L 522.25172 -233.623932 
L 520.01585 -233.055318 
L 517.77998 -232.493965 
L 515.54411 -231.939683 
L 513.30824 -231.411234 
L 511.07237 -230.908717 
L 508.8365 -230.431729 
L 506.60063 -229.979657 
L 504.36476 -229.553677 
L 502.12889 -229.132677 
L 499.89302 -228.717481 
L 497.65715 -228.305799 
L 495.42128 -227.900146 
L 493.18541 -227.499991 
L 490.94954 -227.09016 
L 488.71367 -226.670512 
L 486.4778 -226.240966 
L 484.24193 -225.802959 
L 482.00606 -225.355879 
L 479.77019 -224.913862 
L 477.53432 -224.477962 
L 475.29845 -224.046285 
L 473.06258 -223.621995 
L 470.82671 -223.202858 
L 468.59084 -222.807172 
L 466.35497 -222.43524 
L 464.1191 -222.086844 
L 461.88323 -221.761281 
L 459.64736 -221.457006 
L 457.41149 -221.155432 
L 455.17562 -220.855891 
L 452.93975 -220.559539 
L 450.70388 -220.267167 
L 448.46801 -219.977657 
L 446.23214 -219.710996 
L 443.99627 -219.470595 
L 441.7604 -219.250909 
L 439.52453 -219.054822 
L 437.28866 -218.881813 
L 435.05279 -218.712082 
L 432.81692 -218.54567 
L 430.58105 -218.382271 
L 428.34518 -218.221908 
L 426.10931 -218.064843 
L 423.87344 -217.921295 
L 421.63757 -217.791715 
L 419.4017 -217.675961 
L 417.16583 -217.574403 
L 414.92996 -217.487302 
L 412.69409 -217.404808 
L 410.45822 -217.326858 
L 408.22235 -217.253389 
L 405.98648 -217.184343 
L 403.75061 -217.119665 
L 401.51474 -217.024438 
L 399.27887 -216.898335 
L 397.043 -216.72041 
L 394.80713 -216.511368 
L 392.57126 -216.270984 
L 390.33539 -216.033999 
L 388.09952 -215.800337 
L 385.86365 -215.569929 
L 383.62778 -215.342705 
L 381.39191 -215.118563 
L 379.15604 -214.893649 
L 376.92017 -214.667894 
L 374.6843 -214.441513 
L 372.44843 -214.214382 
L 370.21256 -213.986087 
L 367.97669 -213.760398 
L 365.74082 -213.537268 
L 363.50495 -213.316412 
L 361.26908 -213.098073 
L 359.03321 -212.88212 
L 356.79734 -212.646801 
L 354.56147 -212.392268 
L 352.3256 -212.118217 
L 350.08973 -211.826373 
L 347.85386 -211.516873 
L 345.61799 -211.211603 
L 343.38212 -210.910506 
L 341.14625 -210.615414 
L 338.91038 -210.324494 
L 336.67451 -210.037544 
L 334.43864 -209.764361 
L 332.20277 -209.484372 
L 329.9669 -209.189859 
L 327.73103 -208.890604 
L 325.49516 -208.587126 
L 323.25929 -208.291113 
L 321.02342 -208.002375 
L 318.78755 -207.720733 
L 316.55168 -207.446012 
L 314.31581 -207.178047 
L 312.07994 -206.936662 
L 309.84407 -206.721226 
L 307.6082 -206.508075 
L 305.37233 -206.361199 
L 303.13646 -206.216006 
L 300.90059 -206.072478 
L 298.66472 -205.930596 
L 296.42885 -205.790344 
L 294.19298 -205.651708 
L 291.95711 -205.514674 
L 289.72124 -205.379229 
L 287.48537 -205.24536 
L 265.12667 -203.618193 
L 242.76797 -201.972163 
L 220.40927 -199.064133 
L 198.05057 -197.482645 
L 175.69187 -196.089231 
L 153.33317 -194.055365 
L 130.97447 -192.807281 
L 108.61577 -191.902319 
L 86.25707 -190.698813 
L 63.89837 -189.801668 
z
"/>
    </defs>
    <g clip-path="url(#p21747caf0c)">
     <use xlink:href="#m8d76c55fde" x="0" y="669.6" style="fill: #0c988c"/>
    </g>
   </g>
   <g id="FillBetweenPolyCollection_2">
    <defs>
     <path id="m9b5dd5905e" d="M 786.08438 -488.449531 
L 786.08438 -166.078972 
L 788.32025 -166.078972 
L 790.55612 -166.078972 
L 792.79199 -166.078972 
L 795.02786 -166.078972 
L 797.26373 -166.078972 
L 799.4996 -166.078972 
L 801.73547 -166.078972 
L 803.97134 -166.078972 
L 806.20721 -166.078972 
L 808.44308 -166.078972 
L 810.67895 -166.078972 
L 812.91482 -166.078972 
L 815.15069 -166.078972 
L 817.38656 -166.078972 
L 819.62243 -166.078972 
L 821.8583 -166.078972 
L 824.09417 -166.078972 
L 826.33004 -166.078972 
L 828.56591 -166.078972 
L 830.80178 -166.078972 
L 833.03765 -166.078972 
L 835.27352 -166.078972 
L 837.50939 -166.078972 
L 839.74526 -166.078972 
L 841.98113 -166.078972 
L 844.217 -166.078972 
L 846.45287 -166.078972 
L 848.68874 -166.078972 
L 850.92461 -166.078972 
L 853.16048 -166.078972 
L 855.39635 -166.078972 
L 857.63222 -166.078972 
L 859.86809 -166.078972 
L 862.10396 -166.078972 
L 864.33983 -166.078972 
L 866.5757 -166.078972 
L 868.81157 -166.078972 
L 871.04744 -166.078972 
L 873.28331 -166.078972 
L 875.51918 -166.078972 
L 877.75505 -166.078972 
L 879.99092 -166.078972 
L 882.22679 -166.078972 
L 884.46266 -166.078972 
L 886.69853 -166.078972 
L 888.9344 -166.078972 
L 891.17027 -166.078972 
L 893.40614 -166.078972 
L 895.64201 -166.078972 
L 897.87788 -166.078972 
L 900.11375 -166.078972 
L 902.34962 -166.078972 
L 904.58549 -166.078972 
L 906.82136 -166.078972 
L 909.05723 -166.078972 
L 911.2931 -166.078972 
L 913.52897 -166.078972 
L 915.76484 -166.078972 
L 918.00071 -166.078972 
L 920.23658 -166.078972 
L 922.47245 -166.078972 
L 924.70832 -166.078972 
L 926.94419 -166.078972 
L 929.18006 -166.078972 
L 931.41593 -166.078972 
L 933.6518 -166.078972 
L 935.88767 -166.078972 
L 938.12354 -166.078972 
L 940.35941 -166.078972 
L 942.59528 -166.078972 
L 944.83115 -166.078972 
L 947.06702 -166.078972 
L 949.30289 -166.078972 
L 951.53876 -166.078972 
L 953.77463 -166.078972 
L 956.0105 -166.078972 
L 958.24637 -166.078972 
L 958.24637 -571.651341 
L 958.24637 -571.651341 
L 956.0105 -572.150463 
L 953.77463 -572.620601 
L 951.53876 -573.061203 
L 949.30289 -573.471612 
L 947.06702 -573.852188 
L 944.83115 -574.202068 
L 942.59528 -574.520741 
L 940.35941 -574.808526 
L 938.12354 -575.065624 
L 935.88767 -575.292842 
L 933.6518 -575.490175 
L 931.41593 -575.656956 
L 929.18006 -575.792681 
L 926.94419 -575.896143 
L 924.70832 -575.965793 
L 922.47245 -576 
L 920.23658 -575.997294 
L 918.00071 -575.955771 
L 915.76484 -575.874366 
L 913.52897 -575.751513 
L 911.2931 -575.584563 
L 909.05723 -575.372173 
L 906.82136 -575.112766 
L 904.58549 -574.806258 
L 902.34962 -574.453479 
L 900.11375 -574.054631 
L 897.87788 -573.610132 
L 895.64201 -573.121196 
L 893.40614 -572.588399 
L 891.17027 -572.013132 
L 888.9344 -571.39722 
L 886.69853 -570.740658 
L 884.46266 -570.043723 
L 882.22679 -569.307041 
L 879.99092 -568.531464 
L 877.75505 -567.716873 
L 875.51918 -566.862208 
L 873.28331 -565.966479 
L 871.04744 -565.028244 
L 868.81157 -564.04485 
L 866.5757 -563.013198 
L 864.33983 -561.930651 
L 862.10396 -560.794143 
L 859.86809 -559.600679 
L 857.63222 -558.348013 
L 855.39635 -557.033872 
L 853.16048 -555.65395 
L 850.92461 -554.205781 
L 848.68874 -552.689003 
L 846.45287 -551.102845 
L 844.217 -549.447333 
L 841.98113 -547.722762 
L 839.74526 -545.930381 
L 837.50939 -544.071615 
L 835.27352 -542.149362 
L 833.03765 -540.166711 
L 830.80178 -538.126436 
L 828.56591 -536.032834 
L 826.33004 -533.888322 
L 824.09417 -531.69351 
L 821.8583 -529.452068 
L 819.62243 -527.167056 
L 817.38656 -524.839621 
L 815.15069 -522.470527 
L 812.91482 -520.061176 
L 810.67895 -517.614025 
L 808.44308 -515.130598 
L 806.20721 -512.611975 
L 803.97134 -510.057846 
L 801.73547 -507.468502 
L 799.4996 -504.845486 
L 797.26373 -502.18953 
L 795.02786 -499.499387 
L 792.79199 -496.773731 
L 790.55612 -494.022204 
L 788.32025 -491.247762 
L 786.08438 -488.449531 
z
"/>
    </defs>
    <g clip-path="url(#p21747caf0c)">
     <use xlink:href="#m9b5dd5905e" x="0" y="669.6" style="fill: #17a899"/>
    </g>
   </g>
   <g id="line2d_27">
    <path d="M 786.08438 531.408668 
L 958.24637 531.408668 
" style="fill: none; stroke: #999999; stroke-linecap: square"/>
   </g>
   <g id="line2d_28">
    <path d="M 786.08438 531.408668 
L 786.08438 528.22151 
" style="fill: none; stroke: #999999; stroke-linecap: square"/>
   </g>
   <g id="line2d_29">
    <path d="M 958.24637 531.408668 
L 958.24637 528.22151 
" style="fill: none; stroke: #999999; stroke-linecap: square"/>
   </g>
   <g id="patch_3">
    <path d="M 63.89837 583.2 
L 63.89837 93.6 
" style="fill: none; stroke: #999999; stroke-linejoin: miter; stroke-linecap: square"/>
   </g>
   <g id="patch_4">
    <path d="M 63.89837 583.2 
L 958.24637 583.2 
" style="fill: none; stroke: #999999; stroke-linejoin: miter; stroke-linecap: square"/>
   </g>
   <g id="line2d_30">
    <path d="M 63.89837 479.798332 
L 86.25707 478.901187 
L 108.61577 477.697681 
L 130.97447 476.792719 
L 153.33317 475.544635 
L 175.69187 473.510769 
L 198.05057 472.117355 
L 220.40927 470.535867 
L 242.76797 467.627837 
L 294.19298 463.948292 
L 309.84407 462.878774 
L 316.55168 462.153988 
L 329.9669 460.410141 
L 356.79734 456.953199 
L 379.15604 454.706351 
L 399.27887 452.701665 
L 405.98648 452.415657 
L 419.4017 451.924039 
L 428.34518 451.378092 
L 441.7604 450.349091 
L 448.46801 449.622343 
L 464.1191 447.513156 
L 470.82671 446.397142 
L 486.4778 443.359034 
L 499.89302 440.882519 
L 508.8365 439.168271 
L 515.54411 437.660317 
L 528.95933 434.222574 
L 535.66694 432.589923 
L 555.78977 428.008204 
L 562.49738 426.064429 
L 573.67673 422.520967 
L 580.38434 420.170506 
L 589.32782 416.705176 
L 602.74304 411.408194 
L 609.45065 409.224199 
L 616.15826 407.058007 
L 618.39413 406.2371 
L 622.86587 404.197491 
L 627.33761 400.572357 
L 631.80935 396.516358 
L 638.51696 389.874181 
L 642.9887 385.359092 
L 647.46044 381.418196 
L 649.69631 379.087402 
L 660.87566 365.142045 
L 665.3474 359.322345 
L 689.94197 326.330683 
L 694.41371 319.754491 
L 701.12132 309.544825 
L 705.59306 302.341729 
L 716.77241 284.165225 
L 723.48002 274.090251 
L 752.54633 230.841355 
L 761.48981 216.628825 
L 770.43329 202.392103 
L 774.90503 195.565676 
L 777.1409 192.323104 
L 779.37677 189.306953 
L 786.08438 181.150469 
L 795.02786 170.100613 
L 801.73547 162.131498 
L 808.44308 154.469402 
L 815.15069 147.129473 
L 821.8583 140.147932 
L 828.56591 133.567166 
L 833.03765 129.433289 
L 837.50939 125.528385 
L 841.98113 121.877238 
L 846.45287 118.497155 
L 850.92461 115.394219 
L 855.39635 112.566128 
L 859.86809 109.999321 
L 864.33983 107.669349 
L 868.81157 105.55515 
L 873.28331 103.633521 
L 877.75505 101.883127 
L 884.46266 99.556277 
L 888.9344 98.20278 
L 893.40614 97.011601 
L 897.87788 95.989868 
L 902.34962 95.146521 
L 906.82136 94.487234 
L 911.2931 94.015437 
L 915.76484 93.725634 
L 920.23658 93.602706 
L 926.94419 93.703857 
L 933.6518 94.109825 
L 940.35941 94.791474 
L 947.06702 95.747812 
L 953.77463 96.979399 
L 958.24637 97.948659 
L 958.24637 97.948659 
" clip-path="url(#p21747caf0c)" style="fill: none; stroke: #000000; stroke-width: 1.6; stroke-linecap: square"/>
   </g>
   <g id="text_17">
    <!-- 595 Million -->
    <g style="fill: #1f2a2a" transform="translate(7.2 462.536883) scale(0.1 -0.1)">
     <defs>
      <path id="DejaVuSans-20" transform="scale(0.015625)"/>
      <path id="DejaVuSans-4d" d="M 628 4666 
L 1569 4666 
L 2759 1491 
L 3956 4666 
L 4897 4666 
L 4897 0 
L 4281 0 
L 4281 4097 
L 3078 897 
L 2444 897 
L 1241 4097 
L 1241 0 
L 628 0 
L 628 4666 
z
" transform="scale(0.015625)"/>
      <path id="DejaVuSans-69" d="M 603 3500 
L 1178 3500 
L 1178 0 
L 603 0 
L 603 3500 
z
M 603 4863 
L 1178 4863 
L 1178 4134 
L 603 4134 
L 603 4863 
z
" transform="scale(0.015625)"/>
      <path id="DejaVuSans-6c" d="M 603 4863 
L 1178 4863 
L 1178 0 
L 603 0 
L 603 4863 
z
" transform="scale(0.015625)"/>
      <path id="DejaVuSans-6f" d="M 1959 3097 
Q 1497 3097 1228 2736 
Q 959 2375 959 1747 
Q 959 1119 1226 758 
Q 1494 397 1959 397 
Q 2419 397 2687 759 
Q 2956 1122 2956 1747 
Q 2956 2369 2687 2733 
Q 2419 3097 1959 3097 
z
M 1959 3584 
Q 2709 3584 3137 3096 
Q 3566 2609 3566 1747 
Q 3566 888 3137 398 
Q 2709 -91 1959 -91 
Q 1206 -91 779 398 
Q 353 888 353 1747 
Q 353 2609 779 3096 
Q 1206 3584 1959 3584 
z
" transform="scale(0.015625)"/>
      <path id="DejaVuSans-6e" d="M 3513 2113 
L 3513 0 
L 2938 0 
L 2938 2094 
Q 2938 2591 2744 2837 
Q 2550 3084 2163 3084 
Q 1697 3084 1428 2787 
Q 1159 2491 1159 1978 
L 1159 0 
L 581 0 
L 581 3500 
L 1159 3500 
L 1159 2956 
Q 1366 3272 1645 3428 
Q 1925 3584 2291 3584 
Q 2894 3584 3203 3211 
Q 3513 2838 3513 2113 
z
" transform="scale(0.015625)"/>
     </defs>
     <use xlink:href="#DejaVuSans-35"/>
     <use xlink:href="#DejaVuSans-39" transform="translate(63.623047 0)"/>
     <use xlink:href="#DejaVuSans-35" transform="translate(127.246094 0)"/>
     <use xlink:href="#DejaVuSans-20" transform="translate(190.869141 0)"/>
     <use xlink:href="#DejaVuSans-4d" transform="translate(222.65625 0)"/>
     <use xlink:href="#DejaVuSans-69" transform="translate(308.935547 0)"/>
     <use xlink:href="#DejaVuSans-6c" transform="translate(336.71875 0)"/>
     <use xlink:href="#DejaVuSans-6c" transform="translate(364.501953 0)"/>
     <use xlink:href="#DejaVuSans-69" transform="translate(392.285156 0)"/>
     <use xlink:href="#DejaVuSans-6f" transform="translate(420.068359 0)"/>
     <use xlink:href="#DejaVuSans-6e" transform="translate(481.25 0)"/>
    </g>
    <!-- in 1700 -->
    <g style="fill: #1f2a2a" transform="translate(23.91875 473.734696) scale(0.1 -0.1)">
     <use xlink:href="#DejaVuSans-69"/>
     <use xlink:href="#DejaVuSans-6e" transform="translate(27.783203 0)"/>
     <use xlink:href="#DejaVuSans-20" transform="translate(91.162109 0)"/>
     <use xlink:href="#DejaVuSans-31" transform="translate(122.949219 0)"/>
     <use xlink:href="#DejaVuSans-37" transform="translate(186.572266 0)"/>
     <use xlink:href="#DejaVuSans-30" transform="translate(250.195312 0)"/>
     <use xlink:href="#DejaVuSans-30" transform="translate(313.818359 0)"/>
    </g>
   </g>
   <g id="text_18">
    <!-- 1 Billion -->
    <g style="fill: #1f2a2a" transform="translate(256.458538 446.407956) scale(0.1 -0.1)">
     <defs>
      <path id="DejaVuSans-42" d="M 1259 2228 
L 1259 519 
L 2272 519 
Q 2781 519 3026 730 
Q 3272 941 3272 1375 
Q 3272 1813 3026 2020 
Q 2781 2228 2272 2228 
L 1259 2228 
z
M 1259 4147 
L 1259 2741 
L 2194 2741 
Q 2656 2741 2882 2914 
Q 3109 3088 3109 3444 
Q 3109 3797 2882 3972 
Q 2656 4147 2194 4147 
L 1259 4147 
z
M 628 4666 
L 2241 4666 
Q 2963 4666 3353 4366 
Q 3744 4066 3744 3513 
Q 3744 3084 3544 2831 
Q 3344 2578 2956 2516 
Q 3422 2416 3680 2098 
Q 3938 1781 3938 1306 
Q 3938 681 3513 340 
Q 3088 0 2303 0 
L 628 0 
L 628 4666 
z
" transform="scale(0.015625)"/>
     </defs>
     <use xlink:href="#DejaVuSans-31"/>
     <use xlink:href="#DejaVuSans-20" transform="translate(63.623047 0)"/>
     <use xlink:href="#DejaVuSans-42" transform="translate(95.410156 0)"/>
     <use xlink:href="#DejaVuSans-69" transform="translate(164.013672 0)"/>
     <use xlink:href="#DejaVuSans-6c" transform="translate(191.796875 0)"/>
     <use xlink:href="#DejaVuSans-6c" transform="translate(219.580078 0)"/>
     <use xlink:href="#DejaVuSans-69" transform="translate(247.363281 0)"/>
     <use xlink:href="#DejaVuSans-6f" transform="translate(275.146484 0)"/>
     <use xlink:href="#DejaVuSans-6e" transform="translate(336.328125 0)"/>
    </g>
    <!-- in 1805 -->
    <g style="fill: #1f2a2a" transform="translate(258.6851 457.605768) scale(0.1 -0.1)">
     <use xlink:href="#DejaVuSans-69"/>
     <use xlink:href="#DejaVuSans-6e" transform="translate(27.783203 0)"/>
     <use xlink:href="#DejaVuSans-20" transform="translate(91.162109 0)"/>
     <use xlink:href="#DejaVuSans-31" transform="translate(122.949219 0)"/>
     <use xlink:href="#DejaVuSans-38" transform="translate(186.572266 0)"/>
     <use xlink:href="#DejaVuSans-30" transform="translate(250.195312 0)"/>
     <use xlink:href="#DejaVuSans-35" transform="translate(313.818359 0)"/>
    </g>
   </g>
   <g id="text_19">
    <!-- 2 Billion -->
    <g style="fill: #1f2a2a" transform="translate(529.234678 405.989042) scale(0.1 -0.1)">
     <use xlink:href="#DejaVuSans-32"/>
     <use xlink:href="#DejaVuSans-20" transform="translate(63.623047 0)"/>
     <use xlink:href="#DejaVuSans-42" transform="translate(95.410156 0)"/>
     <use xlink:href="#DejaVuSans-69" transform="translate(164.013672 0)"/>
     <use xlink:href="#DejaVuSans-6c" transform="translate(191.796875 0)"/>
     <use xlink:href="#DejaVuSans-6c" transform="translate(219.580078 0)"/>
     <use xlink:href="#DejaVuSans-69" transform="translate(247.363281 0)"/>
     <use xlink:href="#DejaVuSans-6f" transform="translate(275.146484 0)"/>
     <use xlink:href="#DejaVuSans-6e" transform="translate(336.328125 0)"/>
    </g>
    <!-- in 1927 -->
    <g style="fill: #1f2a2a" transform="translate(531.46124 417.186855) scale(0.1 -0.1)">
     <use xlink:href="#DejaVuSans-69"/>
     <use xlink:href="#DejaVuSans-6e" transform="translate(27.783203 0)"/>
     <use xlink:href="#DejaVuSans-20" transform="translate(91.162109 0)"/>
     <use xlink:href="#DejaVuSans-31" transform="translate(122.949219 0)"/>
     <use xlink:href="#DejaVuSans-39" transform="translate(186.572266 0)"/>
     <use xlink:href="#DejaVuSans-32" transform="translate(250.195312 0)"/>
     <use xlink:href="#DejaVuSans-37" transform="translate(313.818359 0)"/>
    </g>
   </g>
   <g id="text_20">
    <!-- 5 Billion -->
    <g style="fill: #1f2a2a" transform="translate(663.386878 285.08028) scale(0.1 -0.1)">
     <use xlink:href="#DejaVuSans-35"/>
     <use xlink:href="#DejaVuSans-20" transform="translate(63.623047 0)"/>
     <use xlink:href="#DejaVuSans-42" transform="translate(95.410156 0)"/>
     <use xlink:href="#DejaVuSans-69" transform="translate(164.013672 0)"/>
     <use xlink:href="#DejaVuSans-6c" transform="translate(191.796875 0)"/>
     <use xlink:href="#DejaVuSans-6c" transform="translate(219.580078 0)"/>
     <use xlink:href="#DejaVuSans-69" transform="translate(247.363281 0)"/>
     <use xlink:href="#DejaVuSans-6f" transform="translate(275.146484 0)"/>
     <use xlink:href="#DejaVuSans-6e" transform="translate(336.328125 0)"/>
    </g>
    <!-- in 1987 -->
    <g style="fill: #1f2a2a" transform="translate(665.61344 296.278093) scale(0.1 -0.1)">
     <use xlink:href="#DejaVuSans-69"/>
     <use xlink:href="#DejaVuSans-6e" transform="translate(27.783203 0)"/>
     <use xlink:href="#DejaVuSans-20" transform="translate(91.162109 0)"/>
     <use xlink:href="#DejaVuSans-31" transform="translate(122.949219 0)"/>
     <use xlink:href="#DejaVuSans-39" transform="translate(186.572266 0)"/>
     <use xlink:href="#DejaVuSans-38" transform="translate(250.195312 0)"/>
     <use xlink:href="#DejaVuSans-37" transform="translate(313.818359 0)"/>
    </g>
   </g>
   <g id="text_21">
    <!-- 8 Billion -->
    <g style="fill: #1f2a2a" transform="translate(741.642328 166.690842) scale(0.1 -0.1)">
     <use xlink:href="#DejaVuSans-38"/>
     <use xlink:href="#DejaVuSans-20" transform="translate(63.623047 0)"/>
     <use xlink:href="#DejaVuSans-42" transform="translate(95.410156 0)"/>
     <use xlink:href="#DejaVuSans-69" transform="translate(164.013672 0)"/>
     <use xlink:href="#DejaVuSans-6c" transform="translate(191.796875 0)"/>
     <use xlink:href="#DejaVuSans-6c" transform="translate(219.580078 0)"/>
     <use xlink:href="#DejaVuSans-69" transform="translate(247.363281 0)"/>
     <use xlink:href="#DejaVuSans-6f" transform="translate(275.146484 0)"/>
     <use xlink:href="#DejaVuSans-6e" transform="translate(336.328125 0)"/>
    </g>
    <!-- in 2022 -->
    <g style="fill: #1f2a2a" transform="translate(743.86889 177.888654) scale(0.1 -0.1)">
     <use xlink:href="#DejaVuSans-69"/>
     <use xlink:href="#DejaVuSans-6e" transform="translate(27.783203 0)"/>
     <use xlink:href="#DejaVuSans-20" transform="translate(91.162109 0)"/>
     <use xlink:href="#DejaVuSans-32" transform="translate(122.949219 0)"/>
     <use xlink:href="#DejaVuSans-30" transform="translate(186.572266 0)"/>
     <use xlink:href="#DejaVuSans-32" transform="translate(250.195312 0)"/>
     <use xlink:href="#DejaVuSans-32" transform="translate(313.818359 0)"/>
    </g>
   </g>
   <g id="text_22">
    <!-- 9 Billion -->
    <g style="fill: #1f2a2a" transform="translate(775.180378 127.49893) scale(0.1 -0.1)">
     <use xlink:href="#DejaVuSans-39"/>
     <use xlink:href="#DejaVuSans-20" transform="translate(63.623047 0)"/>
     <use xlink:href="#DejaVuSans-42" transform="translate(95.410156 0)"/>
     <use xlink:href="#DejaVuSans-69" transform="translate(164.013672 0)"/>
     <use xlink:href="#DejaVuSans-6c" transform="translate(191.796875 0)"/>
     <use xlink:href="#DejaVuSans-6c" transform="translate(219.580078 0)"/>
     <use xlink:href="#DejaVuSans-69" transform="translate(247.363281 0)"/>
     <use xlink:href="#DejaVuSans-6f" transform="translate(275.146484 0)"/>
     <use xlink:href="#DejaVuSans-6e" transform="translate(336.328125 0)"/>
    </g>
    <!-- in 2037 -->
    <g style="fill: #1f2a2a" transform="translate(777.40694 138.696743) scale(0.1 -0.1)">
     <use xlink:href="#DejaVuSans-69"/>
     <use xlink:href="#DejaVuSans-6e" transform="translate(27.783203 0)"/>
     <use xlink:href="#DejaVuSans-20" transform="translate(91.162109 0)"/>
     <use xlink:href="#DejaVuSans-32" transform="translate(122.949219 0)"/>
     <use xlink:href="#DejaVuSans-30" transform="translate(186.572266 0)"/>
     <use xlink:href="#DejaVuSans-33" transform="translate(250.195312 0)"/>
     <use xlink:href="#DejaVuSans-37" transform="translate(313.818359 0)"/>
    </g>
   </g>
   <g id="text_23">
    <!-- 10 Billion -->
    <g style="fill: #1f2a2a" transform="translate(822.478758 87.310307) scale(0.1 -0.1)">
     <use xlink:href="#DejaVuSans-31"/>
     <use xlink:href="#DejaVuSans-30" transform="translate(63.623047 0)"/>
     <use xlink:href="#DejaVuSans-20" transform="translate(127.246094 0)"/>
     <use xlink:href="#DejaVuSans-42" transform="translate(159.033203 0)"/>
     <use xlink:href="#DejaVuSans-69" transform="translate(227.636719 0)"/>
     <use xlink:href="#DejaVuSans-6c" transform="translate(255.419922 0)"/>
     <use xlink:href="#DejaVuSans-6c" transform="translate(283.203125 0)"/>
     <use xlink:href="#DejaVuSans-69" transform="translate(310.986328 0)"/>
     <use xlink:href="#DejaVuSans-6f" transform="translate(338.769531 0)"/>
     <use xlink:href="#DejaVuSans-6e" transform="translate(399.951172 0)"/>
    </g>
    <!-- in 2061 -->
    <g style="fill: #1f2a2a" transform="translate(831.06782 98.50812) scale(0.1 -0.1)">
     <use xlink:href="#DejaVuSans-69"/>
     <use xlink:href="#DejaVuSans-6e" transform="translate(27.783203 0)"/>
     <use xlink:href="#DejaVuSans-20" transform="translate(91.162109 0)"/>
     <use xlink:href="#DejaVuSans-32" transform="translate(122.949219 0)"/>
     <use xlink:href="#DejaVuSans-30" transform="translate(186.572266 0)"/>
     <use xlink:href="#DejaVuSans-36" transform="translate(250.195312 0)"/>
     <use xlink:href="#DejaVuSans-31" transform="translate(313.818359 0)"/>
    </g>
   </g>
   <g id="text_24">
    <!-- Projection -->
    <g style="fill: #666666" transform="translate(849.915688 548.207134) scale(0.09 -0.09)">
     <defs>
      <path id="DejaVuSans-50" d="M 1259 4147 
L 1259 2394 
L 2053 2394 
Q 2494 2394 2734 2622 
Q 2975 2850 2975 3272 
Q 2975 3691 2734 3919 
Q 2494 4147 2053 4147 
L 1259 4147 
z
M 628 4666 
L 2053 4666 
Q 2838 4666 3239 4311 
Q 3641 3956 3641 3272 
Q 3641 2581 3239 2228 
Q 2838 1875 2053 1875 
L 1259 1875 
L 1259 0 
L 628 0 
L 628 4666 
z
" transform="scale(0.015625)"/>
      <path id="DejaVuSans-72" d="M 2631 2963 
Q 2534 3019 2420 3045 
Q 2306 3072 2169 3072 
Q 1681 3072 1420 2755 
Q 1159 2438 1159 1844 
L 1159 0 
L 581 0 
L 581 3500 
L 1159 3500 
L 1159 2956 
Q 1341 3275 1631 3429 
Q 1922 3584 2338 3584 
Q 2397 3584 2469 3576 
Q 2541 3569 2628 3553 
L 2631 2963 
z
" transform="scale(0.015625)"/>
      <path id="DejaVuSans-6a" d="M 603 3500 
L 1178 3500 
L 1178 -63 
Q 1178 -731 923 -1031 
Q 669 -1331 103 -1331 
L -116 -1331 
L -116 -844 
L 38 -844 
Q 366 -844 484 -692 
Q 603 -541 603 -63 
L 603 3500 
z
M 603 4863 
L 1178 4863 
L 1178 4134 
L 603 4134 
L 603 4863 
z
" transform="scale(0.015625)"/>
      <path id="DejaVuSans-65" d="M 3597 1894 
L 3597 1613 
L 953 1613 
Q 991 1019 1311 708 
Q 1631 397 2203 397 
Q 2534 397 2845 478 
Q 3156 559 3463 722 
L 3463 178 
Q 3153 47 2828 -22 
Q 2503 -91 2169 -91 
Q 1331 -91 842 396 
Q 353 884 353 1716 
Q 353 2575 817 3079 
Q 1281 3584 2069 3584 
Q 2775 3584 3186 3129 
Q 3597 2675 3597 1894 
z
M 3022 2063 
Q 3016 2534 2758 2815 
Q 2500 3097 2075 3097 
Q 1594 3097 1305 2825 
Q 1016 2553 972 2059 
L 3022 2063 
z
" transform="scale(0.015625)"/>
      <path id="DejaVuSans-63" d="M 3122 3366 
L 3122 2828 
Q 2878 2963 2633 3030 
Q 2388 3097 2138 3097 
Q 1578 3097 1268 2742 
Q 959 2388 959 1747 
Q 959 1106 1268 751 
Q 1578 397 2138 397 
Q 2388 397 2633 464 
Q 2878 531 3122 666 
L 3122 134 
Q 2881 22 2623 -34 
Q 2366 -91 2075 -91 
Q 1284 -91 818 406 
Q 353 903 353 1747 
Q 353 2603 823 3093 
Q 1294 3584 2113 3584 
Q 2378 3584 2631 3529 
Q 2884 3475 3122 3366 
z
" transform="scale(0.015625)"/>
      <path id="DejaVuSans-74" d="M 1172 4494 
L 1172 3500 
L 2356 3500 
L 2356 3053 
L 1172 3053 
L 1172 1153 
Q 1172 725 1289 603 
Q 1406 481 1766 481 
L 2356 481 
L 2356 0 
L 1766 0 
Q 1100 0 847 248 
Q 594 497 594 1153 
L 594 3053 
L 172 3053 
L 172 3500 
L 594 3500 
L 594 4494 
L 1172 4494 
z
" transform="scale(0.015625)"/>
     </defs>
     <use xlink:href="#DejaVuSans-50"/>
     <use xlink:href="#DejaVuSans-72" transform="translate(58.552734 0)"/>
     <use xlink:href="#DejaVuSans-6f" transform="translate(97.416016 0)"/>
     <use xlink:href="#DejaVuSans-6a" transform="translate(158.597656 0)"/>
     <use xlink:href="#DejaVuSans-65" transform="translate(186.380859 0)"/>
     <use xlink:href="#DejaVuSans-63" transform="translate(247.904297 0)"/>
     <use xlink:href="#DejaVuSans-74" transform="translate(302.884766 0)"/>
     <use xlink:href="#DejaVuSans-69" transform="translate(342.09375 0)"/>
     <use xlink:href="#DejaVuSans-6f" transform="translate(369.876953 0)"/>
     <use xlink:href="#DejaVuSans-6e" transform="translate(431.058594 0)"/>
    </g>
    <!-- (UN Medium Fertility Variant) -->
    <g style="fill: #666666" transform="translate(806.847172 558.285165) scale(0.09 -0.09)">
     <defs>
      <path id="DejaVuSans-28" d="M 1984 4856 
Q 1566 4138 1362 3434 
Q 1159 2731 1159 2009 
Q 1159 1288 1364 580 
Q 1569 -128 1984 -844 
L 1484 -844 
Q 1016 -109 783 600 
Q 550 1309 550 2009 
Q 550 2706 781 3412 
Q 1013 4119 1484 4856 
L 1984 4856 
z
" transform="scale(0.015625)"/>
      <path id="DejaVuSans-55" d="M 556 4666 
L 1191 4666 
L 1191 1831 
Q 1191 1081 1462 751 
Q 1734 422 2344 422 
Q 2950 422 3222 751 
Q 3494 1081 3494 1831 
L 3494 4666 
L 4128 4666 
L 4128 1753 
Q 4128 841 3676 375 
Q 3225 -91 2344 -91 
Q 1459 -91 1007 375 
Q 556 841 556 1753 
L 556 4666 
z
" transform="scale(0.015625)"/>
      <path id="DejaVuSans-4e" d="M 628 4666 
L 1478 4666 
L 3547 763 
L 3547 4666 
L 4159 4666 
L 4159 0 
L 3309 0 
L 1241 3903 
L 1241 0 
L 628 0 
L 628 4666 
z
" transform="scale(0.015625)"/>
      <path id="DejaVuSans-64" d="M 2906 2969 
L 2906 4863 
L 3481 4863 
L 3481 0 
L 2906 0 
L 2906 525 
Q 2725 213 2448 61 
Q 2172 -91 1784 -91 
Q 1150 -91 751 415 
Q 353 922 353 1747 
Q 353 2572 751 3078 
Q 1150 3584 1784 3584 
Q 2172 3584 2448 3432 
Q 2725 3281 2906 2969 
z
M 947 1747 
Q 947 1113 1208 752 
Q 1469 391 1925 391 
Q 2381 391 2643 752 
Q 2906 1113 2906 1747 
Q 2906 2381 2643 2742 
Q 2381 3103 1925 3103 
Q 1469 3103 1208 2742 
Q 947 2381 947 1747 
z
" transform="scale(0.015625)"/>
      <path id="DejaVuSans-75" d="M 544 1381 
L 544 3500 
L 1119 3500 
L 1119 1403 
Q 1119 906 1312 657 
Q 1506 409 1894 409 
Q 2359 409 2629 706 
Q 2900 1003 2900 1516 
L 2900 3500 
L 3475 3500 
L 3475 0 
L 2900 0 
L 2900 538 
Q 2691 219 2414 64 
Q 2138 -91 1772 -91 
Q 1169 -91 856 284 
Q 544 659 544 1381 
z
M 1991 3584 
L 1991 3584 
z
" transform="scale(0.015625)"/>
      <path id="DejaVuSans-6d" d="M 3328 2828 
Q 3544 3216 3844 3400 
Q 4144 3584 4550 3584 
Q 5097 3584 5394 3201 
Q 5691 2819 5691 2113 
L 5691 0 
L 5113 0 
L 5113 2094 
Q 5113 2597 4934 2840 
Q 4756 3084 4391 3084 
Q 3944 3084 3684 2787 
Q 3425 2491 3425 1978 
L 3425 0 
L 2847 0 
L 2847 2094 
Q 2847 2600 2669 2842 
Q 2491 3084 2119 3084 
Q 1678 3084 1418 2786 
Q 1159 2488 1159 1978 
L 1159 0 
L 581 0 
L 581 3500 
L 1159 3500 
L 1159 2956 
Q 1356 3278 1631 3431 
Q 1906 3584 2284 3584 
Q 2666 3584 2933 3390 
Q 3200 3197 3328 2828 
z
" transform="scale(0.015625)"/>
      <path id="DejaVuSans-46" d="M 628 4666 
L 3309 4666 
L 3309 4134 
L 1259 4134 
L 1259 2759 
L 3109 2759 
L 3109 2228 
L 1259 2228 
L 1259 0 
L 628 0 
L 628 4666 
z
" transform="scale(0.015625)"/>
      <path id="DejaVuSans-79" d="M 2059 -325 
Q 1816 -950 1584 -1140 
Q 1353 -1331 966 -1331 
L 506 -1331 
L 506 -850 
L 844 -850 
Q 1081 -850 1212 -737 
Q 1344 -625 1503 -206 
L 1606 56 
L 191 3500 
L 800 3500 
L 1894 763 
L 2988 3500 
L 3597 3500 
L 2059 -325 
z
" transform="scale(0.015625)"/>
      <path id="DejaVuSans-56" d="M 1831 0 
L 50 4666 
L 709 4666 
L 2188 738 
L 3669 4666 
L 4325 4666 
L 2547 0 
L 1831 0 
z
" transform="scale(0.015625)"/>
      <path id="DejaVuSans-61" d="M 2194 1759 
Q 1497 1759 1228 1600 
Q 959 1441 959 1056 
Q 959 750 1161 570 
Q 1363 391 1709 391 
Q 2188 391 2477 730 
Q 2766 1069 2766 1631 
L 2766 1759 
L 2194 1759 
z
M 3341 1997 
L 3341 0 
L 2766 0 
L 2766 531 
Q 2569 213 2275 61 
Q 1981 -91 1556 -91 
Q 1019 -91 701 211 
Q 384 513 384 1019 
Q 384 1609 779 1909 
Q 1175 2209 1959 2209 
L 2766 2209 
L 2766 2266 
Q 2766 2663 2505 2880 
Q 2244 3097 1772 3097 
Q 1472 3097 1187 3025 
Q 903 2953 641 2809 
L 641 3341 
Q 956 3463 1253 3523 
Q 1550 3584 1831 3584 
Q 2591 3584 2966 3190 
Q 3341 2797 3341 1997 
z
" transform="scale(0.015625)"/>
      <path id="DejaVuSans-29" d="M 513 4856 
L 1013 4856 
Q 1481 4119 1714 3412 
Q 1947 2706 1947 2009 
Q 1947 1309 1714 600 
Q 1481 -109 1013 -844 
L 513 -844 
Q 928 -128 1133 580 
Q 1338 1288 1338 2009 
Q 1338 2731 1133 3434 
Q 928 4138 513 4856 
z
" transform="scale(0.015625)"/>
     </defs>
     <use xlink:href="#DejaVuSans-28"/>
     <use xlink:href="#DejaVuSans-55" transform="translate(39.013672 0)"/>
     <use xlink:href="#DejaVuSans-4e" transform="translate(112.207031 0)"/>
     <use xlink:href="#DejaVuSans-20" transform="translate(187.011719 0)"/>
     <use xlink:href="#DejaVuSans-4d" transform="translate(218.798828 0)"/>
     <use xlink:href="#DejaVuSans-65" transform="translate(305.078125 0)"/>
     <use xlink:href="#DejaVuSans-64" transform="translate(366.601562 0)"/>
     <use xlink:href="#DejaVuSans-69" transform="translate(430.078125 0)"/>
     <use xlink:href="#DejaVuSans-75" transform="translate(457.861328 0)"/>
     <use xlink:href="#DejaVuSans-6d" transform="translate(521.240234 0)"/>
     <use xlink:href="#DejaVuSans-20" transform="translate(618.652344 0)"/>
     <use xlink:href="#DejaVuSans-46" transform="translate(650.439453 0)"/>
     <use xlink:href="#DejaVuSans-65" transform="translate(702.458984 0)"/>
     <use xlink:href="#DejaVuSans-72" transform="translate(763.982422 0)"/>
     <use xlink:href="#DejaVuSans-74" transform="translate(805.095703 0)"/>
     <use xlink:href="#DejaVuSans-69" transform="translate(844.304688 0)"/>
     <use xlink:href="#DejaVuSans-6c" transform="translate(872.087891 0)"/>
     <use xlink:href="#DejaVuSans-69" transform="translate(899.871094 0)"/>
     <use xlink:href="#DejaVuSans-74" transform="translate(927.654297 0)"/>
     <use xlink:href="#DejaVuSans-79" transform="translate(966.863281 0)"/>
     <use xlink:href="#DejaVuSans-20" transform="translate(1026.042969 0)"/>
     <use xlink:href="#DejaVuSans-56" transform="translate(1057.830078 0)"/>
     <use xlink:href="#DejaVuSans-61" transform="translate(1118.488281 0)"/>
     <use xlink:href="#DejaVuSans-72" transform="translate(1179.767578 0)"/>
     <use xlink:href="#DejaVuSans-69" transform="translate(1220.880859 0)"/>
     <use xlink:href="#DejaVuSans-61" transform="translate(1248.664062 0)"/>
     <use xlink:href="#DejaVuSans-6e" transform="translate(1309.943359 0)"/>
     <use xlink:href="#DejaVuSans-74" transform="translate(1373.322266 0)"/>
     <use xlink:href="#DejaVuSans-29" transform="translate(1412.53125 0)"/>
    </g>
   </g>
   <g id="line2d_31">
    <defs>
     <path id="m3de9ec3b89" d="M 0 2.5 
C 0.663008 2.5 1.29895 2.236584 1.767767 1.767767 
C 2.236584 1.29895 2.5 0.663008 2.5 0 
C 2.5 -0.663008 2.236584 -1.29895 1.767767 -1.767767 
C 1.29895 -2.236584 0.663008 -2.5 0 -2.5 
C -0.663008 -2.5 -1.29895 -2.236584 -1.767767 -1.767767 
C -2.236584 -1.29895 -2.5 -0.663008 -2.5 0 
C -2.5 0.663008 -2.236584 1.29895 -1.767767 1.767767 
C -1.29895 2.236584 -0.663008 2.5 0 2.5 
z
" style="stroke: #000000"/>
    </defs>
    <g clip-path="url(#p21747caf0c)">
     <use xlink:href="#m3de9ec3b89" x="63.89837" y="479.798332" style="stroke: #000000"/>
    </g>
   </g>
   <g id="line2d_32">
    <g clip-path="url(#p21747caf0c)">
     <use xlink:href="#m3de9ec3b89" x="298.66472" y="463.669404" style="stroke: #000000"/>
    </g>
   </g>
   <g id="line2d_33">
    <g clip-path="url(#p21747caf0c)">
     <use xlink:href="#m3de9ec3b89" x="571.44086" y="423.250491" style="stroke: #000000"/>
    </g>
   </g>
   <g id="line2d_34">
    <g clip-path="url(#p21747caf0c)">
     <use xlink:href="#m3de9ec3b89" x="705.59306" y="302.341729" style="stroke: #000000"/>
    </g>
   </g>
   <g id="line2d_35">
    <g clip-path="url(#p21747caf0c)">
     <use xlink:href="#m3de9ec3b89" x="783.84851" y="183.95229" style="stroke: #000000"/>
    </g>
   </g>
   <g id="line2d_36">
    <g clip-path="url(#p21747caf0c)">
     <use xlink:href="#m3de9ec3b89" x="817.38656" y="144.760379" style="stroke: #000000"/>
    </g>
   </g>
   <g id="line2d_37">
    <g clip-path="url(#p21747caf0c)">
     <use xlink:href="#m3de9ec3b89" x="871.04744" y="104.571756" style="stroke: #000000"/>
    </g>
   </g>
  </g>
  <g id="axes_2">
   <g id="matplotlib.axis_3">
    <g id="ytick_7">
     <g id="text_25">
      <!-- 0.0 -->
      <g style="fill: #666666" transform="translate(961.74637 508.080091) scale(0.12 -0.12)">
       <defs>
        <path id="DejaVuSans-2e" d="M 684 794 
L 1344 794 
L 1344 0 
L 684 0 
L 684 794 
z
" transform="scale(0.015625)"/>
       </defs>
       <use xlink:href="#DejaVuSans-30"/>
       <use xlink:href="#DejaVuSans-2e" transform="translate(63.623047 0)"/>
       <use xlink:href="#DejaVuSans-30" transform="translate(95.410156 0)"/>
      </g>
     </g>
    </g>
    <g id="ytick_8">
     <g id="text_26">
      <!-- 0.5 -->
      <g style="fill: #666666" transform="translate(961.74637 418.966824) scale(0.12 -0.12)">
       <use xlink:href="#DejaVuSans-30"/>
       <use xlink:href="#DejaVuSans-2e" transform="translate(63.623047 0)"/>
       <use xlink:href="#DejaVuSans-35" transform="translate(95.410156 0)"/>
      </g>
     </g>
    </g>
    <g id="ytick_9">
     <g id="text_27">
      <!-- 1.0 -->
      <g style="fill: #666666" transform="translate(961.74637 329.853557) scale(0.12 -0.12)">
       <use xlink:href="#DejaVuSans-31"/>
       <use xlink:href="#DejaVuSans-2e" transform="translate(63.623047 0)"/>
       <use xlink:href="#DejaVuSans-30" transform="translate(95.410156 0)"/>
      </g>
     </g>
    </g>
    <g id="ytick_10">
     <g id="text_28">
      <!-- 1.5 -->
      <g style="fill: #666666" transform="translate(961.74637 240.74029) scale(0.12 -0.12)">
       <use xlink:href="#DejaVuSans-31"/>
       <use xlink:href="#DejaVuSans-2e" transform="translate(63.623047 0)"/>
       <use xlink:href="#DejaVuSans-35" transform="translate(95.410156 0)"/>
      </g>
     </g>
    </g>
    <g id="ytick_11">
     <g id="text_29">
      <!-- 2.0 -->
      <g style="fill: #666666" transform="translate(961.74637 151.627023) scale(0.12 -0.12)">
       <use xlink:href="#DejaVuSans-32"/>
       <use xlink:href="#DejaVuSans-2e" transform="translate(63.623047 0)"/>
       <use xlink:href="#DejaVuSans-30" transform="translate(95.410156 0)"/>
      </g>
     </g>
    </g>
    <g id="text_30">
     <!-- Annual growth rate (%) -->
     <g style="fill: #666666" transform="translate(999.948245 408.42) rotate(-90) scale(0.12 -0.12)">
      <defs>
       <path id="DejaVuSans-41" d="M 2188 4044 
L 1331 1722 
L 3047 1722 
L 2188 4044 
z
M 1831 4666 
L 2547 4666 
L 4325 0 
L 3669 0 
L 3244 1197 
L 1141 1197 
L 716 0 
L 50 0 
L 1831 4666 
z
" transform="scale(0.015625)"/>
       <path id="DejaVuSans-67" d="M 2906 1791 
Q 2906 2416 2648 2759 
Q 2391 3103 1925 3103 
Q 1463 3103 1205 2759 
Q 947 2416 947 1791 
Q 947 1169 1205 825 
Q 1463 481 1925 481 
Q 2391 481 2648 825 
Q 2906 1169 2906 1791 
z
M 3481 434 
Q 3481 -459 3084 -895 
Q 2688 -1331 1869 -1331 
Q 1566 -1331 1297 -1286 
Q 1028 -1241 775 -1147 
L 775 -588 
Q 1028 -725 1275 -790 
Q 1522 -856 1778 -856 
Q 2344 -856 2625 -561 
Q 2906 -266 2906 331 
L 2906 616 
Q 2728 306 2450 153 
Q 2172 0 1784 0 
Q 1141 0 747 490 
Q 353 981 353 1791 
Q 353 2603 747 3093 
Q 1141 3584 1784 3584 
Q 2172 3584 2450 3431 
Q 2728 3278 2906 2969 
L 2906 3500 
L 3481 3500 
L 3481 434 
z
" transform="scale(0.015625)"/>
       <path id="DejaVuSans-77" d="M 269 3500 
L 844 3500 
L 1563 769 
L 2278 3500 
L 2956 3500 
L 3675 769 
L 4391 3500 
L 4966 3500 
L 4050 0 
L 3372 0 
L 2619 2869 
L 1863 0 
L 1184 0 
L 269 3500 
z
" transform="scale(0.015625)"/>
       <path id="DejaVuSans-68" d="M 3513 2113 
L 3513 0 
L 2938 0 
L 2938 2094 
Q 2938 2591 2744 2837 
Q 2550 3084 2163 3084 
Q 1697 3084 1428 2787 
Q 1159 2491 1159 1978 
L 1159 0 
L 581 0 
L 581 4863 
L 1159 4863 
L 1159 2956 
Q 1366 3272 1645 3428 
Q 1925 3584 2291 3584 
Q 2894 3584 3203 3211 
Q 3513 2838 3513 2113 
z
" transform="scale(0.015625)"/>
       <path id="DejaVuSans-25" d="M 4653 2053 
Q 4381 2053 4226 1822 
Q 4072 1591 4072 1178 
Q 4072 772 4226 539 
Q 4381 306 4653 306 
Q 4919 306 5073 539 
Q 5228 772 5228 1178 
Q 5228 1588 5073 1820 
Q 4919 2053 4653 2053 
z
M 4653 2450 
Q 5147 2450 5437 2106 
Q 5728 1763 5728 1178 
Q 5728 594 5436 251 
Q 5144 -91 4653 -91 
Q 4153 -91 3862 251 
Q 3572 594 3572 1178 
Q 3572 1766 3864 2108 
Q 4156 2450 4653 2450 
z
M 1428 4353 
Q 1159 4353 1004 4120 
Q 850 3888 850 3481 
Q 850 3069 1003 2837 
Q 1156 2606 1428 2606 
Q 1700 2606 1854 2837 
Q 2009 3069 2009 3481 
Q 2009 3884 1853 4118 
Q 1697 4353 1428 4353 
z
M 4250 4750 
L 4750 4750 
L 1831 -91 
L 1331 -91 
L 4250 4750 
z
M 1428 4750 
Q 1922 4750 2215 4408 
Q 2509 4066 2509 3481 
Q 2509 2891 2217 2550 
Q 1925 2209 1428 2209 
Q 931 2209 642 2551 
Q 353 2894 353 3481 
Q 353 4063 643 4406 
Q 934 4750 1428 4750 
z
" transform="scale(0.015625)"/>
      </defs>
      <use xlink:href="#DejaVuSans-41"/>
      <use xlink:href="#DejaVuSans-6e" transform="translate(68.408203 0)"/>
      <use xlink:href="#DejaVuSans-6e" transform="translate(131.787109 0)"/>
      <use xlink:href="#DejaVuSans-75" transform="translate(195.166016 0)"/>
      <use xlink:href="#DejaVuSans-61" transform="translate(258.544922 0)"/>
      <use xlink:href="#DejaVuSans-6c" transform="translate(319.824219 0)"/>
      <use xlink:href="#DejaVuSans-20" transform="translate(347.607422 0)"/>
      <use xlink:href="#DejaVuSans-67" transform="translate(379.394531 0)"/>
      <use xlink:href="#DejaVuSans-72" transform="translate(442.871094 0)"/>
      <use xlink:href="#DejaVuSans-6f" transform="translate(481.734375 0)"/>
      <use xlink:href="#DejaVuSans-77" transform="translate(542.916016 0)"/>
      <use xlink:href="#DejaVuSans-74" transform="translate(624.703125 0)"/>
      <use xlink:href="#DejaVuSans-68" transform="translate(663.912109 0)"/>
      <use xlink:href="#DejaVuSans-20" transform="translate(727.291016 0)"/>
      <use xlink:href="#DejaVuSans-72" transform="translate(759.078125 0)"/>
      <use xlink:href="#DejaVuSans-61" transform="translate(800.191406 0)"/>
      <use xlink:href="#DejaVuSans-74" transform="translate(861.470703 0)"/>
      <use xlink:href="#DejaVuSans-65" transform="translate(900.679688 0)"/>
      <use xlink:href="#DejaVuSans-20" transform="translate(962.203125 0)"/>
      <use xlink:href="#DejaVuSans-28" transform="translate(993.990234 0)"/>
      <use xlink:href="#DejaVuSans-25" transform="translate(1033.003906 0)"/>
      <use xlink:href="#DejaVuSans-29" transform="translate(1128.023438 0)"/>
     </g>
    </g>
   </g>
   <g id="patch_5">
    <path d="M 958.24637 583.2 
L 958.24637 93.6 
" style="fill: none; stroke: #999999; stroke-linejoin: miter; stroke-linecap: square"/>
   </g>
   <g id="text_31">
    <!-- 2.2% -->
    <g style="fill: #b4358c" transform="translate(667.58327 82.977998) scale(0.12 -0.12)">
     <use xlink:href="#DejaVuSans-32"/>
     <use xlink:href="#DejaVuSans-2e" transform="translate(63.623047 0)"/>
     <use xlink:href="#DejaVuSans-32" transform="translate(95.410156 0)"/>
     <use xlink:href="#DejaVuSans-25" transform="translate(159.033203 0)"/>
    </g>
    <!-- in 1964 -->
    <g style="fill: #b4358c" transform="translate(667.58327 96.415373) scale(0.12 -0.12)">
     <use xlink:href="#DejaVuSans-69"/>
     <use xlink:href="#DejaVuSans-6e" transform="translate(27.783203 0)"/>
     <use xlink:href="#DejaVuSans-20" transform="translate(91.162109 0)"/>
     <use xlink:href="#DejaVuSans-31" transform="translate(122.949219 0)"/>
     <use xlink:href="#DejaVuSans-39" transform="translate(186.572266 0)"/>
     <use xlink:href="#DejaVuSans-36" transform="translate(250.195312 0)"/>
     <use xlink:href="#DejaVuSans-34" transform="translate(313.818359 0)"/>
    </g>
   </g>
   <g id="text_32">
    <!-- 0.9% -->
    <g style="fill: #b4358c" transform="translate(803.97134 344.534396) scale(0.12 -0.12)">
     <use xlink:href="#DejaVuSans-30"/>
     <use xlink:href="#DejaVuSans-2e" transform="translate(63.623047 0)"/>
     <use xlink:href="#DejaVuSans-39" transform="translate(95.410156 0)"/>
     <use xlink:href="#DejaVuSans-25" transform="translate(159.033203 0)"/>
    </g>
    <!-- in 2023 -->
    <g style="fill: #b4358c" transform="translate(803.97134 357.971771) scale(0.12 -0.12)">
     <use xlink:href="#DejaVuSans-69"/>
     <use xlink:href="#DejaVuSans-6e" transform="translate(27.783203 0)"/>
     <use xlink:href="#DejaVuSans-20" transform="translate(91.162109 0)"/>
     <use xlink:href="#DejaVuSans-32" transform="translate(122.949219 0)"/>
     <use xlink:href="#DejaVuSans-30" transform="translate(186.572266 0)"/>
     <use xlink:href="#DejaVuSans-32" transform="translate(250.195312 0)"/>
     <use xlink:href="#DejaVuSans-33" transform="translate(313.818359 0)"/>
    </g>
   </g>
   <g id="text_33">
    <!-- -0.1% -->
    <g style="fill: #b4358c" transform="translate(964.95398 528.752436) scale(0.12 -0.12)">
     <defs>
      <path id="DejaVuSans-2d" d="M 313 2009 
L 1997 2009 
L 1997 1497 
L 313 1497 
L 313 2009 
z
" transform="scale(0.015625)"/>
     </defs>
     <use xlink:href="#DejaVuSans-2d"/>
     <use xlink:href="#DejaVuSans-30" transform="translate(36.083984 0)"/>
     <use xlink:href="#DejaVuSans-2e" transform="translate(99.707031 0)"/>
     <use xlink:href="#DejaVuSans-31" transform="translate(131.494141 0)"/>
     <use xlink:href="#DejaVuSans-25" transform="translate(195.117188 0)"/>
    </g>
   </g>
   <g id="text_34">
    <!-- 0.04% was the average -->
    <g style="fill: #b4358c" transform="translate(75.07772 418.193071) scale(0.1 -0.1)">
     <defs>
      <path id="DejaVuSans-73" d="M 2834 3397 
L 2834 2853 
Q 2591 2978 2328 3040 
Q 2066 3103 1784 3103 
Q 1356 3103 1142 2972 
Q 928 2841 928 2578 
Q 928 2378 1081 2264 
Q 1234 2150 1697 2047 
L 1894 2003 
Q 2506 1872 2764 1633 
Q 3022 1394 3022 966 
Q 3022 478 2636 193 
Q 2250 -91 1575 -91 
Q 1294 -91 989 -36 
Q 684 19 347 128 
L 347 722 
Q 666 556 975 473 
Q 1284 391 1588 391 
Q 1994 391 2212 530 
Q 2431 669 2431 922 
Q 2431 1156 2273 1281 
Q 2116 1406 1581 1522 
L 1381 1569 
Q 847 1681 609 1914 
Q 372 2147 372 2553 
Q 372 3047 722 3315 
Q 1072 3584 1716 3584 
Q 2034 3584 2315 3537 
Q 2597 3491 2834 3397 
z
" transform="scale(0.015625)"/>
      <path id="DejaVuSans-76" d="M 191 3500 
L 800 3500 
L 1894 563 
L 2988 3500 
L 3597 3500 
L 2284 0 
L 1503 0 
L 191 3500 
z
" transform="scale(0.015625)"/>
     </defs>
     <use xlink:href="#DejaVuSans-30"/>
     <use xlink:href="#DejaVuSans-2e" transform="translate(63.623047 0)"/>
     <use xlink:href="#DejaVuSans-30" transform="translate(95.410156 0)"/>
     <use xlink:href="#DejaVuSans-34" transform="translate(159.033203 0)"/>
     <use xlink:href="#DejaVuSans-25" transform="translate(222.65625 0)"/>
     <use xlink:href="#DejaVuSans-20" transform="translate(317.675781 0)"/>
     <use xlink:href="#DejaVuSans-77" transform="translate(349.462891 0)"/>
     <use xlink:href="#DejaVuSans-61" transform="translate(431.25 0)"/>
     <use xlink:href="#DejaVuSans-73" transform="translate(492.529297 0)"/>
     <use xlink:href="#DejaVuSans-20" transform="translate(544.628906 0)"/>
     <use xlink:href="#DejaVuSans-74" transform="translate(576.416016 0)"/>
     <use xlink:href="#DejaVuSans-68" transform="translate(615.625 0)"/>
     <use xlink:href="#DejaVuSans-65" transform="translate(679.003906 0)"/>
     <use xlink:href="#DejaVuSans-20" transform="translate(740.527344 0)"/>
     <use xlink:href="#DejaVuSans-61" transform="translate(772.314453 0)"/>
     <use xlink:href="#DejaVuSans-76" transform="translate(833.59375 0)"/>
     <use xlink:href="#DejaVuSans-65" transform="translate(892.773438 0)"/>
     <use xlink:href="#DejaVuSans-72" transform="translate(954.296875 0)"/>
     <use xlink:href="#DejaVuSans-61" transform="translate(995.410156 0)"/>
     <use xlink:href="#DejaVuSans-67" transform="translate(1056.689453 0)"/>
     <use xlink:href="#DejaVuSans-65" transform="translate(1120.166016 0)"/>
    </g>
    <!-- population growth rate -->
    <g style="fill: #b4358c" transform="translate(75.07772 429.390884) scale(0.1 -0.1)">
     <defs>
      <path id="DejaVuSans-70" d="M 1159 525 
L 1159 -1331 
L 581 -1331 
L 581 3500 
L 1159 3500 
L 1159 2969 
Q 1341 3281 1617 3432 
Q 1894 3584 2278 3584 
Q 2916 3584 3314 3078 
Q 3713 2572 3713 1747 
Q 3713 922 3314 415 
Q 2916 -91 2278 -91 
Q 1894 -91 1617 61 
Q 1341 213 1159 525 
z
M 3116 1747 
Q 3116 2381 2855 2742 
Q 2594 3103 2138 3103 
Q 1681 3103 1420 2742 
Q 1159 2381 1159 1747 
Q 1159 1113 1420 752 
Q 1681 391 2138 391 
Q 2594 391 2855 752 
Q 3116 1113 3116 1747 
z
" transform="scale(0.015625)"/>
     </defs>
     <use xlink:href="#DejaVuSans-70"/>
     <use xlink:href="#DejaVuSans-6f" transform="translate(63.476562 0)"/>
     <use xlink:href="#DejaVuSans-70" transform="translate(124.658203 0)"/>
     <use xlink:href="#DejaVuSans-75" transform="translate(188.134766 0)"/>
     <use xlink:href="#DejaVuSans-6c" transform="translate(251.513672 0)"/>
     <use xlink:href="#DejaVuSans-61" transform="translate(279.296875 0)"/>
     <use xlink:href="#DejaVuSans-74" transform="translate(340.576172 0)"/>
     <use xlink:href="#DejaVuSans-69" transform="translate(379.785156 0)"/>
     <use xlink:href="#DejaVuSans-6f" transform="translate(407.568359 0)"/>
     <use xlink:href="#DejaVuSans-6e" transform="translate(468.75 0)"/>
     <use xlink:href="#DejaVuSans-20" transform="translate(532.128906 0)"/>
     <use xlink:href="#DejaVuSans-67" transform="translate(563.916016 0)"/>
     <use xlink:href="#DejaVuSans-72" transform="translate(627.392578 0)"/>
     <use xlink:href="#DejaVuSans-6f" transform="translate(666.255859 0)"/>
     <use xlink:href="#DejaVuSans-77" transform="translate(727.4375 0)"/>
     <use xlink:href="#DejaVuSans-74" transform="translate(809.224609 0)"/>
     <use xlink:href="#DejaVuSans-68" transform="translate(848.433594 0)"/>
     <use xlink:href="#DejaVuSans-20" transform="translate(911.8125 0)"/>
     <use xlink:href="#DejaVuSans-72" transform="translate(943.599609 0)"/>
     <use xlink:href="#DejaVuSans-61" transform="translate(984.712891 0)"/>
     <use xlink:href="#DejaVuSans-74" transform="translate(1045.992188 0)"/>
     <use xlink:href="#DejaVuSans-65" transform="translate(1085.201172 0)"/>
    </g>
    <!-- between 10,000 BCE -->
    <g style="fill: #b4358c" transform="translate(75.07772 440.588696) scale(0.1 -0.1)">
     <defs>
      <path id="DejaVuSans-62" d="M 3116 1747 
Q 3116 2381 2855 2742 
Q 2594 3103 2138 3103 
Q 1681 3103 1420 2742 
Q 1159 2381 1159 1747 
Q 1159 1113 1420 752 
Q 1681 391 2138 391 
Q 2594 391 2855 752 
Q 3116 1113 3116 1747 
z
M 1159 2969 
Q 1341 3281 1617 3432 
Q 1894 3584 2278 3584 
Q 2916 3584 3314 3078 
Q 3713 2572 3713 1747 
Q 3713 922 3314 415 
Q 2916 -91 2278 -91 
Q 1894 -91 1617 61 
Q 1341 213 1159 525 
L 1159 0 
L 581 0 
L 581 4863 
L 1159 4863 
L 1159 2969 
z
" transform="scale(0.015625)"/>
      <path id="DejaVuSans-2c" d="M 750 794 
L 1409 794 
L 1409 256 
L 897 -744 
L 494 -744 
L 750 256 
L 750 794 
z
" transform="scale(0.015625)"/>
      <path id="DejaVuSans-43" d="M 4122 4306 
L 4122 3641 
Q 3803 3938 3442 4084 
Q 3081 4231 2675 4231 
Q 1875 4231 1450 3742 
Q 1025 3253 1025 2328 
Q 1025 1406 1450 917 
Q 1875 428 2675 428 
Q 3081 428 3442 575 
Q 3803 722 4122 1019 
L 4122 359 
Q 3791 134 3420 21 
Q 3050 -91 2638 -91 
Q 1578 -91 968 557 
Q 359 1206 359 2328 
Q 359 3453 968 4101 
Q 1578 4750 2638 4750 
Q 3056 4750 3426 4639 
Q 3797 4528 4122 4306 
z
" transform="scale(0.015625)"/>
      <path id="DejaVuSans-45" d="M 628 4666 
L 3578 4666 
L 3578 4134 
L 1259 4134 
L 1259 2753 
L 3481 2753 
L 3481 2222 
L 1259 2222 
L 1259 531 
L 3634 531 
L 3634 0 
L 628 0 
L 628 4666 
z
" transform="scale(0.015625)"/>
     </defs>
     <use xlink:href="#DejaVuSans-62"/>
     <use xlink:href="#DejaVuSans-65" transform="translate(63.476562 0)"/>
     <use xlink:href="#DejaVuSans-74" transform="translate(125 0)"/>
     <use xlink:href="#DejaVuSans-77" transform="translate(164.208984 0)"/>
     <use xlink:href="#DejaVuSans-65" transform="translate(245.996094 0)"/>
     <use xlink:href="#DejaVuSans-65" transform="translate(307.519531 0)"/>
     <use xlink:href="#DejaVuSans-6e" transform="translate(369.042969 0)"/>
     <use xlink:href="#DejaVuSans-20" transform="translate(432.421875 0)"/>
     <use xlink:href="#DejaVuSans-31" transform="translate(464.208984 0)"/>
     <use xlink:href="#DejaVuSans-30" transform="translate(527.832031 0)"/>
     <use xlink:href="#DejaVuSans-2c" transform="translate(591.455078 0)"/>
     <use xlink:href="#DejaVuSans-30" transform="translate(623.242188 0)"/>
     <use xlink:href="#DejaVuSans-30" transform="translate(686.865234 0)"/>
     <use xlink:href="#DejaVuSans-30" transform="translate(750.488281 0)"/>
     <use xlink:href="#DejaVuSans-20" transform="translate(814.111328 0)"/>
     <use xlink:href="#DejaVuSans-42" transform="translate(845.898438 0)"/>
     <use xlink:href="#DejaVuSans-43" transform="translate(912.751953 0)"/>
     <use xlink:href="#DejaVuSans-45" transform="translate(982.576172 0)"/>
    </g>
    <!-- and 1700 -->
    <g style="fill: #b4358c" transform="translate(75.07772 451.786509) scale(0.1 -0.1)">
     <use xlink:href="#DejaVuSans-61"/>
     <use xlink:href="#DejaVuSans-6e" transform="translate(61.279297 0)"/>
     <use xlink:href="#DejaVuSans-64" transform="translate(124.658203 0)"/>
     <use xlink:href="#DejaVuSans-20" transform="translate(188.134766 0)"/>
     <use xlink:href="#DejaVuSans-31" transform="translate(219.921875 0)"/>
     <use xlink:href="#DejaVuSans-37" transform="translate(283.544922 0)"/>
     <use xlink:href="#DejaVuSans-30" transform="translate(347.167969 0)"/>
     <use xlink:href="#DejaVuSans-30" transform="translate(410.791016 0)"/>
    </g>
   </g>
   <g id="line2d_38">
    <path d="M 63.89837 496.079696 
L 287.48537 427.894812 
L 511.07237 371.90511 
L 522.25172 352.849444 
L 533.43107 364.946486 
L 544.61042 384.068167 
L 555.78977 363.794158 
L 566.96912 344.869718 
L 578.14847 333.576256 
L 589.32782 320.623142 
L 600.50717 337.08146 
L 611.68652 370.342135 
L 622.86587 322.672187 
L 625.10174 192.881616 
L 627.33761 175.254857 
L 629.57348 161.826217 
L 631.80935 156.51369 
L 634.04522 146.675994 
L 636.28109 148.086738 
L 638.51696 142.460769 
L 640.75283 140.916577 
L 642.9887 171.751005 
L 645.22457 208.404689 
L 647.46044 213.919877 
L 649.69631 166.514621 
L 651.93218 111.657944 
L 654.16805 107.822324 
L 656.40392 125.143993 
L 658.63979 135.831824 
L 660.87566 143.960494 
L 665.3474 133.833029 
L 667.58327 137.062229 
L 672.05501 152.102021 
L 674.29088 155.180722 
L 676.52675 163.090808 
L 678.76262 175.126932 
L 680.99849 184.543352 
L 683.23436 189.70274 
L 685.47023 192.57364 
L 687.7061 188.89405 
L 689.94197 183.831094 
L 692.17784 181.181146 
L 694.41371 176.375305 
L 696.64958 179.395756 
L 698.88545 184.462975 
L 701.12132 183.044911 
L 703.35719 180.215236 
L 705.59306 176.994022 
L 707.82893 180.884024 
L 710.0648 185.963594 
L 712.30067 188.40421 
L 714.53654 201.897947 
L 716.77241 218.821962 
L 719.00828 228.712768 
L 721.24415 237.747898 
L 723.48002 243.753412 
L 725.71589 247.945787 
L 730.18763 257.716646 
L 732.4235 262.053556 
L 734.65937 263.09508 
L 736.89524 264.765649 
L 739.13111 269.157983 
L 741.36698 272.651171 
L 743.60285 274.548869 
L 745.83872 275.894095 
L 748.07459 276.388154 
L 750.31046 275.619721 
L 752.54633 275.132223 
L 754.7822 275.039889 
L 757.01807 276.264306 
L 759.25394 278.559404 
L 761.48981 278.672899 
L 763.72568 280.710655 
L 765.96155 285.317074 
L 768.19742 290.215473 
L 770.43329 294.655073 
L 772.66916 299.403611 
L 777.1409 316.84101 
L 779.37677 331.614385 
L 781.61264 351.755434 
L 783.84851 354.121752 
L 786.08438 347.941833 
L 788.32025 349.48492 
L 795.02786 357.225024 
L 799.4996 363.239373 
L 810.67895 377.165643 
L 817.38656 385.437894 
L 826.33004 396.850139 
L 833.03765 406.050215 
L 837.50939 412.654039 
L 844.217 423.165468 
L 850.92461 433.734649 
L 855.39635 440.502567 
L 857.63222 443.713068 
L 862.10396 449.550692 
L 866.5757 454.847441 
L 871.04744 459.534653 
L 875.51918 463.643788 
L 879.99092 467.410225 
L 893.40614 478.281645 
L 900.11375 484.092276 
L 915.76484 498.177144 
L 920.23658 501.715564 
L 924.70832 505.008366 
L 929.18006 508.021106 
L 935.88767 512.11349 
L 944.83115 517.431986 
L 953.77463 522.82645 
L 958.24637 525.441186 
L 958.24637 525.441186 
" clip-path="url(#p21747caf0c)" style="fill: none; stroke: #b4358c; stroke-width: 2.5; stroke-linecap: square"/>
   </g>
  </g>
  <g id="patch_6">
   <path d="M 78.64037 73.44 
L 108.12437 73.44 
L 108.12437 60.48 
L 78.64037 60.48 
z
" style="fill: #17a899"/>
  </g>
  <g id="line2d_39">
   <path d="M 78.64037 46.8 
L 108.12437 46.8 
" style="fill: none; stroke: #b4358c; stroke-width: 3; stroke-linecap: square"/>
  </g>
  <g id="text_35">
   <!-- World population growth, 1700-2100 -->
   <g transform="translate(73.72637 29.995312) scale(0.3 -0.3)">
    <defs>
     <path id="DejaVuSans-57" d="M 213 4666 
L 850 4666 
L 1831 722 
L 2809 4666 
L 3519 4666 
L 4500 722 
L 5478 4666 
L 6119 4666 
L 4947 0 
L 4153 0 
L 3169 4050 
L 2175 0 
L 1381 0 
L 213 4666 
z
" transform="scale(0.015625)"/>
    </defs>
    <use xlink:href="#DejaVuSans-57"/>
    <use xlink:href="#DejaVuSans-6f" transform="translate(93.001953 0)"/>
    <use xlink:href="#DejaVuSans-72" transform="translate(154.183594 0)"/>
    <use xlink:href="#DejaVuSans-6c" transform="translate(195.296875 0)"/>
    <use xlink:href="#DejaVuSans-64" transform="translate(223.080078 0)"/>
    <use xlink:href="#DejaVuSans-20" transform="translate(286.556641 0)"/>
    <use xlink:href="#DejaVuSans-70" transform="translate(318.34375 0)"/>
    <use xlink:href="#DejaVuSans-6f" transform="translate(381.820312 0)"/>
    <use xlink:href="#DejaVuSans-70" transform="translate(443.001953 0)"/>
    <use xlink:href="#DejaVuSans-75" transform="translate(506.478516 0)"/>
    <use xlink:href="#DejaVuSans-6c" transform="translate(569.857422 0)"/>
    <use xlink:href="#DejaVuSans-61" transform="translate(597.640625 0)"/>
    <use xlink:href="#DejaVuSans-74" transform="translate(658.919922 0)"/>
    <use xlink:href="#DejaVuSans-69" transform="translate(698.128906 0)"/>
    <use xlink:href="#DejaVuSans-6f" transform="translate(725.912109 0)"/>
    <use xlink:href="#DejaVuSans-6e" transform="translate(787.09375 0)"/>
    <use xlink:href="#DejaVuSans-20" transform="translate(850.472656 0)"/>
    <use xlink:href="#DejaVuSans-67" transform="translate(882.259766 0)"/>
    <use xlink:href="#DejaVuSans-72" transform="translate(945.736328 0)"/>
    <use xlink:href="#DejaVuSans-6f" transform="translate(984.599609 0)"/>
    <use xlink:href="#DejaVuSans-77" transform="translate(1045.78125 0)"/>
    <use xlink:href="#DejaVuSans-74" transform="translate(1127.568359 0)"/>
    <use xlink:href="#DejaVuSans-68" transform="translate(1166.777344 0)"/>
    <use xlink:href="#DejaVuSans-2c" transform="translate(1230.15625 0)"/>
    <use xlink:href="#DejaVuSans-20" transform="translate(1261.943359 0)"/>
    <use xlink:href="#DejaVuSans-31" transform="translate(1293.730469 0)"/>
    <use xlink:href="#DejaVuSans-37" transform="translate(1357.353516 0)"/>
    <use xlink:href="#DejaVuSans-30" transform="translate(1420.976562 0)"/>
    <use xlink:href="#DejaVuSans-30" transform="translate(1484.599609 0)"/>
    <use xlink:href="#DejaVuSans-2d" transform="translate(1548.222656 0)"/>
    <use xlink:href="#DejaVuSans-32" transform="translate(1584.306641 0)"/>
    <use xlink:href="#DejaVuSans-31" transform="translate(1647.929688 0)"/>
    <use xlink:href="#DejaVuSans-30" transform="translate(1711.552734 0)"/>
    <use xlink:href="#DejaVuSans-30" transform="translate(1775.175781 0)"/>
   </g>
  </g>
  <g id="text_36">
   <!-- Annual growth rate of the world population -->
   <g style="fill: #b4358c" transform="translate(113.03837 50.939062) scale(0.15 -0.15)">
    <defs>
     <path id="DejaVuSans-66" d="M 2375 4863 
L 2375 4384 
L 1825 4384 
Q 1516 4384 1395 4259 
Q 1275 4134 1275 3809 
L 1275 3500 
L 2222 3500 
L 2222 3053 
L 1275 3053 
L 1275 0 
L 697 0 
L 697 3053 
L 147 3053 
L 147 3500 
L 697 3500 
L 697 3744 
Q 697 4328 969 4595 
Q 1241 4863 1831 4863 
L 2375 4863 
z
" transform="scale(0.015625)"/>
    </defs>
    <use xlink:href="#DejaVuSans-41"/>
    <use xlink:href="#DejaVuSans-6e" transform="translate(68.408203 0)"/>
    <use xlink:href="#DejaVuSans-6e" transform="translate(131.787109 0)"/>
    <use xlink:href="#DejaVuSans-75" transform="translate(195.166016 0)"/>
    <use xlink:href="#DejaVuSans-61" transform="translate(258.544922 0)"/>
    <use xlink:href="#DejaVuSans-6c" transform="translate(319.824219 0)"/>
    <use xlink:href="#DejaVuSans-20" transform="translate(347.607422 0)"/>
    <use xlink:href="#DejaVuSans-67" transform="translate(379.394531 0)"/>
    <use xlink:href="#DejaVuSans-72" transform="translate(442.871094 0)"/>
    <use xlink:href="#DejaVuSans-6f" transform="translate(481.734375 0)"/>
    <use xlink:href="#DejaVuSans-77" transform="translate(542.916016 0)"/>
    <use xlink:href="#DejaVuSans-74" transform="translate(624.703125 0)"/>
    <use xlink:href="#DejaVuSans-68" transform="translate(663.912109 0)"/>
    <use xlink:href="#DejaVuSans-20" transform="translate(727.291016 0)"/>
    <use xlink:href="#DejaVuSans-72" transform="translate(759.078125 0)"/>
    <use xlink:href="#DejaVuSans-61" transform="translate(800.191406 0)"/>
    <use xlink:href="#DejaVuSans-74" transform="translate(861.470703 0)"/>
    <use xlink:href="#DejaVuSans-65" transform="translate(900.679688 0)"/>
    <use xlink:href="#DejaVuSans-20" transform="translate(962.203125 0)"/>
    <use xlink:href="#DejaVuSans-6f" transform="translate(993.990234 0)"/>
    <use xlink:href="#DejaVuSans-66" transform="translate(1055.171875 0)"/>
    <use xlink:href="#DejaVuSans-20" transform="translate(1090.376953 0)"/>
    <use xlink:href="#DejaVuSans-74" transform="translate(1122.164062 0)"/>
    <use xlink:href="#DejaVuSans-68" transform="translate(1161.373047 0)"/>
    <use xlink:href="#DejaVuSans-65" transform="translate(1224.751953 0)"/>
    <use xlink:href="#DejaVuSans-20" transform="translate(1286.275391 0)"/>
    <use xlink:href="#DejaVuSans-77" transform="translate(1318.0625 0)"/>
    <use xlink:href="#DejaVuSans-6f" transform="translate(1399.849609 0)"/>
    <use xlink:href="#DejaVuSans-72" transform="translate(1461.03125 0)"/>
    <use xlink:href="#DejaVuSans-6c" transform="translate(1502.144531 0)"/>
    <use xlink:href="#DejaVuSans-64" transform="translate(1529.927734 0)"/>
    <use xlink:href="#DejaVuSans-20" transform="translate(1593.404297 0)"/>
    <use xlink:href="#DejaVuSans-70" transform="translate(1625.191406 0)"/>
    <use xlink:href="#DejaVuSans-6f" transform="translate(1688.667969 0)"/>
    <use xlink:href="#DejaVuSans-70" transform="translate(1749.849609 0)"/>
    <use xlink:href="#DejaVuSans-75" transform="translate(1813.326172 0)"/>
    <use xlink:href="#DejaVuSans-6c" transform="translate(1876.705078 0)"/>
    <use xlink:href="#DejaVuSans-61" transform="translate(1904.488281 0)"/>
    <use xlink:href="#DejaVuSans-74" transform="translate(1965.767578 0)"/>
    <use xlink:href="#DejaVuSans-69" transform="translate(2004.976562 0)"/>
    <use xlink:href="#DejaVuSans-6f" transform="translate(2032.759766 0)"/>
    <use xlink:href="#DejaVuSans-6e" transform="translate(2093.941406 0)"/>
   </g>
  </g>
  <g id="text_37">
   <!-- World population -->
   <g style="fill: #17a899" transform="translate(113.03837 71.099062) scale(0.15 -0.15)">
    <use xlink:href="#DejaVuSans-57"/>
    <use xlink:href="#DejaVuSans-6f" transform="translate(93.001953 0)"/>
    <use xlink:href="#DejaVuSans-72" transform="translate(154.183594 0)"/>
    <use xlink:href="#DejaVuSans-6c" transform="translate(195.296875 0)"/>
    <use xlink:href="#DejaVuSans-64" transform="translate(223.080078 0)"/>
    <use xlink:href="#DejaVuSans-20" transform="translate(286.556641 0)"/>
    <use xlink:href="#DejaVuSans-70" transform="translate(318.34375 0)"/>
    <use xlink:href="#DejaVuSans-6f" transform="translate(381.820312 0)"/>
    <use xlink:href="#DejaVuSans-70" transform="translate(443.001953 0)"/>
    <use xlink:href="#DejaVuSans-75" transform="translate(506.478516 0)"/>
    <use xlink:href="#DejaVuSans-6c" transform="translate(569.857422 0)"/>
    <use xlink:href="#DejaVuSans-61" transform="translate(597.640625 0)"/>
    <use xlink:href="#DejaVuSans-74" transform="translate(658.919922 0)"/>
    <use xlink:href="#DejaVuSans-69" transform="translate(698.128906 0)"/>
    <use xlink:href="#DejaVuSans-6f" transform="translate(725.912109 0)"/>
    <use xlink:href="#DejaVuSans-6e" transform="translate(787.09375 0)"/>
   </g>
  </g>
  <g id="text_38">
   <!-- Data sources: Population (2024) -->
   <g style="fill: #666666" transform="translate(73.72637 650.45025) scale(0.09 -0.09)">
    <defs>
     <path id="DejaVuSans-44" d="M 1259 4147 
L 1259 519 
L 2022 519 
Q 2988 519 3436 956 
Q 3884 1394 3884 2338 
Q 3884 3275 3436 3711 
Q 2988 4147 2022 4147 
L 1259 4147 
z
M 628 4666 
L 1925 4666 
Q 3281 4666 3915 4102 
Q 4550 3538 4550 2338 
Q 4550 1131 3912 565 
Q 3275 0 1925 0 
L 628 0 
L 628 4666 
z
" transform="scale(0.015625)"/>
     <path id="DejaVuSans-3a" d="M 750 794 
L 1409 794 
L 1409 0 
L 750 0 
L 750 794 
z
M 750 3309 
L 1409 3309 
L 1409 2516 
L 750 2516 
L 750 3309 
z
" transform="scale(0.015625)"/>
    </defs>
    <use xlink:href="#DejaVuSans-44"/>
    <use xlink:href="#DejaVuSans-61" transform="translate(77.001953 0)"/>
    <use xlink:href="#DejaVuSans-74" transform="translate(138.28125 0)"/>
    <use xlink:href="#DejaVuSans-61" transform="translate(177.490234 0)"/>
    <use xlink:href="#DejaVuSans-20" transform="translate(238.769531 0)"/>
    <use xlink:href="#DejaVuSans-73" transform="translate(270.556641 0)"/>
    <use xlink:href="#DejaVuSans-6f" transform="translate(322.65625 0)"/>
    <use xlink:href="#DejaVuSans-75" transform="translate(383.837891 0)"/>
    <use xlink:href="#DejaVuSans-72" transform="translate(447.216797 0)"/>
    <use xlink:href="#DejaVuSans-63" transform="translate(486.080078 0)"/>
    <use xlink:href="#DejaVuSans-65" transform="translate(541.060547 0)"/>
    <use xlink:href="#DejaVuSans-73" transform="translate(602.583984 0)"/>
    <use xlink:href="#DejaVuSans-3a" transform="translate(654.683594 0)"/>
    <use xlink:href="#DejaVuSans-20" transform="translate(688.375 0)"/>
    <use xlink:href="#DejaVuSans-50" transform="translate(720.162109 0)"/>
    <use xlink:href="#DejaVuSans-6f" transform="translate(776.839844 0)"/>
    <use xlink:href="#DejaVuSans-70" transform="translate(838.021484 0)"/>
    <use xlink:href="#DejaVuSans-75" transform="translate(901.498047 0)"/>
    <use xlink:href="#DejaVuSans-6c" transform="translate(964.876953 0)"/>
    <use xlink:href="#DejaVuSans-61" transform="translate(992.660156 0)"/>
    <use xlink:href="#DejaVuSans-74" transform="translate(1053.939453 0)"/>
    <use xlink:href="#DejaVuSans-69" transform="translate(1093.148438 0)"/>
    <use xlink:href="#DejaVuSans-6f" transform="translate(1120.931641 0)"/>
    <use xlink:href="#DejaVuSans-6e" transform="translate(1182.113281 0)"/>
    <use xlink:href="#DejaVuSans-20" transform="translate(1245.492188 0)"/>
    <use xlink:href="#DejaVuSans-28" transform="translate(1277.279297 0)"/>
    <use xlink:href="#DejaVuSans-32" transform="translate(1316.292969 0)"/>
    <use xlink:href="#DejaVuSans-30" transform="translate(1379.916016 0)"/>
    <use xlink:href="#DejaVuSans-32" transform="translate(1443.539062 0)"/>
    <use xlink:href="#DejaVuSans-34" transform="translate(1507.162109 0)"/>
    <use xlink:href="#DejaVuSans-29" transform="translate(1570.785156 0)"/>
   </g>
   <!-- This is a visualization from OurWorldInData.org, where you find data and research on how the world is changing. -->
   <g style="fill: #666666" transform="translate(73.72637 660.528281) scale(0.09 -0.09)">
    <defs>
     <path id="DejaVuSans-54" d="M -19 4666 
L 3928 4666 
L 3928 4134 
L 2272 4134 
L 2272 0 
L 1638 0 
L 1638 4134 
L -19 4134 
L -19 4666 
z
" transform="scale(0.015625)"/>
     <path id="DejaVuSans-7a" d="M 353 3500 
L 3084 3500 
L 3084 2975 
L 922 459 
L 3084 459 
L 3084 0 
L 275 0 
L 275 525 
L 2438 3041 
L 353 3041 
L 353 3500 
z
" transform="scale(0.015625)"/>
     <path id="DejaVuSans-4f" d="M 2522 4238 
Q 1834 4238 1429 3725 
Q 1025 3213 1025 2328 
Q 1025 1447 1429 934 
Q 1834 422 2522 422 
Q 3209 422 3611 934 
Q 4013 1447 4013 2328 
Q 4013 3213 3611 3725 
Q 3209 4238 2522 4238 
z
M 2522 4750 
Q 3503 4750 4090 4092 
Q 4678 3434 4678 2328 
Q 4678 1225 4090 567 
Q 3503 -91 2522 -91 
Q 1538 -91 948 565 
Q 359 1222 359 2328 
Q 359 3434 948 4092 
Q 1538 4750 2522 4750 
z
" transform="scale(0.015625)"/>
     <path id="DejaVuSans-49" d="M 628 4666 
L 1259 4666 
L 1259 0 
L 628 0 
L 628 4666 
z
" transform="scale(0.015625)"/>
    </defs>
    <use xlink:href="#DejaVuSans-54"/>
    <use xlink:href="#DejaVuSans-68" transform="translate(61.083984 0)"/>
    <use xlink:href="#DejaVuSans-69" transform="translate(124.462891 0)"/>
    <use xlink:href="#DejaVuSans-73" transform="translate(152.246094 0)"/>
    <use xlink:href="#DejaVuSans-20" transform="translate(204.345703 0)"/>
    <use xlink:href="#DejaVuSans-69" transform="translate(236.132812 0)"/>
    <use xlink:href="#DejaVuSans-73" transform="translate(263.916016 0)"/>
    <use xlink:href="#DejaVuSans-20" transform="translate(316.015625 0)"/>
    <use xlink:href="#DejaVuSans-61" transform="translate(347.802734 0)"/>
    <use xlink:href="#DejaVuSans-20" transform="translate(409.082031 0)"/>
    <use xlink:href="#DejaVuSans-76" transform="translate(440.869141 0)"/>
    <use xlink:href="#DejaVuSans-69" transform="translate(500.048828 0)"/>
    <use xlink:href="#DejaVuSans-73" transform="translate(527.832031 0)"/>
    <use xlink:href="#DejaVuSans-75" transform="translate(579.931641 0)"/>
    <use xlink:href="#DejaVuSans-61" transform="translate(643.310547 0)"/>
    <use xlink:href="#DejaVuSans-6c" transform="translate(704.589844 0)"/>
    <use xlink:href="#DejaVuSans-69" transform="translate(732.373047 0)"/>
    <use xlink:href="#DejaVuSans-7a" transform="translate(760.15625 0)"/>
    <use xlink:href="#DejaVuSans-61" transform="translate(812.646484 0)"/>
    <use xlink:href="#DejaVuSans-74" transform="translate(873.925781 0)"/>
    <use xlink:href="#DejaVuSans-69" transform="translate(913.134766 0)"/>
    <use xlink:href="#DejaVuSans-6f" transform="translate(940.917969 0)"/>
    <use xlink:href="#DejaVuSans-6e" transform="translate(1002.099609 0)"/>
    <use xlink:href="#DejaVuSans-20" transform="translate(1065.478516 0)"/>
    <use xlink:href="#DejaVuSans-66" transform="translate(1097.265625 0)"/>
    <use xlink:href="#DejaVuSans-72" transform="translate(1132.470703 0)"/>
    <use xlink:href="#DejaVuSans-6f" transform="translate(1171.333984 0)"/>
    <use xlink:href="#DejaVuSans-6d" transform="translate(1232.515625 0)"/>
    <use xlink:href="#DejaVuSans-20" transform="translate(1329.927734 0)"/>
    <use xlink:href="#DejaVuSans-4f" transform="translate(1361.714844 0)"/>
    <use xlink:href="#DejaVuSans-75" transform="translate(1440.425781 0)"/>
    <use xlink:href="#DejaVuSans-72" transform="translate(1503.804688 0)"/>
    <use xlink:href="#DejaVuSans-57" transform="translate(1544.917969 0)"/>
    <use xlink:href="#DejaVuSans-6f" transform="translate(1637.919922 0)"/>
    <use xlink:href="#DejaVuSans-72" transform="translate(1699.101562 0)"/>
    <use xlink:href="#DejaVuSans-6c" transform="translate(1740.214844 0)"/>
    <use xlink:href="#DejaVuSans-64" transform="translate(1767.998047 0)"/>
    <use xlink:href="#DejaVuSans-49" transform="translate(1831.474609 0)"/>
    <use xlink:href="#DejaVuSans-6e" transform="translate(1860.966797 0)"/>
    <use xlink:href="#DejaVuSans-44" transform="translate(1924.345703 0)"/>
    <use xlink:href="#DejaVuSans-61" transform="translate(2001.347656 0)"/>
    <use xlink:href="#DejaVuSans-74" transform="translate(2062.626953 0)"/>
    <use xlink:href="#DejaVuSans-61" transform="translate(2101.835938 0)"/>
    <use xlink:href="#DejaVuSans-2e" transform="translate(2163.115234 0)"/>
    <use xlink:href="#DejaVuSans-6f" transform="translate(2194.902344 0)"/>
    <use xlink:href="#DejaVuSans-72" transform="translate(2256.083984 0)"/>
    <use xlink:href="#DejaVuSans-67" transform="translate(2295.447266 0)"/>
    <use xlink:href="#DejaVuSans-2c" transform="translate(2358.923828 0)"/>
    <use xlink:href="#DejaVuSans-20" transform="translate(2390.710938 0)"/>
    <use xlink:href="#DejaVuSans-77" transform="translate(2422.498047 0)"/>
    <use xlink:href="#DejaVuSans-68" transform="translate(2504.285156 0)"/>
    <use xlink:href="#DejaVuSans-65" transform="translate(2567.664062 0)"/>
    <use xlink:href="#DejaVuSans-72" transform="translate(2629.1875 0)"/>
    <use xlink:href="#DejaVuSans-65" transform="translate(2668.050781 0)"/>
    <use xlink:href="#DejaVuSans-20" transform="translate(2729.574219 0)"/>
    <use xlink:href="#DejaVuSans-79" transform="translate(2761.361328 0)"/>
    <use xlink:href="#DejaVuSans-6f" transform="translate(2820.541016 0)"/>
    <use xlink:href="#DejaVuSans-75" transform="translate(2881.722656 0)"/>
    <use xlink:href="#DejaVuSans-20" transform="translate(2945.101562 0)"/>
    <use xlink:href="#DejaVuSans-66" transform="translate(2976.888672 0)"/>
    <use xlink:href="#DejaVuSans-69" transform="translate(3012.09375 0)"/>
    <use xlink:href="#DejaVuSans-6e" transform="translate(3039.876953 0)"/>
    <use xlink:href="#DejaVuSans-64" transform="translate(3103.255859 0)"/>
    <use xlink:href="#DejaVuSans-20" transform="translate(3166.732422 0)"/>
    <use xlink:href="#DejaVuSans-64" transform="translate(3198.519531 0)"/>
    <use xlink:href="#DejaVuSans-61" transform="translate(3261.996094 0)"/>
    <use xlink:href="#DejaVuSans-74" transform="translate(3323.275391 0)"/>
    <use xlink:href="#DejaVuSans-61" transform="translate(3362.484375 0)"/>
    <use xlink:href="#DejaVuSans-20" transform="translate(3423.763672 0)"/>
    <use xlink:href="#DejaVuSans-61" transform="translate(3455.550781 0)"/>
    <use xlink:href="#DejaVuSans-6e" transform="translate(3516.830078 0)"/>
    <use xlink:href="#DejaVuSans-64" transform="translate(3580.208984 0)"/>
    <use xlink:href="#DejaVuSans-20" transform="translate(3643.685547 0)"/>
    <use xlink:href="#DejaVuSans-72" transform="translate(3675.472656 0)"/>
    <use xlink:href="#DejaVuSans-65" transform="translate(3714.335938 0)"/>
    <use xlink:href="#DejaVuSans-73" transform="translate(3775.859375 0)"/>
    <use xlink:href="#DejaVuSans-65" transform="translate(3827.958984 0)"/>
    <use xlink:href="#DejaVuSans-61" transform="translate(3889.482422 0)"/>
    <use xlink:href="#DejaVuSans-72" transform="translate(3950.761719 0)"/>
    <use xlink:href="#DejaVuSans-63" transform="translate(3989.625 0)"/>
    <use xlink:href="#DejaVuSans-68" transform="translate(4044.605469 0)"/>
    <use xlink:href="#DejaVuSans-20" transform="translate(4107.984375 0)"/>
    <use xlink:href="#DejaVuSans-6f" transform="translate(4139.771484 0)"/>
    <use xlink:href="#DejaVuSans-6e" transform="translate(4200.953125 0)"/>
    <use xlink:href="#DejaVuSans-20" transform="translate(4264.332031 0)"/>
    <use xlink:href="#DejaVuSans-68" transform="translate(4296.119141 0)"/>
    <use xlink:href="#DejaVuSans-6f" transform="translate(4359.498047 0)"/>
    <use xlink:href="#DejaVuSans-77" transform="translate(4420.679688 0)"/>
    <use xlink:href="#DejaVuSans-20" transform="translate(4502.466797 0)"/>
    <use xlink:href="#DejaVuSans-74" transform="translate(4534.253906 0)"/>
    <use xlink:href="#DejaVuSans-68" transform="translate(4573.462891 0)"/>
    <use xlink:href="#DejaVuSans-65" transform="translate(4636.841797 0)"/>
    <use xlink:href="#DejaVuSans-20" transform="translate(4698.365234 0)"/>
    <use xlink:href="#DejaVuSans-77" transform="translate(4730.152344 0)"/>
    <use xlink:href="#DejaVuSans-6f" transform="translate(4811.939453 0)"/>
    <use xlink:href="#DejaVuSans-72" transform="translate(4873.121094 0)"/>
    <use xlink:href="#DejaVuSans-6c" transform="translate(4914.234375 0)"/>
    <use xlink:href="#DejaVuSans-64" transform="translate(4942.017578 0)"/>
    <use xlink:href="#DejaVuSans-20" transform="translate(5005.494141 0)"/>
    <use xlink:href="#DejaVuSans-69" transform="translate(5037.28125 0)"/>
    <use xlink:href="#DejaVuSans-73" transform="translate(5065.064453 0)"/>
    <use xlink:href="#DejaVuSans-20" transform="translate(5117.164062 0)"/>
    <use xlink:href="#DejaVuSans-63" transform="translate(5148.951172 0)"/>
    <use xlink:href="#DejaVuSans-68" transform="translate(5203.931641 0)"/>
    <use xlink:href="#DejaVuSans-61" transform="translate(5267.310547 0)"/>
    <use xlink:href="#DejaVuSans-6e" transform="translate(5328.589844 0)"/>
    <use xlink:href="#DejaVuSans-67" transform="translate(5391.96875 0)"/>
    <use xlink:href="#DejaVuSans-69" transform="translate(5455.445312 0)"/>
    <use xlink:href="#DejaVuSans-6e" transform="translate(5483.228516 0)"/>
    <use xlink:href="#DejaVuSans-67" transform="translate(5546.607422 0)"/>
    <use xlink:href="#DejaVuSans-2e" transform="translate(5610.083984 0)"/>
   </g>
  </g>
 </g>
 <defs>
  <clipPath id="p21747caf0c">
   <rect x="63.89837" y="93.6" width="894.348" height="489.6"/>
  </clipPath>
 </defs>
</svg>
