<?xml version='1.0' encoding='utf-8'?>
<svg xmlns="http://www.w3.org/2000/svg" xmlns:dc="http://purl.org/dc/elements/1.1/" xmlns:ns2="http://creativecommons.org/ns#" xmlns:rdf="http://www.w3.org/1999/02/22-rdf-syntax-ns#" xmlns:xlink="http://www.w3.org/1999/xlink" width="1009.64387pt" height="669.6pt" viewBox="0 0 1009.64387 669.6" version="1.1">
 <metadata>
  <rdf:RDF>
   <ns2:Work>
    <dc:type rdf:resource="http://purl.org/dc/dcmitype/StillImage" />
    <dc:format>image/svg+xml</dc:format>
    <dc:creator>
     <ns2:Agent>
      <dc:title>Matplotlib v3.10.8, https://matplotlib.org/</dc:title>
     </ns2:Agent>
    </dc:creator>
   </ns2:Work>
  </rdf:RDF>
 </metadata>
 <defs>
  <style type="text/css">*{stroke-linejoin: round; stroke-linecap: butt}</style>
 </defs>
 <g><g id="grid-lines"><path id="m154955053f" d="M 63.89837 -189.801668  L 63.89837 -166.078972  L 86.25707 -166.078972  L 108.61577 -166.078972  L 130.97447 -166.078972  L 153.33317 -166.078972  L 175.69187 -166.078972  L 198.05057 -166.078972  L 220.40927 -166.078972  L 242.76797 -166.078972  L 265.12667 -166.078972  L 287.48537 -166.078972  L 289.72124 -166.078972  L 291.95711 -166.078972  L 294.19298 -166.078972  L 296.42885 -166.078972  L 298.66472 -166.078972  L 300.90059 -166.078972  L 303.13646 -166.078972  L 305.37233 -166.078972  L 307.6082 -166.078972  L 309.84407 -166.078972  L 312.07994 -166.078972  L 314.31581 -166.078972  L 316.55168 -166.078972  L 318.78755 -166.078972  L 321.02342 -166.078972  L 323.25929 -166.078972  L 325.49516 -166.078972  L 327.73103 -166.078972  L 329.9669 -166.078972  L 332.20277 -166.078972  L 334.43864 -166.078972  L 336.67451 -166.078972  L 338.91038 -166.078972  L 341.14625 -166.078972  L 343.38212 -166.078972  L 345.61799 -166.078972  L 347.85386 -166.078972  L 350.08973 -166.078972  L 352.3256 -166.078972  L 354.56147 -166.078972  L 356.79734 -166.078972  L 359.03321 -166.078972  L 361.26908 -166.078972  L 363.50495 -166.078972  L 365.74082 -166.078972  L 367.97669 -166.078972  L 370.21256 -166.078972  L 372.44843 -166.078972  L 374.6843 -166.078972  L 376.92017 -166.078972  L 379.15604 -166.078972  L 381.39191 -166.078972  L 383.62778 -166.078972  L 385.86365 -166.078972  L 388.09952 -166.078972  L 390.33539 -166.078972  L 392.57126 -166.078972  L 394.80713 -166.078972  L 397.043 -166.078972  L 399.27887 -166.078972  L 401.51474 -166.078972  L 403.75061 -166.078972  L 405.98648 -166.078972  L 408.22235 -166.078972  L 410.45822 -166.078972  L 412.69409 -166.078972  L 414.92996 -166.078972  L 417.16583 -166.078972  L 419.4017 -166.078972  L 421.63757 -166.078972  L 423.87344 -166.078972  L 426.10931 -166.078972  L 428.34518 -166.078972  L 430.58105 -166.078972  L 432.81692 -166.078972  L 435.05279 -166.078972  L 437.28866 -166.078972  L 439.52453 -166.078972  L 441.7604 -166.078972  L 443.99627 -166.078972  L 446.23214 -166.078972  L 448.46801 -166.078972  L 450.70388 -166.078972  L 452.93975 -166.078972  L 455.17562 -166.078972  L 457.41149 -166.078972  L 459.64736 -166.078972  L 461.88323 -166.078972  L 464.1191 -166.078972  L 466.35497 -166.078972  L 468.59084 -166.078972  L 470.82671 -166.078972  L 473.06258 -166.078972  L 475.29845 -166.078972  L 477.53432 -166.078972  L 479.77019 -166.078972  L 482.00606 -166.078972  L 484.24193 -166.078972  L 486.4778 -166.078972  L 488.71367 -166.078972  L 490.94954 -166.078972  L 493.18541 -166.078972  L 495.42128 -166.078972  L 497.65715 -166.078972  L 499.89302 -166.078972  L 502.12889 -166.078972  L 504.36476 -166.078972  L 506.60063 -166.078972  L 508.8365 -166.078972  L 511.07237 -166.078972  L 513.30824 -166.078972  L 515.54411 -166.078972  L 517.77998 -166.078972  L 520.01585 -166.078972  L 522.25172 -166.078972  L 524.48759 -166.078972  L 526.72346 -166.078972  L 528.95933 -166.078972  L 531.1952 -166.078972  L 533.43107 -166.078972  L 535.66694 -166.078972  L 537.90281 -166.078972  L 540.13868 -166.078972  L 542.37455 -166.078972  L 544.61042 -166.078972  L 546.84629 -166.078972  L 549.08216 -166.078972  L 551.31803 -166.078972  L 553.5539 -166.078972  L 555.78977 -166.078972  L 558.02564 -166.078972  L 560.26151 -166.078972  L 562.49738 -166.078972  L 564.73325 -166.078972  L 566.96912 -166.078972  L 569.20499 -166.078972  L 571.44086 -166.078972  L 573.67673 -166.078972  L 575.9126 -166.078972  L 578.14847 -166.078972  L 580.38434 -166.078972  L 582.62021 -166.078972  L 584.85608 -166.078972  L 587.09195 -166.078972  L 589.32782 -166.078972  L 591.56369 -166.078972  L 593.79956 -166.078972  L 596.03543 -166.078972  L 598.2713 -166.078972  L 600.50717 -166.078972  L 602.74304 -166.078972  L 604.97891 -166.078972  L 607.21478 -166.078972  L 609.45065 -166.078972  L 611.68652 -166.078972  L 613.92239 -166.078972  L 616.15826 -166.078972  L 618.39413 -166.078972  L 620.63 -166.078972  L 622.86587 -166.078972  L 625.10174 -166.078972  L 627.33761 -166.078972  L 629.57348 -166.078972  L 631.80935 -166.078972  L 634.04522 -166.078972  L 636.28109 -166.078972  L 638.51696 -166.078972  L 640.75283 -166.078972  L 642.9887 -166.078972  L 645.22457 -166.078972  L 647.46044 -166.078972  L 649.69631 -166.078972  L 651.93218 -166.078972  L 654.16805 -166.078972  L 656.40392 -166.078972  L 658.63979 -166.078972  L 660.87566 -166.078972  L 663.11153 -166.078972  L 665.3474 -166.078972  L 667.58327 -166.078972  L 669.81914 -166.078972  L 672.05501 -166.078972  L 674.29088 -166.078972  L 676.52675 -166.078972  L 678.76262 -166.078972  L 680.99849 -166.078972  L 683.23436 -166.078972  L 685.47023 -166.078972  L 687.7061 -166.078972  L 689.94197 -166.078972  L 692.17784 -166.078972  L 694.41371 -166.078972  L 696.64958 -166.078972  L 698.88545 -166.078972  L 701.12132 -166.078972  L 703.35719 -166.078972  L 705.59306 -166.078972  L 707.82893 -166.078972  L 710.0648 -166.078972  L 712.30067 -166.078972  L 714.53654 -166.078972  L 716.77241 -166.078972  L 719.00828 -166.078972  L 721.24415 -166.078972  L 723.48002 -166.078972  L 725.71589 -166.078972  L 727.95176 -166.078972  L 730.18763 -166.078972  L 732.4235 -166.078972  L 734.65937 -166.078972  L 736.89524 -166.078972  L 739.13111 -166.078972  L 741.36698 -166.078972  L 743.60285 -166.078972  L 745.83872 -166.078972  L 748.07459 -166.078972  L 750.31046 -166.078972  L 752.54633 -166.078972  L 754.7822 -166.078972  L 757.01807 -166.078972  L 759.25394 -166.078972  L 761.48981 -166.078972  L 763.72568 -166.078972  L 765.96155 -166.078972  L 768.19742 -166.078972  L 770.43329 -166.078972  L 772.66916 -166.078972  L 774.90503 -166.078972  L 777.1409 -166.078972  L 779.37677 -166.078972  L 781.61264 -166.078972  L 783.84851 -166.078972  L 786.08438 -166.078972  L 786.08438 -488.449531  L 786.08438 -488.449531  L 783.84851 -485.64771  L 781.61264 -482.980105  L 779.37677 -480.293047  L 777.1409 -477.276896  L 774.90503 -474.034324  L 772.66916 -470.676459  L 770.43329 -467.207897  L 768.19742 -463.699527  L 765.96155 -460.158767  L 763.72568 -456.580279  L 761.48981 -452.971175  L 759.25394 -449.374518  L 757.01807 -445.82117  L 754.7822 -442.276821  L 752.54633 -438.758645  L 750.31046 -435.286679  L 748.07459 -431.86619  L 745.83872 -428.500475  L 743.60285 -425.170198  L 741.36698 -421.862878  L 739.13111 -418.57089  L 736.89524 -415.272424  L 734.65937 -411.956445  L 732.4235 -408.661853  L 730.18763 -405.39742  L 727.95176 -402.119472  L 725.71589 -398.823468  L 723.48002 -395.509749  L 721.24415 -392.190015  L 719.00828 -388.843241  L 716.77241 -385.434775  L 714.53654 -381.958623  L 712.30067 -378.335908  L 710.0648 -374.61604  L 707.82893 -370.93331  L 705.59306 -367.258271  L 703.35719 -363.606044  L 701.12132 -360.055175  L 698.88545 -356.598385  L 696.64958 -353.218087  L 694.41371 -349.845509  L 692.17784 -346.503131  L 689.94197 -343.269317  L 687.7061 -340.11934  L 685.47023 -337.073929  L 683.23436 -334.116496  L 680.99849 -331.183617  L 678.76262 -328.254972  L 676.52675 -325.294134  L 674.29088 -322.281828  L 672.05501 -319.258515  L 669.81914 -316.267772  L 667.58327 -313.273274  L 665.3474 -310.277655  L 663.11153 -307.317409  L 660.87566 -304.457955  L 658.63979 -301.69422  L 656.40392 -298.92508  L 654.16805 -296.134469  L 651.93218 -293.278794  L 649.69631 -290.512598  L 647.46044 -288.181804  L 645.22457 -286.213781  L 642.9887 -284.240908  L 640.75283 -282.061662  L 638.51696 -279.725819  L 636.28109 -277.446668  L 634.04522 -275.24768  L 631.80935 -273.083642  L 629.57348 -271.02041  L 627.33761 -269.027643  L 625.10174 -267.14884  L 622.86587 -265.402509  L 620.63 -264.399756  L 618.39413 -263.3629  L 616.15826 -262.541993  L 613.92239 -261.785439  L 611.68652 -261.083069  L 609.45065 -260.375801  L 607.21478 -259.662506  L 604.97891 -258.950206  L 602.74304 -258.191806  L 600.50717 -257.390259  L 598.2713 -256.541504  L 596.03543 -255.643208  L 593.79956 -254.711094  L 591.56369 -253.796074  L 589.32782 -252.894824  L 587.09195 -252.008467  L 584.85608 -251.133072  L 582.62021 -250.268393  L 580.38434 -249.429494  L 578.14847 -248.617889  L 575.9126 -247.834594  L 573.67673 -247.079033  L 571.44086 -246.349509  L 569.20499 -245.630999  L 566.96912 -244.922416  L 564.73325 -244.223693  L 562.49738 -243.535571  L 560.26151 -242.857933  L 558.02564 -242.208893  L 555.78977 -241.591796  L 553.5539 -241.002101  L 551.31803 -240.450482  L 549.08216 -239.932497  L 546.84629 -239.439229  L 544.61042 -238.949491  L 542.37455 -238.462724  L 540.13868 -237.98141  L 537.90281 -237.507679  L 535.66694 -237.010077  L 533.43107 -236.491995  L 531.1952 -235.946643  L 528.95933 -235.377426  L 526.72346 -234.784489  L 524.48759 -234.200002  L 522.25172 -233.623932  L 520.01585 -233.055318  L 517.77998 -232.493965  L 515.54411 -231.939683  L 513.30824 -231.411234  L 511.07237 -230.908717  L 508.8365 -230.431729  L 506.60063 -229.979657  L 504.36476 -229.553677  L 502.12889 -229.132677  L 499.89302 -228.717481  L 497.65715 -228.305799  L 495.42128 -227.900146  L 493.18541 -227.499991  L 490.94954 -227.09016  L 488.71367 -226.670512  L 486.4778 -226.240966  L 484.24193 -225.802959  L 482.00606 -225.355879  L 479.77019 -224.913862  L 477.53432 -224.477962  L 475.29845 -224.046285  L 473.06258 -223.621995  L 470.82671 -223.202858  L 468.59084 -222.807172  L 466.35497 -222.43524  L 464.1191 -222.086844  L 461.88323 -221.761281  L 459.64736 -221.457006  L 457.41149 -221.155432  L 455.17562 -220.855891  L 452.93975 -220.559539  L 450.70388 -220.267167  L 448.46801 -219.977657  L 446.23214 -219.710996  L 443.99627 -219.470595  L 441.7604 -219.250909  L 439.52453 -219.054822  L 437.28866 -218.881813  L 435.05279 -218.712082  L 432.81692 -218.54567  L 430.58105 -218.382271  L 428.34518 -218.221908  L 426.10931 -218.064843  L 423.87344 -217.921295  L 421.63757 -217.791715  L 419.4017 -217.675961  L 417.16583 -217.574403  L 414.92996 -217.487302  L 412.69409 -217.404808  L 410.45822 -217.326858  L 408.22235 -217.253389  L 405.98648 -217.184343  L 403.75061 -217.119665  L 401.51474 -217.024438  L 399.27887 -216.898335  L 397.043 -216.72041  L 394.80713 -216.511368  L 392.57126 -216.270984  L 390.33539 -216.033999  L 388.09952 -215.800337  L 385.86365 -215.569929  L 383.62778 -215.342705  L 381.39191 -215.118563  L 379.15604 -214.893649  L 376.92017 -214.667894  L 374.6843 -214.441513  L 372.44843 -214.214382  L 370.21256 -213.986087  L 367.97669 -213.760398  L 365.74082 -213.537268  L 363.50495 -213.316412  L 361.26908 -213.098073  L 359.03321 -212.88212  L 356.79734 -212.646801  L 354.56147 -212.392268  L 352.3256 -212.118217  L 350.08973 -211.826373  L 347.85386 -211.516873  L 345.61799 -211.211603  L 343.38212 -210.910506  L 341.14625 -210.615414  L 338.91038 -210.324494  L 336.67451 -210.037544  L 334.43864 -209.764361  L 332.20277 -209.484372  L 329.9669 -209.189859  L 327.73103 -208.890604  L 325.49516 -208.587126  L 323.25929 -208.291113  L 321.02342 -208.002375  L 318.78755 -207.720733  L 316.55168 -207.446012  L 314.31581 -207.178047  L 312.07994 -206.936662  L 309.84407 -206.721226  L 307.6082 -206.508075  L 305.37233 -206.361199  L 303.13646 -206.216006  L 300.90059 -206.072478  L 298.66472 -205.930596  L 296.42885 -205.790344  L 294.19298 -205.651708  L 291.95711 -205.514674  L 289.72124 -205.379229  L 287.48537 -205.24536  L 265.12667 -203.618193  L 242.76797 -201.972163  L 220.40927 -199.064133  L 198.05057 -197.482645  L 175.69187 -196.089231  L 153.33317 -194.055365  L 130.97447 -192.807281  L 108.61577 -191.902319  L 86.25707 -190.698813  L 63.89837 -189.801668  z " /><path id="m9726564f3a" d="M 786.08438 -488.449531  L 786.08438 -166.078972  L 788.32025 -166.078972  L 790.55612 -166.078972  L 792.79199 -166.078972  L 795.02786 -166.078972  L 797.26373 -166.078972  L 799.4996 -166.078972  L 801.73547 -166.078972  L 803.97134 -166.078972  L 806.20721 -166.078972  L 808.44308 -166.078972  L 810.67895 -166.078972  L 812.91482 -166.078972  L 815.15069 -166.078972  L 817.38656 -166.078972  L 819.62243 -166.078972  L 821.8583 -166.078972  L 824.09417 -166.078972  L 826.33004 -166.078972  L 828.56591 -166.078972  L 830.80178 -166.078972  L 833.03765 -166.078972  L 835.27352 -166.078972  L 837.50939 -166.078972  L 839.74526 -166.078972  L 841.98113 -166.078972  L 844.217 -166.078972  L 846.45287 -166.078972  L 848.68874 -166.078972  L 850.92461 -166.078972  L 853.16048 -166.078972  L 855.39635 -166.078972  L 857.63222 -166.078972  L 859.86809 -166.078972  L 862.10396 -166.078972  L 864.33983 -166.078972  L 866.5757 -166.078972  L 868.81157 -166.078972  L 871.04744 -166.078972  L 873.28331 -166.078972  L 875.51918 -166.078972  L 877.75505 -166.078972  L 879.99092 -166.078972  L 882.22679 -166.078972  L 884.46266 -166.078972  L 886.69853 -166.078972  L 888.9344 -166.078972  L 891.17027 -166.078972  L 893.40614 -166.078972  L 895.64201 -166.078972  L 897.87788 -166.078972  L 900.11375 -166.078972  L 902.34962 -166.078972  L 904.58549 -166.078972  L 906.82136 -166.078972  L 909.05723 -166.078972  L 911.2931 -166.078972  L 913.52897 -166.078972  L 915.76484 -166.078972  L 918.00071 -166.078972  L 920.23658 -166.078972  L 922.47245 -166.078972  L 924.70832 -166.078972  L 926.94419 -166.078972  L 929.18006 -166.078972  L 931.41593 -166.078972  L 933.6518 -166.078972  L 935.88767 -166.078972  L 938.12354 -166.078972  L 940.35941 -166.078972  L 942.59528 -166.078972  L 944.83115 -166.078972  L 947.06702 -166.078972  L 949.30289 -166.078972  L 951.53876 -166.078972  L 953.77463 -166.078972  L 956.0105 -166.078972  L 958.24637 -166.078972  L 958.24637 -571.651341  L 958.24637 -571.651341  L 956.0105 -572.150463  L 953.77463 -572.620601  L 951.53876 -573.061203  L 949.30289 -573.471612  L 947.06702 -573.852188  L 944.83115 -574.202068  L 942.59528 -574.520741  L 940.35941 -574.808526  L 938.12354 -575.065624  L 935.88767 -575.292842  L 933.6518 -575.490175  L 931.41593 -575.656956  L 929.18006 -575.792681  L 926.94419 -575.896143  L 924.70832 -575.965793  L 922.47245 -576  L 920.23658 -575.997294  L 918.00071 -575.955771  L 915.76484 -575.874366  L 913.52897 -575.751513  L 911.2931 -575.584563  L 909.05723 -575.372173  L 906.82136 -575.112766  L 904.58549 -574.806258  L 902.34962 -574.453479  L 900.11375 -574.054631  L 897.87788 -573.610132  L 895.64201 -573.121196  L 893.40614 -572.588399  L 891.17027 -572.013132  L 888.9344 -571.39722  L 886.69853 -570.740658  L 884.46266 -570.043723  L 882.22679 -569.307041  L 879.99092 -568.531464  L 877.75505 -567.716873  L 875.51918 -566.862208  L 873.28331 -565.966479  L 871.04744 -565.028244  L 868.81157 -564.04485  L 866.5757 -563.013198  L 864.33983 -561.930651  L 862.10396 -560.794143  L 859.86809 -559.600679  L 857.63222 -558.348013  L 855.39635 -557.033872  L 853.16048 -555.65395  L 850.92461 -554.205781  L 848.68874 -552.689003  L 846.45287 -551.102845  L 844.217 -549.447333  L 841.98113 -547.722762  L 839.74526 -545.930381  L 837.50939 -544.071615  L 835.27352 -542.149362  L 833.03765 -540.166711  L 830.80178 -538.126436  L 828.56591 -536.032834  L 826.33004 -533.888322  L 824.09417 -531.69351  L 821.8583 -529.452068  L 819.62243 -527.167056  L 817.38656 -524.839621  L 815.15069 -522.470527  L 812.91482 -520.061176  L 810.67895 -517.614025  L 808.44308 -515.130598  L 806.20721 -512.611975  L 803.97134 -510.057846  L 801.73547 -507.468502  L 799.4996 -504.845486  L 797.26373 -502.18953  L 795.02786 -499.499387  L 792.79199 -496.773731  L 790.55612 -494.022204  L 788.32025 -491.247762  L 786.08438 -488.449531  z " /><path d="M 63.89837 479.798332  L 86.25707 478.901187  L 108.61577 477.697681  L 130.97447 476.792719  L 153.33317 475.544635  L 175.69187 473.510769  L 198.05057 472.117355  L 220.40927 470.535867  L 242.76797 467.627837  L 294.19298 463.948292  L 309.84407 462.878774  L 316.55168 462.153988  L 329.9669 460.410141  L 356.79734 456.953199  L 379.15604 454.706351  L 399.27887 452.701665  L 405.98648 452.415657  L 419.4017 451.924039  L 428.34518 451.378092  L 441.7604 450.349091  L 448.46801 449.622343  L 464.1191 447.513156  L 470.82671 446.397142  L 486.4778 443.359034  L 499.89302 440.882519  L 508.8365 439.168271  L 515.54411 437.660317  L 528.95933 434.222574  L 535.66694 432.589923  L 555.78977 428.008204  L 562.49738 426.064429  L 573.67673 422.520967  L 580.38434 420.170506  L 589.32782 416.705176  L 602.74304 411.408194  L 609.45065 409.224199  L 616.15826 407.058007  L 618.39413 406.2371  L 622.86587 404.197491  L 627.33761 400.572357  L 631.80935 396.516358  L 638.51696 389.874181  L 642.9887 385.359092  L 647.46044 381.418196  L 649.69631 379.087402  L 660.87566 365.142045  L 665.3474 359.322345  L 689.94197 326.330683  L 694.41371 319.754491  L 701.12132 309.544825  L 705.59306 302.341729  L 716.77241 284.165225  L 723.48002 274.090251  L 752.54633 230.841355  L 761.48981 216.628825  L 770.43329 202.392103  L 774.90503 195.565676  L 777.1409 192.323104  L 779.37677 189.306953  L 786.08438 181.150469  L 795.02786 170.100613  L 801.73547 162.131498  L 808.44308 154.469402  L 815.15069 147.129473  L 821.8583 140.147932  L 828.56591 133.567166  L 833.03765 129.433289  L 837.50939 125.528385  L 841.98113 121.877238  L 846.45287 118.497155  L 850.92461 115.394219  L 855.39635 112.566128  L 859.86809 109.999321  L 864.33983 107.669349  L 868.81157 105.55515  L 873.28331 103.633521  L 877.75505 101.883127  L 884.46266 99.556277  L 888.9344 98.20278  L 893.40614 97.011601  L 897.87788 95.989868  L 902.34962 95.146521  L 906.82136 94.487234  L 911.2931 94.015437  L 915.76484 93.725634  L 920.23658 93.602706  L 926.94419 93.703857  L 933.6518 94.109825  L 940.35941 94.791474  L 947.06702 95.747812  L 953.77463 96.979399  L 958.24637 97.948659  L 958.24637 97.948659  " clip-path="url(#p644b27d544)" style="fill: none; stroke: #000000; stroke-width: 1.6; stroke-linecap: square" /><path id="m0324439e40" d="M 0 2.5  C 0.663008 2.5 1.29895 2.236584 1.767767 1.767767  C 2.236584 1.29895 2.5 0.663008 2.5 0  C 2.5 -0.663008 2.236584 -1.29895 1.767767 -1.767767  C 1.29895 -2.236584 0.663008 -2.5 0 -2.5  C -0.663008 -2.5 -1.29895 -2.236584 -1.767767 -1.767767  C -2.236584 -1.29895 -2.5 -0.663008 -2.5 0  C -2.5 0.663008 -2.236584 1.29895 -1.767767 1.767767  C -1.29895 2.236584 -0.663008 2.5 0 2.5  z " style="stroke: #000000" /></g><g id="growth-line"><path d="M 63.89837 496.079696  L 287.48537 427.894812  L 511.07237 371.90511  L 522.25172 352.849444  L 533.43107 364.946486  L 544.61042 384.068167  L 555.78977 363.794158  L 566.96912 344.869718  L 578.14847 333.576256  L 589.32782 320.623142  L 600.50717 337.08146  L 611.68652 370.342135  L 622.86587 322.672187  L 625.10174 192.881616  L 627.33761 175.254857  L 629.57348 161.826217  L 631.80935 156.51369  L 634.04522 146.675994  L 636.28109 148.086738  L 638.51696 142.460769  L 640.75283 140.916577  L 642.9887 171.751005  L 645.22457 208.404689  L 647.46044 213.919877  L 649.69631 166.514621  L 651.93218 111.657944  L 654.16805 107.822324  L 656.40392 125.143993  L 658.63979 135.831824  L 660.87566 143.960494  L 665.3474 133.833029  L 667.58327 137.062229  L 672.05501 152.102021  L 674.29088 155.180722  L 676.52675 163.090808  L 678.76262 175.126932  L 680.99849 184.543352  L 683.23436 189.70274  L 685.47023 192.57364  L 687.7061 188.89405  L 689.94197 183.831094  L 692.17784 181.181146  L 694.41371 176.375305  L 696.64958 179.395756  L 698.88545 184.462975  L 701.12132 183.044911  L 703.35719 180.215236  L 705.59306 176.994022  L 707.82893 180.884024  L 710.0648 185.963594  L 712.30067 188.40421  L 714.53654 201.897947  L 716.77241 218.821962  L 719.00828 228.712768  L 721.24415 237.747898  L 723.48002 243.753412  L 725.71589 247.945787  L 730.18763 257.716646  L 732.4235 262.053556  L 734.65937 263.09508  L 736.89524 264.765649  L 739.13111 269.157983  L 741.36698 272.651171  L 743.60285 274.548869  L 745.83872 275.894095  L 748.07459 276.388154  L 750.31046 275.619721  L 752.54633 275.132223  L 754.7822 275.039889  L 757.01807 276.264306  L 759.25394 278.559404  L 761.48981 278.672899  L 763.72568 280.710655  L 765.96155 285.317074  L 768.19742 290.215473  L 770.43329 294.655073  L 772.66916 299.403611  L 777.1409 316.84101  L 779.37677 331.614385  L 781.61264 351.755434  L 783.84851 354.121752  L 786.08438 347.941833  L 788.32025 349.484921  L 795.02786 357.225029  L 799.4996 363.239377  L 810.67895 377.165641  L 817.38656 385.437893  L 826.33004 396.85014  L 833.03765 406.050216  L 837.50939 412.654042  L 844.217 423.165469  L 850.92461 433.734649  L 855.39635 440.502565  L 857.63222 443.713066  L 862.10396 449.550693  L 866.5757 454.847444  L 871.04744 459.534652  L 875.51918 463.643788  L 879.99092 467.410226  L 893.40614 478.281644  L 900.11375 484.092276  L 915.76484 498.177144  L 920.23658 501.715564  L 924.70832 505.008366  L 929.18006 508.021106  L 935.88767 512.11349  L 944.83115 517.431987  L 953.77463 522.826449  L 958.24637 525.441186  L 958.24637 525.441186  " clip-path="url(#p644b27d544)" style="fill: none; stroke: #b4358c; stroke-width: 2.5; stroke-linecap: square" /><path d="M 78.64037 46.8  L 108.12437 46.8  " style="fill: none; stroke: #b4358c; stroke-width: 3; stroke-linecap: square" /></g><g id="markers"><path d="M 63.89837 583.2  L 63.89837 93.6  " clip-path="url(#p644b27d544)" style="fill: none; stroke: #eeeeee; stroke-linecap: square" /><path d="M 175.69187 583.2  L 175.69187 93.6  " clip-path="url(#p644b27d544)" style="fill: none; stroke: #eeeeee; stroke-linecap: square" /><path d="M 287.48537 583.2  L 287.48537 93.6  " clip-path="url(#p644b27d544)" style="fill: none; stroke: #eeeeee; stroke-linecap: square" /><path d="M 399.27887 583.2  L 399.27887 93.6  " clip-path="url(#p644b27d544)" style="fill: none; stroke: #eeeeee; stroke-linecap: square" /><path d="M 511.07237 583.2  L 511.07237 93.6  " clip-path="url(#p644b27d544)" style="fill: none; stroke: #eeeeee; stroke-linecap: square" /><path d="M 622.86587 583.2  L 622.86587 93.6  " clip-path="url(#p644b27d544)" style="fill: none; stroke: #eeeeee; stroke-linecap: square" /><path d="M 734.65937 583.2  L 734.65937 93.6  " clip-path="url(#p644b27d544)" style="fill: none; stroke: #eeeeee; stroke-linecap: square" /><path d="M 786.08438 583.2  L 786.08438 93.6  " clip-path="url(#p644b27d544)" style="fill: none; stroke: #eeeeee; stroke-linecap: square" /><path d="M 846.45287 583.2  L 846.45287 93.6  " clip-path="url(#p644b27d544)" style="fill: none; stroke: #eeeeee; stroke-linecap: square" /><path d="M 958.24637 583.2  L 958.24637 93.6  " clip-path="url(#p644b27d544)" style="fill: none; stroke: #eeeeee; stroke-linecap: square" /><use xlink:href="#m154955053f" x="0" y="669.6" style="fill: #0c988c" /><use xlink:href="#m9726564f3a" x="0" y="669.6" style="fill: #17a899" /><path d="M 786.08438 531.408668  L 958.24637 531.408668  " style="fill: none; stroke: #999999; stroke-linecap: square" /><path d="M 786.08438 531.408668  L 786.08438 528.22151  " style="fill: none; stroke: #999999; stroke-linecap: square" /><path d="M 958.24637 531.408668  L 958.24637 528.22151  " style="fill: none; stroke: #999999; stroke-linecap: square" /><path d="M 63.89837 583.2  L 63.89837 93.6  " style="fill: none; stroke: #999999; stroke-linejoin: miter; stroke-linecap: square" /><path d="M 63.89837 583.2  L 958.24637 583.2  " style="fill: none; stroke: #999999; stroke-linejoin: miter; stroke-linecap: square" /><use xlink:href="#m0324439e40" x="63.89837" y="479.798332" style="stroke: #000000" /><use xlink:href="#m0324439e40" x="298.66472" y="463.669404" style="stroke: #000000" /><use xlink:href="#m0324439e40" x="571.44086" y="423.250491" style="stroke: #000000" /><use xlink:href="#m0324439e40" x="705.59306" y="302.341729" style="stroke: #000000" /><use xlink:href="#m0324439e40" x="783.84851" y="183.95229" style="stroke: #000000" /><use xlink:href="#m0324439e40" x="817.38656" y="144.760379" style="stroke: #000000" /><use xlink:href="#m0324439e40" x="871.04744" y="104.571756" style="stroke: #000000" /><path d="M 958.24637 583.2  L 958.24637 93.6  " style="fill: none; stroke: #999999; stroke-linejoin: miter; stroke-linecap: square" /><path d="M 78.64037 73.44  L 108.12437 73.44  L 108.12437 60.48  L 78.64037 60.48  z " style="fill: #17a899" /></g><g id="title"><text style="font-size: 30px; font-family: 'DejaVu Sans', 'Bitstream Vera Sans', 'Computer Modern Sans Serif', 'Lucida Grande', 'Verdana', 'Geneva', 'Lucid', 'Arial', 'Helvetica', 'Avant Garde', sans-serif; text-anchor: start" x="73.72637" y="29.995312" transform="rotate(-0 73.72637 29.995312)">World population growth, 1700-2100</text></g><g id="legend-labels"><text style="font-size: 12px; font-family: 'DejaVu Sans', 'Bitstream Vera Sans', 'Computer Modern Sans Serif', 'Lucida Grande', 'Verdana', 'Geneva', 'Lucid', 'Arial', 'Helvetica', 'Avant Garde', sans-serif; text-anchor: middle; fill: #666666" x="999.948245" y="338.4" transform="rotate(-90 999.948245 338.4)">Annual growth rate (%)</text><text style="font-size: 15px; font-family: 'DejaVu Sans', 'Bitstream Vera Sans', 'Computer Modern Sans Serif', 'Lucida Grande', 'Verdana', 'Geneva', 'Lucid', 'Arial', 'Helvetica', 'Avant Garde', sans-serif; text-anchor: start; fill: #b4358c" x="113.03837" y="50.939062" transform="rotate(-0 113.03837 50.939062)">Annual growth rate of the world population</text><text style="font-size: 15px; font-family: 'DejaVu Sans', 'Bitstream Vera Sans', 'Computer Modern Sans Serif', 'Lucida Grande', 'Verdana', 'Geneva', 'Lucid', 'Arial', 'Helvetica', 'Avant Garde', sans-serif; text-anchor: start; fill: #17a899" x="113.03837" y="71.099062" transform="rotate(-0 113.03837 71.099062)">World population</text></g><g id="axis-labels"><text style="font-size: 12px; font-family: 'DejaVu Sans', 'Bitstream Vera Sans', 'Computer Modern Sans Serif', 'Lucida Grande', 'Verdana', 'Geneva', 'Lucid', 'Arial', 'Helvetica', 'Avant Garde', sans-serif; text-anchor: middle; fill: #666666" x="63.89837" y="595.818125" transform="rotate(-0 63.89837 595.818125)">1700</text><text style="font-size: 12px; font-family: 'DejaVu Sans', 'Bitstream Vera Sans', 'Computer Modern Sans Serif', 'Lucida Grande', 'Verdana', 'Geneva', 'Lucid', 'Arial', 'Helvetica', 'Avant Garde', sans-serif; text-anchor: middle; fill: #666666" x="175.69187" y="595.818125" transform="rotate(-0 175.69187 595.818125)">1750</text><text style="font-size: 12px; font-family: 'DejaVu Sans', 'Bitstream Vera Sans', 'Computer Modern Sans Serif', 'Lucida Grande', 'Verdana', 'Geneva', 'Lucid', 'Arial', 'Helvetica', 'Avant Garde', sans-serif; text-anchor: middle; fill: #666666" x="287.48537" y="595.818125" transform="rotate(-0 287.48537 595.818125)">1800</text><text style="font-size: 12px; font-family: 'DejaVu Sans', 'Bitstream Vera Sans', 'Computer Modern Sans Serif', 'Lucida Grande', 'Verdana', 'Geneva', 'Lucid', 'Arial', 'Helvetica', 'Avant Garde', sans-serif; text-anchor: middle; fill: #666666" x="399.27887" y="595.818125" transform="rotate(-0 399.27887 595.818125)">1850</text><text style="font-size: 12px; font-family: 'DejaVu Sans', 'Bitstream Vera Sans', 'Computer Modern Sans Serif', 'Lucida Grande', 'Verdana', 'Geneva', 'Lucid', 'Arial', 'Helvetica', 'Avant Garde', sans-serif; text-anchor: middle; fill: #666666" x="511.07237" y="595.818125" transform="rotate(-0 511.07237 595.818125)">1900</text><text style="font-size: 12px; font-family: 'DejaVu Sans', 'Bitstream Vera Sans', 'Computer Modern Sans Serif', 'Lucida Grande', 'Verdana', 'Geneva', 'Lucid', 'Arial', 'Helvetica', 'Avant Garde', sans-serif; text-anchor: middle; fill: #666666" x="622.86587" y="595.818125" transform="rotate(-0 622.86587 595.818125)">1950</text><text style="font-size: 12px; font-family: 'DejaVu Sans', 'Bitstream Vera Sans', 'Computer Modern Sans Serif', 'Lucida Grande', 'Verdana', 'Geneva', 'Lucid', 'Arial', 'Helvetica', 'Avant Garde', sans-serif; text-anchor: middle; fill: #666666" x="734.65937" y="595.818125" transform="rotate(-0 734.65937 595.818125)">2000</text><text style="font-size: 12px; font-family: 'DejaVu Sans', 'Bitstream Vera Sans', 'Computer Modern Sans Serif', 'Lucida Grande', 'Verdana', 'Geneva', 'Lucid', 'Arial', 'Helvetica', 'Avant Garde', sans-serif; text-anchor: middle; fill: #666666" x="786.08438" y="595.818125" transform="rotate(-0 786.08438 595.818125)">2023</text><text style="font-size: 12px; font-family: 'DejaVu Sans', 'Bitstream Vera Sans', 'Computer Modern Sans Serif', 'Lucida Grande', 'Verdana', 'Geneva', 'Lucid', 'Arial', 'Helvetica', 'Avant Garde', sans-serif; text-anchor: middle; fill: #666666" x="846.45287" y="595.818125" transform="rotate(-0 846.45287 595.818125)">2050</text><text style="font-size: 12px; font-family: 'DejaVu Sans', 'Bitstream Vera Sans', 'Computer Modern Sans Serif', 'Lucida Grande', 'Verdana', 'Geneva', 'Lucid', 'Arial', 'Helvetica', 'Avant Garde', sans-serif; text-anchor: middle; fill: #666666" x="958.24637" y="595.818125" transform="rotate(-0 958.24637 595.818125)">2100</text><text style="font-size: 12px; font-family: 'DejaVu Sans', 'Bitstream Vera Sans', 'Computer Modern Sans Serif', 'Lucida Grande', 'Verdana', 'Geneva', 'Lucid', 'Arial', 'Helvetica', 'Avant Garde', sans-serif; text-anchor: end; fill: #666666" x="60.39837" y="508.080091" transform="rotate(-0 60.39837 508.080091)">0</text><text style="font-size: 12px; font-family: 'DejaVu Sans', 'Bitstream Vera Sans', 'Computer Modern Sans Serif', 'Lucida Grande', 'Verdana', 'Geneva', 'Lucid', 'Arial', 'Helvetica', 'Avant Garde', sans-serif; text-anchor: end; fill: #666666" x="60.39837" y="428.401119" transform="rotate(-0 60.39837 428.401119)">2</text><text style="font-size: 12px; font-family: 'DejaVu Sans', 'Bitstream Vera Sans', 'Computer Modern Sans Serif', 'Lucida Grande', 'Verdana', 'Geneva', 'Lucid', 'Arial', 'Helvetica', 'Avant Garde', sans-serif; text-anchor: end; fill: #666666" x="60.39837" y="348.722148" transform="rotate(-0 60.39837 348.722148)">4</text><text style="font-size: 12px; font-family: 'DejaVu Sans', 'Bitstream Vera Sans', 'Computer Modern Sans Serif', 'Lucida Grande', 'Verdana', 'Geneva', 'Lucid', 'Arial', 'Helvetica', 'Avant Garde', sans-serif; text-anchor: end; fill: #666666" x="60.39837" y="269.043176" transform="rotate(-0 60.39837 269.043176)">6</text><text style="font-size: 12px; font-family: 'DejaVu Sans', 'Bitstream Vera Sans', 'Computer Modern Sans Serif', 'Lucida Grande', 'Verdana', 'Geneva', 'Lucid', 'Arial', 'Helvetica', 'Avant Garde', sans-serif; text-anchor: end; fill: #666666" x="60.39837" y="189.364204" transform="rotate(-0 60.39837 189.364204)">8</text><text style="font-size: 12px; font-family: 'DejaVu Sans', 'Bitstream Vera Sans', 'Computer Modern Sans Serif', 'Lucida Grande', 'Verdana', 'Geneva', 'Lucid', 'Arial', 'Helvetica', 'Avant Garde', sans-serif; text-anchor: end; fill: #666666" x="60.39837" y="109.685233" transform="rotate(-0 60.39837 109.685233)">10</text><text style="font-size: 10px; font-family: 'DejaVu Sans', 'Bitstream Vera Sans', 'Computer Modern Sans Serif', 'Lucida Grande', 'Verdana', 'Geneva', 'Lucid', 'Arial', 'Helvetica', 'Avant Garde', sans-serif; fill: #1f2a2a" transform="translate(23.91875 473.734696)">in 1700</text><text style="font-size: 10px; font-family: 'DejaVu Sans', 'Bitstream Vera Sans', 'Computer Modern Sans Serif', 'Lucida Grande', 'Verdana', 'Geneva', 'Lucid', 'Arial', 'Helvetica', 'Avant Garde', sans-serif; fill: #1f2a2a" transform="translate(258.6851 457.605768)">in 1805</text><text style="font-size: 10px; font-family: 'DejaVu Sans', 'Bitstream Vera Sans', 'Computer Modern Sans Serif', 'Lucida Grande', 'Verdana', 'Geneva', 'Lucid', 'Arial', 'Helvetica', 'Avant Garde', sans-serif; fill: #1f2a2a" transform="translate(531.46124 417.186855)">in 1927</text><text style="font-size: 10px; font-family: 'DejaVu Sans', 'Bitstream Vera Sans', 'Computer Modern Sans Serif', 'Lucida Grande', 'Verdana', 'Geneva', 'Lucid', 'Arial', 'Helvetica', 'Avant Garde', sans-serif; fill: #1f2a2a" transform="translate(665.61344 296.278093)">in 1987</text><text style="font-size: 10px; font-family: 'DejaVu Sans', 'Bitstream Vera Sans', 'Computer Modern Sans Serif', 'Lucida Grande', 'Verdana', 'Geneva', 'Lucid', 'Arial', 'Helvetica', 'Avant Garde', sans-serif; fill: #1f2a2a" transform="translate(743.86889 177.888654)">in 2022</text><text style="font-size: 10px; font-family: 'DejaVu Sans', 'Bitstream Vera Sans', 'Computer Modern Sans Serif', 'Lucida Grande', 'Verdana', 'Geneva', 'Lucid', 'Arial', 'Helvetica', 'Avant Garde', sans-serif; fill: #1f2a2a" transform="translate(777.40694 138.696743)">in 2037</text><text style="font-size: 10px; font-family: 'DejaVu Sans', 'Bitstream Vera Sans', 'Computer Modern Sans Serif', 'Lucida Grande', 'Verdana', 'Geneva', 'Lucid', 'Arial', 'Helvetica', 'Avant Garde', sans-serif; fill: #1f2a2a" transform="translate(831.06782 98.50812)">in 2061</text><text style="font-size: 9px; font-family: 'DejaVu Sans', 'Bitstream Vera Sans', 'Computer Modern Sans Serif', 'Lucida Grande', 'Verdana', 'Geneva', 'Lucid', 'Arial', 'Helvetica', 'Avant Garde', sans-serif; fill: #666666" transform="translate(849.915688 548.207134)">Projection</text><text style="font-size: 9px; font-family: 'DejaVu Sans', 'Bitstream Vera Sans', 'Computer Modern Sans Serif', 'Lucida Grande', 'Verdana', 'Geneva', 'Lucid', 'Arial', 'Helvetica', 'Avant Garde', sans-serif; fill: #666666" transform="translate(806.847172 558.285165)">(UN Medium Fertility Variant)</text><text style="font-size: 12px; font-family: 'DejaVu Sans', 'Bitstream Vera Sans', 'Computer Modern Sans Serif', 'Lucida Grande', 'Verdana', 'Geneva', 'Lucid', 'Arial', 'Helvetica', 'Avant Garde', sans-serif; text-anchor: start; fill: #666666" x="961.74637" y="508.080091" transform="rotate(-0 961.74637 508.080091)">0.0</text><text style="font-size: 12px; font-family: 'DejaVu Sans', 'Bitstream Vera Sans', 'Computer Modern Sans Serif', 'Lucida Grande', 'Verdana', 'Geneva', 'Lucid', 'Arial', 'Helvetica', 'Avant Garde', sans-serif; text-anchor: start; fill: #666666" x="961.74637" y="418.966824" transform="rotate(-0 961.74637 418.966824)">0.5</text><text style="font-size: 12px; font-family: 'DejaVu Sans', 'Bitstream Vera Sans', 'Computer Modern Sans Serif', 'Lucida Grande', 'Verdana', 'Geneva', 'Lucid', 'Arial', 'Helvetica', 'Avant Garde', sans-serif; text-anchor: start; fill: #666666" x="961.74637" y="329.853557" transform="rotate(-0 961.74637 329.853557)">1.0</text><text style="font-size: 12px; font-family: 'DejaVu Sans', 'Bitstream Vera Sans', 'Computer Modern Sans Serif', 'Lucida Grande', 'Verdana', 'Geneva', 'Lucid', 'Arial', 'Helvetica', 'Avant Garde', sans-serif; text-anchor: start; fill: #666666" x="961.74637" y="240.74029" transform="rotate(-0 961.74637 240.74029)">1.5</text><text style="font-size: 12px; font-family: 'DejaVu Sans', 'Bitstream Vera Sans', 'Computer Modern Sans Serif', 'Lucida Grande', 'Verdana', 'Geneva', 'Lucid', 'Arial', 'Helvetica', 'Avant Garde', sans-serif; text-anchor: start; fill: #666666" x="961.74637" y="151.627023" transform="rotate(-0 961.74637 151.627023)">2.0</text><text style="font-size: 12px; font-family: 'DejaVu Sans', 'Bitstream Vera Sans', 'Computer Modern Sans Serif', 'Lucida Grande', 'Verdana', 'Geneva', 'Lucid', 'Arial', 'Helvetica', 'Avant Garde', sans-serif; fill: #b4358c" transform="translate(667.58327 96.415373)">in 1964</text><text style="font-size: 12px; font-family: 'DejaVu Sans', 'Bitstream Vera Sans', 'Computer Modern Sans Serif', 'Lucida Grande', 'Verdana', 'Geneva', 'Lucid', 'Arial', 'Helvetica', 'Avant Garde', sans-serif; fill: #b4358c" transform="translate(803.97134 357.971771)">in 2023</text><text style="font-size: 10px; font-family: 'DejaVu Sans', 'Bitstream Vera Sans', 'Computer Modern Sans Serif', 'Lucida Grande', 'Verdana', 'Geneva', 'Lucid', 'Arial', 'Helvetica', 'Avant Garde', sans-serif; fill: #b4358c" transform="translate(75.07772 429.390884)">population growth rate</text><text style="font-size: 10px; font-family: 'DejaVu Sans', 'Bitstream Vera Sans', 'Computer Modern Sans Serif', 'Lucida Grande', 'Verdana', 'Geneva', 'Lucid', 'Arial', 'Helvetica', 'Avant Garde', sans-serif; fill: #b4358c" transform="translate(75.07772 440.588696)">between 10,000 BCE</text><text style="font-size: 10px; font-family: 'DejaVu Sans', 'Bitstream Vera Sans', 'Computer Modern Sans Serif', 'Lucida Grande', 'Verdana', 'Geneva', 'Lucid', 'Arial', 'Helvetica', 'Avant Garde', sans-serif; fill: #b4358c" transform="translate(75.07772 451.786509)">and 1700</text></g><g id="data-labels"><text style="font-size: 10px; font-family: 'DejaVu Sans', 'Bitstream Vera Sans', 'Computer Modern Sans Serif', 'Lucida Grande', 'Verdana', 'Geneva', 'Lucid', 'Arial', 'Helvetica', 'Avant Garde', sans-serif; fill: #1f2a2a" transform="translate(7.2 462.536883)">595 Million</text><text style="font-size: 10px; font-family: 'DejaVu Sans', 'Bitstream Vera Sans', 'Computer Modern Sans Serif', 'Lucida Grande', 'Verdana', 'Geneva', 'Lucid', 'Arial', 'Helvetica', 'Avant Garde', sans-serif; fill: #1f2a2a" transform="translate(256.458538 446.407956)">1 Billion</text><text style="font-size: 10px; font-family: 'DejaVu Sans', 'Bitstream Vera Sans', 'Computer Modern Sans Serif', 'Lucida Grande', 'Verdana', 'Geneva', 'Lucid', 'Arial', 'Helvetica', 'Avant Garde', sans-serif; fill: #1f2a2a" transform="translate(529.234678 405.989042)">2 Billion</text><text style="font-size: 10px; font-family: 'DejaVu Sans', 'Bitstream Vera Sans', 'Computer Modern Sans Serif', 'Lucida Grande', 'Verdana', 'Geneva', 'Lucid', 'Arial', 'Helvetica', 'Avant Garde', sans-serif; fill: #1f2a2a" transform="translate(663.386878 285.08028)">5 Billion</text><text style="font-size: 10px; font-family: 'DejaVu Sans', 'Bitstream Vera Sans', 'Computer Modern Sans Serif', 'Lucida Grande', 'Verdana', 'Geneva', 'Lucid', 'Arial', 'Helvetica', 'Avant Garde', sans-serif; fill: #1f2a2a" transform="translate(741.642328 166.690842)">8 Billion</text><text style="font-size: 10px; font-family: 'DejaVu Sans', 'Bitstream Vera Sans', 'Computer Modern Sans Serif', 'Lucida Grande', 'Verdana', 'Geneva', 'Lucid', 'Arial', 'Helvetica', 'Avant Garde', sans-serif; fill: #1f2a2a" transform="translate(775.180378 127.49893)">9 Billion</text><text style="font-size: 10px; font-family: 'DejaVu Sans', 'Bitstream Vera Sans', 'Computer Modern Sans Serif', 'Lucida Grande', 'Verdana', 'Geneva', 'Lucid', 'Arial', 'Helvetica', 'Avant Garde', sans-serif; fill: #1f2a2a" transform="translate(822.478758 87.310307)">10 Billion</text><text style="font-size: 12px; font-family: 'DejaVu Sans', 'Bitstream Vera Sans', 'Computer Modern Sans Serif', 'Lucida Grande', 'Verdana', 'Geneva', 'Lucid', 'Arial', 'Helvetica', 'Avant Garde', sans-serif; fill: #b4358c" transform="translate(667.58327 82.977998)">2.2%</text><text style="font-size: 12px; font-family: 'DejaVu Sans', 'Bitstream Vera Sans', 'Computer Modern Sans Serif', 'Lucida Grande', 'Verdana', 'Geneva', 'Lucid', 'Arial', 'Helvetica', 'Avant Garde', sans-serif; fill: #b4358c" transform="translate(803.97134 344.534396)">0.9%</text><text style="font-size: 12px; font-family: 'DejaVu Sans', 'Bitstream Vera Sans', 'Computer Modern Sans Serif', 'Lucida Grande', 'Verdana', 'Geneva', 'Lucid', 'Arial', 'Helvetica', 'Avant Garde', sans-serif; text-anchor: start; fill: #b4358c" x="964.95398" y="528.752436" transform="rotate(-0 964.95398 528.752436)">-0.1%</text><text style="font-size: 10px; font-family: 'DejaVu Sans', 'Bitstream Vera Sans', 'Computer Modern Sans Serif', 'Lucida Grande', 'Verdana', 'Geneva', 'Lucid', 'Arial', 'Helvetica', 'Avant Garde', sans-serif; fill: #b4358c" transform="translate(75.07772 418.193071)">0.04% was the average</text></g><g id="source"><text style="font-size: 9px; font-family: 'DejaVu Sans', 'Bitstream Vera Sans', 'Computer Modern Sans Serif', 'Lucida Grande', 'Verdana', 'Geneva', 'Lucid', 'Arial', 'Helvetica', 'Avant Garde', sans-serif; fill: #666666" transform="translate(73.72637 650.45025)">Data sources: Gapminder (2022); Gapminder (2023); HYDE (2023); UN WPP (2024)</text><text style="font-size: 9px; font-family: 'DejaVu Sans', 'Bitstream Vera Sans', 'Computer Modern Sans Serif', 'Lucida Grande', 'Verdana', 'Geneva', 'Lucid', 'Arial', 'Helvetica', 'Avant Garde', sans-serif; fill: #666666" transform="translate(73.72637 660.528281)">This is a visualization from OurWorldInData.org, where you find data and research on how the world is changing.</text></g></g><defs>
  <clipPath id="p644b27d544">
   <rect x="63.89837" y="93.6" width="894.348" height="489.6" />
  </clipPath>
 </defs>
</svg>