<?xml version='1.0' encoding='utf-8'?>
<svg xmlns="http://www.w3.org/2000/svg" xmlns:dc="http://purl.org/dc/elements/1.1/" xmlns:ns2="http://creativecommons.org/ns#" xmlns:rdf="http://www.w3.org/1999/02/22-rdf-syntax-ns#" xmlns:xlink="http://www.w3.org/1999/xlink" width="1176.81375pt" height="684pt" viewBox="0 0 1176.81375 684" version="1.1">
 <metadata>
  <rdf:RDF>
   <ns2:Work>
    <dc:type rdf:resource="http://purl.org/dc/dcmitype/StillImage" />
    <dc:format>image/svg+xml</dc:format>
    <dc:creator>
     <ns2:Agent>
      <dc:title>Matplotlib v3.10.8, https://matplotlib.org/</dc:title>
     </ns2:Agent>
    </dc:creator>
   </ns2:Work>
  </rdf:RDF>
 </metadata>
 <defs>
  <style type="text/css">*{stroke-linejoin: round; stroke-linecap: butt}</style>
 </defs>
 <g><g id="grid-lines"><path id="m736318e986" d="M 184.29375 -140.635743  L 184.29375 -140.433067  L 255.39375 -140.433067  L 326.49375 -140.433067  L 397.59375 -140.433067  L 468.69375 -140.433067  L 539.79375 -140.433067  L 610.89375 -140.433067  L 681.99375 -140.433067  L 753.09375 -140.433067  L 824.19375 -140.433067  L 895.29375 -140.433067  L 902.40375 -140.433067  L 909.51375 -140.433067  L 916.62375 -140.433067  L 923.73375 -140.433067  L 930.84375 -140.433067  L 937.95375 -140.433067  L 945.06375 -140.433067  L 952.17375 -140.433067  L 959.28375 -140.433067  L 966.39375 -140.433067  L 973.50375 -140.433067  L 980.61375 -140.433067  L 987.72375 -140.433067  L 994.83375 -140.433067  L 1001.94375 -140.433067  L 1009.05375 -140.433067  L 1016.16375 -140.433067  L 1016.87475 -140.433067  L 1017.58575 -140.433067  L 1018.29675 -140.433067  L 1019.00775 -140.433067  L 1019.71875 -140.433067  L 1020.42975 -140.433067  L 1021.14075 -140.433067  L 1021.85175 -140.433067  L 1022.56275 -140.433067  L 1023.27375 -140.433067  L 1023.34485 -140.433067  L 1023.41595 -140.433067  L 1023.48705 -140.433067  L 1023.55815 -140.433067  L 1023.62925 -140.433067  L 1023.70035 -140.433067  L 1023.77145 -140.433067  L 1023.84255 -140.433067  L 1023.91365 -140.433067  L 1023.98475 -140.433067  L 1024.05585 -140.433067  L 1024.12695 -140.433067  L 1024.19805 -140.433067  L 1024.26915 -140.433067  L 1024.34025 -140.433067  L 1024.41135 -140.433067  L 1024.48245 -140.433067  L 1024.55355 -140.433067  L 1024.62465 -140.433067  L 1024.69575 -140.433067  L 1024.76685 -140.433067  L 1024.83795 -140.433067  L 1024.90905 -140.433067  L 1024.98015 -140.433067  L 1025.05125 -140.433067  L 1025.12235 -140.433067  L 1025.19345 -140.433067  L 1025.26455 -140.433067  L 1025.33565 -140.433067  L 1025.40675 -140.433067  L 1025.47785 -140.433067  L 1025.54895 -140.433067  L 1025.62005 -140.433067  L 1025.69115 -140.433067  L 1025.76225 -140.433067  L 1025.83335 -140.433067  L 1025.90445 -140.433067  L 1025.97555 -140.433067  L 1026.04665 -140.433067  L 1026.11775 -140.433067  L 1026.18885 -140.433067  L 1026.25995 -140.433067  L 1026.33105 -140.433067  L 1026.40215 -140.433067  L 1026.47325 -140.433067  L 1026.54435 -140.433067  L 1026.61545 -140.433067  L 1026.68655 -140.433067  L 1026.75765 -140.433067  L 1026.82875 -140.433067  L 1026.89985 -140.433067  L 1026.97095 -140.433067  L 1027.04205 -140.433067  L 1027.11315 -140.433067  L 1027.18425 -140.433067  L 1027.25535 -140.433067  L 1027.32645 -140.433067  L 1027.39755 -140.433067  L 1027.46865 -140.433067  L 1027.53975 -140.433067  L 1027.61085 -140.433067  L 1027.68195 -140.433067  L 1027.75305 -140.433067  L 1027.82415 -140.433067  L 1027.89525 -140.433067  L 1027.96635 -140.433067  L 1028.03745 -140.433067  L 1028.10855 -140.433067  L 1028.17965 -140.433067  L 1028.25075 -140.433067  L 1028.32185 -140.433067  L 1028.39295 -140.433067  L 1028.46405 -140.433067  L 1028.53515 -140.433067  L 1028.60625 -140.433067  L 1028.67735 -140.433067  L 1028.74845 -140.433067  L 1028.81955 -140.433067  L 1028.89065 -140.433067  L 1028.96175 -140.433067  L 1029.03285 -140.433067  L 1029.10395 -140.433067  L 1029.17505 -140.433067  L 1029.24615 -140.433067  L 1029.31725 -140.433067  L 1029.38835 -140.433067  L 1029.45945 -140.433067  L 1029.53055 -140.433067  L 1029.60165 -140.433067  L 1029.67275 -140.433067  L 1029.74385 -140.433067  L 1029.81495 -140.433067  L 1029.88605 -140.433067  L 1029.95715 -140.433067  L 1030.02825 -140.433067  L 1030.09935 -140.433067  L 1030.17045 -140.433067  L 1030.24155 -140.433067  L 1030.31265 -140.433067  L 1030.38375 -140.433067  L 1030.45485 -140.433067  L 1030.52595 -140.433067  L 1030.59705 -140.433067  L 1030.66815 -140.433067  L 1030.73925 -140.433067  L 1030.81035 -140.433067  L 1030.88145 -140.433067  L 1030.95255 -140.433067  L 1031.02365 -140.433067  L 1031.09475 -140.433067  L 1031.16585 -140.433067  L 1031.23695 -140.433067  L 1031.30805 -140.433067  L 1031.37915 -140.433067  L 1031.45025 -140.433067  L 1031.52135 -140.433067  L 1031.59245 -140.433067  L 1031.66355 -140.433067  L 1031.73465 -140.433067  L 1031.80575 -140.433067  L 1031.87685 -140.433067  L 1031.94795 -140.433067  L 1032.01905 -140.433067  L 1032.09015 -140.433067  L 1032.16125 -140.433067  L 1032.23235 -140.433067  L 1032.30345 -140.433067  L 1032.37455 -140.433067  L 1032.44565 -140.433067  L 1032.51675 -140.433067  L 1032.58785 -140.433067  L 1032.65895 -140.433067  L 1032.73005 -140.433067  L 1032.80115 -140.433067  L 1032.87225 -140.433067  L 1032.94335 -140.433067  L 1033.01445 -140.433067  L 1033.08555 -140.433067  L 1033.15665 -140.433067  L 1033.22775 -140.433067  L 1033.29885 -140.433067  L 1033.36995 -140.433067  L 1033.44105 -140.433067  L 1033.51215 -140.433067  L 1033.58325 -140.433067  L 1033.65435 -140.433067  L 1033.72545 -140.433067  L 1033.79655 -140.433067  L 1033.86765 -140.433067  L 1033.93875 -140.433067  L 1034.00985 -140.433067  L 1034.08095 -140.433067  L 1034.15205 -140.433067  L 1034.22315 -140.433067  L 1034.29425 -140.433067  L 1034.36535 -140.433067  L 1034.43645 -140.433067  L 1034.50755 -140.433067  L 1034.57865 -140.433067  L 1034.64975 -140.433067  L 1034.72085 -140.433067  L 1034.79195 -140.433067  L 1034.86305 -140.433067  L 1034.93415 -140.433067  L 1035.00525 -140.433067  L 1035.07635 -140.433067  L 1035.14745 -140.433067  L 1035.21855 -140.433067  L 1035.28965 -140.433067  L 1035.36075 -140.433067  L 1035.43185 -140.433067  L 1035.50295 -140.433067  L 1035.57405 -140.433067  L 1035.64515 -140.433067  L 1035.71625 -140.433067  L 1035.78735 -140.433067  L 1035.85845 -140.433067  L 1035.92955 -140.433067  L 1036.00065 -140.433067  L 1036.07175 -140.433067  L 1036.14285 -140.433067  L 1036.21395 -140.433067  L 1036.28505 -140.433067  L 1036.35615 -140.433067  L 1036.42725 -140.433067  L 1036.49835 -140.433067  L 1036.56945 -140.433067  L 1036.64055 -140.433067  L 1036.71165 -140.433067  L 1036.78275 -140.433067  L 1036.85385 -140.433067  L 1036.92495 -140.433067  L 1036.99605 -140.433067  L 1037.06715 -140.433067  L 1037.13825 -140.433067  L 1037.20935 -140.433067  L 1037.28045 -140.433067  L 1037.35155 -140.433067  L 1037.42265 -140.433067  L 1037.49375 -140.433067  L 1037.56485 -140.433067  L 1037.63595 -140.433067  L 1037.70705 -140.433067  L 1037.77815 -140.433067  L 1037.84925 -140.433067  L 1037.92035 -140.433067  L 1037.99145 -140.433067  L 1038.06255 -140.433067  L 1038.13365 -140.433067  L 1038.20475 -140.433067  L 1038.27585 -140.433067  L 1038.34695 -140.433067  L 1038.41805 -140.433067  L 1038.48915 -140.433067  L 1038.56025 -140.433067  L 1038.63135 -140.433067  L 1038.70245 -140.433067  L 1038.77355 -140.433067  L 1038.84465 -140.433067  L 1038.91575 -140.433067  L 1038.98685 -140.433067  L 1039.05795 -140.433067  L 1039.12905 -140.433067  L 1039.12905 -504.784113  L 1039.12905 -504.784113  L 1039.05795 -501.617427  L 1038.98685 -498.602435  L 1038.91575 -495.565457  L 1038.84465 -492.15653  L 1038.77355 -488.491695  L 1038.70245 -484.696556  L 1038.63135 -480.776302  L 1038.56025 -476.811057  L 1038.48915 -472.809204  L 1038.41805 -468.764709  L 1038.34695 -464.685613  L 1038.27585 -460.620584  L 1038.20475 -456.604503  L 1038.13365 -452.598593  L 1038.06255 -448.622266  L 1037.99145 -444.698165  L 1037.92035 -440.832245  L 1037.84925 -437.028232  L 1037.77815 -433.264272  L 1037.70705 -429.526258  L 1037.63595 -425.805573  L 1037.56485 -422.077567  L 1037.49375 -418.329768  L 1037.42265 -414.606139  L 1037.35155 -410.916597  L 1037.28045 -407.211781  L 1037.20935 -403.486557  L 1037.13825 -399.741311  L 1037.06715 -395.989268  L 1036.99605 -392.206662  L 1036.92495 -388.35433  L 1036.85385 -384.425499  L 1036.78275 -380.331018  L 1036.71165 -376.126734  L 1036.64055 -371.964423  L 1036.56945 -367.810804  L 1036.49835 -363.682968  L 1036.42725 -359.66969  L 1036.35615 -355.762742  L 1036.28505 -351.942246  L 1036.21395 -348.130476  L 1036.14285 -344.35284  L 1036.07175 -340.697905  L 1036.00065 -337.137724  L 1035.92955 -333.695726  L 1035.85845 -330.353164  L 1035.78735 -327.038352  L 1035.71625 -323.728327  L 1035.64515 -320.381916  L 1035.57405 -316.977335  L 1035.50295 -313.560312  L 1035.43185 -310.180102  L 1035.36075 -306.795648  L 1035.28965 -303.409926  L 1035.21855 -300.064183  L 1035.14745 -296.832359  L 1035.07635 -293.708719  L 1035.00525 -290.57897  L 1034.93415 -287.424953  L 1034.86305 -284.197399  L 1034.79195 -281.070978  L 1034.72085 -278.436657  L 1034.64975 -276.212351  L 1034.57865 -273.982562  L 1034.50755 -271.519524  L 1034.43645 -268.879498  L 1034.36535 -266.303546  L 1034.29425 -263.818196  L 1034.22315 -261.372347  L 1034.15205 -259.040433  L 1034.08095 -256.788159  L 1034.00985 -254.66469  L 1033.93875 -252.690944  L 1033.86765 -251.557608  L 1033.79655 -250.385728  L 1033.72545 -249.457919  L 1033.65435 -248.602844  L 1033.58325 -247.809008  L 1033.51215 -247.009637  L 1033.44105 -246.203453  L 1033.36995 -245.398395  L 1033.29885 -244.541233  L 1033.22775 -243.635305  L 1033.15665 -242.676021  L 1033.08555 -241.660745  L 1033.01445 -240.607247  L 1032.94335 -239.573069  L 1032.87225 -238.554455  L 1032.80115 -237.552672  L 1032.73005 -236.563279  L 1032.65895 -235.585999  L 1032.58785 -234.637855  L 1032.51675 -233.720559  L 1032.44565 -232.83526  L 1032.37455 -231.981306  L 1032.30345 -231.156781  L 1032.23235 -230.344703  L 1032.16125 -229.543846  L 1032.09015 -228.754131  L 1032.01905 -227.976399  L 1031.94795 -227.210517  L 1031.87685 -226.476956  L 1031.80575 -225.779497  L 1031.73465 -225.11301  L 1031.66355 -224.489557  L 1031.59245 -223.904117  L 1031.52135 -223.346614  L 1031.45025 -222.7931  L 1031.37915 -222.242944  L 1031.30805 -221.698952  L 1031.23695 -221.163529  L 1031.16585 -220.601127  L 1031.09475 -220.015579  L 1031.02365 -219.399209  L 1030.95255 -218.755865  L 1030.88145 -218.085714  L 1030.81035 -217.425113  L 1030.73925 -216.774024  L 1030.66815 -216.131362  L 1030.59705 -215.496907  L 1030.52595 -214.870444  L 1030.45485 -214.273179  L 1030.38375 -213.705222  L 1030.31265 -213.166118  L 1030.24155 -212.655176  L 1030.17045 -212.173723  L 1030.09935 -211.697898  L 1030.02825 -211.228634  L 1029.95715 -210.76334  L 1029.88605 -210.304862  L 1029.81495 -209.852597  L 1029.74385 -209.389395  L 1029.67275 -208.9151  L 1029.60165 -208.429616  L 1029.53055 -207.93457  L 1029.45945 -207.429269  L 1029.38835 -206.929691  L 1029.31725 -206.437027  L 1029.24615 -205.949135  L 1029.17505 -205.469592  L 1029.10395 -204.995872  L 1029.03285 -204.548659  L 1028.96175 -204.128292  L 1028.89065 -203.734527  L 1028.81955 -203.366567  L 1028.74845 -203.022668  L 1028.67735 -202.681822  L 1028.60625 -202.343273  L 1028.53515 -202.008329  L 1028.46405 -201.677883  L 1028.39295 -201.350672  L 1028.32185 -201.049285  L 1028.25075 -200.777578  L 1028.17965 -200.529284  L 1028.10855 -200.307661  L 1028.03745 -200.112123  L 1027.96635 -199.920288  L 1027.89525 -199.732206  L 1027.82415 -199.547529  L 1027.75305 -199.366282  L 1027.68195 -199.188763  L 1027.61085 -199.026522  L 1027.53975 -198.880067  L 1027.46865 -198.749239  L 1027.39755 -198.634456  L 1027.32645 -198.536012  L 1027.25535 -198.442776  L 1027.18425 -198.354674  L 1027.11315 -198.271638  L 1027.04205 -198.1936  L 1026.97095 -198.1205  L 1026.89985 -198.012872  L 1026.82875 -197.870348  L 1026.75765 -197.669252  L 1026.68655 -197.432987  L 1026.61545 -197.1613  L 1026.54435 -196.893453  L 1026.47325 -196.629363  L 1026.40215 -196.368951  L 1026.33105 -196.112137  L 1026.25995 -195.858806  L 1026.18885 -195.604602  L 1026.11775 -195.349449  L 1026.04665 -195.093588  L 1025.97555 -194.836878  L 1025.90445 -194.578854  L 1025.83335 -194.323775  L 1025.76225 -194.071588  L 1025.69115 -193.821971  L 1025.62005 -193.575199  L 1025.54895 -193.331124  L 1025.47785 -193.06516  L 1025.40675 -192.777481  L 1025.33565 -192.467742  L 1025.26455 -192.137892  L 1025.19345 -191.788088  L 1025.12235 -191.443065  L 1025.05125 -191.102758  L 1024.98015 -190.769237  L 1024.90905 -190.440432  L 1024.83795 -190.116115  L 1024.76685 -189.807357  L 1024.69575 -189.490906  L 1024.62465 -189.15804  L 1024.55355 -188.819815  L 1024.48245 -188.476817  L 1024.41135 -188.142256  L 1024.34025 -187.815917  L 1024.26915 -187.497598  L 1024.19805 -187.187102  L 1024.12695 -186.884242  L 1024.05585 -186.611422  L 1023.98475 -186.367931  L 1023.91365 -186.127023  L 1023.84255 -185.96102  L 1023.77145 -185.79692  L 1023.70035 -185.6347  L 1023.62925 -185.474341  L 1023.55815 -185.315826  L 1023.48705 -185.159136  L 1023.41595 -185.004257  L 1023.34485 -184.851173  L 1023.27375 -184.699871  L 1022.56275 -182.860808  L 1021.85175 -181.000425  L 1021.14075 -177.713699  L 1020.42975 -175.926262  L 1019.71875 -174.351392  L 1019.00775 -172.052667  L 1018.29675 -170.642053  L 1017.58575 -169.619243  L 1016.87475 -168.25901  L 1016.16375 -167.245036  L 1009.05375 -163.673932  L 1001.94375 -163.084229  L 994.83375 -160.34917  L 987.72375 -160.976804  L 980.61375 -160.454749  L 973.50375 -158.349076  L 966.39375 -154.997798  L 959.28375 -154.443062  L 952.17375 -153.305102  L 945.06375 -152.966311  L 937.95375 -152.664305  L 930.84375 -151.842861  L 923.73375 -151.316092  L 916.62375 -150.68597  L 909.51375 -151.273999  L 902.40375 -151.106948  L 895.29375 -150.891565  L 824.19375 -145.409984  L 753.09375 -143.705898  L 681.99375 -142.4403  L 610.89375 -141.732525  L 539.79375 -141.295601  L 468.69375 -141.030957  L 397.59375 -140.86766  L 326.49375 -140.762427  L 255.39375 -140.689144  L 184.29375 -140.635743  z " /><path id="m70b1d7ba8d" d="M 1039.12905 -504.784113  L 1039.12905 -140.433067  L 1039.20015 -140.433067  L 1039.27125 -140.433067  L 1039.34235 -140.433067  L 1039.41345 -140.433067  L 1039.48455 -140.433067  L 1039.55565 -140.433067  L 1039.62675 -140.433067  L 1039.69785 -140.433067  L 1039.76895 -140.433067  L 1039.84005 -140.433067  L 1039.91115 -140.433067  L 1039.98225 -140.433067  L 1040.05335 -140.433067  L 1040.12445 -140.433067  L 1040.19555 -140.433067  L 1040.26665 -140.433067  L 1040.33775 -140.433067  L 1040.40885 -140.433067  L 1040.47995 -140.433067  L 1040.55105 -140.433067  L 1040.62215 -140.433067  L 1040.69325 -140.433067  L 1040.76435 -140.433067  L 1040.83545 -140.433067  L 1040.90655 -140.433067  L 1040.97765 -140.433067  L 1041.04875 -140.433067  L 1041.11985 -140.433067  L 1041.19095 -140.433067  L 1041.26205 -140.433067  L 1041.33315 -140.433067  L 1041.40425 -140.433067  L 1041.47535 -140.433067  L 1041.54645 -140.433067  L 1041.61755 -140.433067  L 1041.68865 -140.433067  L 1041.75975 -140.433067  L 1041.83085 -140.433067  L 1041.90195 -140.433067  L 1041.97305 -140.433067  L 1042.04415 -140.433067  L 1042.11525 -140.433067  L 1042.18635 -140.433067  L 1042.25745 -140.433067  L 1042.32855 -140.433067  L 1042.39965 -140.433067  L 1042.47075 -140.433067  L 1042.54185 -140.433067  L 1042.61295 -140.433067  L 1042.68405 -140.433067  L 1042.75515 -140.433067  L 1042.82625 -140.433067  L 1042.89735 -140.433067  L 1042.96845 -140.433067  L 1043.03955 -140.433067  L 1043.11065 -140.433067  L 1043.18175 -140.433067  L 1043.25285 -140.433067  L 1043.32395 -140.433067  L 1043.39505 -140.433067  L 1043.46615 -140.433067  L 1043.53725 -140.433067  L 1043.60835 -140.433067  L 1043.67945 -140.433067  L 1043.75055 -140.433067  L 1043.82165 -140.433067  L 1043.89275 -140.433067  L 1043.96385 -140.433067  L 1044.03495 -140.433067  L 1044.10605 -140.433067  L 1044.17715 -140.433067  L 1044.24825 -140.433067  L 1044.31935 -140.433067  L 1044.39045 -140.433067  L 1044.46155 -140.433067  L 1044.53265 -140.433067  L 1044.60375 -140.433067  L 1044.60375 -598.820823  L 1044.60375 -598.820823  L 1044.53265 -599.384943  L 1044.46155 -599.916303  L 1044.39045 -600.414283  L 1044.31935 -600.878137  L 1044.24825 -601.308273  L 1044.17715 -601.703716  L 1044.10605 -602.063888  L 1044.03495 -602.38915  L 1043.96385 -602.679728  L 1043.89275 -602.936536  L 1043.82165 -603.159567  L 1043.75055 -603.348066  L 1043.67945 -603.501465  L 1043.60835 -603.618401  L 1043.53725 -603.697121  L 1043.46615 -603.735783  L 1043.39505 -603.732725  L 1043.32395 -603.685794  L 1043.25285 -603.593788  L 1043.18175 -603.454936  L 1043.11065 -603.266246  L 1043.03955 -603.026197  L 1042.96845 -602.733009  L 1042.89735 -602.386586  L 1042.82625 -601.987867  L 1042.75515 -601.537079  L 1042.68405 -601.034696  L 1042.61295 -600.482088  L 1042.54185 -599.879908  L 1042.47075 -599.229727  L 1042.39965 -598.533609  L 1042.32855 -597.791547  L 1042.25745 -597.003853  L 1042.18635 -596.171238  L 1042.11525 -595.294661  L 1042.04415 -594.373991  L 1041.97305 -593.408028  L 1041.90195 -592.395654  L 1041.83085 -591.335237  L 1041.75975 -590.223781  L 1041.68865 -589.057783  L 1041.61755 -587.834263  L 1041.54645 -586.549753  L 1041.47535 -585.200872  L 1041.40425 -583.785078  L 1041.33315 -582.299803  L 1041.26205 -580.740182  L 1041.19095 -579.103426  L 1041.11985 -577.389127  L 1041.04875 -575.596413  L 1040.97765 -573.725313  L 1040.90655 -571.77616  L 1040.83545 -569.750368  L 1040.76435 -567.649545  L 1040.69325 -565.476968  L 1040.62215 -563.236128  L 1040.55105 -560.93016  L 1040.47995 -558.56392  L 1040.40885 -556.14014  L 1040.33775 -553.65951  L 1040.26665 -551.126178  L 1040.19555 -548.543602  L 1040.12445 -545.913079  L 1040.05335 -543.23547  L 1039.98225 -540.512364  L 1039.91115 -537.746534  L 1039.84005 -534.939704  L 1039.76895 -532.093095  L 1039.69785 -529.206357  L 1039.62675 -526.279817  L 1039.55565 -523.315221  L 1039.48455 -520.313394  L 1039.41345 -517.272929  L 1039.34235 -514.192326  L 1039.27125 -511.082483  L 1039.20015 -507.946742  L 1039.12905 -504.784113  z " /><path d="M 184.29375 543.364257  L 397.59375 543.13234  L 539.79375 542.704399  L 610.89375 542.267475  L 681.99375 541.5597  L 753.09375 540.294102  L 824.19375 538.590016  L 895.29375 533.108435  L 909.51375 532.726001  L 916.62375 533.31403  L 937.95375 531.335695  L 952.17375 530.694898  L 959.28375 529.556938  L 966.39375 529.002202  L 973.50375 525.650924  L 980.61375 523.545251  L 987.72375 523.023196  L 994.83375 523.65083  L 1001.94375 520.915771  L 1009.05375 520.326068  L 1016.16375 516.754964  L 1016.87475 515.74099  L 1017.58575 514.380757  L 1018.29675 513.357947  L 1019.00775 511.947333  L 1019.71875 509.648608  L 1021.14075 506.286301  L 1021.85175 502.999575  L 1024.34025 496.184083  L 1025.97555 489.163122  L 1026.97095 485.8795  L 1027.46865 485.250761  L 1027.89525 484.267794  L 1028.39295 482.649328  L 1029.17505 478.530408  L 1030.73925 467.225976  L 1032.58785 449.362145  L 1034.00985 429.33531  L 1034.79195 402.929022  L 1036.21395 335.869524  L 1039.69785 154.793643  L 1040.69325 118.523032  L 1041.33315 101.700197  L 1041.97305 90.591972  L 1042.54185 84.120092  L 1042.96845 81.266991  L 1043.25285 80.406212  L 1043.46615 80.264217  L 1043.67945 80.498535  L 1043.96385 81.320272  L 1044.31935 83.121863  L 1044.60375 85.179177  L 1044.60375 85.179177  " clip-path="url(#p216d4a57f0)" style="fill: none; stroke: #000000; stroke-width: 1.6; stroke-linecap: square" /><path id="m03fac1c3a0" d="M 0 3  C 0.795609 3 1.55874 2.683901 2.12132 2.12132  C 2.683901 1.55874 3 0.795609 3 0  C 3 -0.795609 2.683901 -1.55874 2.12132 -2.12132  C 1.55874 -2.683901 0.795609 -3 0 -3  C -0.795609 -3 -1.55874 -2.683901 -2.12132 -2.12132  C -2.683901 -1.55874 -3 -0.795609 -3 0  C -3 0.795609 -2.683901 1.55874 -2.12132 2.12132  C -1.55874 2.683901 -0.795609 3 0 3  z " style="stroke: #804d7f" /></g><g id="markers"><path d="M 0 684  L 1176.81375 684  L 1176.81375 0  L 0 0  L 0 684  z " style="fill: none; opacity: 0" /><path d="M 42.09375 597.6  L 1065.93375 597.6  L 1065.93375 43.2  L 42.09375 43.2  L 42.09375 597.6  z " style="fill: none; opacity: 0" /><path d="M 42.09375 597.6  L 42.09375 43.2  " clip-path="url(#p216d4a57f0)" style="fill: none; stroke: #eeeeee; stroke-linecap: square" /><path d="M 184.29375 597.6  L 184.29375 43.2  " clip-path="url(#p216d4a57f0)" style="fill: none; stroke: #eeeeee; stroke-linecap: square" /><path d="M 326.49375 597.6  L 326.49375 43.2  " clip-path="url(#p216d4a57f0)" style="fill: none; stroke: #eeeeee; stroke-linecap: square" /><path d="M 468.69375 597.6  L 468.69375 43.2  " clip-path="url(#p216d4a57f0)" style="fill: none; stroke: #eeeeee; stroke-linecap: square" /><path d="M 610.89375 597.6  L 610.89375 43.2  " clip-path="url(#p216d4a57f0)" style="fill: none; stroke: #eeeeee; stroke-linecap: square" /><path d="M 753.09375 597.6  L 753.09375 43.2  " clip-path="url(#p216d4a57f0)" style="fill: none; stroke: #eeeeee; stroke-linecap: square" /><path d="M 895.29375 597.6  L 895.29375 43.2  " clip-path="url(#p216d4a57f0)" style="fill: none; stroke: #eeeeee; stroke-linecap: square" /><path d="M 1037.49375 597.6  L 1037.49375 43.2  " clip-path="url(#p216d4a57f0)" style="fill: none; stroke: #eeeeee; stroke-linecap: square" /><use xlink:href="#m736318e986" x="0" y="684" style="fill: #804d7f" /><use xlink:href="#m70b1d7ba8d" x="0" y="684" style="fill: #c588c1" /><path d="M 42.09375 597.6  L 42.09375 43.2  " style="fill: none; stroke: #999999; stroke-linejoin: miter; stroke-linecap: square" /><path d="M 42.09375 597.6  L 1065.93375 597.6  " style="fill: none; stroke: #999999; stroke-linejoin: miter; stroke-linecap: square" /><use xlink:href="#m03fac1c3a0" x="1016.87475" y="515.74099" style="fill: #804d7f; stroke: #804d7f" /><use xlink:href="#m03fac1c3a0" x="1023.48705" y="498.840864" style="fill: #804d7f; stroke: #804d7f" /><use xlink:href="#m03fac1c3a0" x="1030.52595" y="469.129556" style="fill: #804d7f; stroke: #804d7f" /><use xlink:href="#m03fac1c3a0" x="1032.30345" y="452.843219" style="fill: #804d7f; stroke: #804d7f" /><use xlink:href="#m03fac1c3a0" x="1034.64975" y="407.787649" style="fill: #804d7f; stroke: #804d7f" /><use xlink:href="#m03fac1c3a0" x="1035.71625" y="360.271673" style="fill: #804d7f; stroke: #804d7f" /><use xlink:href="#m03fac1c3a0" x="1036.56945" y="316.189196" style="fill: #804d7f; stroke: #804d7f" /><use xlink:href="#m03fac1c3a0" x="1037.35155" y="273.083403" style="fill: #804d7f; stroke: #804d7f" /><use xlink:href="#m03fac1c3a0" x="1038.20475" y="227.395497" style="fill: #804d7f; stroke: #804d7f" /><use xlink:href="#m03fac1c3a0" x="1039.05795" y="182.382573" style="fill: #804d7f; stroke: #804d7f" /><use xlink:href="#m03fac1c3a0" x="1040.12445" y="138.086921" style="fill: #804d7f; stroke: #804d7f" /><use xlink:href="#m03fac1c3a0" x="1041.83085" y="92.664763" style="fill: #804d7f; stroke: #804d7f" /></g><g id="title"><text style="font-size: 28px; font-family: 'DejaVu Sans', 'Bitstream Vera Sans', 'Computer Modern Sans Serif', 'Lucida Grande', 'Verdana', 'Geneva', 'Lucid', 'Arial', 'Helvetica', 'Avant Garde', sans-serif; text-anchor: start" x="55.05375" y="28.475625" transform="rotate(-0 55.05375 28.475625)">The size of the world population over the long-run</text></g><g id="axis-labels"><text style="font-size: 12px; font-family: 'DejaVu Sans', 'Bitstream Vera Sans', 'Computer Modern Sans Serif', 'Lucida Grande', 'Verdana', 'Geneva', 'Lucid', 'Arial', 'Helvetica', 'Avant Garde', sans-serif; text-anchor: middle; fill: #666666" x="42.09375" y="610.218125" transform="rotate(-0 42.09375 610.218125)">12,000 BCE</text><text style="font-size: 12px; font-family: 'DejaVu Sans', 'Bitstream Vera Sans', 'Computer Modern Sans Serif', 'Lucida Grande', 'Verdana', 'Geneva', 'Lucid', 'Arial', 'Helvetica', 'Avant Garde', sans-serif; text-anchor: middle; fill: #666666" x="326.49375" y="610.218125" transform="rotate(-0 326.49375 610.218125)">8,000 BCE</text><text style="font-size: 12px; font-family: 'DejaVu Sans', 'Bitstream Vera Sans', 'Computer Modern Sans Serif', 'Lucida Grande', 'Verdana', 'Geneva', 'Lucid', 'Arial', 'Helvetica', 'Avant Garde', sans-serif; text-anchor: middle; fill: #666666" x="468.69375" y="610.218125" transform="rotate(-0 468.69375 610.218125)">6,000 BCE</text><text style="font-size: 12px; font-family: 'DejaVu Sans', 'Bitstream Vera Sans', 'Computer Modern Sans Serif', 'Lucida Grande', 'Verdana', 'Geneva', 'Lucid', 'Arial', 'Helvetica', 'Avant Garde', sans-serif; text-anchor: middle; fill: #666666" x="610.89375" y="610.218125" transform="rotate(-0 610.89375 610.218125)">4,000 BCE</text><text style="font-size: 12px; font-family: 'DejaVu Sans', 'Bitstream Vera Sans', 'Computer Modern Sans Serif', 'Lucida Grande', 'Verdana', 'Geneva', 'Lucid', 'Arial', 'Helvetica', 'Avant Garde', sans-serif; text-anchor: middle; fill: #666666" x="753.09375" y="610.218125" transform="rotate(-0 753.09375 610.218125)">2,000 BCE</text><text style="font-size: 12px; font-family: 'DejaVu Sans', 'Bitstream Vera Sans', 'Computer Modern Sans Serif', 'Lucida Grande', 'Verdana', 'Geneva', 'Lucid', 'Arial', 'Helvetica', 'Avant Garde', sans-serif; text-anchor: middle; fill: #666666" x="895.29375" y="610.218125" transform="rotate(-0 895.29375 610.218125)">0</text><text style="font-size: 12px; font-family: 'DejaVu Sans', 'Bitstream Vera Sans', 'Computer Modern Sans Serif', 'Lucida Grande', 'Verdana', 'Geneva', 'Lucid', 'Arial', 'Helvetica', 'Avant Garde', sans-serif; text-anchor: middle; fill: #666666" x="1037.49375" y="610.218125" transform="rotate(-0 1037.49375 610.218125)">2000</text><text style="font-size: 12px; font-family: 'DejaVu Sans', 'Bitstream Vera Sans', 'Computer Modern Sans Serif', 'Lucida Grande', 'Verdana', 'Geneva', 'Lucid', 'Arial', 'Helvetica', 'Avant Garde', sans-serif; text-anchor: end; fill: #666666" x="38.59375" y="548.125996" transform="rotate(-0 38.59375 548.125996)">0</text><text style="font-size: 12px; font-family: 'DejaVu Sans', 'Bitstream Vera Sans', 'Computer Modern Sans Serif', 'Lucida Grande', 'Verdana', 'Geneva', 'Lucid', 'Arial', 'Helvetica', 'Avant Garde', sans-serif; text-anchor: end; fill: #666666" x="38.59375" y="458.070884" transform="rotate(-0 38.59375 458.070884)">2</text><text style="font-size: 12px; font-family: 'DejaVu Sans', 'Bitstream Vera Sans', 'Computer Modern Sans Serif', 'Lucida Grande', 'Verdana', 'Geneva', 'Lucid', 'Arial', 'Helvetica', 'Avant Garde', sans-serif; text-anchor: end; fill: #666666" x="38.59375" y="368.015772" transform="rotate(-0 38.59375 368.015772)">4</text><text style="font-size: 12px; font-family: 'DejaVu Sans', 'Bitstream Vera Sans', 'Computer Modern Sans Serif', 'Lucida Grande', 'Verdana', 'Geneva', 'Lucid', 'Arial', 'Helvetica', 'Avant Garde', sans-serif; text-anchor: end; fill: #666666" x="38.59375" y="277.960661" transform="rotate(-0 38.59375 277.960661)">6</text><text style="font-size: 12px; font-family: 'DejaVu Sans', 'Bitstream Vera Sans', 'Computer Modern Sans Serif', 'Lucida Grande', 'Verdana', 'Geneva', 'Lucid', 'Arial', 'Helvetica', 'Avant Garde', sans-serif; text-anchor: end; fill: #666666" x="38.59375" y="187.905549" transform="rotate(-0 38.59375 187.905549)">8</text><text style="font-size: 12px; font-family: 'DejaVu Sans', 'Bitstream Vera Sans', 'Computer Modern Sans Serif', 'Lucida Grande', 'Verdana', 'Geneva', 'Lucid', 'Arial', 'Helvetica', 'Avant Garde', sans-serif; text-anchor: end; fill: #666666" x="38.59375" y="97.850438" transform="rotate(-0 38.59375 97.850438)">10</text><text style="font-size: 11px; font-family: 'DejaVu Sans', 'Bitstream Vera Sans', 'Computer Modern Sans Serif', 'Lucida Grande', 'Verdana', 'Geneva', 'Lucid', 'Arial', 'Helvetica', 'Avant Garde', sans-serif; fill: #1f2a2a" transform="translate(184.29375 506.447905)">world population</text><text style="font-size: 11px; font-family: 'DejaVu Sans', 'Bitstream Vera Sans', 'Computer Modern Sans Serif', 'Lucida Grande', 'Verdana', 'Geneva', 'Lucid', 'Arial', 'Helvetica', 'Avant Garde', sans-serif; fill: #1f2a2a" transform="translate(544.253516 518.765499)">was just 0.04% per year</text><text style="font-size: 11px; font-family: 'DejaVu Sans', 'Bitstream Vera Sans', 'Computer Modern Sans Serif', 'Lucida Grande', 'Verdana', 'Geneva', 'Lucid', 'Arial', 'Helvetica', 'Avant Garde', sans-serif; fill: #1f2a2a" transform="translate(832.460547 461.420349)">population was around</text><text style="font-size: 11px; font-family: 'DejaVu Sans', 'Bitstream Vera Sans', 'Computer Modern Sans Serif', 'Lucida Grande', 'Verdana', 'Geneva', 'Lucid', 'Arial', 'Helvetica', 'Avant Garde', sans-serif; fill: #1f2a2a" transform="translate(839.339531 391.757606)">In the mid 14th century the</text><text style="font-size: 11px; font-family: 'DejaVu Sans', 'Bitstream Vera Sans', 'Computer Modern Sans Serif', 'Lucida Grande', 'Verdana', 'Geneva', 'Lucid', 'Arial', 'Helvetica', 'Avant Garde', sans-serif; fill: #1f2a2a" transform="translate(840.829688 416.392794)">between a quarter and half</text><text style="font-size: 11px; font-family: 'DejaVu Sans', 'Bitstream Vera Sans', 'Computer Modern Sans Serif', 'Lucida Grande', 'Verdana', 'Geneva', 'Lucid', 'Arial', 'Helvetica', 'Avant Garde', sans-serif; fill: #1f2a2a" transform="translate(867.843281 428.710387)">of all people in Europe</text><text style="font-size: 10.5px; font-family: 'DejaVu Sans', 'Bitstream Vera Sans', 'Computer Modern Sans Serif', 'Lucida Grande', 'Verdana', 'Geneva', 'Lucid', 'Arial', 'Helvetica', 'Avant Garde', sans-serif; fill: #1f2a2a" transform="translate(863.413931 83.258712)">The UN demographers expect the</text><text style="font-size: 10.5px; font-family: 'DejaVu Sans', 'Bitstream Vera Sans', 'Computer Modern Sans Serif', 'Lucida Grande', 'Verdana', 'Geneva', 'Lucid', 'Arial', 'Helvetica', 'Avant Garde', sans-serif; fill: #1f2a2a" transform="translate(869.750025 95.016416)">world population to peak at 10.3</text><text style="font-size: 10.5px; font-family: 'DejaVu Sans', 'Bitstream Vera Sans', 'Computer Modern Sans Serif', 'Lucida Grande', 'Verdana', 'Geneva', 'Lucid', 'Arial', 'Helvetica', 'Avant Garde', sans-serif; fill: #1f2a2a" transform="translate(986.341041 118.531822)">thereafter.</text><text style="font-size: 10.5px; font-family: 'DejaVu Sans', 'Bitstream Vera Sans', 'Computer Modern Sans Serif', 'Lucida Grande', 'Verdana', 'Geneva', 'Lucid', 'Arial', 'Helvetica', 'Avant Garde', sans-serif; fill: #c588c1" transform="translate(908.754328 182.319335)">The pink line shows the </text><text style="font-size: 10.5px; font-family: 'DejaVu Sans', 'Bitstream Vera Sans', 'Computer Modern Sans Serif', 'Lucida Grande', 'Verdana', 'Geneva', 'Lucid', 'Arial', 'Helvetica', 'Avant Garde', sans-serif; fill: #804d7f" transform="translate(863.574797 245.357913)">The purple line shows the size of</text><text style="font-size: 10.5px; font-family: 'DejaVu Sans', 'Bitstream Vera Sans', 'Computer Modern Sans Serif', 'Lucida Grande', 'Verdana', 'Geneva', 'Lucid', 'Arial', 'Helvetica', 'Avant Garde', sans-serif; fill: #804d7f" transform="translate(857.783391 257.115616)">the world population over the last</text><text style="font-size: 10.5px; font-family: 'DejaVu Sans', 'Bitstream Vera Sans', 'Computer Modern Sans Serif', 'Lucida Grande', 'Verdana', 'Geneva', 'Lucid', 'Arial', 'Helvetica', 'Avant Garde', sans-serif; fill: #804d7f" transform="translate(967.098234 268.873319)">12,000 years</text></g><g id="data-labels"><text style="font-size: 10.5px; font-family: 'DejaVu Sans', 'Bitstream Vera Sans', 'Computer Modern Sans Serif', 'Lucida Grande', 'Verdana', 'Geneva', 'Lucid', 'Arial', 'Helvetica', 'Avant Garde', sans-serif; text-anchor: start; fill: #1f2a2a" x="1045.31475" y="518.638334" transform="rotate(-0 1045.31475 518.638334)">600 million in 1710</text><text style="font-size: 10.5px; font-family: 'DejaVu Sans', 'Bitstream Vera Sans', 'Computer Modern Sans Serif', 'Lucida Grande', 'Verdana', 'Geneva', 'Lucid', 'Arial', 'Helvetica', 'Avant Garde', sans-serif; text-anchor: start; fill: #1f2a2a" x="1045.31475" y="501.738207" transform="rotate(-0 1045.31475 501.738207)">990 million in 1803</text><text style="font-size: 10.5px; font-family: 'DejaVu Sans', 'Bitstream Vera Sans', 'Computer Modern Sans Serif', 'Lucida Grande', 'Verdana', 'Geneva', 'Lucid', 'Arial', 'Helvetica', 'Avant Garde', sans-serif; text-anchor: start; fill: #1f2a2a" x="1045.31475" y="472.0269" transform="rotate(-0 1045.31475 472.0269)">1.65 billion in 1902</text><text style="font-size: 10.5px; font-family: 'DejaVu Sans', 'Bitstream Vera Sans', 'Computer Modern Sans Serif', 'Lucida Grande', 'Verdana', 'Geneva', 'Lucid', 'Arial', 'Helvetica', 'Avant Garde', sans-serif; text-anchor: start; fill: #1f2a2a" x="1045.31475" y="455.740563" transform="rotate(-0 1045.31475 455.740563)">2 billion in 1927</text><text style="font-size: 10.5px; font-family: 'DejaVu Sans', 'Bitstream Vera Sans', 'Computer Modern Sans Serif', 'Lucida Grande', 'Verdana', 'Geneva', 'Lucid', 'Arial', 'Helvetica', 'Avant Garde', sans-serif; text-anchor: start; fill: #1f2a2a" x="1045.31475" y="410.684993" transform="rotate(-0 1045.31475 410.684993)">3 billion in 1960</text><text style="font-size: 10.5px; font-family: 'DejaVu Sans', 'Bitstream Vera Sans', 'Computer Modern Sans Serif', 'Lucida Grande', 'Verdana', 'Geneva', 'Lucid', 'Arial', 'Helvetica', 'Avant Garde', sans-serif; text-anchor: start; fill: #1f2a2a" x="1045.31475" y="363.169017" transform="rotate(-0 1045.31475 363.169017)">4 billion in 1975</text><text style="font-size: 10.5px; font-family: 'DejaVu Sans', 'Bitstream Vera Sans', 'Computer Modern Sans Serif', 'Lucida Grande', 'Verdana', 'Geneva', 'Lucid', 'Arial', 'Helvetica', 'Avant Garde', sans-serif; text-anchor: start; fill: #1f2a2a" x="1045.31475" y="319.08654" transform="rotate(-0 1045.31475 319.08654)">5 billion in 1987</text><text style="font-size: 10.5px; font-family: 'DejaVu Sans', 'Bitstream Vera Sans', 'Computer Modern Sans Serif', 'Lucida Grande', 'Verdana', 'Geneva', 'Lucid', 'Arial', 'Helvetica', 'Avant Garde', sans-serif; text-anchor: start; fill: #1f2a2a" x="1045.31475" y="275.980746" transform="rotate(-0 1045.31475 275.980746)">6 billion in 1998</text><text style="font-size: 10.5px; font-family: 'DejaVu Sans', 'Bitstream Vera Sans', 'Computer Modern Sans Serif', 'Lucida Grande', 'Verdana', 'Geneva', 'Lucid', 'Arial', 'Helvetica', 'Avant Garde', sans-serif; text-anchor: start; fill: #1f2a2a" x="1045.31475" y="230.292841" transform="rotate(-0 1045.31475 230.292841)">7 billion in 2010</text><text style="font-size: 10.5px; font-family: 'DejaVu Sans', 'Bitstream Vera Sans', 'Computer Modern Sans Serif', 'Lucida Grande', 'Verdana', 'Geneva', 'Lucid', 'Arial', 'Helvetica', 'Avant Garde', sans-serif; text-anchor: start; fill: #1f2a2a" x="1045.31475" y="185.279917" transform="rotate(-0 1045.31475 185.279917)">8 billion in 2022</text><text style="font-size: 10.5px; font-family: 'DejaVu Sans', 'Bitstream Vera Sans', 'Computer Modern Sans Serif', 'Lucida Grande', 'Verdana', 'Geneva', 'Lucid', 'Arial', 'Helvetica', 'Avant Garde', sans-serif; text-anchor: start; fill: #1f2a2a" x="1045.31475" y="140.984265" transform="rotate(-0 1045.31475 140.984265)">9 billion in 2037</text><text style="font-size: 10.5px; font-family: 'DejaVu Sans', 'Bitstream Vera Sans', 'Computer Modern Sans Serif', 'Lucida Grande', 'Verdana', 'Geneva', 'Lucid', 'Arial', 'Helvetica', 'Avant Garde', sans-serif; text-anchor: start; fill: #1f2a2a" x="1045.31475" y="95.562106" transform="rotate(-0 1045.31475 95.562106)">10 billion in 2061</text><text style="font-size: 11px; font-family: 'DejaVu Sans', 'Bitstream Vera Sans', 'Computer Modern Sans Serif', 'Lucida Grande', 'Verdana', 'Geneva', 'Lucid', 'Arial', 'Helvetica', 'Avant Garde', sans-serif; fill: #1f2a2a" transform="translate(184.29375 518.765499)">was around 4 million</text><text style="font-size: 11px; font-family: 'DejaVu Sans', 'Bitstream Vera Sans', 'Computer Modern Sans Serif', 'Lucida Grande', 'Verdana', 'Geneva', 'Lucid', 'Arial', 'Helvetica', 'Avant Garde', sans-serif; fill: #1f2a2a" transform="translate(541.348828 506.447905)">from 10,000 BCE to 1700</text><text style="font-size: 11px; font-family: 'DejaVu Sans', 'Bitstream Vera Sans', 'Computer Modern Sans Serif', 'Lucida Grande', 'Verdana', 'Geneva', 'Lucid', 'Arial', 'Helvetica', 'Avant Garde', sans-serif; fill: #1f2a2a" transform="translate(864.7275 473.737943)">232 million</text><text style="font-size: 10.5px; font-family: 'DejaVu Sans', 'Bitstream Vera Sans', 'Computer Modern Sans Serif', 'Lucida Grande', 'Verdana', 'Geneva', 'Lucid', 'Arial', 'Helvetica', 'Avant Garde', sans-serif; fill: #1f2a2a" transform="translate(888.796041 106.774119)">billion in 2084 and to decline</text><text style="font-size: 10px; font-family: 'DejaVu Sans', 'Bitstream Vera Sans', 'Computer Modern Sans Serif', 'Lucida Grande', 'Verdana', 'Geneva', 'Lucid', 'Arial', 'Helvetica', 'Avant Garde', sans-serif; fill: #18a0a8" transform="translate(752.60625 607.390739)">1800 was less than 28 years</text><text style="font-size: 10px; font-family: 'DejaVu Sans', 'Bitstream Vera Sans', 'Computer Modern Sans Serif', 'Lucida Grande', 'Verdana', 'Geneva', 'Lucid', 'Arial', 'Helvetica', 'Avant Garde', sans-serif; fill: #18a0a8" transform="translate(1000.746719 607.390739)">in 2023: 73 years</text></g><g id="annotations"><text style="font-size: 12px; font-family: 'DejaVu Sans', 'Bitstream Vera Sans', 'Computer Modern Sans Serif', 'Lucida Grande', 'Verdana', 'Geneva', 'Lucid', 'Arial', 'Helvetica', 'Avant Garde', sans-serif; text-anchor: middle; fill: #666666" x="184.29375" y="610.218125" transform="rotate(-0 184.29375 610.218125)">10,000 BCE</text><text style="font-size: 11px; font-family: 'DejaVu Sans', 'Bitstream Vera Sans', 'Computer Modern Sans Serif', 'Lucida Grande', 'Verdana', 'Geneva', 'Lucid', 'Arial', 'Helvetica', 'Avant Garde', sans-serif; fill: #1f2a2a" transform="translate(184.29375 494.130311)">In 10,000 BCE the</text><text style="font-size: 11px; font-family: 'DejaVu Sans', 'Bitstream Vera Sans', 'Computer Modern Sans Serif', 'Lucida Grande', 'Verdana', 'Geneva', 'Lucid', 'Arial', 'Helvetica', 'Avant Garde', sans-serif; fill: #1f2a2a" transform="translate(542.5975 494.130311)">The average growth rate</text><text style="font-size: 11px; font-family: 'DejaVu Sans', 'Bitstream Vera Sans', 'Computer Modern Sans Serif', 'Lucida Grande', 'Verdana', 'Geneva', 'Lucid', 'Arial', 'Helvetica', 'Avant Garde', sans-serif; fill: #1f2a2a" transform="translate(832.479453 449.102756)">In the year 0 the world</text><text style="font-size: 11px; font-family: 'DejaVu Sans', 'Bitstream Vera Sans', 'Computer Modern Sans Serif', 'Lucida Grande', 'Verdana', 'Geneva', 'Lucid', 'Arial', 'Helvetica', 'Avant Garde', sans-serif; fill: #1f2a2a" transform="translate(834.210781 404.0752)">Black Death pandemic killed</text><text style="font-size: 10.5px; font-family: 'DejaVu Sans', 'Bitstream Vera Sans', 'Computer Modern Sans Serif', 'Lucida Grande', 'Verdana', 'Geneva', 'Lucid', 'Arial', 'Helvetica', 'Avant Garde', sans-serif; fill: #c588c1" transform="translate(824.541047 194.077038)">projection by the UN Population Division</text><text style="font-size: 10px; font-family: 'DejaVu Sans', 'Bitstream Vera Sans', 'Computer Modern Sans Serif', 'Lucida Grande', 'Verdana', 'Geneva', 'Lucid', 'Arial', 'Helvetica', 'Avant Garde', sans-serif; fill: #18a0a8" transform="translate(750.921875 596.192926)">Global life expectancy before</text><text style="font-size: 10px; font-family: 'DejaVu Sans', 'Bitstream Vera Sans', 'Computer Modern Sans Serif', 'Lucida Grande', 'Verdana', 'Geneva', 'Lucid', 'Arial', 'Helvetica', 'Avant Garde', sans-serif; fill: #18a0a8" transform="translate(989.010781 596.192926)">Global life expectancy</text></g><g id="source"><text style="font-size: 9px; font-family: 'DejaVu Sans', 'Bitstream Vera Sans', 'Computer Modern Sans Serif', 'Lucida Grande', 'Verdana', 'Geneva', 'Lucid', 'Arial', 'Helvetica', 'Avant Garde', sans-serif; fill: #666666" transform="translate(55.05375 664.85025)">Gapminder (2022)Data sources: Gapminder (2023)Data sources: HYDE (2023)Data sources: UN WPP (2024).</text><text style="font-size: 9px; font-family: 'DejaVu Sans', 'Bitstream Vera Sans', 'Computer Modern Sans Serif', 'Lucida Grande', 'Verdana', 'Geneva', 'Lucid', 'Arial', 'Helvetica', 'Avant Garde', sans-serif; fill: #666666" transform="translate(55.05375 674.928281)">This is a visualization from OurWorldInData.org.</text><text style="font-size: 9px; font-family: 'DejaVu Sans', 'Bitstream Vera Sans', 'Computer Modern Sans Serif', 'Lucida Grande', 'Verdana', 'Geneva', 'Lucid', 'Arial', 'Helvetica', 'Avant Garde', sans-serif; text-anchor: end; fill: #666666" x="1169.61375" y="674.928281" transform="rotate(-0 1169.61375 674.928281)">Licensed under CC-BY-SA by the author Max Roser.</text></g></g><defs>
  <clipPath id="p216d4a57f0">
   <rect x="42.09375" y="43.2" width="1023.84" height="554.4" />
  </clipPath>
 </defs>
</svg>