<?xml version='1.0' encoding='utf-8'?>
<svg xmlns="http://www.w3.org/2000/svg" xmlns:dc="http://purl.org/dc/elements/1.1/" xmlns:ns2="http://creativecommons.org/ns#" xmlns:rdf="http://www.w3.org/1999/02/22-rdf-syntax-ns#" xmlns:xlink="http://www.w3.org/1999/xlink" width="759.01375pt" height="1219.68pt" viewBox="0 0 759.01375 1219.68" version="1.1">
 <metadata>
  <rdf:RDF>
   <ns2:Work>
    <dc:type rdf:resource="http://purl.org/dc/dcmitype/StillImage" />
    <dc:format>image/svg+xml</dc:format>
    <dc:creator>
     <ns2:Agent>
      <dc:title>Matplotlib v3.10.8, https://matplotlib.org/</dc:title>
     </ns2:Agent>
    </dc:creator>
   </ns2:Work>
  </rdf:RDF>
 </metadata>
 <defs>
  <style type="text/css">*{stroke-linejoin: round; stroke-linecap: butt}</style>
 </defs>
 <g><g id="grid-lines"><path id="m912f1726f7" d="M 121.09375 -247.384337  L 121.09375 -247.01952  L 160.59375 -247.01952  L 200.09375 -247.01952  L 239.59375 -247.01952  L 279.09375 -247.01952  L 318.59375 -247.01952  L 358.09375 -247.01952  L 397.59375 -247.01952  L 437.09375 -247.01952  L 476.59375 -247.01952  L 516.09375 -247.01952  L 520.04375 -247.01952  L 523.99375 -247.01952  L 527.94375 -247.01952  L 531.89375 -247.01952  L 535.84375 -247.01952  L 539.79375 -247.01952  L 543.74375 -247.01952  L 547.69375 -247.01952  L 551.64375 -247.01952  L 555.59375 -247.01952  L 559.54375 -247.01952  L 563.49375 -247.01952  L 567.44375 -247.01952  L 571.39375 -247.01952  L 575.34375 -247.01952  L 579.29375 -247.01952  L 583.24375 -247.01952  L 583.63875 -247.01952  L 584.03375 -247.01952  L 584.42875 -247.01952  L 584.82375 -247.01952  L 585.21875 -247.01952  L 585.61375 -247.01952  L 586.00875 -247.01952  L 586.40375 -247.01952  L 586.79875 -247.01952  L 587.19375 -247.01952  L 587.23325 -247.01952  L 587.27275 -247.01952  L 587.31225 -247.01952  L 587.35175 -247.01952  L 587.39125 -247.01952  L 587.43075 -247.01952  L 587.47025 -247.01952  L 587.50975 -247.01952  L 587.54925 -247.01952  L 587.58875 -247.01952  L 587.62825 -247.01952  L 587.66775 -247.01952  L 587.70725 -247.01952  L 587.74675 -247.01952  L 587.78625 -247.01952  L 587.82575 -247.01952  L 587.86525 -247.01952  L 587.90475 -247.01952  L 587.94425 -247.01952  L 587.98375 -247.01952  L 588.02325 -247.01952  L 588.06275 -247.01952  L 588.10225 -247.01952  L 588.14175 -247.01952  L 588.18125 -247.01952  L 588.22075 -247.01952  L 588.26025 -247.01952  L 588.29975 -247.01952  L 588.33925 -247.01952  L 588.37875 -247.01952  L 588.41825 -247.01952  L 588.45775 -247.01952  L 588.49725 -247.01952  L 588.53675 -247.01952  L 588.57625 -247.01952  L 588.61575 -247.01952  L 588.65525 -247.01952  L 588.69475 -247.01952  L 588.73425 -247.01952  L 588.77375 -247.01952  L 588.81325 -247.01952  L 588.85275 -247.01952  L 588.89225 -247.01952  L 588.93175 -247.01952  L 588.97125 -247.01952  L 589.01075 -247.01952  L 589.05025 -247.01952  L 589.08975 -247.01952  L 589.12925 -247.01952  L 589.16875 -247.01952  L 589.20825 -247.01952  L 589.24775 -247.01952  L 589.28725 -247.01952  L 589.32675 -247.01952  L 589.36625 -247.01952  L 589.40575 -247.01952  L 589.44525 -247.01952  L 589.48475 -247.01952  L 589.52425 -247.01952  L 589.56375 -247.01952  L 589.60325 -247.01952  L 589.64275 -247.01952  L 589.68225 -247.01952  L 589.72175 -247.01952  L 589.76125 -247.01952  L 589.80075 -247.01952  L 589.84025 -247.01952  L 589.87975 -247.01952  L 589.91925 -247.01952  L 589.95875 -247.01952  L 589.99825 -247.01952  L 590.03775 -247.01952  L 590.07725 -247.01952  L 590.11675 -247.01952  L 590.15625 -247.01952  L 590.19575 -247.01952  L 590.23525 -247.01952  L 590.27475 -247.01952  L 590.31425 -247.01952  L 590.35375 -247.01952  L 590.39325 -247.01952  L 590.43275 -247.01952  L 590.47225 -247.01952  L 590.51175 -247.01952  L 590.55125 -247.01952  L 590.59075 -247.01952  L 590.63025 -247.01952  L 590.66975 -247.01952  L 590.70925 -247.01952  L 590.74875 -247.01952  L 590.78825 -247.01952  L 590.82775 -247.01952  L 590.86725 -247.01952  L 590.90675 -247.01952  L 590.94625 -247.01952  L 590.98575 -247.01952  L 591.02525 -247.01952  L 591.06475 -247.01952  L 591.10425 -247.01952  L 591.14375 -247.01952  L 591.18325 -247.01952  L 591.22275 -247.01952  L 591.26225 -247.01952  L 591.30175 -247.01952  L 591.34125 -247.01952  L 591.38075 -247.01952  L 591.42025 -247.01952  L 591.45975 -247.01952  L 591.49925 -247.01952  L 591.53875 -247.01952  L 591.57825 -247.01952  L 591.61775 -247.01952  L 591.65725 -247.01952  L 591.69675 -247.01952  L 591.73625 -247.01952  L 591.77575 -247.01952  L 591.81525 -247.01952  L 591.85475 -247.01952  L 591.89425 -247.01952  L 591.93375 -247.01952  L 591.97325 -247.01952  L 592.01275 -247.01952  L 592.05225 -247.01952  L 592.09175 -247.01952  L 592.13125 -247.01952  L 592.17075 -247.01952  L 592.21025 -247.01952  L 592.24975 -247.01952  L 592.28925 -247.01952  L 592.32875 -247.01952  L 592.36825 -247.01952  L 592.40775 -247.01952  L 592.44725 -247.01952  L 592.48675 -247.01952  L 592.52625 -247.01952  L 592.56575 -247.01952  L 592.60525 -247.01952  L 592.64475 -247.01952  L 592.68425 -247.01952  L 592.72375 -247.01952  L 592.76325 -247.01952  L 592.80275 -247.01952  L 592.84225 -247.01952  L 592.88175 -247.01952  L 592.92125 -247.01952  L 592.96075 -247.01952  L 593.00025 -247.01952  L 593.03975 -247.01952  L 593.07925 -247.01952  L 593.11875 -247.01952  L 593.15825 -247.01952  L 593.19775 -247.01952  L 593.23725 -247.01952  L 593.27675 -247.01952  L 593.31625 -247.01952  L 593.35575 -247.01952  L 593.39525 -247.01952  L 593.43475 -247.01952  L 593.47425 -247.01952  L 593.51375 -247.01952  L 593.55325 -247.01952  L 593.59275 -247.01952  L 593.63225 -247.01952  L 593.67175 -247.01952  L 593.71125 -247.01952  L 593.75075 -247.01952  L 593.79025 -247.01952  L 593.82975 -247.01952  L 593.86925 -247.01952  L 593.90875 -247.01952  L 593.94825 -247.01952  L 593.98775 -247.01952  L 594.02725 -247.01952  L 594.06675 -247.01952  L 594.10625 -247.01952  L 594.14575 -247.01952  L 594.18525 -247.01952  L 594.22475 -247.01952  L 594.26425 -247.01952  L 594.30375 -247.01952  L 594.34325 -247.01952  L 594.38275 -247.01952  L 594.42225 -247.01952  L 594.46175 -247.01952  L 594.50125 -247.01952  L 594.54075 -247.01952  L 594.58025 -247.01952  L 594.61975 -247.01952  L 594.65925 -247.01952  L 594.69875 -247.01952  L 594.73825 -247.01952  L 594.77775 -247.01952  L 594.81725 -247.01952  L 594.85675 -247.01952  L 594.89625 -247.01952  L 594.93575 -247.01952  L 594.97525 -247.01952  L 595.01475 -247.01952  L 595.05425 -247.01952  L 595.09375 -247.01952  L 595.13325 -247.01952  L 595.17275 -247.01952  L 595.21225 -247.01952  L 595.25175 -247.01952  L 595.29125 -247.01952  L 595.33075 -247.01952  L 595.37025 -247.01952  L 595.40975 -247.01952  L 595.44925 -247.01952  L 595.48875 -247.01952  L 595.52825 -247.01952  L 595.56775 -247.01952  L 595.60725 -247.01952  L 595.64675 -247.01952  L 595.68625 -247.01952  L 595.72575 -247.01952  L 595.76525 -247.01952  L 595.80475 -247.01952  L 595.84425 -247.01952  L 595.88375 -247.01952  L 595.92325 -247.01952  L 595.96275 -247.01952  L 596.00225 -247.01952  L 596.00225 -902.851403  L 596.00225 -902.851403  L 595.96275 -897.151368  L 595.92325 -891.724384  L 595.88375 -886.257823  L 595.84425 -880.121753  L 595.80475 -873.525052  L 595.76525 -866.6938  L 595.72575 -859.637344  L 595.68625 -852.499902  L 595.64675 -845.296567  L 595.60725 -838.016477  L 595.56775 -830.674104  L 595.52825 -823.357051  L 595.48875 -816.128105  L 595.44925 -808.917468  L 595.40975 -801.760079  L 595.37025 -794.696697  L 595.33075 -787.738041  L 595.29125 -780.890817  L 595.25175 -774.11569  L 595.21225 -767.387265  L 595.17275 -760.690032  L 595.13325 -753.979621  L 595.09375 -747.233582  L 595.05425 -740.53105  L 595.01475 -733.889875  L 594.97525 -727.221206  L 594.93575 -720.515803  L 594.89625 -713.77436  L 594.85675 -707.020682  L 594.81725 -700.211992  L 594.77775 -693.277795  L 594.73825 -686.205899  L 594.69875 -678.835833  L 594.65925 -671.268121  L 594.61975 -663.775961  L 594.58025 -656.299447  L 594.54075 -648.869343  L 594.50125 -641.645442  L 594.46175 -634.612935  L 594.42225 -627.736043  L 594.38275 -620.874858  L 594.34325 -614.075111  L 594.30375 -607.496229  L 594.26425 -601.087903  L 594.22475 -594.892308  L 594.18525 -588.875696  L 594.14575 -582.909034  L 594.10625 -576.950988  L 594.06675 -570.927448  L 594.02725 -564.799202  L 593.98775 -558.648562  L 593.94825 -552.564184  L 593.90875 -546.472166  L 593.86925 -540.377867  L 593.82975 -534.35553  L 593.79025 -528.538246  L 593.75075 -522.915694  L 593.71125 -517.282145  L 593.67175 -511.604915  L 593.63225 -505.795319  L 593.59275 -500.16776  L 593.55325 -495.425983  L 593.51375 -491.422231  L 593.47425 -487.408611  L 593.43475 -482.975143  L 593.39525 -478.223096  L 593.35575 -473.586383  L 593.31625 -469.112754  L 593.27675 -464.710225  L 593.23725 -460.512779  L 593.19775 -456.458686  L 593.15825 -452.636443  L 593.11875 -449.0837  L 593.07925 -447.043695  L 593.03975 -444.934311  L 593.00025 -443.264255  L 592.96075 -441.725119  L 592.92125 -440.296215  L 592.88175 -438.857347  L 592.84225 -437.406216  L 592.80275 -435.95711  L 592.76325 -434.414219  L 592.72375 -432.783548  L 592.68425 -431.056838  L 592.64475 -429.229342  L 592.60525 -427.333045  L 592.56575 -425.471524  L 592.52625 -423.638019  L 592.48675 -421.83481  L 592.44725 -420.053903  L 592.40775 -418.294798  L 592.36825 -416.588139  L 592.32875 -414.937006  L 592.28925 -413.343467  L 592.24975 -411.806351  L 592.21025 -410.322205  L 592.17075 -408.860465  L 592.13125 -407.418922  L 592.09175 -405.997436  L 592.05225 -404.597519  L 592.01275 -403.21893  L 591.97325 -401.898521  L 591.93375 -400.643095  L 591.89425 -399.443418  L 591.85475 -398.321203  L 591.81525 -397.267411  L 591.77575 -396.263906  L 591.73625 -395.26758  L 591.69675 -394.277299  L 591.65725 -393.298113  L 591.61775 -392.334352  L 591.57825 -391.322029  L 591.53875 -390.268042  L 591.49925 -389.158576  L 591.45975 -388.000557  L 591.42025 -386.794285  L 591.38075 -385.605203  L 591.34125 -384.433243  L 591.30175 -383.276452  L 591.26225 -382.134433  L 591.22275 -381.0068  L 591.18325 -379.931722  L 591.14375 -378.9094  L 591.10425 -377.939013  L 591.06475 -377.019317  L 591.02525 -376.152702  L 590.98575 -375.296216  L 590.94625 -374.451541  L 590.90675 -373.614013  L 590.86725 -372.788752  L 590.82775 -371.974674  L 590.78825 -371.140912  L 590.74875 -370.28718  L 590.70925 -369.413309  L 590.66975 -368.522227  L 590.63025 -367.612684  L 590.59075 -366.713444  L 590.55125 -365.826648  L 590.51175 -364.948442  L 590.47225 -364.085265  L 590.43275 -363.23257  L 590.39325 -362.427586  L 590.35375 -361.670925  L 590.31425 -360.962148  L 590.27475 -360.29982  L 590.23525 -359.680802  L 590.19575 -359.06728  L 590.15625 -358.457892  L 590.11675 -357.854993  L 590.07725 -357.26019  L 590.03775 -356.67121  L 589.99825 -356.128713  L 589.95875 -355.63964  L 589.91925 -355.192711  L 589.87975 -354.793791  L 589.84025 -354.441821  L 589.80075 -354.096518  L 589.76125 -353.757971  L 589.72175 -353.425551  L 589.68225 -353.099307  L 589.64275 -352.779774  L 589.60325 -352.48774  L 589.56375 -352.22412  L 589.52425 -351.98863  L 589.48475 -351.782021  L 589.44525 -351.604822  L 589.40575 -351.436996  L 589.36625 -351.278413  L 589.32675 -351.128948  L 589.28725 -350.98848  L 589.24775 -350.856901  L 589.20825 -350.66317  L 589.16875 -350.406626  L 589.12925 -350.044654  L 589.08975 -349.619377  L 589.05025 -349.13034  L 589.01075 -348.648216  L 588.97125 -348.172854  L 588.93175 -347.704111  L 588.89225 -347.241847  L 588.85275 -346.78585  L 588.81325 -346.328284  L 588.77375 -345.869009  L 588.73425 -345.408458  L 588.69475 -344.94638  L 588.65525 -344.481936  L 588.61575 -344.022795  L 588.57625 -343.568859  L 588.53675 -343.119548  L 588.49725 -342.675357  L 588.45775 -342.236022  L 588.41825 -341.757288  L 588.37875 -341.239465  L 588.33925 -340.681935  L 588.29975 -340.088206  L 588.26025 -339.458558  L 588.22075 -338.837517  L 588.18125 -338.224964  L 588.14175 -337.624627  L 588.10225 -337.032778  L 588.06275 -336.449007  L 588.02325 -335.893242  L 587.98375 -335.323632  L 587.94425 -334.724473  L 587.90475 -334.115668  L 587.86525 -333.49827  L 587.82575 -332.89606  L 587.78625 -332.308651  L 587.74675 -331.735677  L 587.70725 -331.176783  L 587.66775 -330.631635  L 587.62825 -330.14056  L 587.58875 -329.702276  L 587.54925 -329.268641  L 587.50975 -328.969837  L 587.47025 -328.674456  L 587.43075 -328.38246  L 587.39125 -328.093815  L 587.35175 -327.808487  L 587.31225 -327.526445  L 587.27275 -327.247663  L 587.23325 -326.972112  L 587.19375 -326.699768  L 586.79875 -323.389454  L 586.40375 -320.040765  L 586.00875 -314.124658  L 585.61375 -310.907271  L 585.21875 -308.072506  L 584.82375 -303.934801  L 584.42875 -301.395695  L 584.03375 -299.554637  L 583.63875 -297.106218  L 583.24375 -295.281064  L 579.29375 -288.853078  L 575.34375 -287.791611  L 571.39375 -282.868506  L 567.44375 -283.998246  L 563.49375 -283.058548  L 559.54375 -279.268337  L 555.59375 -273.236037  L 551.64375 -272.237511  L 547.69375 -270.189184  L 543.74375 -269.579359  L 539.79375 -269.035748  L 535.84375 -267.557149  L 531.89375 -266.608966  L 527.94375 -265.474745  L 523.99375 -266.533197  L 520.04375 -266.232506  L 516.09375 -265.844816  L 476.59375 -255.97797  L 437.09375 -252.910616  L 397.59375 -250.63254  L 358.09375 -249.358545  L 318.59375 -248.572082  L 279.09375 -248.095722  L 239.59375 -247.801787  L 200.09375 -247.612368  L 160.59375 -247.48046  L 121.09375 -247.384337  z " /><path id="m4c6e7fbf05" d="M 596.00225 -902.851403  L 596.00225 -247.01952  L 596.04175 -247.01952  L 596.08125 -247.01952  L 596.12075 -247.01952  L 596.16025 -247.01952  L 596.19975 -247.01952  L 596.23925 -247.01952  L 596.27875 -247.01952  L 596.31825 -247.01952  L 596.35775 -247.01952  L 596.39725 -247.01952  L 596.43675 -247.01952  L 596.47625 -247.01952  L 596.51575 -247.01952  L 596.55525 -247.01952  L 596.59475 -247.01952  L 596.63425 -247.01952  L 596.67375 -247.01952  L 596.71325 -247.01952  L 596.75275 -247.01952  L 596.79225 -247.01952  L 596.83175 -247.01952  L 596.87125 -247.01952  L 596.91075 -247.01952  L 596.95025 -247.01952  L 596.98975 -247.01952  L 597.02925 -247.01952  L 597.06875 -247.01952  L 597.10825 -247.01952  L 597.14775 -247.01952  L 597.18725 -247.01952  L 597.22675 -247.01952  L 597.26625 -247.01952  L 597.30575 -247.01952  L 597.34525 -247.01952  L 597.38475 -247.01952  L 597.42425 -247.01952  L 597.46375 -247.01952  L 597.50325 -247.01952  L 597.54275 -247.01952  L 597.58225 -247.01952  L 597.62175 -247.01952  L 597.66125 -247.01952  L 597.70075 -247.01952  L 597.74025 -247.01952  L 597.77975 -247.01952  L 597.81925 -247.01952  L 597.85875 -247.01952  L 597.89825 -247.01952  L 597.93775 -247.01952  L 597.97725 -247.01952  L 598.01675 -247.01952  L 598.05625 -247.01952  L 598.09575 -247.01952  L 598.13525 -247.01952  L 598.17475 -247.01952  L 598.21425 -247.01952  L 598.25375 -247.01952  L 598.29325 -247.01952  L 598.33275 -247.01952  L 598.37225 -247.01952  L 598.41175 -247.01952  L 598.45125 -247.01952  L 598.49075 -247.01952  L 598.53025 -247.01952  L 598.56975 -247.01952  L 598.60925 -247.01952  L 598.64875 -247.01952  L 598.68825 -247.01952  L 598.72775 -247.01952  L 598.76725 -247.01952  L 598.80675 -247.01952  L 598.84625 -247.01952  L 598.88575 -247.01952  L 598.92525 -247.01952  L 598.96475 -247.01952  L 599.00425 -247.01952  L 599.04375 -247.01952  L 599.04375 -1072.117481  L 599.04375 -1072.117481  L 599.00425 -1073.132897  L 598.96475 -1074.089346  L 598.92525 -1074.98571  L 598.88575 -1075.820647  L 598.84625 -1076.594892  L 598.80675 -1077.306689  L 598.76725 -1077.954998  L 598.72775 -1078.54047  L 598.68825 -1079.06351  L 598.64875 -1079.525764  L 598.60925 -1079.92722  L 598.56975 -1080.266518  L 598.53025 -1080.542638  L 598.49075 -1080.753122  L 598.45125 -1080.894817  L 598.41175 -1080.964409  L 598.37225 -1080.958904  L 598.33275 -1080.874429  L 598.29325 -1080.708819  L 598.25375 -1080.458885  L 598.21425 -1080.119242  L 598.17475 -1079.687155  L 598.13525 -1079.159416  L 598.09575 -1078.535855  L 598.05625 -1077.81816  L 598.01675 -1077.006742  L 597.97725 -1076.102453  L 597.93775 -1075.107759  L 597.89825 -1074.023834  L 597.85875 -1072.853509  L 597.81925 -1071.600497  L 597.77975 -1070.264784  L 597.74025 -1068.846936  L 597.70075 -1067.348228  L 597.66125 -1065.77039  L 597.62175 -1064.113184  L 597.58225 -1062.374451  L 597.54275 -1060.552177  L 597.50325 -1058.643427  L 597.46375 -1056.642806  L 597.42425 -1054.54401  L 597.38475 -1052.341673  L 597.34525 -1050.029556  L 597.30575 -1047.601569  L 597.26625 -1045.053141  L 597.22675 -1042.379646  L 597.18725 -1039.572327  L 597.14775 -1036.626167  L 597.10825 -1033.540428  L 597.06875 -1030.313543  L 597.02925 -1026.945563  L 596.98975 -1023.437088  L 596.95025 -1019.790662  L 596.91075 -1016.009181  L 596.87125 -1012.098543  L 596.83175 -1008.065031  L 596.79225 -1003.914288  L 596.75275 -999.655055  L 596.71325 -995.292253  L 596.67375 -990.827119  L 596.63425 -986.26712  L 596.59475 -981.618484  L 596.55525 -976.883541  L 596.51575 -972.063846  L 596.47625 -967.162255  L 596.43675 -962.183761  L 596.39725 -957.131467  L 596.35775 -952.007571  L 596.31825 -946.811442  L 596.27875 -941.543671  L 596.23925 -936.207397  L 596.19975 -930.804109  L 596.16025 -925.331273  L 596.12075 -919.786187  L 596.08125 -914.18847  L 596.04175 -908.544136  L 596.00225 -902.851403  z " /><path d="M 121.09375 972.295663  L 200.09375 972.067632  L 279.09375 971.584278  L 318.59375 971.107918  L 358.09375 970.321455  L 397.59375 969.04746  L 437.09375 966.769384  L 476.59375 963.70203  L 516.09375 953.835184  L 523.99375 953.146803  L 527.94375 954.205255  L 531.89375 953.071034  L 535.84375 952.122851  L 539.79375 950.644252  L 547.69375 949.490816  L 551.64375 947.442489  L 555.59375 946.443963  L 559.54375 940.411663  L 563.49375 936.621452  L 567.44375 935.681754  L 571.39375 936.811494  L 575.34375 931.888389  L 579.29375 930.826922  L 583.24375 924.398936  L 583.63875 922.573782  L 584.82375 915.745199  L 585.21875 911.607494  L 586.00875 905.555342  L 586.40375 899.639235  L 587.82575 886.78394  L 588.81325 873.351716  L 589.32675 868.551052  L 589.60325 867.19226  L 589.99825 863.551287  L 590.47225 855.594735  L 591.45975 831.679443  L 592.44725 799.626097  L 593.23725 759.167221  L 593.82975 685.32447  L 594.89625 505.90564  L 596.51575 247.616154  L 597.14775 183.053833  L 597.62175 155.566816  L 598.05625 141.86184  L 598.33275 138.805571  L 598.41175 138.715591  L 598.45125 138.785183  L 598.60925 139.75278  L 598.84625 143.085108  L 599.04375 147.562519  L 599.04375 147.562519  " clip-path="url(#pae26cfff63)" style="fill: none; stroke: #000000; stroke-width: 1.6; stroke-linecap: square" /><path id="m84b4496e28" d="M 0 3  C 0.795609 3 1.55874 2.683901 2.12132 2.12132  C 2.683901 1.55874 3 0.795609 3 0  C 3 -0.795609 2.683901 -1.55874 2.12132 -2.12132  C 1.55874 -2.683901 0.795609 -3 0 -3  C -0.795609 -3 -1.55874 -2.683901 -2.12132 -2.12132  C -2.683901 -1.55874 -3 -0.795609 -3 0  C -3 0.795609 -2.683901 1.55874 -2.12132 2.12132  C -1.55874 2.683901 -0.795609 3 0 3  z " style="stroke: #804d7f" /></g><g id="markers"><path d="M 0 1219.68  L 759.01375 1219.68  L 759.01375 0  L 0 0  L 0 1219.68  z " style="fill: none; opacity: 0" /><path d="M 42.09375 1069.92  L 610.89375 1069.92  L 610.89375 72  L 42.09375 72  L 42.09375 1069.92  z " style="fill: none; opacity: 0" /><path d="M 42.09375 1069.92  L 42.09375 72  " clip-path="url(#pae26cfff63)" style="fill: none; stroke: #eeeeee; stroke-linecap: square" /><path d="M 121.09375 1069.92  L 121.09375 72  " clip-path="url(#pae26cfff63)" style="fill: none; stroke: #eeeeee; stroke-linecap: square" /><path d="M 200.09375 1069.92  L 200.09375 72  " clip-path="url(#pae26cfff63)" style="fill: none; stroke: #eeeeee; stroke-linecap: square" /><path d="M 279.09375 1069.92  L 279.09375 72  " clip-path="url(#pae26cfff63)" style="fill: none; stroke: #eeeeee; stroke-linecap: square" /><path d="M 358.09375 1069.92  L 358.09375 72  " clip-path="url(#pae26cfff63)" style="fill: none; stroke: #eeeeee; stroke-linecap: square" /><path d="M 437.09375 1069.92  L 437.09375 72  " clip-path="url(#pae26cfff63)" style="fill: none; stroke: #eeeeee; stroke-linecap: square" /><path d="M 516.09375 1069.92  L 516.09375 72  " clip-path="url(#pae26cfff63)" style="fill: none; stroke: #eeeeee; stroke-linecap: square" /><path d="M 595.09375 1069.92  L 595.09375 72  " clip-path="url(#pae26cfff63)" style="fill: none; stroke: #eeeeee; stroke-linecap: square" /><use xlink:href="#m912f1726f7" x="0" y="1219.68" style="fill: #804d7f" /><use xlink:href="#m4c6e7fbf05" x="0" y="1219.68" style="fill: #c588c1" /><path d="M 42.09375 1069.92  L 42.09375 72  " style="fill: none; stroke: #999999; stroke-linejoin: miter; stroke-linecap: square" /><path d="M 42.09375 1069.92  L 610.89375 1069.92  " style="fill: none; stroke: #999999; stroke-linejoin: miter; stroke-linecap: square" /><use xlink:href="#m84b4496e28" x="583.24375" y="924.398936" style="fill: #804d7f; stroke: #804d7f" /><use xlink:href="#m84b4496e28" x="587.19375" y="892.980232" style="fill: #804d7f; stroke: #804d7f" /><use xlink:href="#m84b4496e28" x="591.14375" y="840.7706" style="fill: #804d7f; stroke: #804d7f" /><use xlink:href="#m84b4496e28" x="592.21025" y="809.357795" style="fill: #804d7f; stroke: #804d7f" /><use xlink:href="#m84b4496e28" x="593.51375" y="728.257769" style="fill: #804d7f; stroke: #804d7f" /><use xlink:href="#m84b4496e28" x="594.10625" y="642.729012" style="fill: #804d7f; stroke: #804d7f" /><use xlink:href="#m84b4496e28" x="594.58025" y="563.380553" style="fill: #804d7f; stroke: #804d7f" /><use xlink:href="#m84b4496e28" x="595.01475" y="485.790125" style="fill: #804d7f; stroke: #804d7f" /><use xlink:href="#m84b4496e28" x="595.48875" y="403.551895" style="fill: #804d7f; stroke: #804d7f" /><use xlink:href="#m84b4496e28" x="595.96275" y="322.528632" style="fill: #804d7f; stroke: #804d7f" /><use xlink:href="#m84b4496e28" x="596.55525" y="242.796459" style="fill: #804d7f; stroke: #804d7f" /><use xlink:href="#m84b4496e28" x="597.50325" y="161.036573" style="fill: #804d7f; stroke: #804d7f" /></g><g id="title"><text style="font-size: 28px; font-family: 'DejaVu Sans', 'Bitstream Vera Sans', 'Computer Modern Sans Serif', 'Lucida Grande', 'Verdana', 'Geneva', 'Lucid', 'Arial', 'Helvetica', 'Avant Garde', sans-serif; text-anchor: start" x="49.29375" y="28.475625" transform="rotate(-0 49.29375 28.475625)">The size of the world population over the long-run</text></g><g id="axis-labels"><text style="font-size: 12px; font-family: 'DejaVu Sans', 'Bitstream Vera Sans', 'Computer Modern Sans Serif', 'Lucida Grande', 'Verdana', 'Geneva', 'Lucid', 'Arial', 'Helvetica', 'Avant Garde', sans-serif; text-anchor: middle; fill: #666666" x="42.09375" y="1082.538125" transform="rotate(-0 42.09375 1082.538125)">12,000 BCE</text><text style="font-size: 12px; font-family: 'DejaVu Sans', 'Bitstream Vera Sans', 'Computer Modern Sans Serif', 'Lucida Grande', 'Verdana', 'Geneva', 'Lucid', 'Arial', 'Helvetica', 'Avant Garde', sans-serif; text-anchor: middle; fill: #666666" x="200.09375" y="1082.538125" transform="rotate(-0 200.09375 1082.538125)">8,000 BCE</text><text style="font-size: 12px; font-family: 'DejaVu Sans', 'Bitstream Vera Sans', 'Computer Modern Sans Serif', 'Lucida Grande', 'Verdana', 'Geneva', 'Lucid', 'Arial', 'Helvetica', 'Avant Garde', sans-serif; text-anchor: middle; fill: #666666" x="279.09375" y="1082.538125" transform="rotate(-0 279.09375 1082.538125)">6,000 BCE</text><text style="font-size: 12px; font-family: 'DejaVu Sans', 'Bitstream Vera Sans', 'Computer Modern Sans Serif', 'Lucida Grande', 'Verdana', 'Geneva', 'Lucid', 'Arial', 'Helvetica', 'Avant Garde', sans-serif; text-anchor: middle; fill: #666666" x="358.09375" y="1082.538125" transform="rotate(-0 358.09375 1082.538125)">4,000 BCE</text><text style="font-size: 12px; font-family: 'DejaVu Sans', 'Bitstream Vera Sans', 'Computer Modern Sans Serif', 'Lucida Grande', 'Verdana', 'Geneva', 'Lucid', 'Arial', 'Helvetica', 'Avant Garde', sans-serif; text-anchor: middle; fill: #666666" x="437.09375" y="1082.538125" transform="rotate(-0 437.09375 1082.538125)">2,000 BCE</text><text style="font-size: 12px; font-family: 'DejaVu Sans', 'Bitstream Vera Sans', 'Computer Modern Sans Serif', 'Lucida Grande', 'Verdana', 'Geneva', 'Lucid', 'Arial', 'Helvetica', 'Avant Garde', sans-serif; text-anchor: middle; fill: #666666" x="516.09375" y="1082.538125" transform="rotate(-0 516.09375 1082.538125)">0</text><text style="font-size: 12px; font-family: 'DejaVu Sans', 'Bitstream Vera Sans', 'Computer Modern Sans Serif', 'Lucida Grande', 'Verdana', 'Geneva', 'Lucid', 'Arial', 'Helvetica', 'Avant Garde', sans-serif; text-anchor: middle; fill: #666666" x="595.09375" y="1082.538125" transform="rotate(-0 595.09375 1082.538125)">2000</text><text style="font-size: 12px; font-family: 'DejaVu Sans', 'Bitstream Vera Sans', 'Computer Modern Sans Serif', 'Lucida Grande', 'Verdana', 'Geneva', 'Lucid', 'Arial', 'Helvetica', 'Avant Garde', sans-serif; text-anchor: end; fill: #666666" x="38.59375" y="977.219542" transform="rotate(-0 38.59375 977.219542)">0</text><text style="font-size: 12px; font-family: 'DejaVu Sans', 'Bitstream Vera Sans', 'Computer Modern Sans Serif', 'Lucida Grande', 'Verdana', 'Geneva', 'Lucid', 'Arial', 'Helvetica', 'Avant Garde', sans-serif; text-anchor: end; fill: #666666" x="38.59375" y="815.120341" transform="rotate(-0 38.59375 815.120341)">2</text><text style="font-size: 12px; font-family: 'DejaVu Sans', 'Bitstream Vera Sans', 'Computer Modern Sans Serif', 'Lucida Grande', 'Verdana', 'Geneva', 'Lucid', 'Arial', 'Helvetica', 'Avant Garde', sans-serif; text-anchor: end; fill: #666666" x="38.59375" y="653.02114" transform="rotate(-0 38.59375 653.02114)">4</text><text style="font-size: 12px; font-family: 'DejaVu Sans', 'Bitstream Vera Sans', 'Computer Modern Sans Serif', 'Lucida Grande', 'Verdana', 'Geneva', 'Lucid', 'Arial', 'Helvetica', 'Avant Garde', sans-serif; text-anchor: end; fill: #666666" x="38.59375" y="490.92194" transform="rotate(-0 38.59375 490.92194)">6</text><text style="font-size: 12px; font-family: 'DejaVu Sans', 'Bitstream Vera Sans', 'Computer Modern Sans Serif', 'Lucida Grande', 'Verdana', 'Geneva', 'Lucid', 'Arial', 'Helvetica', 'Avant Garde', sans-serif; text-anchor: end; fill: #666666" x="38.59375" y="328.822739" transform="rotate(-0 38.59375 328.822739)">8</text><text style="font-size: 12px; font-family: 'DejaVu Sans', 'Bitstream Vera Sans', 'Computer Modern Sans Serif', 'Lucida Grande', 'Verdana', 'Geneva', 'Lucid', 'Arial', 'Helvetica', 'Avant Garde', sans-serif; text-anchor: end; fill: #666666" x="38.59375" y="166.723538" transform="rotate(-0 38.59375 166.723538)">10</text><text style="font-size: 11px; font-family: 'DejaVu Sans', 'Bitstream Vera Sans', 'Computer Modern Sans Serif', 'Lucida Grande', 'Verdana', 'Geneva', 'Lucid', 'Arial', 'Helvetica', 'Avant Garde', sans-serif; fill: #1f2a2a" transform="translate(121.09375 917.530429)">world population</text><text style="font-size: 11px; font-family: 'DejaVu Sans', 'Bitstream Vera Sans', 'Computer Modern Sans Serif', 'Lucida Grande', 'Verdana', 'Geneva', 'Lucid', 'Arial', 'Helvetica', 'Avant Garde', sans-serif; fill: #1f2a2a" transform="translate(291.453516 929.848023)">was just 0.04% per year</text><text style="font-size: 11px; font-family: 'DejaVu Sans', 'Bitstream Vera Sans', 'Computer Modern Sans Serif', 'Lucida Grande', 'Verdana', 'Geneva', 'Lucid', 'Arial', 'Helvetica', 'Avant Garde', sans-serif; fill: #1f2a2a" transform="translate(453.260547 836.480829)">population was around</text><text style="font-size: 11px; font-family: 'DejaVu Sans', 'Bitstream Vera Sans', 'Computer Modern Sans Serif', 'Lucida Grande', 'Verdana', 'Geneva', 'Lucid', 'Arial', 'Helvetica', 'Avant Garde', sans-serif; fill: #1f2a2a" transform="translate(417.479531 730.796041)">In the mid 14th century the</text><text style="font-size: 11px; font-family: 'DejaVu Sans', 'Bitstream Vera Sans', 'Computer Modern Sans Serif', 'Lucida Grande', 'Verdana', 'Geneva', 'Lucid', 'Arial', 'Helvetica', 'Avant Garde', sans-serif; fill: #1f2a2a" transform="translate(418.969688 755.431229)">between a quarter and half</text><text style="font-size: 11px; font-family: 'DejaVu Sans', 'Bitstream Vera Sans', 'Computer Modern Sans Serif', 'Lucida Grande', 'Verdana', 'Geneva', 'Lucid', 'Arial', 'Helvetica', 'Avant Garde', sans-serif; fill: #1f2a2a" transform="translate(445.983281 767.748822)">of all people in Europe</text><text style="font-size: 10.5px; font-family: 'DejaVu Sans', 'Bitstream Vera Sans', 'Computer Modern Sans Serif', 'Lucida Grande', 'Verdana', 'Geneva', 'Lucid', 'Arial', 'Helvetica', 'Avant Garde', sans-serif; fill: #1f2a2a" transform="translate(419.307531 137.722995)">The UN demographers expect the</text><text style="font-size: 10.5px; font-family: 'DejaVu Sans', 'Bitstream Vera Sans', 'Computer Modern Sans Serif', 'Lucida Grande', 'Verdana', 'Geneva', 'Lucid', 'Arial', 'Helvetica', 'Avant Garde', sans-serif; fill: #1f2a2a" transform="translate(425.643625 149.480698)">world population to peak at 10.3</text><text style="font-size: 10.5px; font-family: 'DejaVu Sans', 'Bitstream Vera Sans', 'Computer Modern Sans Serif', 'Lucida Grande', 'Verdana', 'Geneva', 'Lucid', 'Arial', 'Helvetica', 'Avant Garde', sans-serif; fill: #1f2a2a" transform="translate(542.234641 172.996104)">thereafter.</text><text style="font-size: 10.5px; font-family: 'DejaVu Sans', 'Bitstream Vera Sans', 'Computer Modern Sans Serif', 'Lucida Grande', 'Verdana', 'Geneva', 'Lucid', 'Arial', 'Helvetica', 'Avant Garde', sans-serif; fill: #c588c1" transform="translate(466.986328 316.032116)">The pink line shows the </text><text style="font-size: 10.5px; font-family: 'DejaVu Sans', 'Bitstream Vera Sans', 'Computer Modern Sans Serif', 'Lucida Grande', 'Verdana', 'Geneva', 'Lucid', 'Arial', 'Helvetica', 'Avant Garde', sans-serif; fill: #804d7f" transform="translate(421.806797 429.501556)">The purple line shows the size of</text><text style="font-size: 10.5px; font-family: 'DejaVu Sans', 'Bitstream Vera Sans', 'Computer Modern Sans Serif', 'Lucida Grande', 'Verdana', 'Geneva', 'Lucid', 'Arial', 'Helvetica', 'Avant Garde', sans-serif; fill: #804d7f" transform="translate(416.015391 441.259259)">the world population over the last</text><text style="font-size: 10.5px; font-family: 'DejaVu Sans', 'Bitstream Vera Sans', 'Computer Modern Sans Serif', 'Lucida Grande', 'Verdana', 'Geneva', 'Lucid', 'Arial', 'Helvetica', 'Avant Garde', sans-serif; fill: #804d7f" transform="translate(525.330234 453.016962)">12,000 years</text></g><g id="data-labels"><text style="font-size: 10.5px; font-family: 'DejaVu Sans', 'Bitstream Vera Sans', 'Computer Modern Sans Serif', 'Lucida Grande', 'Verdana', 'Geneva', 'Lucid', 'Arial', 'Helvetica', 'Avant Garde', sans-serif; text-anchor: start; fill: #1f2a2a" x="599.43875" y="927.29628" transform="rotate(-0 599.43875 927.29628)">595 million in 1700</text><text style="font-size: 10.5px; font-family: 'DejaVu Sans', 'Bitstream Vera Sans', 'Computer Modern Sans Serif', 'Lucida Grande', 'Verdana', 'Geneva', 'Lucid', 'Arial', 'Helvetica', 'Avant Garde', sans-serif; text-anchor: start; fill: #1f2a2a" x="599.43875" y="895.877576" transform="rotate(-0 599.43875 895.877576)">983 million in 1800</text><text style="font-size: 10.5px; font-family: 'DejaVu Sans', 'Bitstream Vera Sans', 'Computer Modern Sans Serif', 'Lucida Grande', 'Verdana', 'Geneva', 'Lucid', 'Arial', 'Helvetica', 'Avant Garde', sans-serif; text-anchor: start; fill: #1f2a2a" x="599.43875" y="843.667944" transform="rotate(-0 599.43875 843.667944)">1.63 billion in 1900</text><text style="font-size: 10.5px; font-family: 'DejaVu Sans', 'Bitstream Vera Sans', 'Computer Modern Sans Serif', 'Lucida Grande', 'Verdana', 'Geneva', 'Lucid', 'Arial', 'Helvetica', 'Avant Garde', sans-serif; text-anchor: start; fill: #1f2a2a" x="599.43875" y="812.255139" transform="rotate(-0 599.43875 812.255139)">2 billion in 1927</text><text style="font-size: 10.5px; font-family: 'DejaVu Sans', 'Bitstream Vera Sans', 'Computer Modern Sans Serif', 'Lucida Grande', 'Verdana', 'Geneva', 'Lucid', 'Arial', 'Helvetica', 'Avant Garde', sans-serif; text-anchor: start; fill: #1f2a2a" x="599.43875" y="731.155113" transform="rotate(-0 599.43875 731.155113)">3 billion in 1960</text><text style="font-size: 10.5px; font-family: 'DejaVu Sans', 'Bitstream Vera Sans', 'Computer Modern Sans Serif', 'Lucida Grande', 'Verdana', 'Geneva', 'Lucid', 'Arial', 'Helvetica', 'Avant Garde', sans-serif; text-anchor: start; fill: #1f2a2a" x="599.43875" y="645.626356" transform="rotate(-0 599.43875 645.626356)">4 billion in 1975</text><text style="font-size: 10.5px; font-family: 'DejaVu Sans', 'Bitstream Vera Sans', 'Computer Modern Sans Serif', 'Lucida Grande', 'Verdana', 'Geneva', 'Lucid', 'Arial', 'Helvetica', 'Avant Garde', sans-serif; text-anchor: start; fill: #1f2a2a" x="599.43875" y="566.277896" transform="rotate(-0 599.43875 566.277896)">5 billion in 1987</text><text style="font-size: 10.5px; font-family: 'DejaVu Sans', 'Bitstream Vera Sans', 'Computer Modern Sans Serif', 'Lucida Grande', 'Verdana', 'Geneva', 'Lucid', 'Arial', 'Helvetica', 'Avant Garde', sans-serif; text-anchor: start; fill: #1f2a2a" x="599.43875" y="488.687468" transform="rotate(-0 599.43875 488.687468)">6 billion in 1998</text><text style="font-size: 10.5px; font-family: 'DejaVu Sans', 'Bitstream Vera Sans', 'Computer Modern Sans Serif', 'Lucida Grande', 'Verdana', 'Geneva', 'Lucid', 'Arial', 'Helvetica', 'Avant Garde', sans-serif; text-anchor: start; fill: #1f2a2a" x="599.43875" y="406.449239" transform="rotate(-0 599.43875 406.449239)">7 billion in 2010</text><text style="font-size: 10.5px; font-family: 'DejaVu Sans', 'Bitstream Vera Sans', 'Computer Modern Sans Serif', 'Lucida Grande', 'Verdana', 'Geneva', 'Lucid', 'Arial', 'Helvetica', 'Avant Garde', sans-serif; text-anchor: start; fill: #1f2a2a" x="599.43875" y="325.425975" transform="rotate(-0 599.43875 325.425975)">8 billion in 2022</text><text style="font-size: 10.5px; font-family: 'DejaVu Sans', 'Bitstream Vera Sans', 'Computer Modern Sans Serif', 'Lucida Grande', 'Verdana', 'Geneva', 'Lucid', 'Arial', 'Helvetica', 'Avant Garde', sans-serif; text-anchor: start; fill: #1f2a2a" x="599.43875" y="245.693802" transform="rotate(-0 599.43875 245.693802)">9 billion in 2037</text><text style="font-size: 10.5px; font-family: 'DejaVu Sans', 'Bitstream Vera Sans', 'Computer Modern Sans Serif', 'Lucida Grande', 'Verdana', 'Geneva', 'Lucid', 'Arial', 'Helvetica', 'Avant Garde', sans-serif; text-anchor: start; fill: #1f2a2a" x="599.43875" y="163.933917" transform="rotate(-0 599.43875 163.933917)">10 billion in 2061</text><text style="font-size: 11px; font-family: 'DejaVu Sans', 'Bitstream Vera Sans', 'Computer Modern Sans Serif', 'Lucida Grande', 'Verdana', 'Geneva', 'Lucid', 'Arial', 'Helvetica', 'Avant Garde', sans-serif; fill: #1f2a2a" transform="translate(121.09375 929.848023)">was around 4 million</text><text style="font-size: 11px; font-family: 'DejaVu Sans', 'Bitstream Vera Sans', 'Computer Modern Sans Serif', 'Lucida Grande', 'Verdana', 'Geneva', 'Lucid', 'Arial', 'Helvetica', 'Avant Garde', sans-serif; fill: #1f2a2a" transform="translate(288.548828 917.530429)">from 10,000 BCE to 1700</text><text style="font-size: 11px; font-family: 'DejaVu Sans', 'Bitstream Vera Sans', 'Computer Modern Sans Serif', 'Lucida Grande', 'Verdana', 'Geneva', 'Lucid', 'Arial', 'Helvetica', 'Avant Garde', sans-serif; fill: #1f2a2a" transform="translate(485.5275 848.798423)">232 million</text><text style="font-size: 10.5px; font-family: 'DejaVu Sans', 'Bitstream Vera Sans', 'Computer Modern Sans Serif', 'Lucida Grande', 'Verdana', 'Geneva', 'Lucid', 'Arial', 'Helvetica', 'Avant Garde', sans-serif; fill: #1f2a2a" transform="translate(444.689641 161.238401)">billion in 2084 and to decline</text><text style="font-size: 10px; font-family: 'DejaVu Sans', 'Bitstream Vera Sans', 'Computer Modern Sans Serif', 'Lucida Grande', 'Verdana', 'Geneva', 'Lucid', 'Arial', 'Helvetica', 'Avant Garde', sans-serif; fill: #18a0a8" transform="translate(405.00625 1023.87657)">1800 was less than 28 years</text><text style="font-size: 10px; font-family: 'DejaVu Sans', 'Bitstream Vera Sans', 'Computer Modern Sans Serif', 'Lucida Grande', 'Verdana', 'Geneva', 'Lucid', 'Arial', 'Helvetica', 'Avant Garde', sans-serif; fill: #18a0a8" transform="translate(555.186719 1023.87657)">in 2023: 73 years</text></g><g id="annotations"><text style="font-size: 12px; font-family: 'DejaVu Sans', 'Bitstream Vera Sans', 'Computer Modern Sans Serif', 'Lucida Grande', 'Verdana', 'Geneva', 'Lucid', 'Arial', 'Helvetica', 'Avant Garde', sans-serif; text-anchor: middle; fill: #666666" x="121.09375" y="1082.538125" transform="rotate(-0 121.09375 1082.538125)">10,000 BCE</text><text style="font-size: 11px; font-family: 'DejaVu Sans', 'Bitstream Vera Sans', 'Computer Modern Sans Serif', 'Lucida Grande', 'Verdana', 'Geneva', 'Lucid', 'Arial', 'Helvetica', 'Avant Garde', sans-serif; fill: #1f2a2a" transform="translate(121.09375 905.212836)">In 10,000 BCE the</text><text style="font-size: 11px; font-family: 'DejaVu Sans', 'Bitstream Vera Sans', 'Computer Modern Sans Serif', 'Lucida Grande', 'Verdana', 'Geneva', 'Lucid', 'Arial', 'Helvetica', 'Avant Garde', sans-serif; fill: #1f2a2a" transform="translate(289.7975 905.212836)">The average growth rate</text><text style="font-size: 11px; font-family: 'DejaVu Sans', 'Bitstream Vera Sans', 'Computer Modern Sans Serif', 'Lucida Grande', 'Verdana', 'Geneva', 'Lucid', 'Arial', 'Helvetica', 'Avant Garde', sans-serif; fill: #1f2a2a" transform="translate(453.279453 824.163235)">In the year 0 the world</text><text style="font-size: 11px; font-family: 'DejaVu Sans', 'Bitstream Vera Sans', 'Computer Modern Sans Serif', 'Lucida Grande', 'Verdana', 'Geneva', 'Lucid', 'Arial', 'Helvetica', 'Avant Garde', sans-serif; fill: #1f2a2a" transform="translate(412.350781 743.113635)">Black Death pandemic killed</text><text style="font-size: 10.5px; font-family: 'DejaVu Sans', 'Bitstream Vera Sans', 'Computer Modern Sans Serif', 'Lucida Grande', 'Verdana', 'Geneva', 'Lucid', 'Arial', 'Helvetica', 'Avant Garde', sans-serif; fill: #c588c1" transform="translate(382.773047 327.789819)">projection by the UN Population Division</text><text style="font-size: 10px; font-family: 'DejaVu Sans', 'Bitstream Vera Sans', 'Computer Modern Sans Serif', 'Lucida Grande', 'Verdana', 'Geneva', 'Lucid', 'Arial', 'Helvetica', 'Avant Garde', sans-serif; fill: #18a0a8" transform="translate(403.321875 1012.678757)">Global life expectancy before</text><text style="font-size: 10px; font-family: 'DejaVu Sans', 'Bitstream Vera Sans', 'Computer Modern Sans Serif', 'Lucida Grande', 'Verdana', 'Geneva', 'Lucid', 'Arial', 'Helvetica', 'Avant Garde', sans-serif; fill: #18a0a8" transform="translate(543.450781 1012.678757)">Global life expectancy</text></g><g id="source"><text style="font-size: 9px; font-family: 'DejaVu Sans', 'Bitstream Vera Sans', 'Computer Modern Sans Serif', 'Lucida Grande', 'Verdana', 'Geneva', 'Lucid', 'Arial', 'Helvetica', 'Avant Garde', sans-serif; fill: #666666" transform="translate(49.29375 1200.53025)">Gapminder (2022)Data sources: Gapminder (2023)Data sources: HYDE (2023)Data sources: UN WPP (2024).</text><text style="font-size: 9px; font-family: 'DejaVu Sans', 'Bitstream Vera Sans', 'Computer Modern Sans Serif', 'Lucida Grande', 'Verdana', 'Geneva', 'Lucid', 'Arial', 'Helvetica', 'Avant Garde', sans-serif; fill: #666666" transform="translate(49.29375 1210.608281)">This is a visualization from OurWorldInData.org.</text><text style="font-size: 9px; font-family: 'DejaVu Sans', 'Bitstream Vera Sans', 'Computer Modern Sans Serif', 'Lucida Grande', 'Verdana', 'Geneva', 'Lucid', 'Arial', 'Helvetica', 'Avant Garde', sans-serif; text-anchor: end; fill: #666666" x="668.49375" y="1210.608281" transform="rotate(-0 668.49375 1210.608281)">Licensed under CC-BY-SA by the author Max Roser.</text></g></g><defs>
  <clipPath id="pae26cfff63">
   <rect x="42.09375" y="72" width="568.8" height="997.92" />
  </clipPath>
 </defs>
</svg>