<?xml version="1.0" encoding="utf-8" standalone="no"?>
<!DOCTYPE svg PUBLIC "-//W3C//DTD SVG 1.1//EN"
  "http://www.w3.org/Graphics/SVG/1.1/DTD/svg11.dtd">
<svg xmlns:xlink="http://www.w3.org/1999/xlink" width="970.59pt" height="894.24pt" viewBox="0 0 970.59 894.24" xmlns="http://www.w3.org/2000/svg" version="1.1">
 <metadata>
  <rdf:RDF xmlns:dc="http://purl.org/dc/elements/1.1/" xmlns:cc="http://creativecommons.org/ns#" xmlns:rdf="http://www.w3.org/1999/02/22-rdf-syntax-ns#">
   <cc:Work>
    <dc:type rdf:resource="http://purl.org/dc/dcmitype/StillImage"/>
    <dc:format>image/svg+xml</dc:format>
    <dc:creator>
     <cc:Agent>
      <dc:title>Matplotlib v3.10.8, https://matplotlib.org/</dc:title>
     </cc:Agent>
    </dc:creator>
   </cc:Work>
  </rdf:RDF>
 </metadata>
 <defs>
  <style type="text/css">*{stroke-linejoin: round; stroke-linecap: butt}</style>
 </defs>
 <g id="figure_1">
  <g id="patch_1">
   <path d="M 0 894.24 
L 970.59 894.24 
L 970.59 0 
L 0 0 
z
" style="fill: #ffffff"/>
  </g>
  <g id="axes_1">
   <g id="patch_2">
    <path d="M 53.31 802.8 
L 963.39 802.8 
L 963.39 91.44 
L 53.31 91.44 
z
" style="fill: #ffffff"/>
   </g>
   <g id="matplotlib.axis_1">
    <g id="xtick_1">
     <g id="line2d_1"/>
     <g id="text_1">
      <text style="font-size: 11px; font-family: 'DejaVu Sans', 'Bitstream Vera Sans', 'Computer Modern Sans Serif', 'Lucida Grande', 'Verdana', 'Geneva', 'Lucid', 'Arial', 'Helvetica', 'Avant Garde', sans-serif; text-anchor: middle; fill: #666666" x="83.062615" y="814.658281" transform="rotate(-0 83.062615 814.658281)">1550</text>
     </g>
    </g>
    <g id="xtick_2">
     <g id="line2d_2"/>
     <g id="text_2">
      <text style="font-size: 11px; font-family: 'DejaVu Sans', 'Bitstream Vera Sans', 'Computer Modern Sans Serif', 'Lucida Grande', 'Verdana', 'Geneva', 'Lucid', 'Arial', 'Helvetica', 'Avant Garde', sans-serif; text-anchor: middle; fill: #666666" x="170.570308" y="814.658281" transform="rotate(-0 170.570308 814.658281)">1600</text>
     </g>
    </g>
    <g id="xtick_3">
     <g id="line2d_3"/>
     <g id="text_3">
      <text style="font-size: 11px; font-family: 'DejaVu Sans', 'Bitstream Vera Sans', 'Computer Modern Sans Serif', 'Lucida Grande', 'Verdana', 'Geneva', 'Lucid', 'Arial', 'Helvetica', 'Avant Garde', sans-serif; text-anchor: middle; fill: #666666" x="258.078" y="814.658281" transform="rotate(-0 258.078 814.658281)">1650</text>
     </g>
    </g>
    <g id="xtick_4">
     <g id="line2d_4"/>
     <g id="text_4">
      <text style="font-size: 11px; font-family: 'DejaVu Sans', 'Bitstream Vera Sans', 'Computer Modern Sans Serif', 'Lucida Grande', 'Verdana', 'Geneva', 'Lucid', 'Arial', 'Helvetica', 'Avant Garde', sans-serif; text-anchor: middle; fill: #666666" x="345.585692" y="814.658281" transform="rotate(-0 345.585692 814.658281)">1700</text>
     </g>
    </g>
    <g id="xtick_5">
     <g id="line2d_5"/>
     <g id="text_5">
      <text style="font-size: 11px; font-family: 'DejaVu Sans', 'Bitstream Vera Sans', 'Computer Modern Sans Serif', 'Lucida Grande', 'Verdana', 'Geneva', 'Lucid', 'Arial', 'Helvetica', 'Avant Garde', sans-serif; text-anchor: middle; fill: #666666" x="433.093385" y="814.658281" transform="rotate(-0 433.093385 814.658281)">1750</text>
     </g>
    </g>
    <g id="xtick_6">
     <g id="line2d_6"/>
     <g id="text_6">
      <text style="font-size: 11px; font-family: 'DejaVu Sans', 'Bitstream Vera Sans', 'Computer Modern Sans Serif', 'Lucida Grande', 'Verdana', 'Geneva', 'Lucid', 'Arial', 'Helvetica', 'Avant Garde', sans-serif; text-anchor: middle; fill: #666666" x="520.601077" y="814.658281" transform="rotate(-0 520.601077 814.658281)">1800</text>
     </g>
    </g>
    <g id="xtick_7">
     <g id="line2d_7"/>
     <g id="text_7">
      <text style="font-size: 11px; font-family: 'DejaVu Sans', 'Bitstream Vera Sans', 'Computer Modern Sans Serif', 'Lucida Grande', 'Verdana', 'Geneva', 'Lucid', 'Arial', 'Helvetica', 'Avant Garde', sans-serif; text-anchor: middle; fill: #666666" x="608.108769" y="814.658281" transform="rotate(-0 608.108769 814.658281)">1850</text>
     </g>
    </g>
    <g id="xtick_8">
     <g id="line2d_8"/>
     <g id="text_8">
      <text style="font-size: 11px; font-family: 'DejaVu Sans', 'Bitstream Vera Sans', 'Computer Modern Sans Serif', 'Lucida Grande', 'Verdana', 'Geneva', 'Lucid', 'Arial', 'Helvetica', 'Avant Garde', sans-serif; text-anchor: middle; fill: #666666" x="695.616462" y="814.658281" transform="rotate(-0 695.616462 814.658281)">1900</text>
     </g>
    </g>
    <g id="xtick_9">
     <g id="line2d_9"/>
     <g id="text_9">
      <text style="font-size: 11px; font-family: 'DejaVu Sans', 'Bitstream Vera Sans', 'Computer Modern Sans Serif', 'Lucida Grande', 'Verdana', 'Geneva', 'Lucid', 'Arial', 'Helvetica', 'Avant Garde', sans-serif; text-anchor: middle; fill: #666666" x="783.124154" y="814.658281" transform="rotate(-0 783.124154 814.658281)">1950</text>
     </g>
    </g>
    <g id="xtick_10">
     <g id="line2d_10"/>
     <g id="text_10">
      <text style="font-size: 11px; font-family: 'DejaVu Sans', 'Bitstream Vera Sans', 'Computer Modern Sans Serif', 'Lucida Grande', 'Verdana', 'Geneva', 'Lucid', 'Arial', 'Helvetica', 'Avant Garde', sans-serif; text-anchor: middle; fill: #666666" x="826.878" y="814.658281" transform="rotate(-0 826.878 814.658281)">1975</text>
     </g>
    </g>
    <g id="xtick_11">
     <g id="line2d_11"/>
     <g id="text_11">
      <text style="font-size: 11px; font-family: 'DejaVu Sans', 'Bitstream Vera Sans', 'Computer Modern Sans Serif', 'Lucida Grande', 'Verdana', 'Geneva', 'Lucid', 'Arial', 'Helvetica', 'Avant Garde', sans-serif; text-anchor: middle; fill: #666666" x="870.631846" y="814.658281" transform="rotate(-0 870.631846 814.658281)">2000</text>
     </g>
    </g>
    <g id="xtick_12">
     <g id="line2d_12"/>
     <g id="text_12">
      <text style="font-size: 11px; font-family: 'DejaVu Sans', 'Bitstream Vera Sans', 'Computer Modern Sans Serif', 'Lucida Grande', 'Verdana', 'Geneva', 'Lucid', 'Arial', 'Helvetica', 'Avant Garde', sans-serif; text-anchor: middle; fill: #666666" x="910.885385" y="814.658281" transform="rotate(-0 910.885385 814.658281)">2023</text>
     </g>
    </g>
   </g>
   <g id="matplotlib.axis_2">
    <g id="ytick_1">
     <g id="line2d_13">
      <path d="M 53.31 760.955294 
L 963.39 760.955294 
" clip-path="url(#p89e424fa7b)" style="fill: none; stroke: #eeeeee; stroke-linecap: square"/>
     </g>
     <g id="text_13">
      <text style="font-size: 11px; font-family: 'DejaVu Sans', 'Bitstream Vera Sans', 'Computer Modern Sans Serif', 'Lucida Grande', 'Verdana', 'Geneva', 'Lucid', 'Arial', 'Helvetica', 'Avant Garde', sans-serif; text-anchor: end; fill: #666666" x="49.81" y="765.134435" transform="rotate(-0 49.81 765.134435)">20</text>
     </g>
    </g>
    <g id="ytick_2">
     <g id="line2d_14">
      <path d="M 53.31 677.265882 
L 963.39 677.265882 
" clip-path="url(#p89e424fa7b)" style="fill: none; stroke: #eeeeee; stroke-linecap: square"/>
     </g>
     <g id="text_14">
      <text style="font-size: 11px; font-family: 'DejaVu Sans', 'Bitstream Vera Sans', 'Computer Modern Sans Serif', 'Lucida Grande', 'Verdana', 'Geneva', 'Lucid', 'Arial', 'Helvetica', 'Avant Garde', sans-serif; text-anchor: end; fill: #666666" x="49.81" y="681.445023" transform="rotate(-0 49.81 681.445023)">30</text>
     </g>
    </g>
    <g id="ytick_3">
     <g id="line2d_15">
      <path d="M 53.31 593.576471 
L 963.39 593.576471 
" clip-path="url(#p89e424fa7b)" style="fill: none; stroke: #eeeeee; stroke-linecap: square"/>
     </g>
     <g id="text_15">
      <text style="font-size: 11px; font-family: 'DejaVu Sans', 'Bitstream Vera Sans', 'Computer Modern Sans Serif', 'Lucida Grande', 'Verdana', 'Geneva', 'Lucid', 'Arial', 'Helvetica', 'Avant Garde', sans-serif; text-anchor: end; fill: #666666" x="49.81" y="597.755611" transform="rotate(-0 49.81 597.755611)">40</text>
     </g>
    </g>
    <g id="ytick_4">
     <g id="line2d_16">
      <path d="M 53.31 509.887059 
L 963.39 509.887059 
" clip-path="url(#p89e424fa7b)" style="fill: none; stroke: #eeeeee; stroke-linecap: square"/>
     </g>
     <g id="text_16">
      <text style="font-size: 11px; font-family: 'DejaVu Sans', 'Bitstream Vera Sans', 'Computer Modern Sans Serif', 'Lucida Grande', 'Verdana', 'Geneva', 'Lucid', 'Arial', 'Helvetica', 'Avant Garde', sans-serif; text-anchor: end; fill: #666666" x="49.81" y="514.066199" transform="rotate(-0 49.81 514.066199)">50</text>
     </g>
    </g>
    <g id="ytick_5">
     <g id="line2d_17">
      <path d="M 53.31 426.197647 
L 963.39 426.197647 
" clip-path="url(#p89e424fa7b)" style="fill: none; stroke: #eeeeee; stroke-linecap: square"/>
     </g>
     <g id="text_17">
      <text style="font-size: 11px; font-family: 'DejaVu Sans', 'Bitstream Vera Sans', 'Computer Modern Sans Serif', 'Lucida Grande', 'Verdana', 'Geneva', 'Lucid', 'Arial', 'Helvetica', 'Avant Garde', sans-serif; text-anchor: end; fill: #666666" x="49.81" y="430.376788" transform="rotate(-0 49.81 430.376788)">60</text>
     </g>
    </g>
    <g id="ytick_6">
     <g id="line2d_18">
      <path d="M 53.31 342.508235 
L 963.39 342.508235 
" clip-path="url(#p89e424fa7b)" style="fill: none; stroke: #eeeeee; stroke-linecap: square"/>
     </g>
     <g id="text_18">
      <text style="font-size: 11px; font-family: 'DejaVu Sans', 'Bitstream Vera Sans', 'Computer Modern Sans Serif', 'Lucida Grande', 'Verdana', 'Geneva', 'Lucid', 'Arial', 'Helvetica', 'Avant Garde', sans-serif; text-anchor: end; fill: #666666" x="49.81" y="346.687376" transform="rotate(-0 49.81 346.687376)">70</text>
     </g>
    </g>
    <g id="ytick_7">
     <g id="line2d_19">
      <path d="M 53.31 258.818824 
L 963.39 258.818824 
" clip-path="url(#p89e424fa7b)" style="fill: none; stroke: #eeeeee; stroke-linecap: square"/>
     </g>
     <g id="text_19">
      <text style="font-size: 11px; font-family: 'DejaVu Sans', 'Bitstream Vera Sans', 'Computer Modern Sans Serif', 'Lucida Grande', 'Verdana', 'Geneva', 'Lucid', 'Arial', 'Helvetica', 'Avant Garde', sans-serif; text-anchor: end; fill: #666666" x="49.81" y="262.997964" transform="rotate(-0 49.81 262.997964)">80</text>
     </g>
    </g>
    <g id="ytick_8">
     <g id="line2d_20">
      <path d="M 53.31 175.129412 
L 963.39 175.129412 
" clip-path="url(#p89e424fa7b)" style="fill: none; stroke: #eeeeee; stroke-linecap: square"/>
     </g>
     <g id="text_20">
      <text style="font-size: 11px; font-family: 'DejaVu Sans', 'Bitstream Vera Sans', 'Computer Modern Sans Serif', 'Lucida Grande', 'Verdana', 'Geneva', 'Lucid', 'Arial', 'Helvetica', 'Avant Garde', sans-serif; text-anchor: end; fill: #666666" x="49.81" y="179.308552" transform="rotate(-0 49.81 179.308552)">90</text>
     </g>
    </g>
    <g id="ytick_9">
     <g id="line2d_21">
      <path d="M 53.31 91.44 
L 963.39 91.44 
" clip-path="url(#p89e424fa7b)" style="fill: none; stroke: #eeeeee; stroke-linecap: square"/>
     </g>
     <g id="text_21">
      <text style="font-size: 11px; font-family: 'DejaVu Sans', 'Bitstream Vera Sans', 'Computer Modern Sans Serif', 'Lucida Grande', 'Verdana', 'Geneva', 'Lucid', 'Arial', 'Helvetica', 'Avant Garde', sans-serif; text-anchor: end; fill: #666666" x="49.81" y="95.619141" transform="rotate(-0 49.81 95.619141)">100</text>
     </g>
    </g>
    <g id="text_22">
     <text style="font-size: 12px; font-family: 'DejaVu Sans', 'Bitstream Vera Sans', 'Computer Modern Sans Serif', 'Lucida Grande', 'Verdana', 'Geneva', 'Lucid', 'Arial', 'Helvetica', 'Avant Garde', sans-serif; text-anchor: middle; fill: #666666" x="16.318125" y="447.12" transform="rotate(-90 16.318125 447.12)">Life expectancy (years)</text>
    </g>
   </g>
   <g id="patch_3">
    <path d="M 53.31 802.8 
L 963.39 802.8 
" style="fill: none; stroke: #999999; stroke-linejoin: miter; stroke-linecap: square"/>
   </g>
   <g id="text_23">
    <text style="font-size: 10px; font-family: 'DejaVu Sans', 'Bitstream Vera Sans', 'Computer Modern Sans Serif', 'Lucida Grande', 'Verdana', 'Geneva', 'Lucid', 'Arial', 'Helvetica', 'Avant Garde', sans-serif; text-anchor: start; fill: #6b0000" x="914.385692" y="330.186288" transform="rotate(-0 914.385692 330.186288)">At birth</text>
   </g>
   <g id="text_24">
    <text style="font-size: 10px; font-family: 'DejaVu Sans', 'Bitstream Vera Sans', 'Computer Modern Sans Serif', 'Lucida Grande', 'Verdana', 'Geneva', 'Lucid', 'Arial', 'Helvetica', 'Avant Garde', sans-serif; text-anchor: start; fill: #a01010" x="914.385692" y="306.753323" transform="rotate(-0 914.385692 306.753323)">Age 1</text>
   </g>
   <g id="text_25">
    <text style="font-size: 10px; font-family: 'DejaVu Sans', 'Bitstream Vera Sans', 'Computer Modern Sans Serif', 'Lucida Grande', 'Verdana', 'Geneva', 'Lucid', 'Arial', 'Helvetica', 'Avant Garde', sans-serif; text-anchor: start; fill: #d03020" x="914.385692" y="283.320377" transform="rotate(-0 914.385692 283.320377)">Age 5</text>
   </g>
   <g id="text_26">
    <text style="font-size: 10px; font-family: 'DejaVu Sans', 'Bitstream Vera Sans', 'Computer Modern Sans Serif', 'Lucida Grande', 'Verdana', 'Geneva', 'Lucid', 'Arial', 'Helvetica', 'Avant Garde', sans-serif; text-anchor: start; fill: #e05c20" x="914.385692" y="259.887437" transform="rotate(-0 914.385692 259.887437)">Age 10</text>
   </g>
   <g id="text_27">
    <text style="font-size: 10px; font-family: 'DejaVu Sans', 'Bitstream Vera Sans', 'Computer Modern Sans Serif', 'Lucida Grande', 'Verdana', 'Geneva', 'Lucid', 'Arial', 'Helvetica', 'Avant Garde', sans-serif; text-anchor: start; fill: #e89020" x="914.385692" y="236.454491" transform="rotate(-0 914.385692 236.454491)">Age 15</text>
   </g>
   <g id="text_28">
    <text style="font-size: 10px; font-family: 'DejaVu Sans', 'Bitstream Vera Sans', 'Computer Modern Sans Serif', 'Lucida Grande', 'Verdana', 'Geneva', 'Lucid', 'Arial', 'Helvetica', 'Avant Garde', sans-serif; text-anchor: start; fill: #c8a800" x="914.385692" y="213.02153" transform="rotate(-0 914.385692 213.02153)">Age 25</text>
   </g>
   <g id="text_29">
    <text style="font-size: 10px; font-family: 'DejaVu Sans', 'Bitstream Vera Sans', 'Computer Modern Sans Serif', 'Lucida Grande', 'Verdana', 'Geneva', 'Lucid', 'Arial', 'Helvetica', 'Avant Garde', sans-serif; text-anchor: start; fill: #27ae60" x="914.385692" y="189.588546" transform="rotate(-0 914.385692 189.588546)">Age 45</text>
   </g>
   <g id="text_30">
    <text style="font-size: 10px; font-family: 'DejaVu Sans', 'Bitstream Vera Sans', 'Computer Modern Sans Serif', 'Lucida Grande', 'Verdana', 'Geneva', 'Lucid', 'Arial', 'Helvetica', 'Avant Garde', sans-serif; text-anchor: start; fill: #2980b9" x="914.385692" y="166.155536" transform="rotate(-0 914.385692 166.155536)">Age 65</text>
   </g>
   <g id="text_31">
    <text style="font-size: 10px; font-family: 'DejaVu Sans', 'Bitstream Vera Sans', 'Computer Modern Sans Serif', 'Lucida Grande', 'Verdana', 'Geneva', 'Lucid', 'Arial', 'Helvetica', 'Avant Garde', sans-serif; text-anchor: start; fill: #6c3483" x="914.385692" y="142.722501" transform="rotate(-0 914.385692 142.722501)">Age 80</text>
   </g>
   <g id="patch_4">
    <path d="M 697.413161 646.204544 
Q 731.296018 596.428503 727.34709 536.029262 
" style="fill: none; stroke: #666666; stroke-width: 1.2; stroke-linecap: round"/>
    <path d="M 725.612315 540.151222 
L 727.34709 536.029262 
L 729.603793 539.890257 
" style="fill: none; stroke: #666666; stroke-width: 1.2; stroke-linecap: round"/>
   </g>
   <g id="text_32">
    <text style="font-size: 10px; font-family: 'DejaVu Sans', 'Bitstream Vera Sans', 'Computer Modern Sans Serif', 'Lucida Grande', 'Verdana', 'Geneva', 'Lucid', 'Arial', 'Helvetica', 'Avant Garde', sans-serif; fill: #666666" transform="translate(659.214911 657.456025)">Spanish flu</text>
    <text style="font-size: 10px; font-family: 'DejaVu Sans', 'Bitstream Vera Sans', 'Computer Modern Sans Serif', 'Lucida Grande', 'Verdana', 'Geneva', 'Lucid', 'Arial', 'Helvetica', 'Avant Garde', sans-serif; fill: #666666" transform="translate(646.296161 668.653837)">pandemic, 1918</text>
   </g>
   <g id="patch_5">
    <path d="M 790.249627 498.764494 
Q 764.46804 464.496119 765.525669 422.006381 
" style="fill: none; stroke: #666666; stroke-width: 1.2; stroke-linecap: round"/>
    <path d="M 763.426754 425.955375 
L 765.525669 422.006381 
L 767.425515 426.054909 
" style="fill: none; stroke: #666666; stroke-width: 1.2; stroke-linecap: round"/>
   </g>
   <g id="text_33">
    <text style="font-size: 10px; font-family: 'DejaVu Sans', 'Bitstream Vera Sans', 'Computer Modern Sans Serif', 'Lucida Grande', 'Verdana', 'Geneva', 'Lucid', 'Arial', 'Helvetica', 'Avant Garde', sans-serif; text-anchor: middle; fill: #666666" x="797.125385" y="509.953436" transform="rotate(-0 797.125385 509.953436)">World War II</text>
   </g>
   <g id="text_34">
    <text style="font-style: italic; font-size: 9px; font-family: 'DejaVu Sans', 'Bitstream Vera Sans', 'Computer Modern Sans Serif', 'Lucida Grande', 'Verdana', 'Geneva', 'Lucid', 'Arial', 'Helvetica', 'Avant Garde', sans-serif; text-anchor: start; fill: #666666" x="79.562308" y="140.1233" transform="rotate(-0 79.562308 140.1233)">Data for ages 1+ available from 1922 onwards.</text>
   </g>
   <g id="line2d_22">
    <path d="M 910.885385 247.92666 
L 913.510615 327.426913 
" clip-path="url(#p89e424fa7b)" style="fill: none; stroke: #6b0000; stroke-opacity: 0.5; stroke-width: 0.6; stroke-linecap: square"/>
   </g>
   <g id="line2d_23">
    <path d="M 910.885385 245.401713 
L 913.510615 303.993948 
" clip-path="url(#p89e424fa7b)" style="fill: none; stroke: #a01010; stroke-opacity: 0.5; stroke-width: 0.6; stroke-linecap: square"/>
   </g>
   <g id="line2d_24">
    <path d="M 910.885385 245.045239 
L 913.510615 280.561002 
" clip-path="url(#p89e424fa7b)" style="fill: none; stroke: #d03020; stroke-opacity: 0.5; stroke-width: 0.6; stroke-linecap: square"/>
   </g>
   <g id="line2d_25">
    <path d="M 910.885385 244.852732 
L 913.510615 257.128062 
" clip-path="url(#p89e424fa7b)" style="fill: none; stroke: #e05c20; stroke-opacity: 0.5; stroke-width: 0.6; stroke-linecap: square"/>
   </g>
   <g id="line2d_26">
    <path d="M 910.885385 244.615912 
L 913.510615 233.695116 
" clip-path="url(#p89e424fa7b)" style="fill: none; stroke: #e89020; stroke-opacity: 0.5; stroke-width: 0.6; stroke-linecap: square"/>
   </g>
   <g id="line2d_27">
    <path d="M 910.885385 243.081853 
L 913.510615 210.262155 
" clip-path="url(#p89e424fa7b)" style="fill: none; stroke: #c8a800; stroke-opacity: 0.5; stroke-width: 0.6; stroke-linecap: square"/>
   </g>
   <g id="line2d_28">
    <path d="M 910.885385 236.028476 
L 913.510615 186.829171 
" clip-path="url(#p89e424fa7b)" style="fill: none; stroke: #27ae60; stroke-opacity: 0.5; stroke-width: 0.6; stroke-linecap: square"/>
   </g>
   <g id="line2d_29">
    <path d="M 910.885385 215.358905 
L 913.510615 163.396161 
" clip-path="url(#p89e424fa7b)" style="fill: none; stroke: #2980b9; stroke-opacity: 0.5; stroke-width: 0.6; stroke-linecap: square"/>
   </g>
   <g id="line2d_30">
    <path d="M 910.885385 180.944163 
L 913.510615 139.963126 
" clip-path="url(#p89e424fa7b)" style="fill: none; stroke: #6c3483; stroke-opacity: 0.5; stroke-width: 0.6; stroke-linecap: square"/>
   </g>
   <g id="line2d_31">
    <path d="M 70.811538 644.292266 
L 79.562308 603.451824 
L 88.313077 597.007735 
L 97.063846 741.037221 
L 105.814615 621.528735 
L 114.565385 596.338237 
L 123.316154 584.705381 
L 132.066923 580.520911 
L 140.817692 570.980323 
L 149.568462 618.264853 
L 158.319231 609.895912 
L 167.07 611.820765 
L 175.820769 605.878824 
L 184.571538 597.007735 
L 193.322308 620.440764 
L 202.073077 590.982087 
L 210.823846 648.895177 
L 219.574615 596.170854 
L 228.325385 595.919764 
L 237.076154 643.53906 
L 245.826923 624.374177 
L 254.577692 595.752381 
L 263.328462 600.773765 
L 272.079231 651.824294 
L 280.83 649.899441 
L 289.580769 656.510912 
L 298.331538 615.25203 
L 307.082308 657.180411 
L 315.833077 666.637323 
L 324.583846 627.638059 
L 333.334615 624.123119 
L 342.085385 609.812205 
L 350.836154 606.38094 
L 359.586923 606.129882 
L 368.337692 619.603883 
L 377.088462 629.144471 
L 385.839231 631.320381 
L 394.59 716.265147 
L 403.340769 624.206794 
L 412.091538 633.245266 
L 420.842308 641.5305 
L 429.593077 623.118823 
L 438.343846 595.501323 
L 447.094615 609.310089 
L 455.845385 632.324677 
L 464.596154 625.462148 
L 473.346923 601.192206 
L 482.097692 612.490264 
L 490.848462 628.642323 
L 499.599231 602.19647 
L 508.35 610.983884 
L 517.100769 602.531235 
L 525.851538 593.409088 
L 534.602308 588.722469 
L 543.353077 583.115294 
L 552.103846 586.546559 
L 560.854615 589.643058 
L 569.605385 581.608882 
L 578.356154 586.128118 
L 587.106923 588.889852 
L 594.107538 585.249383 
L 595.857692 580.520911 
L 597.607846 583.198969 
L 599.358 575.415884 
L 601.108154 592.321117 
L 602.858308 606.004353 
L 604.608462 594.497059 
L 606.358615 612.992412 
L 608.108769 570.3945 
L 609.858923 585.62597 
L 611.609077 590.145206 
L 613.359231 593.702 
L 615.109385 597.928324 
L 616.859538 587.38344 
L 618.609692 572.905176 
L 620.359846 585.835206 
L 622.11 597.384354 
L 623.860154 590.18706 
L 625.610308 577.298883 
L 627.360462 580.018795 
L 629.110615 575.750617 
L 630.860769 590.479971 
L 632.610923 597.049589 
L 634.361077 595.668706 
L 636.111231 592.865118 
L 637.861385 576.880442 
L 639.611538 579.349264 
L 641.361692 582.362088 
L 643.111846 588.513265 
L 644.862 584.077736 
L 646.612154 570.81294 
L 648.362308 566.042646 
L 650.112462 575.959853 
L 651.862615 581.441499 
L 653.612769 571.273235 
L 655.362923 562.695089 
L 657.113077 576.503823 
L 658.863231 564.243323 
L 660.613385 568.678883 
L 662.363538 551.27147 
L 664.113692 560.226235 
L 665.863846 559.975177 
L 667.614 563.155383 
L 669.364154 555.330412 
L 671.114308 555.204883 
L 672.864462 551.062234 
L 674.614615 541.01953 
L 676.364769 543.948647 
L 678.114923 559.096442 
L 679.865077 556.502059 
L 681.615231 546.794088 
L 683.365385 554.409823 
L 685.115538 524.32347 
L 686.865692 548.3005 
L 688.615846 534.408059 
L 690.366 539.638647 
L 692.116154 542.191177 
L 693.866308 549.681383 
L 695.616462 546.54303 
L 697.366615 535.579706 
L 699.116769 523.653971 
L 700.866923 513.736764 
L 702.617077 525.411441 
L 704.367231 510.556589 
L 706.117385 513.27647 
L 707.867538 505.158619 
L 709.617692 501.350735 
L 711.367846 495.910942 
L 713.118 482.646146 
L 714.868154 499.635119 
L 716.618308 473.816911 
L 718.368462 481.809265 
L 720.118615 483.022765 
L 721.868769 499.802469 
L 723.618923 474.402734 
L 725.369077 475.114118 
L 727.119231 532.692411 
L 728.869385 473.816911 
L 730.619538 449.170382 
L 732.369692 442.224177 
L 734.119846 451.137088 
L 735.87 432.055912 
L 737.620154 442.349706 
L 739.370308 439.420589 
L 741.120462 429.87997 
L 742.870615 434.985029 
L 744.620769 426.950853 
L 746.370923 446.115736 
L 748.121077 419.753559 
L 749.871231 426.197647 
L 751.621385 421.845794 
L 753.371538 421.343646 
L 755.121692 415.31803 
L 756.871846 409.79453 
L 758.622 411.552 
L 760.372154 411.217235 
L 762.122308 399.165971 
L 763.872462 395.985764 
L 765.622615 418.665587 
L 767.372769 415.401705 
L 769.122923 392.889265 
L 770.873077 392.387117 
L 772.623231 386.026704 
L 774.373385 377.992528 
L 776.123538 373.975472 
L 777.873692 372.301645 
L 779.623846 356.149586 
L 781.374 358.325529 
L 783.124154 353.965343 
L 784.874308 357.249274 
L 786.624462 346.469231 
L 788.374615 344.142666 
L 790.124769 341.072952 
L 791.874923 341.383455 
L 793.625077 339.11461 
L 795.375231 338.118743 
L 797.125385 336.609777 
L 798.875538 335.582112 
L 800.625692 333.929228 
L 802.375846 335.900978 
L 804.126 335.331054 
L 805.876154 336.140288 
L 807.626308 329.614184 
L 809.376462 329.82342 
L 811.126615 330.516384 
L 812.876769 325.179485 
L 814.626923 328.413294 
L 816.377077 328.594883 
L 818.127231 326.75875 
L 819.877385 323.812011 
L 821.627538 325.869129 
L 825.127846 322.623636 
L 826.878 320.330528 
L 828.628154 320.463592 
L 830.378308 316.471629 
L 832.128462 317.042383 
L 833.878615 316.05654 
L 835.628769 312.458723 
L 837.378923 309.733798 
L 839.129077 308.70773 
L 840.879231 306.582867 
L 842.629385 303.390944 
L 844.379538 304.545032 
L 846.129692 302.380838 
L 847.879846 299.433268 
L 849.63 298.493461 
L 851.380154 297.340203 
L 853.130308 294.48975 
L 854.880462 293.041122 
L 856.630615 289.721946 
L 858.380769 290.953867 
L 860.130923 286.2706 
L 861.881077 287.156072 
L 865.381385 282.763195 
L 867.131538 281.62839 
L 868.881692 280.805683 
L 870.631846 276.819594 
L 872.382 274.54577 
L 874.132154 273.573271 
L 875.882308 272.79328 
L 877.632462 268.026306 
L 879.382615 266.299803 
L 881.132769 264.280421 
L 882.882923 262.721269 
L 884.633077 261.702734 
L 886.383231 257.516604 
L 888.133385 255.548237 
L 889.883538 252.156336 
L 893.383846 251.092596 
L 895.134 249.170265 
L 896.884154 251.127777 
L 898.634308 249.885002 
L 900.384462 249.077364 
L 902.134615 249.421323 
L 903.884769 246.745819 
L 905.634923 255.593443 
L 907.385077 252.893612 
L 909.135231 249.827218 
L 910.885385 247.92666 
L 910.885385 247.92666 
" clip-path="url(#p89e424fa7b)" style="fill: none; stroke: #6b0000; stroke-width: 2; stroke-linecap: square"/>
   </g>
   <g id="line2d_32">
    <path d="M 734.119846 411.468325 
L 735.87 395.065176 
L 737.620154 402.346177 
L 739.370308 399.249646 
L 741.120462 391.633879 
L 742.870615 398.078 
L 744.620769 390.546004 
L 746.370923 407.283854 
L 748.121077 385.189823 
L 749.871231 389.876473 
L 751.621385 385.775646 
L 753.371538 387.198351 
L 755.121692 381.674883 
L 756.871846 376.402473 
L 758.622 377.155647 
L 760.372154 377.574119 
L 762.122308 368.200882 
L 763.872462 366.359705 
L 765.622615 387.031 
L 767.372769 381.25641 
L 769.122923 361.673118 
L 770.873077 362.761058 
L 772.623231 357.572355 
L 774.373385 351.546707 
L 776.123538 346.274233 
L 777.873692 346.608999 
L 779.623846 335.813057 
L 781.374 339.076939 
L 783.124154 336.173809 
L 784.874308 339.392485 
L 786.624462 329.179877 
L 788.374615 327.50273 
L 790.124769 325.331831 
L 791.874923 325.882473 
L 793.625077 324.157631 
L 795.375231 323.42623 
L 797.125385 322.381772 
L 798.875538 321.641113 
L 800.625692 319.907076 
L 802.375846 322.361659 
L 804.126 321.606825 
L 805.876154 322.883888 
L 807.626308 316.758698 
L 809.376462 317.81567 
L 811.126615 318.582253 
L 812.876769 313.748364 
L 814.626923 316.975405 
L 816.377077 317.467496 
L 818.127231 315.43809 
L 819.877385 312.852869 
L 821.627538 315.44224 
L 823.377692 314.003636 
L 825.127846 312.534066 
L 826.878 310.724686 
L 828.628154 311.694631 
L 830.378308 307.746149 
L 832.128462 308.616552 
L 833.878615 307.877553 
L 835.628769 304.761803 
L 837.378923 302.798416 
L 839.129077 301.884532 
L 840.879231 300.192381 
L 842.629385 297.291677 
L 844.379538 298.633229 
L 846.129692 296.380283 
L 847.879846 293.580079 
L 849.63 292.767461 
L 851.380154 291.98913 
L 853.130308 289.362918 
L 854.880462 288.346937 
L 856.630615 285.533325 
L 858.380769 286.90163 
L 860.130923 282.317139 
L 861.881077 283.200886 
L 863.631231 281.012429 
L 865.381385 279.009711 
L 867.131538 277.941885 
L 868.881692 277.073972 
L 870.631846 273.205048 
L 872.382 270.965511 
L 874.132154 270.126906 
L 875.882308 269.254077 
L 877.632462 264.636895 
L 879.382615 262.910392 
L 881.132769 260.906845 
L 882.882923 259.448193 
L 884.633077 258.52173 
L 886.383231 254.369056 
L 888.133385 252.572255 
L 889.883538 249.217961 
L 891.633692 248.826306 
L 893.383846 248.484836 
L 895.134 246.554141 
L 896.884154 248.500735 
L 898.634308 247.271368 
L 900.384462 246.435316 
L 902.134615 246.842041 
L 903.884769 244.082765 
L 905.634923 253.105338 
L 907.385077 250.273273 
L 909.135231 247.227822 
L 910.885385 245.401713 
" clip-path="url(#p89e424fa7b)" style="fill: none; stroke: #a01010; stroke-width: 2; stroke-linecap: square"/>
   </g>
   <g id="line2d_33">
    <path d="M 734.119846 386.277762 
L 735.87 375.649235 
L 737.620154 379.917413 
L 739.370308 377.825177 
L 741.120462 372.803761 
L 742.870615 378.24365 
L 744.620769 372.803761 
L 746.370923 384.603999 
L 748.121077 369.623651 
L 749.871231 373.222234 
L 751.621385 370.042059 
L 753.371538 372.720118 
L 755.121692 366.861885 
L 756.871846 364.518591 
L 758.622 364.602235 
L 760.372154 366.02494 
L 762.122308 357.40494 
L 763.872462 358.492944 
L 765.622615 376.235058 
L 767.372769 369.623651 
L 769.122923 353.722586 
L 770.873077 355.229062 
L 772.623231 351.211942 
L 774.373385 345.521059 
L 776.123538 341.252881 
L 777.873692 341.587647 
L 779.623846 331.796001 
L 781.374 335.394648 
L 783.124154 332.918291 
L 784.874308 336.05243 
L 786.624462 326.269149 
L 788.374615 324.643082 
L 790.124769 323.016951 
L 791.874923 323.48478 
L 793.625077 322.002631 
L 795.375231 321.138166 
L 797.125385 320.308756 
L 798.875538 319.470214 
L 800.625692 317.829079 
L 802.375846 320.169882 
L 804.126 319.556412 
L 805.876154 320.755705 
L 807.626308 314.858907 
L 809.376462 315.873227 
L 811.126615 316.576215 
L 812.876769 311.891288 
L 814.626923 315.04471 
L 816.377077 315.595416 
L 818.127231 313.691474 
L 819.877385 311.164037 
L 821.627538 313.652142 
L 823.377692 312.289648 
L 825.127846 310.895421 
L 826.878 309.21157 
L 828.628154 310.2778 
L 830.378308 306.365266 
L 832.128462 307.213066 
L 833.878615 306.647292 
L 835.628769 303.526561 
L 837.378923 301.602507 
L 839.129077 300.753941 
L 840.879231 299.12283 
L 842.629385 296.217082 
L 844.379538 297.522686 
L 846.129692 295.356768 
L 847.879846 292.569079 
L 849.63 291.748927 
L 851.380154 290.97232 
L 853.130308 288.430644 
L 854.880462 287.426348 
L 856.630615 284.724027 
L 858.380769 286.090671 
L 860.130923 281.57814 
L 861.881077 282.528865 
L 863.631231 280.302737 
L 865.381385 278.331816 
L 867.131538 277.240557 
L 868.881692 276.381903 
L 870.631846 272.620885 
L 872.382 270.379688 
L 874.132154 269.533548 
L 875.882308 268.628922 
L 877.632462 264.077059 
L 879.382615 262.370605 
L 881.132769 260.327726 
L 882.882923 258.86901 
L 884.633077 257.982772 
L 886.383231 253.899568 
L 888.133385 252.100212 
L 889.883538 248.745982 
L 891.633692 248.401193 
L 893.383846 248.032906 
L 895.134 246.139053 
L 896.884154 248.084816 
L 898.634308 246.857939 
L 900.384462 246.074628 
L 902.134615 246.488057 
L 903.884769 243.725461 
L 905.634923 252.794006 
L 907.385077 249.889982 
L 909.135231 246.771742 
L 910.885385 245.045239 
" clip-path="url(#p89e424fa7b)" style="fill: none; stroke: #d03020; stroke-width: 2; stroke-linecap: square"/>
   </g>
   <g id="line2d_34">
    <path d="M 734.119846 379.833705 
L 735.87 369.790938 
L 737.620154 374.22653 
L 739.370308 371.799529 
L 741.120462 366.945528 
L 742.870615 372.552703 
L 744.620769 366.945528 
L 746.370923 378.411001 
L 748.121077 363.765354 
L 749.871231 367.782473 
L 751.621385 364.685942 
L 753.371538 367.112943 
L 755.121692 360.585179 
L 756.871846 359.162474 
L 758.622 359.497176 
L 760.372154 361.25471 
L 762.122308 352.550939 
L 763.872462 354.643174 
L 765.622615 371.213706 
L 767.372769 364.351177 
L 769.122923 349.872944 
L 770.873077 351.463 
L 772.623231 347.529587 
L 774.373385 342.424592 
L 776.123538 338.909588 
L 777.873692 339.076939 
L 779.623846 329.703766 
L 781.374 333.553471 
L 783.124154 331.197599 
L 784.874308 334.535164 
L 786.624462 324.903334 
L 788.374615 323.283908 
L 790.124769 321.881316 
L 791.874923 322.278846 
L 793.625077 320.897963 
L 795.375231 319.960646 
L 797.125385 319.195723 
L 798.875538 318.362162 
L 800.625692 316.600478 
L 802.375846 319.055956 
L 804.126 318.481881 
L 805.876154 319.638459 
L 807.626308 313.788526 
L 809.376462 314.780243 
L 811.126615 315.541846 
L 812.876769 310.856025 
L 814.626923 313.993612 
L 816.377077 314.64884 
L 818.127231 312.729 
L 819.877385 310.155591 
L 821.627538 312.656211 
L 823.377692 311.348181 
L 825.127846 310.031722 
L 826.878 308.369644 
L 828.628154 309.456817 
L 830.378308 305.611262 
L 832.128462 306.411302 
L 833.878615 305.86398 
L 835.628769 302.781688 
L 837.378923 300.931316 
L 839.129077 300.139641 
L 840.879231 298.460834 
L 842.629385 295.598632 
L 844.379538 296.932649 
L 846.129692 294.814491 
L 847.879846 292.050234 
L 849.63 291.19158 
L 851.380154 290.425828 
L 853.130308 287.936893 
L 854.880462 286.891605 
L 856.630615 284.254538 
L 858.380769 285.657194 
L 860.130923 281.182334 
L 861.881077 282.116267 
L 863.631231 279.942048 
L 865.381385 277.942715 
L 867.131538 276.86563 
L 868.881692 276.032899 
L 870.631846 272.28695 
L 872.382 270.034068 
L 874.132154 269.210531 
L 875.882308 268.308395 
L 877.632462 263.784115 
L 879.382615 262.0919 
L 881.132769 260.020607 
L 882.882923 258.570256 
L 884.633077 257.659755 
L 886.383231 253.614158 
L 888.133385 251.817357 
L 889.883538 248.485666 
L 891.633692 248.128362 
L 893.383846 247.791043 
L 895.134 245.874586 
L 896.884154 247.849657 
L 898.634308 246.643659 
L 900.384462 245.837745 
L 902.134615 246.255387 
L 903.884769 243.522098 
L 905.634923 252.618291 
L 907.385077 249.68662 
L 909.135231 246.538243 
L 910.885385 244.852732 
" clip-path="url(#p89e424fa7b)" style="fill: none; stroke: #e05c20; stroke-width: 2; stroke-linecap: square"/>
   </g>
   <g id="line2d_35">
    <path d="M 734.119846 375.816585 
L 735.87 366.02494 
L 737.620154 370.293117 
L 739.370308 367.866117 
L 741.120462 363.346945 
L 742.870615 368.95412 
L 744.620769 363.17953 
L 746.370923 374.728646 
L 748.121077 360.166706 
L 749.871231 364.351177 
L 751.621385 361.421996 
L 753.371538 363.765354 
L 755.121692 357.153882 
L 756.871846 356.065879 
L 758.622 356.651766 
L 760.372154 358.409236 
L 762.122308 349.70553 
L 763.872462 352.13253 
L 765.622615 368.117175 
L 767.372769 361.087295 
L 769.122923 347.278529 
L 770.873077 348.952356 
L 772.623231 344.935236 
L 774.373385 340.164942 
L 776.123538 336.984703 
L 777.873692 337.319533 
L 779.623846 328.113646 
L 781.374 332.130702 
L 783.124154 329.985791 
L 784.874308 333.360133 
L 786.624462 323.849682 
L 788.374615 322.247879 
L 790.124769 320.935634 
L 791.874923 321.308007 
L 793.625077 320.043523 
L 795.375231 319.001555 
L 797.125385 318.382275 
L 798.875538 317.493483 
L 800.625692 315.769471 
L 802.375846 318.234973 
L 804.126 317.619012 
L 805.876154 318.831651 
L 807.626308 312.940726 
L 809.376462 313.875617 
L 811.126615 314.680638 
L 812.876769 309.954719 
L 814.626923 313.148302 
L 816.377077 313.871403 
L 818.127231 311.960757 
L 819.877385 309.346293 
L 821.627538 311.944028 
L 823.377692 310.62923 
L 825.127846 309.314496 
L 826.878 307.677575 
L 828.628154 308.770558 
L 830.378308 304.974359 
L 832.128462 305.733471 
L 833.878615 305.214563 
L 835.628769 302.154043 
L 837.378923 300.299457 
L 839.129077 299.516976 
L 840.879231 297.849917 
L 842.629385 295.003614 
L 844.379538 296.29747 
L 846.129692 294.278853 
L 847.879846 291.488674 
L 849.63 290.643428 
L 851.380154 289.901875 
L 853.130308 287.402916 
L 854.880462 286.371036 
L 856.630615 283.798458 
L 858.380769 285.148374 
L 860.130923 280.714505 
L 861.881077 281.644288 
L 863.631231 279.515211 
L 865.381385 277.497489 
L 867.131538 276.459672 
L 868.881692 275.632879 
L 870.631846 271.907809 
L 872.382 269.651607 
L 874.132154 268.830624 
L 875.882308 267.947707 
L 877.632462 263.441816 
L 879.382615 261.741236 
L 881.132769 259.654045 
L 882.882923 258.217932 
L 884.633077 257.371026 
L 886.383231 253.31036 
L 888.133385 251.532011 
L 889.883538 248.229628 
L 891.633692 247.859681 
L 893.383846 247.517382 
L 895.134 245.597541 
L 896.884154 247.58768 
L 898.634308 246.386791 
L 900.384462 245.590007 
L 902.134615 245.991751 
L 903.884769 243.269317 
L 905.634923 252.384791 
L 907.385077 249.436392 
L 909.135231 246.267072 
L 910.885385 244.615912 
" clip-path="url(#p89e424fa7b)" style="fill: none; stroke: #e89020; stroke-width: 2; stroke-linecap: square"/>
   </g>
   <g id="line2d_36">
    <path d="M 734.119846 363.598003 
L 735.87 354.475824 
L 737.620154 358.660294 
L 739.370308 356.233294 
L 741.120462 352.216238 
L 742.870615 357.739706 
L 744.620769 351.881409 
L 746.370923 363.095823 
L 748.121077 348.952356 
L 749.871231 353.053055 
L 751.621385 350.458704 
L 753.371538 352.718354 
L 755.121692 346.692706 
L 756.871846 346.023175 
L 758.622 346.943764 
L 760.372154 348.701298 
L 762.122308 340.499643 
L 763.872462 343.094059 
L 765.622615 356.233294 
L 767.372769 347.94806 
L 769.122923 335.980471 
L 770.873077 337.905292 
L 772.623231 334.139294 
L 774.373385 330.791705 
L 776.123538 329.201649 
L 777.873692 329.87118 
L 779.623846 321.669526 
L 781.374 326.272469 
L 783.124154 325.102482 
L 784.874308 329.199095 
L 786.624462 319.993273 
L 788.374615 318.753818 
L 790.124769 317.623227 
L 791.874923 318.029057 
L 793.625077 317.080885 
L 795.375231 315.731799 
L 797.125385 315.354382 
L 798.875538 314.288982 
L 800.625692 312.603471 
L 802.375846 315.035516 
L 804.126 314.447202 
L 805.876154 315.727649 
L 807.626308 309.648431 
L 809.376462 310.620036 
L 811.126615 311.328068 
L 812.876769 306.813046 
L 814.626923 310.216632 
L 816.377077 310.874478 
L 818.127231 308.92201 
L 819.877385 306.286667 
L 821.627538 308.835813 
L 823.377692 307.397146 
L 825.127846 306.225499 
L 826.878 304.576893 
L 828.628154 305.693246 
L 830.378308 301.965749 
L 832.128462 302.606803 
L 833.878615 302.326438 
L 835.628769 299.270962 
L 837.378923 297.535265 
L 839.129077 296.787071 
L 840.879231 295.263866 
L 842.629385 292.428482 
L 844.379538 293.790082 
L 846.129692 291.675244 
L 847.879846 288.872486 
L 849.63 287.991293 
L 851.380154 287.246483 
L 853.130308 284.708958 
L 854.880462 283.683783 
L 856.630615 281.304479 
L 858.380769 282.661099 
L 860.130923 278.261518 
L 861.881077 279.083394 
L 863.631231 276.938419 
L 865.381385 274.862912 
L 867.131538 273.965757 
L 868.881692 273.138964 
L 870.631846 269.508455 
L 872.382 267.245485 
L 874.132154 266.531643 
L 875.882308 265.741627 
L 877.632462 261.350474 
L 879.382615 259.695866 
L 881.132769 257.497385 
L 882.882923 256.108968 
L 884.633077 255.284601 
L 886.383231 251.360383 
L 888.133385 249.728506 
L 889.883538 246.62361 
L 891.633692 246.332327 
L 893.383846 246.036063 
L 895.134 244.023384 
L 896.884154 246.044491 
L 898.634308 244.81257 
L 900.384462 244.120436 
L 902.134615 244.348892 
L 903.884769 241.685965 
L 905.634923 250.93527 
L 907.385077 247.81869 
L 909.135231 244.627597 
L 910.885385 243.081853 
" clip-path="url(#p89e424fa7b)" style="fill: none; stroke: #c8a800; stroke-width: 2; stroke-linecap: square"/>
   </g>
   <g id="line2d_37">
    <path d="M 734.119846 334.474059 
L 735.87 327.61153 
L 737.620154 331.544943 
L 739.370308 329.871116 
L 741.120462 326.439884 
L 742.870615 331.210177 
L 744.620769 326.356176 
L 746.370923 336.482587 
L 748.121077 324.263941 
L 749.871231 328.448412 
L 751.621385 326.607234 
L 753.371538 327.862588 
L 755.121692 323.59441 
L 756.871846 323.59441 
L 758.622 325.35188 
L 760.372154 326.774649 
L 762.122308 320.07947 
L 763.872462 323.092294 
L 765.622615 332.047059 
L 767.372769 323.176002 
L 769.122923 314.221237 
L 770.873077 315.978707 
L 772.623231 312.631118 
L 774.373385 311.626822 
L 776.123538 311.794237 
L 777.873692 313.635414 
L 779.623846 306.60547 
L 781.374 312.045295 
L 783.124154 311.815945 
L 784.874308 316.638979 
L 786.624462 308.493513 
L 788.374615 307.661612 
L 790.124769 306.835649 
L 791.874923 307.742829 
L 793.625077 307.072469 
L 795.375231 305.607878 
L 797.125385 305.654744 
L 798.875538 304.719151 
L 800.625692 303.166703 
L 802.375846 305.550988 
L 804.126 305.025439 
L 805.876154 306.241461 
L 807.626308 300.159753 
L 809.376462 301.157281 
L 811.126615 302.072826 
L 812.876769 297.863262 
L 814.626923 301.408403 
L 816.377077 301.936442 
L 818.127231 300.170608 
L 819.877385 297.626442 
L 821.627538 300.288602 
L 823.377692 298.770506 
L 825.127846 297.792963 
L 826.878 296.292425 
L 828.628154 297.506788 
L 830.378308 293.955006 
L 832.128462 294.405212 
L 833.878615 294.328209 
L 835.628769 291.532156 
L 837.378923 289.996501 
L 839.129077 289.38469 
L 840.879231 287.964476 
L 842.629385 285.228697 
L 844.379538 286.684859 
L 846.129692 284.590134 
L 847.879846 281.712097 
L 849.63 280.762201 
L 851.380154 280.162969 
L 853.130308 277.447239 
L 854.880462 276.515796 
L 856.630615 274.106354 
L 858.380769 275.477213 
L 860.130923 270.869225 
L 861.881077 271.698636 
L 863.631231 269.543636 
L 865.381385 267.645569 
L 867.131538 266.641273 
L 868.881692 265.899783 
L 870.631846 262.173117 
L 872.382 260.073347 
L 874.132154 259.336008 
L 875.882308 258.658177 
L 877.632462 254.389169 
L 879.382615 252.958036 
L 881.132769 250.456587 
L 882.882923 249.094986 
L 884.633077 248.137556 
L 886.383231 244.262694 
L 888.133385 242.954664 
L 889.883538 239.981172 
L 891.633692 240.046426 
L 893.383846 239.556825 
L 895.134 237.520714 
L 896.884154 239.550184 
L 898.634308 238.110751 
L 900.384462 237.590182 
L 902.134615 237.578498 
L 903.884769 234.955669 
L 905.634923 244.022491 
L 907.385077 240.596302 
L 909.135231 237.399335 
L 910.885385 236.028476 
" clip-path="url(#p89e424fa7b)" style="fill: none; stroke: #27ae60; stroke-width: 2; stroke-linecap: square"/>
   </g>
   <g id="line2d_38">
    <path d="M 734.119846 285.850468 
L 735.87 280.745472 
L 737.620154 284.34412 
L 739.370308 283.339824 
L 741.120462 280.912823 
L 742.870615 284.595178 
L 744.620769 280.99653 
L 746.370923 288.779648 
L 748.121077 279.155353 
L 749.871231 283.172473 
L 751.621385 282.335528 
L 753.371538 282.335528 
L 755.121692 279.23906 
L 756.871846 279.824884 
L 758.622 281.163881 
L 760.372154 282.08447 
L 762.122308 277.481527 
L 763.872462 280.410707 
L 765.622615 285.181001 
L 767.372769 278.988002 
L 769.122923 273.213413 
L 770.873077 274.803532 
L 772.623231 271.958059 
L 774.373385 271.790708 
L 776.123538 272.292824 
L 777.873692 274.468767 
L 779.623846 268.359411 
L 781.374 273.882943 
L 783.124154 273.952412 
L 784.874308 278.440617 
L 786.624462 271.636702 
L 788.374615 271.280164 
L 790.124769 270.627426 
L 791.874923 272.007415 
L 793.625077 271.610779 
L 795.375231 269.382096 
L 797.125385 270.203079 
L 798.875538 269.367858 
L 800.625692 267.954347 
L 802.375846 270.141974 
L 804.126 269.577924 
L 805.876154 270.535354 
L 807.626308 264.748186 
L 809.376462 265.812756 
L 811.126615 266.879753 
L 812.876769 263.304602 
L 814.626923 266.762652 
L 816.377077 266.339135 
L 818.127231 265.02274 
L 819.877385 262.89028 
L 821.627538 265.247875 
L 823.377692 264.108856 
L 825.127846 263.244328 
L 826.878 262.215769 
L 828.628154 263.377391 
L 830.378308 260.274986 
L 832.128462 260.567929 
L 833.878615 260.552031 
L 835.628769 258.496637 
L 837.378923 257.545911 
L 839.129077 257.497385 
L 840.879231 256.41781 
L 842.629385 254.000004 
L 844.379538 256.054567 
L 846.129692 254.435141 
L 847.879846 251.998116 
L 849.63 251.54957 
L 851.380154 251.870927 
L 853.130308 249.517545 
L 854.880462 249.39457 
L 856.630615 247.565141 
L 858.380769 249.237244 
L 860.130923 245.48044 
L 861.881077 246.46539 
L 863.631231 244.709644 
L 865.381385 243.342105 
L 867.131538 242.503564 
L 868.881692 242.09269 
L 870.631846 238.750081 
L 872.382 236.93738 
L 874.132154 236.438585 
L 875.882308 235.999233 
L 877.632462 232.346186 
L 879.382615 231.131823 
L 881.132769 228.611985 
L 882.882923 227.637826 
L 884.633077 226.903871 
L 886.383231 223.46338 
L 888.133385 222.373781 
L 889.883538 219.876481 
L 891.633692 220.415439 
L 893.383846 219.878141 
L 895.134 217.961621 
L 896.884154 219.943396 
L 898.634308 218.239496 
L 900.384462 218.049542 
L 902.134615 217.731506 
L 903.884769 215.310379 
L 905.634923 222.797233 
L 907.385077 219.016167 
L 909.135231 216.43516 
L 910.885385 215.358905 
" clip-path="url(#p89e424fa7b)" style="fill: none; stroke: #2980b9; stroke-width: 2; stroke-linecap: square"/>
   </g>
   <g id="line2d_39">
    <path d="M 734.119846 215.886178 
L 735.87 213.20812 
L 737.620154 215.13294 
L 739.370308 215.216648 
L 741.120462 213.626528 
L 742.870615 215.886178 
L 744.620769 213.37547 
L 746.370923 218.396822 
L 748.121077 212.036473 
L 749.871231 215.635056 
L 751.621385 215.13294 
L 753.371538 215.802471 
L 755.121692 212.371174 
L 756.871846 213.37547 
L 758.622 214.379766 
L 760.372154 215.383998 
L 762.122308 211.952766 
L 763.872462 214.798175 
L 765.622615 217.308883 
L 767.372769 213.877586 
L 769.122923 210.111588 
L 770.873077 212.203824 
L 772.623231 209.944238 
L 774.373385 209.86053 
L 776.123538 210.781119 
L 777.873692 212.454882 
L 779.623846 207.015057 
L 781.374 211.450586 
L 783.124154 211.874933 
L 784.874308 214.62827 
L 786.624462 210.292348 
L 788.374615 210.053868 
L 790.124769 209.842078 
L 791.874923 211.146852 
L 793.625077 210.839669 
L 795.375231 208.270411 
L 797.125385 209.596894 
L 798.875538 208.765887 
L 800.625692 207.863687 
L 802.375846 209.178421 
L 804.126 208.864599 
L 805.876154 209.6965 
L 807.626308 205.091897 
L 809.376462 205.646753 
L 811.126615 206.548059 
L 812.876769 203.86917 
L 814.626923 206.517155 
L 816.377077 204.641627 
L 818.127231 204.357111 
L 819.877385 203.633181 
L 821.627538 204.961323 
L 823.377692 204.683512 
L 825.127846 204.21396 
L 826.878 203.720208 
L 828.628154 204.960493 
L 830.378308 202.367802 
L 832.128462 202.392065 
L 833.878615 202.661576 
L 835.628769 201.305786 
L 837.378923 201.054728 
L 839.129077 201.078161 
L 840.879231 200.384367 
L 842.629385 198.610999 
L 844.379538 200.435447 
L 846.129692 199.162471 
L 847.879846 197.095392 
L 849.63 197.176545 
L 851.380154 198.023515 
L 853.130308 195.952989 
L 854.880462 196.27773 
L 856.630615 194.829932 
L 858.380769 196.825882 
L 860.130923 194.17547 
L 861.881077 195.470092 
L 863.631231 194.656643 
L 865.381385 194.138629 
L 867.131538 193.836491 
L 868.881692 193.973768 
L 870.631846 192.246435 
L 872.382 191.668976 
L 874.132154 191.846351 
L 875.882308 192.287427 
L 877.632462 189.697226 
L 879.382615 189.331493 
L 881.132769 187.795838 
L 882.882923 187.583218 
L 884.633077 187.478631 
L 886.383231 185.065869 
L 888.133385 184.454953 
L 889.883538 182.740965 
L 891.633692 183.853231 
L 893.383846 183.694181 
L 895.134 182.086503 
L 896.884154 184.233138 
L 898.634308 182.431293 
L 900.384462 182.62712 
L 902.134615 182.333411 
L 903.884769 180.525691 
L 905.634923 185.858375 
L 907.385077 182.993683 
L 909.135231 181.453814 
L 910.885385 180.944163 
" clip-path="url(#p89e424fa7b)" style="fill: none; stroke: #6c3483; stroke-width: 2; stroke-linecap: square"/>
   </g>
  </g>
  <g id="text_35">
   <text style="font-size: 26px; font-family: 'DejaVu Sans', 'Bitstream Vera Sans', 'Computer Modern Sans Serif', 'Lucida Grande', 'Verdana', 'Geneva', 'Lucid', 'Arial', 'Helvetica', 'Avant Garde', sans-serif; text-anchor: start; fill: #333333" x="41.79" y="26.955938" transform="rotate(-0 41.79 26.955938)">Life expectancy by age in the United Kingdom, 1543–2023</text>
  </g>
  <g id="text_36">
   <text style="font-size: 13px; font-family: 'DejaVu Sans', 'Bitstream Vera Sans', 'Computer Modern Sans Serif', 'Lucida Grande', 'Verdana', 'Geneva', 'Lucid', 'Arial', 'Helvetica', 'Avant Garde', sans-serif; text-anchor: start; fill: #666666" x="41.79" y="68.557969" transform="rotate(-0 41.79 68.557969)">Shown is the total life expectancy given that a person reached a certain age.</text>
  </g>
  <g id="text_37">
   <text style="font-size: 9px; font-family: 'DejaVu Sans', 'Bitstream Vera Sans', 'Computer Modern Sans Serif', 'Lucida Grande', 'Verdana', 'Geneva', 'Lucid', 'Arial', 'Helvetica', 'Avant Garde', sans-serif; fill: #666666" transform="translate(41.79 875.09025)">Data sources: HMD (2025); UN WPP (2024)</text>
   <text style="font-size: 9px; font-family: 'DejaVu Sans', 'Bitstream Vera Sans', 'Computer Modern Sans Serif', 'Lucida Grande', 'Verdana', 'Geneva', 'Lucid', 'Arial', 'Helvetica', 'Avant Garde', sans-serif; fill: #666666" transform="translate(41.79 885.168281)">OurWorldInData.org – Research and data to make progress against the world's largest problems.</text>
  </g>
 </g>
 <defs>
  <clipPath id="p89e424fa7b">
   <rect x="53.31" y="91.44" width="910.08" height="711.36"/>
  </clipPath>
 </defs>
</svg>
