<?xml version="1.0" encoding="utf-8" standalone="no"?>
<!DOCTYPE svg PUBLIC "-//W3C//DTD SVG 1.1//EN"
  "http://www.w3.org/Graphics/SVG/1.1/DTD/svg11.dtd">
<svg xmlns:xlink="http://www.w3.org/1999/xlink" width="963.59125pt" height="894.24pt" viewBox="0 0 963.59125 894.24" xmlns="http://www.w3.org/2000/svg" version="1.1">
 <metadata>
  <rdf:RDF xmlns:dc="http://purl.org/dc/elements/1.1/" xmlns:cc="http://creativecommons.org/ns#" xmlns:rdf="http://www.w3.org/1999/02/22-rdf-syntax-ns#">
   <cc:Work>
    <dc:type rdf:resource="http://purl.org/dc/dcmitype/StillImage"/>
    <dc:format>image/svg+xml</dc:format>
    <dc:creator>
     <cc:Agent>
      <dc:title>Matplotlib v3.10.8, https://matplotlib.org/</dc:title>
     </cc:Agent>
    </dc:creator>
   </cc:Work>
  </rdf:RDF>
 </metadata>
 <defs>
  <style type="text/css">*{stroke-linejoin: round; stroke-linecap: butt}</style>
 </defs>
 <g id="figure_1">
  <g id="axes_1">
   <g id="patch_1">
    <path d="M 46.31125 802.8 
L 956.39125 802.8 
L 956.39125 91.44 
L 46.31125 91.44 
L 46.31125 802.8 
z
" style="fill: none"/>
   </g>
   <g id="matplotlib.axis_1">
    <g id="xtick_1">
     <g id="line2d_1"/>
     <g id="text_1">
      <text style="font-size: 11px; font-family: 'DejaVu Sans', 'Bitstream Vera Sans', 'Computer Modern Sans Serif', 'Lucida Grande', 'Verdana', 'Geneva', 'Lucid', 'Arial', 'Helvetica', 'Avant Garde', sans-serif; text-anchor: middle; fill: #666666" x="145.143467" y="814.658281" transform="rotate(-0 145.143467 814.658281)">1850</text>
     </g>
    </g>
    <g id="xtick_2">
     <g id="line2d_2"/>
     <g id="text_2">
      <text style="font-size: 11px; font-family: 'DejaVu Sans', 'Bitstream Vera Sans', 'Computer Modern Sans Serif', 'Lucida Grande', 'Verdana', 'Geneva', 'Lucid', 'Arial', 'Helvetica', 'Avant Garde', sans-serif; text-anchor: middle; fill: #666666" x="351.04392" y="814.658281" transform="rotate(-0 351.04392 814.658281)">1900</text>
     </g>
    </g>
    <g id="xtick_3">
     <g id="line2d_3"/>
     <g id="text_3">
      <text style="font-size: 11px; font-family: 'DejaVu Sans', 'Bitstream Vera Sans', 'Computer Modern Sans Serif', 'Lucida Grande', 'Verdana', 'Geneva', 'Lucid', 'Arial', 'Helvetica', 'Avant Garde', sans-serif; text-anchor: middle; fill: #666666" x="556.944372" y="814.658281" transform="rotate(-0 556.944372 814.658281)">1950</text>
     </g>
    </g>
    <g id="xtick_4">
     <g id="line2d_4"/>
     <g id="text_4">
      <text style="font-size: 11px; font-family: 'DejaVu Sans', 'Bitstream Vera Sans', 'Computer Modern Sans Serif', 'Lucida Grande', 'Verdana', 'Geneva', 'Lucid', 'Arial', 'Helvetica', 'Avant Garde', sans-serif; text-anchor: middle; fill: #666666" x="659.894598" y="814.658281" transform="rotate(-0 659.894598 814.658281)">1975</text>
     </g>
    </g>
    <g id="xtick_5">
     <g id="line2d_5"/>
     <g id="text_5">
      <text style="font-size: 11px; font-family: 'DejaVu Sans', 'Bitstream Vera Sans', 'Computer Modern Sans Serif', 'Lucida Grande', 'Verdana', 'Geneva', 'Lucid', 'Arial', 'Helvetica', 'Avant Garde', sans-serif; text-anchor: middle; fill: #666666" x="762.844825" y="814.658281" transform="rotate(-0 762.844825 814.658281)">2000</text>
     </g>
    </g>
    <g id="xtick_6">
     <g id="line2d_6"/>
     <g id="text_6">
      <text style="font-size: 11px; font-family: 'DejaVu Sans', 'Bitstream Vera Sans', 'Computer Modern Sans Serif', 'Lucida Grande', 'Verdana', 'Geneva', 'Lucid', 'Arial', 'Helvetica', 'Avant Garde', sans-serif; text-anchor: middle; fill: #666666" x="853.441024" y="814.658281" transform="rotate(-0 853.441024 814.658281)">2022</text>
     </g>
    </g>
   </g>
   <g id="matplotlib.axis_2">
    <g id="ytick_1">
     <g id="line2d_7">
      <path d="M 46.31125 756.607792 
L 956.39125 756.607792 
" clip-path="url(#p93c4ddf272)" style="fill: none; stroke: #eeeeee; stroke-linecap: square"/>
     </g>
     <g id="text_7">
      <text style="font-size: 11px; font-family: 'DejaVu Sans', 'Bitstream Vera Sans', 'Computer Modern Sans Serif', 'Lucida Grande', 'Verdana', 'Geneva', 'Lucid', 'Arial', 'Helvetica', 'Avant Garde', sans-serif; text-anchor: end; fill: #666666" x="42.81125" y="760.786933" transform="rotate(-0 42.81125 760.786933)">20</text>
     </g>
    </g>
    <g id="ytick_2">
     <g id="line2d_8">
      <path d="M 46.31125 664.223377 
L 956.39125 664.223377 
" clip-path="url(#p93c4ddf272)" style="fill: none; stroke: #eeeeee; stroke-linecap: square"/>
     </g>
     <g id="text_8">
      <text style="font-size: 11px; font-family: 'DejaVu Sans', 'Bitstream Vera Sans', 'Computer Modern Sans Serif', 'Lucida Grande', 'Verdana', 'Geneva', 'Lucid', 'Arial', 'Helvetica', 'Avant Garde', sans-serif; text-anchor: end; fill: #666666" x="42.81125" y="668.402517" transform="rotate(-0 42.81125 668.402517)">30</text>
     </g>
    </g>
    <g id="ytick_3">
     <g id="line2d_9">
      <path d="M 46.31125 571.838961 
L 956.39125 571.838961 
" clip-path="url(#p93c4ddf272)" style="fill: none; stroke: #eeeeee; stroke-linecap: square"/>
     </g>
     <g id="text_9">
      <text style="font-size: 11px; font-family: 'DejaVu Sans', 'Bitstream Vera Sans', 'Computer Modern Sans Serif', 'Lucida Grande', 'Verdana', 'Geneva', 'Lucid', 'Arial', 'Helvetica', 'Avant Garde', sans-serif; text-anchor: end; fill: #666666" x="42.81125" y="576.018102" transform="rotate(-0 42.81125 576.018102)">40</text>
     </g>
    </g>
    <g id="ytick_4">
     <g id="line2d_10">
      <path d="M 46.31125 479.454545 
L 956.39125 479.454545 
" clip-path="url(#p93c4ddf272)" style="fill: none; stroke: #eeeeee; stroke-linecap: square"/>
     </g>
     <g id="text_10">
      <text style="font-size: 11px; font-family: 'DejaVu Sans', 'Bitstream Vera Sans', 'Computer Modern Sans Serif', 'Lucida Grande', 'Verdana', 'Geneva', 'Lucid', 'Arial', 'Helvetica', 'Avant Garde', sans-serif; text-anchor: end; fill: #666666" x="42.81125" y="483.633686" transform="rotate(-0 42.81125 483.633686)">50</text>
     </g>
    </g>
    <g id="ytick_5">
     <g id="line2d_11">
      <path d="M 46.31125 387.07013 
L 956.39125 387.07013 
" clip-path="url(#p93c4ddf272)" style="fill: none; stroke: #eeeeee; stroke-linecap: square"/>
     </g>
     <g id="text_11">
      <text style="font-size: 11px; font-family: 'DejaVu Sans', 'Bitstream Vera Sans', 'Computer Modern Sans Serif', 'Lucida Grande', 'Verdana', 'Geneva', 'Lucid', 'Arial', 'Helvetica', 'Avant Garde', sans-serif; text-anchor: end; fill: #666666" x="42.81125" y="391.24927" transform="rotate(-0 42.81125 391.24927)">60</text>
     </g>
    </g>
    <g id="ytick_6">
     <g id="line2d_12">
      <path d="M 46.31125 294.685714 
L 956.39125 294.685714 
" clip-path="url(#p93c4ddf272)" style="fill: none; stroke: #eeeeee; stroke-linecap: square"/>
     </g>
     <g id="text_12">
      <text style="font-size: 11px; font-family: 'DejaVu Sans', 'Bitstream Vera Sans', 'Computer Modern Sans Serif', 'Lucida Grande', 'Verdana', 'Geneva', 'Lucid', 'Arial', 'Helvetica', 'Avant Garde', sans-serif; text-anchor: end; fill: #666666" x="42.81125" y="298.864855" transform="rotate(-0 42.81125 298.864855)">70</text>
     </g>
    </g>
    <g id="ytick_7">
     <g id="line2d_13">
      <path d="M 46.31125 202.301299 
L 956.39125 202.301299 
" clip-path="url(#p93c4ddf272)" style="fill: none; stroke: #eeeeee; stroke-linecap: square"/>
     </g>
     <g id="text_13">
      <text style="font-size: 11px; font-family: 'DejaVu Sans', 'Bitstream Vera Sans', 'Computer Modern Sans Serif', 'Lucida Grande', 'Verdana', 'Geneva', 'Lucid', 'Arial', 'Helvetica', 'Avant Garde', sans-serif; text-anchor: end; fill: #666666" x="42.81125" y="206.480439" transform="rotate(-0 42.81125 206.480439)">80</text>
     </g>
    </g>
    <g id="ytick_8">
     <g id="line2d_14">
      <path d="M 46.31125 109.916883 
L 956.39125 109.916883 
" clip-path="url(#p93c4ddf272)" style="fill: none; stroke: #eeeeee; stroke-linecap: square"/>
     </g>
     <g id="text_14">
      <text style="font-size: 11px; font-family: 'DejaVu Sans', 'Bitstream Vera Sans', 'Computer Modern Sans Serif', 'Lucida Grande', 'Verdana', 'Geneva', 'Lucid', 'Arial', 'Helvetica', 'Avant Garde', sans-serif; text-anchor: end; fill: #666666" x="42.81125" y="114.096024" transform="rotate(-0 42.81125 114.096024)">90</text>
     </g>
    </g>
    <g id="text_15">
     <text style="font-size: 12px; font-family: 'DejaVu Sans', 'Bitstream Vera Sans', 'Computer Modern Sans Serif', 'Lucida Grande', 'Verdana', 'Geneva', 'Lucid', 'Arial', 'Helvetica', 'Avant Garde', sans-serif; text-anchor: middle; fill: #666666" x="16.318125" y="447.12" transform="rotate(-90 16.318125 447.12)">Life expectancy (years)</text>
    </g>
   </g>
   <g id="patch_2">
    <path d="M 46.31125 802.8 
L 956.39125 802.8 
" style="fill: none; stroke: #999999; stroke-linejoin: miter; stroke-linecap: square"/>
   </g>
   <g id="text_16">
    <text style="font-size: 10px; font-family: 'DejaVu Sans', 'Bitstream Vera Sans', 'Computer Modern Sans Serif', 'Lucida Grande', 'Verdana', 'Geneva', 'Lucid', 'Arial', 'Helvetica', 'Avant Garde', sans-serif; text-anchor: end; fill: #6b0000" x="99.845368" y="559.632071" transform="rotate(-0 99.845368 559.632071)">At birth</text>
   </g>
   <g id="text_17">
    <text style="font-size: 10px; font-family: 'DejaVu Sans', 'Bitstream Vera Sans', 'Computer Modern Sans Serif', 'Lucida Grande', 'Verdana', 'Geneva', 'Lucid', 'Arial', 'Helvetica', 'Avant Garde', sans-serif; text-anchor: end; fill: #a01010" x="99.845368" y="498.473562" transform="rotate(-0 99.845368 498.473562)">Age 1</text>
   </g>
   <g id="text_18">
    <text style="font-size: 10px; font-family: 'DejaVu Sans', 'Bitstream Vera Sans', 'Computer Modern Sans Serif', 'Lucida Grande', 'Verdana', 'Geneva', 'Lucid', 'Arial', 'Helvetica', 'Avant Garde', sans-serif; text-anchor: end; fill: #d03020" x="99.845368" y="436.853169" transform="rotate(-0 99.845368 436.853169)">Age 5</text>
   </g>
   <g id="text_19">
    <text style="font-size: 10px; font-family: 'DejaVu Sans', 'Bitstream Vera Sans', 'Computer Modern Sans Serif', 'Lucida Grande', 'Verdana', 'Geneva', 'Lucid', 'Arial', 'Helvetica', 'Avant Garde', sans-serif; text-anchor: end; fill: #e05c20" x="99.845368" y="410.985533" transform="rotate(-0 99.845368 410.985533)">Age 10</text>
   </g>
   <g id="text_20">
    <text style="font-size: 10px; font-family: 'DejaVu Sans', 'Bitstream Vera Sans', 'Computer Modern Sans Serif', 'Lucida Grande', 'Verdana', 'Geneva', 'Lucid', 'Arial', 'Helvetica', 'Avant Garde', sans-serif; text-anchor: end; fill: #e89020" x="99.845368" y="385.117896" transform="rotate(-0 99.845368 385.117896)">Age 20</text>
   </g>
   <g id="text_21">
    <text style="font-size: 10px; font-family: 'DejaVu Sans', 'Bitstream Vera Sans', 'Computer Modern Sans Serif', 'Lucida Grande', 'Verdana', 'Geneva', 'Lucid', 'Arial', 'Helvetica', 'Avant Garde', sans-serif; text-anchor: end; fill: #c8a800" x="99.845368" y="354.169115" transform="rotate(-0 99.845368 354.169115)">Age 30</text>
   </g>
   <g id="text_22">
    <text style="font-size: 10px; font-family: 'DejaVu Sans', 'Bitstream Vera Sans', 'Computer Modern Sans Serif', 'Lucida Grande', 'Verdana', 'Geneva', 'Lucid', 'Arial', 'Helvetica', 'Avant Garde', sans-serif; text-anchor: end; fill: #8bbf3e" x="99.845368" y="322.850804" transform="rotate(-0 99.845368 322.850804)">Age 40</text>
   </g>
   <g id="text_23">
    <text style="font-size: 10px; font-family: 'DejaVu Sans', 'Bitstream Vera Sans', 'Computer Modern Sans Serif', 'Lucida Grande', 'Verdana', 'Geneva', 'Lucid', 'Arial', 'Helvetica', 'Avant Garde', sans-serif; text-anchor: end; fill: #27ae60" x="99.845368" y="291.994443" transform="rotate(-0 99.845368 291.994443)">Age 50</text>
   </g>
   <g id="text_24">
    <text style="font-size: 10px; font-family: 'DejaVu Sans', 'Bitstream Vera Sans', 'Computer Modern Sans Serif', 'Lucida Grande', 'Verdana', 'Geneva', 'Lucid', 'Arial', 'Helvetica', 'Avant Garde', sans-serif; text-anchor: end; fill: #2980b9" x="99.845368" y="256.51879" transform="rotate(-0 99.845368 256.51879)">Age 60</text>
   </g>
   <g id="text_25">
    <text style="font-size: 10px; font-family: 'DejaVu Sans', 'Bitstream Vera Sans', 'Computer Modern Sans Serif', 'Lucida Grande', 'Verdana', 'Geneva', 'Lucid', 'Arial', 'Helvetica', 'Avant Garde', sans-serif; text-anchor: end; fill: #6c3483" x="99.845368" y="213.190477" transform="rotate(-0 99.845368 213.190477)">Age 70</text>
   </g>
   <g id="text_26">
    <text style="font-size: 10px; font-family: 'DejaVu Sans', 'Bitstream Vera Sans', 'Computer Modern Sans Serif', 'Lucida Grande', 'Verdana', 'Geneva', 'Lucid', 'Arial', 'Helvetica', 'Avant Garde', sans-serif; text-anchor: start; fill: #6b0000" x="861.677042" y="298.719991" transform="rotate(-0 861.677042 298.719991)">81</text>
   </g>
   <g id="text_27">
    <text style="font-size: 10px; font-family: 'DejaVu Sans', 'Bitstream Vera Sans', 'Computer Modern Sans Serif', 'Lucida Grande', 'Verdana', 'Geneva', 'Lucid', 'Arial', 'Helvetica', 'Avant Garde', sans-serif; text-anchor: start; fill: #a01010" x="861.677042" y="272.852355" transform="rotate(-0 861.677042 272.852355)">82</text>
   </g>
   <g id="text_28">
    <text style="font-size: 10px; font-family: 'DejaVu Sans', 'Bitstream Vera Sans', 'Computer Modern Sans Serif', 'Lucida Grande', 'Verdana', 'Geneva', 'Lucid', 'Arial', 'Helvetica', 'Avant Garde', sans-serif; text-anchor: start; fill: #d03020" x="861.677042" y="246.984719" transform="rotate(-0 861.677042 246.984719)">82</text>
   </g>
   <g id="text_29">
    <text style="font-size: 10px; font-family: 'DejaVu Sans', 'Bitstream Vera Sans', 'Computer Modern Sans Serif', 'Lucida Grande', 'Verdana', 'Geneva', 'Lucid', 'Arial', 'Helvetica', 'Avant Garde', sans-serif; text-anchor: start; fill: #e05c20" x="861.677042" y="221.117083" transform="rotate(-0 861.677042 221.117083)">82</text>
   </g>
   <g id="text_30">
    <text style="font-size: 10px; font-family: 'DejaVu Sans', 'Bitstream Vera Sans', 'Computer Modern Sans Serif', 'Lucida Grande', 'Verdana', 'Geneva', 'Lucid', 'Arial', 'Helvetica', 'Avant Garde', sans-serif; text-anchor: start; fill: #e89020" x="861.677042" y="195.249446" transform="rotate(-0 861.677042 195.249446)">82</text>
   </g>
   <g id="text_31">
    <text style="font-size: 10px; font-family: 'DejaVu Sans', 'Bitstream Vera Sans', 'Computer Modern Sans Serif', 'Lucida Grande', 'Verdana', 'Geneva', 'Lucid', 'Arial', 'Helvetica', 'Avant Garde', sans-serif; text-anchor: start; fill: #c8a800" x="861.677042" y="169.38181" transform="rotate(-0 861.677042 169.38181)">82</text>
   </g>
   <g id="text_32">
    <text style="font-size: 10px; font-family: 'DejaVu Sans', 'Bitstream Vera Sans', 'Computer Modern Sans Serif', 'Lucida Grande', 'Verdana', 'Geneva', 'Lucid', 'Arial', 'Helvetica', 'Avant Garde', sans-serif; text-anchor: start; fill: #8bbf3e" x="861.677042" y="143.514174" transform="rotate(-0 861.677042 143.514174)">82</text>
   </g>
   <g id="text_33">
    <text style="font-size: 10px; font-family: 'DejaVu Sans', 'Bitstream Vera Sans', 'Computer Modern Sans Serif', 'Lucida Grande', 'Verdana', 'Geneva', 'Lucid', 'Arial', 'Helvetica', 'Avant Garde', sans-serif; text-anchor: start; fill: #27ae60" x="861.677042" y="117.646537" transform="rotate(-0 861.677042 117.646537)">83</text>
   </g>
   <g id="text_34">
    <text style="font-size: 10px; font-family: 'DejaVu Sans', 'Bitstream Vera Sans', 'Computer Modern Sans Serif', 'Lucida Grande', 'Verdana', 'Geneva', 'Lucid', 'Arial', 'Helvetica', 'Avant Garde', sans-serif; text-anchor: start; fill: #2980b9" x="861.677042" y="91.778901" transform="rotate(-0 861.677042 91.778901)">84</text>
   </g>
   <g id="text_35">
    <text style="font-size: 10px; font-family: 'DejaVu Sans', 'Bitstream Vera Sans', 'Computer Modern Sans Serif', 'Lucida Grande', 'Verdana', 'Geneva', 'Lucid', 'Arial', 'Helvetica', 'Avant Garde', sans-serif; text-anchor: start; fill: #6c3483" x="861.677042" y="65.911265" transform="rotate(-0 861.677042 65.911265)">86</text>
   </g>
   <g id="patch_3">
    <path d="M 348.863313 689.600529 
Q 407.50393 641.571325 424.436611 566.789542 
" style="fill: none; stroke: #666666; stroke-width: 1.2; stroke-linecap: round"/>
    <path d="M 421.60264 570.249109 
L 424.436611 566.789542 
L 425.503882 571.132459 
" style="fill: none; stroke: #666666; stroke-width: 1.2; stroke-linecap: round"/>
   </g>
   <g id="text_36">
    <text style="font-size: 10px; font-family: 'DejaVu Sans', 'Bitstream Vera Sans', 'Computer Modern Sans Serif', 'Lucida Grande', 'Verdana', 'Geneva', 'Lucid', 'Arial', 'Helvetica', 'Avant Garde', sans-serif; fill: #666666" transform="translate(302.803093 700.460969)">Spanish flu</text>
    <text style="font-size: 10px; font-family: 'DejaVu Sans', 'Bitstream Vera Sans', 'Computer Modern Sans Serif', 'Lucida Grande', 'Verdana', 'Geneva', 'Lucid', 'Arial', 'Helvetica', 'Avant Garde', sans-serif; fill: #666666" transform="translate(289.884343 711.658781)">pandemic, 1918</text>
   </g>
   <g id="patch_4">
    <path d="M 577.64575 470.850759 
Q 532.190818 438.472735 516.683112 384.835598 
" style="fill: none; stroke: #666666; stroke-width: 1.2; stroke-linecap: round"/>
    <path d="M 515.872791 389.233708 
L 516.683112 384.835598 
L 519.715408 388.122721 
" style="fill: none; stroke: #666666; stroke-width: 1.2; stroke-linecap: round"/>
   </g>
   <g id="text_37">
    <text style="font-size: 10px; font-family: 'DejaVu Sans', 'Bitstream Vera Sans', 'Computer Modern Sans Serif', 'Lucida Grande', 'Verdana', 'Geneva', 'Lucid', 'Arial', 'Helvetica', 'Avant Garde', sans-serif; text-anchor: middle; fill: #666666" x="589.888445" y="481.602301" transform="rotate(-0 589.888445 481.602301)">World War II</text>
   </g>
   <g id="line2d_15">
    <path d="M 853.441024 191.584673 
L 859.618037 295.960616 
" clip-path="url(#p93c4ddf272)" style="fill: none; stroke: #6b0000; stroke-opacity: 0.4; stroke-width: 0.6; stroke-linecap: square"/>
   </g>
   <g id="line2d_16">
    <path d="M 853.441024 188.720778 
L 859.618037 270.09298 
" clip-path="url(#p93c4ddf272)" style="fill: none; stroke: #a01010; stroke-opacity: 0.4; stroke-width: 0.6; stroke-linecap: square"/>
   </g>
   <g id="line2d_17">
    <path d="M 853.441024 188.258899 
L 859.618037 244.225344 
" clip-path="url(#p93c4ddf272)" style="fill: none; stroke: #d03020; stroke-opacity: 0.4; stroke-width: 0.6; stroke-linecap: square"/>
   </g>
   <g id="line2d_18">
    <path d="M 853.441024 187.981686 
L 859.618037 218.357708 
" clip-path="url(#p93c4ddf272)" style="fill: none; stroke: #e05c20; stroke-opacity: 0.4; stroke-width: 0.6; stroke-linecap: square"/>
   </g>
   <g id="line2d_19">
    <path d="M 853.441024 184.84065 
L 859.618037 166.622435 
" clip-path="url(#p93c4ddf272)" style="fill: none; stroke: #c8a800; stroke-opacity: 0.4; stroke-width: 0.6; stroke-linecap: square"/>
   </g>
   <g id="line2d_20">
    <path d="M 853.441024 181.422472 
L 859.618037 140.754799 
" clip-path="url(#p93c4ddf272)" style="fill: none; stroke: #8bbf3e; stroke-opacity: 0.4; stroke-width: 0.6; stroke-linecap: square"/>
   </g>
   <g id="line2d_21">
    <path d="M 853.441024 175.047924 
L 859.618037 114.887162 
" clip-path="url(#p93c4ddf272)" style="fill: none; stroke: #27ae60; stroke-opacity: 0.4; stroke-width: 0.6; stroke-linecap: square"/>
   </g>
   <g id="line2d_22">
    <path d="M 853.441024 164.238894 
L 859.618037 89.019526 
" clip-path="url(#p93c4ddf272)" style="fill: none; stroke: #2980b9; stroke-opacity: 0.4; stroke-width: 0.6; stroke-linecap: square"/>
   </g>
   <g id="line2d_23">
    <path d="M 853.441024 146.408699 
L 859.618037 63.15189 
" clip-path="url(#p93c4ddf272)" style="fill: none; stroke: #6c3483; stroke-opacity: 0.4; stroke-width: 0.6; stroke-linecap: square"/>
   </g>
   <g id="line2d_24">
    <path d="M 108.081386 556.872696 
L 112.199395 559.828994 
L 116.317404 555.117369 
L 120.435413 558.073668 
L 124.553422 548.835226 
L 128.671431 572.670422 
L 132.78944 587.636688 
L 136.907449 576.827728 
L 141.025458 596.413214 
L 145.143467 546.433247 
L 149.261476 559.274675 
L 153.379485 563.801527 
L 157.497494 567.127371 
L 161.615503 578.305877 
L 165.733512 562.692888 
L 169.851521 542.183572 
L 173.969531 554.840227 
L 178.08754 571.93133 
L 182.205549 564.725357 
L 186.323558 544.677956 
L 190.441567 550.498148 
L 194.559576 549.019999 
L 198.677585 568.513116 
L 202.795594 572.485649 
L 206.913603 566.111137 
L 211.031612 568.328343 
L 215.149621 548.003765 
L 219.26763 553.63922 
L 223.385639 556.872696 
L 227.503648 563.431981 
L 231.621657 560.013767 
L 235.739666 545.324644 
L 239.857675 537.287174 
L 243.975684 552.71539 
L 248.093693 555.117369 
L 252.211702 538.118635 
L 256.329712 528.695456 
L 260.447721 544.308409 
L 264.56573 532.852726 
L 268.683739 537.379578 
L 272.801748 515.669219 
L 276.919757 527.217271 
L 281.037766 525.184838 
L 285.155775 528.048733 
L 289.273784 518.995064 
L 293.391793 522.967597 
L 297.509802 519.918929 
L 301.627811 509.202339 
L 305.74582 513.544382 
L 309.863829 528.233506 
L 313.981838 532.667953 
L 318.099847 521.397079 
L 322.217856 527.217271 
L 326.335865 495.159903 
L 330.453874 519.272241 
L 334.571883 503.751657 
L 338.689893 505.414579 
L 342.807902 507.539416 
L 346.925911 515.299709 
L 351.04392 513.636786 
L 355.161929 498.947663 
L 359.279938 488.231072 
L 363.397947 475.851559 
L 367.515956 487.861526 
L 371.633965 471.786622 
L 375.751974 474.281005 
L 379.869983 466.428344 
L 383.987992 462.732954 
L 388.106001 456.543215 
L 392.22401 442.962694 
L 396.342019 465.504514 
L 400.460028 437.78919 
L 404.578037 444.440843 
L 408.696046 460.977662 
L 412.814055 495.159903 
L 416.932064 497.931429 
L 421.050074 516.408312 
L 425.168083 563.52435 
L 429.286092 441.761687 
L 433.404101 419.219902 
L 437.52211 403.329772 
L 441.640119 409.334773 
L 445.758128 389.934059 
L 449.876137 399.080097 
L 453.994146 397.694352 
L 458.112155 386.792988 
L 462.230164 393.352273 
L 466.348173 383.005228 
L 470.466182 406.101332 
L 474.584191 375.152532 
L 478.7022 383.929058 
L 482.820209 377.646915 
L 486.938218 378.10883 
L 495.174236 363.881657 
L 499.292245 366.006494 
L 503.410255 365.544544 
L 507.528264 352.703116 
L 511.646273 349.56208 
L 515.764282 381.619448 
L 519.882291 371.734318 
L 524.0003 357.414741 
L 528.118309 363.696884 
L 532.236318 361.756784 
L 536.354327 369.886623 
L 540.472336 323.047727 
L 544.590345 322.678181 
L 548.708354 305.494674 
L 552.826363 308.820519 
L 556.944372 304.293702 
L 561.062381 308.450972 
L 565.18039 296.256232 
L 569.298399 294.316168 
L 573.416408 290.43604 
L 577.534417 291.082728 
L 581.652426 288.865521 
L 585.770436 287.572145 
L 589.888445 286.001557 
L 594.006454 284.615847 
L 598.124463 282.952925 
L 602.242472 285.354869 
L 606.360481 284.892989 
L 610.47849 285.539677 
L 614.596499 278.426037 
L 618.714508 278.610846 
L 622.832517 279.349867 
L 626.950526 273.899221 
L 631.068535 277.31747 
L 635.186544 277.502207 
L 639.304553 275.377405 
L 643.422562 272.328703 
L 647.540571 274.453505 
L 651.65858 272.328703 
L 655.776589 270.480972 
L 659.894598 268.263766 
L 664.012607 268.35617 
L 668.130617 263.921687 
L 672.248626 264.568375 
L 676.366635 263.459807 
L 680.484644 259.579608 
L 684.602653 256.530976 
L 688.720662 255.329934 
L 692.838671 253.205131 
L 696.95668 249.509741 
L 701.074689 251.080259 
L 705.192698 248.585911 
L 709.310707 245.444804 
L 713.428716 244.243832 
L 717.546725 242.765647 
L 721.664734 239.901753 
L 725.782743 238.423639 
L 729.900752 234.635844 
L 734.018761 235.744483 
L 738.13677 230.755716 
L 742.254779 231.77195 
L 746.372788 229.277531 
L 750.490798 226.967921 
L 754.608807 225.674545 
L 758.726816 224.565977 
L 762.844825 220.223898 
L 766.962834 217.729479 
L 771.080843 216.528507 
L 775.198852 215.789415 
L 779.316861 210.431102 
L 783.43487 208.583442 
L 787.552879 206.273831 
L 791.670888 204.426171 
L 795.788897 203.409937 
L 799.906906 198.88305 
L 804.024915 196.758248 
L 808.142924 192.970453 
L 816.378942 192.139027 
L 820.496951 190.106559 
L 824.61496 192.231431 
L 828.732969 190.937985 
L 832.850979 190.106559 
L 836.968988 190.568509 
L 841.086997 187.61221 
L 845.205006 197.49734 
L 849.323015 195.64961 
L 853.441024 191.584673 
L 853.441024 191.584673 
" clip-path="url(#p93c4ddf272)" style="fill: none; stroke: #6b0000; stroke-width: 2; stroke-linecap: square"/>
   </g>
   <g id="line2d_25">
    <path d="M 108.081386 495.714187 
L 112.199395 493.404577 
L 116.317404 487.861526 
L 120.435413 492.295974 
L 124.553422 485.09 
L 128.671431 501.257273 
L 132.78944 521.766625 
L 136.907449 510.588084 
L 141.025458 531.836492 
L 145.143467 480.747922 
L 149.261476 491.094966 
L 153.379485 493.774123 
L 157.497494 498.485748 
L 161.615503 511.511949 
L 165.733512 495.621818 
L 169.851521 475.389644 
L 173.969531 485.182369 
L 178.08754 504.490714 
L 182.205549 495.89896 
L 186.323558 478.623084 
L 190.441567 482.133702 
L 194.559576 484.258539 
L 198.677585 504.490714 
L 202.795594 507.16987 
L 206.913603 496.176137 
L 211.031612 498.947663 
L 215.149621 477.699254 
L 223.385639 487.769157 
L 227.503648 493.681754 
L 231.621657 491.094966 
L 235.739666 475.574417 
L 239.857675 467.814125 
L 243.975684 484.258539 
L 248.093693 484.628085 
L 252.211702 468.645586 
L 256.329712 464.395876 
L 260.447721 474.188637 
L 264.56573 469.661785 
L 268.683739 467.444578 
L 272.801748 453.402143 
L 276.919757 460.515747 
L 281.037766 460.146201 
L 285.155775 457.92896 
L 289.273784 453.032597 
L 293.391793 450.815391 
L 297.509802 450.35344 
L 301.627811 441.854091 
L 305.74582 442.593148 
L 309.863829 458.39091 
L 313.981838 461.531982 
L 318.099847 450.168703 
L 322.217856 450.445845 
L 326.335865 426.241138 
L 330.453874 439.729254 
L 334.571883 429.474578 
L 338.689893 426.425875 
L 342.807902 426.241138 
L 346.925911 433.816657 
L 351.04392 438.066332 
L 355.161929 422.268605 
L 359.279938 418.757987 
L 363.397947 406.193701 
L 367.515956 412.752986 
L 371.633965 404.161233 
L 375.751974 403.976495 
L 379.869983 404.43841 
L 383.987992 397.509579 
L 388.106001 398.34104 
L 392.22401 384.113831 
L 396.342019 395.292337 
L 400.460028 385.222435 
L 404.578037 385.130066 
L 408.696046 405.824155 
L 412.814055 443.88656 
L 416.932064 454.787923 
L 421.050074 475.759155 
L 425.168083 523.799058 
L 429.286092 392.336039 
L 433.404101 366.283636 
L 437.52211 356.675649 
L 441.640119 366.837956 
L 445.758128 349.654413 
L 449.876137 356.398507 
L 453.994146 354.550811 
L 458.112155 345.681951 
L 462.230164 353.904123 
L 466.348173 344.2961 
L 470.466182 364.066395 
L 474.584191 338.75305 
L 478.7022 344.942859 
L 482.820209 339.584546 
L 486.938218 341.894156 
L 495.174236 328.775586 
L 499.292245 329.976558 
L 503.410255 330.2537 
L 507.528264 320.091429 
L 511.646273 318.52091 
L 515.764282 349.100129 
L 519.882291 336.351105 
L 524.0003 325.542075 
L 528.118309 333.764353 
L 532.236318 333.117665 
L 536.354327 343.464674 
L 540.472336 293.577076 
L 544.590345 295.51714 
L 548.708354 283.969088 
L 552.826363 288.403571 
L 556.944372 285.170131 
L 561.062381 289.235068 
L 565.18039 277.964158 
L 569.298399 276.485973 
L 573.416408 273.714483 
L 577.534417 274.545909 
L 581.652426 272.882987 
L 594.006454 269.834284 
L 598.124463 267.986624 
L 602.242472 270.758184 
L 606.360481 270.20383 
L 610.47849 271.312468 
L 614.596499 264.660779 
L 618.714508 265.677013 
L 622.832517 266.508439 
L 626.950526 261.612077 
L 631.068535 265.030325 
L 635.186544 265.584609 
L 643.422562 260.503509 
L 647.540571 263.090261 
L 651.65858 261.24253 
L 659.894598 257.824352 
L 664.012607 258.748182 
L 668.130617 254.498508 
L 672.248626 255.329934 
L 676.366635 254.406103 
L 680.484644 251.080259 
L 684.602653 248.955457 
L 688.720662 247.846818 
L 692.838671 246.091492 
L 696.95668 242.858052 
L 701.074689 244.520974 
L 705.192698 241.934221 
L 709.310707 238.885519 
L 717.546725 236.85305 
L 721.664734 234.266298 
L 725.782743 233.250064 
L 729.900752 230.016623 
L 734.018761 231.217595 
L 738.13677 226.321233 
L 742.254779 227.429871 
L 746.372788 224.843119 
L 750.490798 222.718246 
L 758.726816 220.408636 
L 762.844825 216.251365 
L 766.962834 213.756946 
L 771.080843 212.648379 
L 775.198852 211.909286 
L 779.316861 206.643378 
L 783.43487 204.795647 
L 787.552879 202.486037 
L 791.670888 200.730781 
L 795.788897 199.899284 
L 799.906906 195.372468 
L 804.024915 193.432403 
L 808.142924 189.737013 
L 812.260933 189.367466 
L 816.378942 189.182729 
L 820.496951 187.242664 
L 824.61496 189.275062 
L 828.732969 187.981686 
L 832.850979 187.15026 
L 836.968988 187.704544 
L 841.086997 184.655841 
L 845.205006 194.633375 
L 849.323015 192.600907 
L 853.441024 188.720778 
L 853.441024 188.720778 
" clip-path="url(#p93c4ddf272)" style="fill: none; stroke: #a01010; stroke-width: 2; stroke-linecap: square"/>
   </g>
   <g id="line2d_26">
    <path d="M 108.081386 431.045096 
L 112.199395 428.181202 
L 116.317404 423.931527 
L 120.435413 427.534514 
L 124.553422 422.176201 
L 128.671431 431.968961 
L 132.78944 453.032597 
L 136.907449 440.283538 
L 141.025458 466.520713 
L 145.143467 419.774221 
L 149.261476 426.703053 
L 153.379485 429.474578 
L 157.497494 435.941494 
L 161.615503 440.006396 
L 165.733512 432.523245 
L 169.851521 414.231135 
L 173.969531 420.698052 
L 178.08754 431.968961 
L 182.205549 426.148733 
L 186.323558 419.035129 
L 190.441567 417.187434 
L 194.559576 418.94276 
L 198.677585 428.181202 
L 202.795594 438.71302 
L 206.913603 432.985196 
L 211.031612 434.740487 
L 215.149621 420.882825 
L 219.26763 418.850356 
L 223.385639 423.007662 
L 227.503648 428.273571 
L 231.621657 430.583181 
L 235.739666 420.513278 
L 239.857675 415.432143 
L 243.975684 424.023896 
L 248.093693 427.626883 
L 252.211702 414.32354 
L 256.329712 411.274837 
L 260.447721 413.76922 
L 264.56573 414.415908 
L 268.683739 404.715552 
L 272.801748 404.992694 
L 276.919757 404.43841 
L 281.037766 409.15 
L 285.155775 404.530779 
L 289.273784 402.867856 
L 293.391793 399.819189 
L 297.509802 398.525813 
L 301.627811 394.55328 
L 305.74582 389.749286 
L 309.863829 405.824155 
L 313.981838 410.628149 
L 318.099847 399.726785 
L 322.217856 401.482111 
L 326.335865 380.418441 
L 330.453874 390.395974 
L 334.571883 378.755518 
L 338.689893 379.956526 
L 342.807902 379.402206 
L 346.925911 388.733052 
L 351.04392 391.412209 
L 355.161929 379.402206 
L 359.279938 377.185 
L 363.397947 367.299871 
L 367.515956 370.256169 
L 371.633965 366.283636 
L 379.869983 366.560778 
L 383.987992 362.218735 
L 388.106001 363.60448 
L 392.22401 352.148832 
L 396.342019 356.306103 
L 400.460028 353.165066 
L 404.578037 352.703116 
L 408.696046 374.136298 
L 412.814055 407.948992 
L 416.932064 430.398408 
L 421.050074 450.076298 
L 425.168083 487.399611 
L 429.286092 364.713118 
L 433.404101 339.399738 
L 437.52211 334.226233 
L 441.640119 340.60078 
L 445.758128 329.052728 
L 449.876137 333.302403 
L 453.994146 331.547147 
L 458.112155 325.726884 
L 462.230164 332.470906 
L 466.348173 326.004026 
L 470.466182 339.492142 
L 474.584191 322.401039 
L 478.7022 327.205068 
L 482.820209 323.140131 
L 486.938218 326.558309 
L 491.056227 319.721882 
L 495.174236 316.580776 
L 499.292245 316.857988 
L 503.410255 318.151364 
L 507.528264 309.097661 
L 511.646273 310.113895 
L 515.764282 338.014028 
L 519.882291 323.971557 
L 524.0003 317.319868 
L 528.118309 326.004026 
L 532.236318 326.650714 
L 536.354327 337.552077 
L 540.472336 288.403571 
L 544.590345 290.251231 
L 548.708354 279.62708 
L 552.826363 284.523443 
L 556.944372 281.751882 
L 561.062381 285.632011 
L 565.18039 274.823051 
L 569.298399 273.437271 
L 573.416408 271.220064 
L 577.534417 271.959157 
L 581.652426 270.480972 
L 585.770436 269.372404 
L 589.888445 268.540908 
L 594.006454 267.524674 
L 598.124463 265.769418 
L 602.242472 268.448574 
L 606.360481 267.986624 
L 610.47849 269.002858 
L 614.596499 262.535907 
L 618.714508 263.552141 
L 622.832517 264.383637 
L 626.950526 259.579608 
L 631.068535 262.905453 
L 635.186544 263.552141 
L 643.422562 258.655778 
L 647.540571 261.057793 
L 655.776589 257.824352 
L 659.894598 256.253764 
L 664.012607 257.269998 
L 668.130617 253.020323 
L 672.248626 253.759415 
L 676.366635 253.112727 
L 680.484644 249.786883 
L 684.602653 247.662081 
L 688.720662 246.645846 
L 692.838671 244.982924 
L 696.95668 241.749413 
L 701.074689 243.320002 
L 705.192698 240.825583 
L 709.310707 237.77688 
L 717.546725 235.744483 
L 721.664734 233.15766 
L 725.782743 232.23383 
L 729.900752 229.092793 
L 734.018761 230.386169 
L 738.13677 225.489807 
L 742.254779 226.690779 
L 746.372788 224.011622 
L 750.490798 221.979154 
L 758.726816 219.669543 
L 762.844825 215.604677 
L 766.962834 213.110258 
L 771.080843 212.001691 
L 775.198852 211.170194 
L 779.316861 205.996689 
L 783.43487 204.241363 
L 787.552879 201.839348 
L 791.670888 200.084092 
L 795.788897 199.252596 
L 799.906906 194.818184 
L 804.024915 192.878119 
L 808.142924 189.182729 
L 816.378942 188.720778 
L 820.496951 186.780714 
L 824.61496 188.813182 
L 828.732969 187.519806 
L 832.850979 186.68831 
L 836.968988 187.242664 
L 841.086997 184.193962 
L 845.205006 194.263829 
L 849.323015 192.231431 
L 853.441024 188.258899 
L 853.441024 188.258899 
" clip-path="url(#p93c4ddf272)" style="fill: none; stroke: #d03020; stroke-width: 2; stroke-linecap: square"/>
   </g>
   <g id="line2d_27">
    <path d="M 108.081386 409.704319 
L 112.199395 407.394708 
L 116.317404 404.161233 
L 120.435413 406.470843 
L 124.553422 403.145034 
L 128.671431 413.214936 
L 132.78944 431.876557 
L 136.907449 417.279838 
L 141.025458 442.962694 
L 145.143467 400.927792 
L 149.261476 406.74802 
L 153.379485 408.595716 
L 157.497494 416.540746 
L 161.615503 418.388441 
L 165.733512 413.492078 
L 169.851521 396.770486 
L 173.969531 402.405941 
L 178.08754 407.764254 
L 182.205549 404.530779 
L 186.323558 403.145034 
L 190.441567 401.482111 
L 194.559576 401.112565 
L 198.677585 404.43841 
L 202.795594 416.448377 
L 206.913603 414.693086 
L 211.031612 417.55698 
L 215.149621 406.193701 
L 219.26763 401.204934 
L 223.385639 404.623183 
L 227.503648 408.688085 
L 231.621657 412.475844 
L 235.739666 404.43841 
L 239.857675 401.389707 
L 243.975684 406.655616 
L 248.093693 412.106298 
L 252.211702 399.726785 
L 256.329712 397.509579 
L 264.56573 400.373473 
L 268.683739 389.934059 
L 272.801748 391.319805 
L 276.919757 389.564513 
L 281.037766 394.738053 
L 285.155775 390.395974 
L 289.273784 390.673116 
L 293.391793 388.363506 
L 297.509802 386.331038 
L 301.627811 383.28237 
L 305.74582 378.293603 
L 309.863829 394.09133 
L 313.981838 399.449643 
L 318.099847 388.271137 
L 322.217856 388.825421 
L 326.335865 369.424708 
L 330.453874 380.04893 
L 334.571883 367.299871 
L 338.689893 369.886623 
L 342.807902 369.794254 
L 346.925911 378.478376 
L 351.04392 381.157533 
L 355.161929 369.147566 
L 359.279938 366.837956 
L 363.397947 358.061429 
L 367.515956 360.832954 
L 371.633965 357.137564 
L 375.751974 357.137564 
L 379.869983 357.599514 
L 383.987992 353.534577 
L 388.106001 354.735584 
L 392.22401 344.203767 
L 396.342019 347.344803 
L 400.460028 345.035193 
L 404.578037 344.2961 
L 408.696046 365.452175 
L 412.814055 398.802955 
L 416.932064 423.007662 
L 421.050074 443.055098 
L 425.168083 476.221105 
L 429.286092 355.567046 
L 433.404101 330.530913 
L 437.52211 326.650714 
L 441.640119 333.579545 
L 445.758128 322.770585 
L 449.876137 327.112593 
L 453.994146 324.987791 
L 458.112155 319.260003 
L 462.230164 326.281167 
L 466.348173 319.537145 
L 470.466182 332.563311 
L 474.584191 316.026492 
L 478.7022 321.292471 
L 482.820209 317.319868 
L 486.938218 320.368571 
L 491.056227 312.793051 
L 495.174236 310.760653 
L 499.292245 311.222533 
L 503.410255 312.885455 
L 507.528264 303.739348 
L 511.646273 305.956624 
L 515.764282 332.748048 
L 519.882291 318.243768 
L 524.0003 313.162597 
L 528.118309 322.123897 
L 532.236318 322.862989 
L 536.354327 334.411041 
L 540.472336 285.909223 
L 544.590345 287.572075 
L 548.708354 277.409874 
L 552.826363 282.490974 
L 556.944372 279.904222 
L 561.062381 284.061492 
L 565.18039 273.437271 
L 569.298399 271.959157 
L 573.416408 270.019092 
L 577.534417 270.66578 
L 581.652426 269.28 
L 585.770436 268.171432 
L 589.888445 267.339936 
L 594.006454 266.231297 
L 598.124463 264.383637 
L 602.242472 267.155198 
L 606.360481 266.785581 
L 610.47849 267.801816 
L 614.596499 261.427339 
L 622.832517 263.274999 
L 626.950526 258.47104 
L 631.068535 261.796885 
L 635.186544 262.535977 
L 639.304553 260.133892 
L 643.422562 257.454806 
L 647.540571 260.041558 
L 651.65858 258.378636 
L 659.894598 255.329934 
L 664.012607 256.346168 
L 668.130617 252.188897 
L 672.248626 252.927989 
L 676.366635 252.188897 
L 680.484644 248.955457 
L 684.602653 246.922988 
L 688.720662 245.906754 
L 692.838671 244.243832 
L 696.95668 241.102725 
L 701.074689 242.673314 
L 705.192698 240.178895 
L 709.310707 237.222597 
L 717.546725 235.097794 
L 721.664734 232.603376 
L 725.782743 231.587142 
L 729.900752 228.630843 
L 734.018761 229.924219 
L 738.13677 225.120261 
L 742.254779 226.228829 
L 746.372788 223.642076 
L 750.490798 221.609608 
L 758.726816 219.299997 
L 762.844825 215.235131 
L 766.962834 212.740712 
L 771.080843 211.632144 
L 775.198852 210.893052 
L 779.316861 205.719547 
L 783.43487 203.964221 
L 787.552879 201.469873 
L 791.670888 199.80695 
L 795.788897 198.975454 
L 799.906906 194.541042 
L 804.024915 192.600907 
L 808.142924 188.905587 
L 816.378942 188.443636 
L 820.496951 186.411168 
L 824.61496 188.628374 
L 828.732969 187.334998 
L 832.850979 186.411168 
L 836.968988 186.965452 
L 841.086997 184.009153 
L 845.205006 194.079091 
L 849.323015 192.046623 
L 853.441024 187.981686 
L 853.441024 187.981686 
" clip-path="url(#p93c4ddf272)" style="fill: none; stroke: #e05c20; stroke-width: 2; stroke-linecap: square"/>
   </g>
   <g id="line2d_28">
    <path d="M 108.081386 383.929058 
L 116.317404 380.141299 
L 120.435413 382.543278 
L 124.553422 379.309838 
L 128.671431 387.901591 
L 132.78944 405.824155 
L 136.907449 391.504578 
L 141.025458 415.155001 
L 145.143467 377.369773 
L 149.261476 382.081363 
L 153.379485 383.097597 
L 157.497494 391.227436 
L 161.615503 392.520812 
L 165.733512 389.656882 
L 169.851521 373.859156 
L 173.969531 379.309838 
L 178.08754 383.190001 
L 182.205549 380.603214 
L 186.323558 381.527079 
L 190.441567 378.847923 
L 194.559576 378.663149 
L 198.677585 380.695618 
L 202.795594 393.1675 
L 206.913603 392.336039 
L 211.031612 395.569479 
L 215.149621 385.869123 
L 219.26763 380.326072 
L 223.385639 384.021427 
L 227.503648 387.162499 
L 231.621657 390.765521 
L 235.739666 384.021427 
L 239.857675 383.097597 
L 243.975684 387.901591 
L 248.093693 393.629415 
L 252.211702 381.804221 
L 256.329712 380.04893 
L 260.447721 381.342306 
L 264.56573 383.836689 
L 268.683739 373.304836 
L 272.801748 374.967759 
L 276.919757 373.027694 
L 281.037766 377.924057 
L 285.155775 373.95156 
L 289.273784 375.060163 
L 293.391793 373.120099 
L 297.509802 371.457176 
L 301.627811 368.870389 
L 305.74582 364.251168 
L 309.863829 379.58698 
L 313.981838 385.407208 
L 318.099847 374.598248 
L 322.217856 373.95156 
L 326.335865 356.213734 
L 330.453874 367.022729 
L 334.571883 354.643216 
L 338.689893 357.229968 
L 342.807902 357.691883 
L 346.925911 366.098863 
L 351.04392 368.593247 
L 355.161929 356.768053 
L 359.279938 354.827953 
L 363.397947 346.790519 
L 367.515956 349.284938 
L 371.633965 345.681951 
L 375.751974 345.497143 
L 379.869983 346.328569 
L 383.987992 342.540844 
L 388.106001 343.557079 
L 392.22401 333.579545 
L 396.342019 335.981559 
L 400.460028 334.226233 
L 404.578037 333.671949 
L 408.696046 349.469676 
L 412.814055 378.570781 
L 416.932064 399.542012 
L 421.050074 417.372207 
L 425.168083 447.581915 
L 429.286092 342.263702 
L 433.404101 319.075194 
L 437.52211 315.841754 
L 441.640119 323.140131 
L 445.758128 312.793051 
L 449.876137 317.13513 
L 453.994146 314.82552 
L 458.112155 309.836753 
L 462.230164 316.67325 
L 466.348173 309.651945 
L 470.466182 322.585847 
L 474.584191 306.3261 
L 478.7022 311.776817 
L 482.820209 308.266235 
L 486.938218 311.222533 
L 491.056227 303.831822 
L 495.174236 302.538376 
L 499.292245 303.55461 
L 503.410255 305.217532 
L 507.528264 296.163899 
L 511.646273 298.935389 
L 515.764282 322.493373 
L 519.882291 308.173831 
L 524.0003 302.907922 
L 528.118309 310.113895 
L 532.236318 309.467207 
L 536.354327 321.015259 
L 540.472336 280.366102 
L 544.590345 282.39857 
L 548.708354 272.882987 
L 552.826363 278.333633 
L 556.944372 276.301165 
L 561.062381 280.920386 
L 565.18039 270.481043 
L 569.298399 269.28 
L 573.416408 267.43234 
L 577.534417 268.078957 
L 581.652426 266.97039 
L 585.770436 265.399871 
L 589.888445 264.937921 
L 594.006454 263.644545 
L 598.124463 261.889219 
L 602.242472 264.660779 
L 606.360481 264.198829 
L 610.47849 265.307467 
L 614.596499 258.655778 
L 622.832517 260.411105 
L 626.950526 255.69948 
L 631.068535 259.210133 
L 635.186544 259.949225 
L 639.304553 257.639614 
L 643.422562 254.960387 
L 647.540571 257.54714 
L 651.65858 255.884288 
L 659.894598 252.927919 
L 664.012607 254.036557 
L 668.130617 249.879287 
L 672.248626 250.525975 
L 676.366635 249.971691 
L 680.484644 246.73818 
L 684.602653 244.613378 
L 688.720662 243.781952 
L 692.838671 242.118959 
L 696.95668 239.070257 
L 701.074689 240.640845 
L 705.192698 238.238831 
L 709.310707 235.190128 
L 717.546725 233.15766 
L 721.664734 230.663311 
L 725.782743 229.647077 
L 729.900752 226.875587 
L 734.018761 228.168963 
L 738.13677 223.457338 
L 742.254779 224.473573 
L 746.372788 221.979224 
L 750.490798 219.854352 
L 758.726816 217.729479 
L 762.844825 213.664542 
L 766.962834 211.170194 
L 771.080843 210.15396 
L 775.198852 209.507272 
L 779.316861 204.333767 
L 783.43487 202.670845 
L 787.552879 200.084022 
L 791.670888 198.513504 
L 795.788897 197.682078 
L 799.906906 193.339999 
L 804.024915 191.492339 
L 808.142924 187.981686 
L 812.260933 187.61221 
L 816.378942 187.519806 
L 820.496951 185.487338 
L 824.61496 187.61221 
L 828.732969 186.411168 
L 832.850979 185.487338 
L 836.968988 185.949218 
L 841.086997 183.085323 
L 845.205006 193.247665 
L 849.323015 191.122793 
L 853.441024 187.057856 
L 853.441024 187.057856 
" clip-path="url(#p93c4ddf272)" style="fill: none; stroke: #e89020; stroke-width: 2; stroke-linecap: square"/>
   </g>
   <g id="line2d_29">
    <path d="M 108.081386 351.40974 
L 112.199395 350.301137 
L 116.317404 348.822987 
L 120.435413 350.670683 
L 124.553422 347.252469 
L 128.671431 353.71935 
L 132.78944 370.810453 
L 136.907449 357.414741 
L 141.025458 378.10883 
L 145.143467 347.252469 
L 149.261476 350.670683 
L 153.379485 350.855456 
L 157.497494 358.338571 
L 161.615503 358.89289 
L 165.733512 358.061429 
L 169.851521 343.095199 
L 173.969531 348.268704 
L 178.08754 351.686882 
L 182.205549 349.839222 
L 186.323558 352.241201 
L 190.441567 349.192534 
L 194.559576 349.469676 
L 198.677585 350.670683 
L 202.795594 362.311104 
L 206.913603 361.017727 
L 211.031612 363.974026 
L 215.149621 356.490876 
L 219.26763 351.040194 
L 223.385639 355.751819 
L 227.503648 358.615713 
L 231.621657 359.81672 
L 235.739666 354.181265 
L 239.857675 356.490876 
L 243.975684 360.463408 
L 248.093693 366.560778 
L 252.211702 355.751819 
L 256.329712 354.827953 
L 260.447721 356.952826 
L 264.56573 360.740586 
L 268.683739 350.670683 
L 272.801748 352.056428 
L 276.919757 350.208733 
L 281.037766 354.735584 
L 285.155775 351.040194 
L 289.273784 352.887889 
L 293.391793 352.056428 
L 297.509802 350.578279 
L 301.627811 348.361037 
L 305.74582 344.573313 
L 309.863829 359.077663 
L 313.981838 365.452175 
L 318.099847 355.659414 
L 322.217856 353.904123 
L 326.335865 337.274936 
L 330.453874 348.638179 
L 334.571883 336.905389 
L 338.689893 339.67688 
L 342.807902 340.323638 
L 346.925911 348.638179 
L 351.04392 351.040194 
L 355.161929 340.046496 
L 359.279938 338.198766 
L 363.397947 331.17753 
L 367.515956 333.671949 
L 371.633965 330.161296 
L 375.751974 330.2537 
L 379.869983 331.454672 
L 383.987992 327.666948 
L 388.106001 328.960324 
L 392.22401 319.721882 
L 396.342019 321.569613 
L 400.460028 320.276237 
L 404.578037 319.90662 
L 408.696046 324.063961 
L 412.814055 336.073893 
L 416.932064 336.720652 
L 421.050074 341.06273 
L 425.168083 359.447174 
L 429.286092 320.183762 
L 433.404101 303.462206 
L 437.52211 301.614545 
L 441.640119 308.912923 
L 445.758128 299.397269 
L 449.876137 303.739348 
L 453.994146 301.614545 
L 458.112155 296.995325 
L 462.230164 303.647014 
L 466.348173 296.902991 
L 470.466182 309.374803 
L 474.584191 293.66948 
L 478.7022 299.027793 
L 482.820209 295.794282 
L 486.938218 298.473509 
L 491.056227 291.914154 
L 495.174236 290.990324 
L 499.292245 292.376104 
L 503.410255 294.039026 
L 507.528264 285.632081 
L 511.646273 288.495975 
L 515.764282 303.647014 
L 519.882291 291.82182 
L 524.0003 282.029094 
L 528.118309 285.447273 
L 532.236318 281.382336 
L 536.354327 283.229996 
L 540.472336 272.421036 
L 544.590345 274.453505 
L 548.708354 265.677013 
L 552.826363 271.58961 
L 556.944372 270.296234 
L 561.062381 275.654547 
L 565.18039 265.769347 
L 569.298399 264.845588 
L 573.416408 263.274999 
L 577.534417 264.014091 
L 581.652426 263.182595 
L 585.770436 261.519743 
L 589.888445 261.334935 
L 594.006454 259.949225 
L 598.124463 258.286232 
L 602.242472 260.965389 
L 606.360481 260.688247 
L 610.47849 261.796885 
L 614.596499 255.052792 
L 622.832517 256.992856 
L 626.950526 252.373635 
L 631.068535 256.16143 
L 635.186544 256.808118 
L 639.304553 254.406103 
L 643.422562 251.819351 
L 647.540571 254.406103 
L 651.65858 252.558443 
L 655.776589 251.357401 
L 659.894598 249.786883 
L 664.012607 250.895451 
L 668.130617 246.830584 
L 672.248626 247.292464 
L 676.366635 246.922988 
L 680.484644 243.781952 
L 684.602653 241.749484 
L 688.720662 240.917987 
L 692.838671 239.347399 
L 696.95668 236.206362 
L 701.074689 237.961689 
L 705.192698 235.46727 
L 709.310707 232.418567 
L 717.546725 230.293765 
L 721.664734 227.614679 
L 725.782743 226.690779 
L 729.900752 224.011622 
L 734.018761 225.212594 
L 738.13677 220.50104 
L 742.254779 221.517274 
L 746.372788 218.930522 
L 750.490798 216.805649 
L 758.726816 214.773181 
L 762.844825 210.708314 
L 766.962834 208.3063 
L 771.080843 207.38247 
L 775.198852 206.735711 
L 779.316861 201.839348 
L 783.43487 200.176497 
L 787.552879 197.49727 
L 791.670888 195.926751 
L 795.788897 195.187659 
L 799.906906 190.84558 
L 804.024915 189.275062 
L 808.142924 185.856884 
L 816.378942 185.487338 
L 820.496951 183.362465 
L 824.61496 185.487338 
L 828.732969 184.193962 
L 832.850979 183.547274 
L 836.968988 183.824416 
L 841.086997 180.868117 
L 845.205006 191.307531 
L 849.323015 188.905587 
L 853.441024 184.84065 
L 853.441024 184.84065 
" clip-path="url(#p93c4ddf272)" style="fill: none; stroke: #c8a800; stroke-width: 2; stroke-linecap: square"/>
   </g>
   <g id="line2d_30">
    <path d="M 108.081386 320.091429 
L 112.199395 319.814287 
L 116.317404 318.52091 
L 120.435413 320.645713 
L 124.553422 317.59701 
L 128.671431 322.770585 
L 132.78944 337.921624 
L 136.907449 325.634479 
L 141.025458 341.155064 
L 145.143467 317.59701 
L 149.261476 320.091429 
L 153.379485 319.90662 
L 157.497494 327.02026 
L 161.615503 326.650714 
L 165.733512 328.036494 
L 169.851521 313.809285 
L 173.969531 319.260003 
L 178.08754 322.031493 
L 182.205549 319.999024 
L 186.323558 322.678181 
L 190.441567 319.44474 
L 194.559576 319.44474 
L 198.677585 319.999024 
L 202.795594 330.438508 
L 206.913603 329.145062 
L 211.031612 330.992792 
L 219.26763 320.368571 
L 223.385639 325.264933 
L 227.503648 327.48221 
L 231.621657 327.574544 
L 235.739666 322.770585 
L 239.857675 327.205068 
L 243.975684 330.2537 
L 248.093693 336.351105 
L 252.211702 326.558309 
L 256.329712 326.004026 
L 260.447721 328.775586 
L 264.56573 333.117665 
L 268.683739 323.786819 
L 272.801748 323.971557 
L 276.919757 322.216231 
L 281.037766 326.835451 
L 285.155775 323.602011 
L 289.273784 326.09643 
L 293.391793 326.558309 
L 297.509802 325.634479 
L 301.627811 323.971557 
L 305.74582 320.645713 
L 309.863829 333.209999 
L 313.981838 340.13883 
L 318.099847 331.454672 
L 322.217856 328.590778 
L 326.335865 314.271236 
L 330.453874 326.188834 
L 334.571883 314.733116 
L 338.689893 317.504676 
L 342.807902 318.428506 
L 346.925911 326.188834 
L 351.04392 328.775586 
L 355.161929 318.52091 
L 359.279938 316.950392 
L 363.397947 310.945391 
L 367.515956 313.994023 
L 371.633965 311.037795 
L 375.751974 311.222533 
L 379.869983 312.793051 
L 383.987992 309.744349 
L 388.106001 311.314937 
L 392.22401 302.538376 
L 396.342019 304.108964 
L 400.460028 303.369872 
L 404.578037 303.09273 
L 408.696046 304.47844 
L 412.814055 311.776817 
L 416.932064 306.418575 
L 421.050074 304.663248 
L 425.168083 309.467207 
L 429.286092 299.304935 
L 433.404101 286.833053 
L 437.52211 286.555911 
L 441.640119 293.484742 
L 445.758128 285.354869 
L 449.876137 289.51221 
L 453.994146 287.941691 
L 458.112155 283.691946 
L 462.230164 289.974089 
L 466.348173 283.78435 
L 470.466182 295.701948 
L 474.584191 280.828052 
L 478.7022 286.278699 
L 482.820209 283.414804 
L 486.938218 285.539677 
L 491.056227 279.904222 
L 495.174236 279.349867 
L 499.292245 281.290002 
L 503.410255 282.768116 
L 507.528264 275.100263 
L 511.646273 278.426037 
L 515.764282 290.158898 
L 519.882291 278.980392 
L 524.0003 268.725716 
L 528.118309 270.942922 
L 532.236318 266.97039 
L 536.354327 266.04656 
L 540.472336 264.475971 
L 544.590345 266.508439 
L 548.708354 258.286232 
L 552.826363 264.568446 
L 556.944372 263.644545 
L 561.062381 269.28 
L 565.18039 259.949225 
L 569.298399 259.302466 
L 573.416408 257.916756 
L 577.534417 258.932991 
L 581.652426 258.193898 
L 585.770436 256.530906 
L 589.888445 256.530906 
L 594.006454 255.145196 
L 598.124463 253.574678 
L 602.242472 256.253764 
L 606.360481 255.976622 
L 610.47849 257.08526 
L 614.596499 250.433571 
L 622.832517 252.466039 
L 626.950526 248.12396 
L 631.068535 251.911685 
L 635.186544 252.558443 
L 639.304553 250.341167 
L 643.422562 247.662081 
L 647.540571 250.341167 
L 651.65858 248.58584 
L 655.776589 247.384939 
L 659.894598 245.81435 
L 664.012607 247.015322 
L 668.130617 243.04286 
L 672.248626 243.320002 
L 676.366635 243.135193 
L 680.484644 240.086491 
L 684.602653 238.238831 
L 688.720662 237.315001 
L 692.838671 235.836887 
L 696.95668 232.69578 
L 701.074689 234.54351 
L 705.192698 231.956688 
L 709.310707 228.815581 
L 717.546725 226.690779 
L 721.664734 223.919218 
L 725.782743 222.995459 
L 729.900752 220.223898 
L 734.018761 221.609608 
L 738.13677 216.713245 
L 742.254779 217.729479 
L 746.372788 215.142727 
L 750.490798 213.110258 
L 758.726816 211.07779 
L 762.844825 207.012853 
L 766.962834 204.703243 
L 771.080843 203.779483 
L 775.198852 203.225129 
L 779.316861 198.236362 
L 783.43487 196.758248 
L 787.552879 193.986687 
L 791.670888 192.323765 
L 795.788897 191.492339 
L 799.906906 187.335068 
L 804.024915 185.856884 
L 808.142924 182.531039 
L 812.260933 182.531039 
L 816.378942 182.253897 
L 820.496951 180.129025 
L 824.61496 182.253897 
L 828.732969 180.960521 
L 832.850979 180.313763 
L 836.968988 180.498571 
L 841.086997 177.542273 
L 845.205006 187.889352 
L 849.323015 185.3026 
L 853.441024 181.422472 
L 853.441024 181.422472 
" clip-path="url(#p93c4ddf272)" style="fill: none; stroke: #8bbf3e; stroke-width: 2; stroke-linecap: square"/>
   </g>
   <g id="line2d_31">
    <path d="M 108.081386 289.235068 
L 112.199395 289.327401 
L 116.317404 287.849287 
L 120.435413 290.251302 
L 124.553422 287.387337 
L 128.671431 291.82182 
L 132.78944 304.570844 
L 136.907449 293.854288 
L 141.025458 304.01656 
L 145.143467 287.387337 
L 149.261476 288.865521 
L 153.379485 288.588309 
L 157.497494 294.962856 
L 161.615503 293.299934 
L 165.733512 296.995325 
L 169.851521 283.691946 
L 173.969531 289.142663 
L 178.08754 291.637012 
L 182.205549 289.327401 
L 186.323558 292.74565 
L 190.441567 289.789352 
L 194.559576 289.142663 
L 198.677585 289.235068 
L 202.795594 298.196297 
L 206.913603 296.533374 
L 211.031612 297.549609 
L 215.149621 294.500906 
L 219.26763 289.327401 
L 223.385639 293.854288 
L 227.503648 295.97909 
L 231.621657 294.962856 
L 235.739666 290.43604 
L 239.857675 295.609544 
L 243.975684 297.364871 
L 248.093693 303.09273 
L 252.211702 294.223764 
L 256.329712 294.316168 
L 260.447721 297.549609 
L 264.56573 302.538376 
L 268.683739 293.854288 
L 272.801748 293.66948 
L 276.919757 292.098962 
L 281.037766 296.256232 
L 285.155775 293.022792 
L 289.273784 296.256232 
L 293.391793 297.642013 
L 297.509802 296.718183 
L 301.627811 295.147665 
L 305.74582 292.2837 
L 309.863829 302.168829 
L 313.981838 308.912923 
L 318.099847 301.984092 
L 322.217856 298.196297 
L 326.335865 286.186365 
L 330.453874 298.381105 
L 334.571883 287.110195 
L 338.689893 290.066494 
L 342.807902 291.175132 
L 346.925911 297.734417 
L 351.04392 300.321169 
L 355.161929 291.452274 
L 359.279938 290.343635 
L 363.397947 285.539677 
L 367.515956 289.142663 
L 371.633965 286.555911 
L 375.751974 286.925457 
L 379.869983 288.588309 
L 383.987992 286.278699 
L 388.106001 288.218833 
L 392.22401 280.643244 
L 396.342019 281.844286 
L 404.578037 281.105194 
L 408.696046 282.121428 
L 412.814055 288.865521 
L 416.932064 283.78435 
L 421.050074 281.290002 
L 425.168083 280.828052 
L 429.286092 278.426037 
L 433.404101 267.801816 
L 437.52211 268.263766 
L 441.640119 274.915455 
L 445.758128 267.524674 
L 449.876137 271.497206 
L 453.994146 270.019092 
L 458.112155 266.323702 
L 462.230164 271.866752 
L 466.348173 266.508439 
L 470.466182 277.409803 
L 474.584191 264.106495 
L 478.7022 269.28 
L 482.820209 267.247532 
L 486.938218 268.263766 
L 491.056227 264.014091 
L 495.174236 263.736949 
L 499.292245 266.04656 
L 503.410255 267.339936 
L 507.528264 260.595842 
L 511.646273 264.291233 
L 515.764282 273.714412 
L 519.882291 263.274999 
L 524.0003 254.406103 
L 528.118309 256.530976 
L 532.236318 252.927919 
L 536.354327 252.281301 
L 540.472336 252.004089 
L 544.590345 254.406103 
L 548.708354 246.73818 
L 552.826363 253.297536 
L 556.944372 252.743181 
L 561.062381 258.563374 
L 565.18039 249.786883 
L 569.298399 249.417337 
L 573.416408 248.031556 
L 577.534417 249.324932 
L 581.652426 248.678315 
L 585.770436 247.015322 
L 589.888445 247.20013 
L 594.006454 246.091492 
L 598.124463 244.336236 
L 602.242472 247.015322 
L 606.360481 246.645846 
L 610.47849 247.662081 
L 614.596499 240.917987 
L 622.832517 243.04286 
L 626.950526 238.793115 
L 631.068535 242.673314 
L 635.186544 242.858052 
L 639.304553 240.917987 
L 643.422562 238.238831 
L 647.540571 241.102725 
L 651.65858 239.255065 
L 655.776589 238.238831 
L 659.894598 237.037859 
L 664.012607 238.331235 
L 668.130617 234.54344 
L 672.248626 234.912986 
L 676.366635 234.820652 
L 680.484644 232.049092 
L 684.602653 230.386169 
L 688.720662 229.831815 
L 692.838671 228.353701 
L 696.95668 225.397403 
L 701.074689 227.245063 
L 705.192698 224.843119 
L 709.310707 221.794416 
L 717.546725 219.854352 
L 721.664734 217.175195 
L 725.782743 216.343769 
L 729.900752 213.664542 
L 734.018761 215.142727 
L 738.13677 210.246364 
L 742.254779 211.170194 
L 746.372788 208.675846 
L 750.490798 206.735711 
L 758.726816 204.703313 
L 762.844825 200.638376 
L 766.962834 198.328766 
L 771.080843 197.312532 
L 775.198852 196.850652 
L 779.316861 192.046623 
L 783.43487 190.660843 
L 787.552879 187.796948 
L 791.670888 186.318834 
L 795.788897 185.3026 
L 799.906906 181.237663 
L 804.024915 179.851883 
L 808.142924 176.710776 
L 812.260933 176.895584 
L 816.378942 176.433634 
L 820.496951 174.308832 
L 824.61496 176.526038 
L 828.732969 175.047924 
L 832.850979 174.49364 
L 836.968988 174.49364 
L 841.086997 171.72208 
L 845.205006 181.514805 
L 849.323015 178.558507 
L 853.441024 175.047924 
L 853.441024 175.047924 
" clip-path="url(#p93c4ddf272)" style="fill: none; stroke: #27ae60; stroke-width: 2; stroke-linecap: square"/>
   </g>
   <g id="line2d_32">
    <path d="M 108.081386 253.759415 
L 112.199395 255.145196 
L 116.317404 254.590912 
L 120.435413 257.08526 
L 124.553422 255.052792 
L 128.671431 258.655778 
L 132.78944 268.633312 
L 136.907449 259.487275 
L 141.025458 264.475971 
L 145.143467 254.036557 
L 149.261476 254.77565 
L 153.379485 254.313699 
L 157.497494 260.133963 
L 161.615503 258.00909 
L 165.733512 263.367403 
L 169.851521 251.449805 
L 173.969531 256.253764 
L 178.08754 258.655778 
L 182.205549 255.514742 
L 186.323558 258.93292 
L 190.441567 255.791884 
L 194.559576 254.683245 
L 198.677585 254.868054 
L 202.795594 262.166361 
L 206.913603 260.3187 
L 211.031612 261.150197 
L 215.149621 259.949154 
L 219.26763 254.683245 
L 223.385639 258.93292 
L 227.503648 260.780651 
L 231.621657 259.39487 
L 235.739666 255.791884 
L 239.857675 261.150197 
L 243.975684 261.796885 
L 248.093693 266.97039 
L 252.211702 259.302466 
L 256.329712 259.579608 
L 260.447721 262.351169 
L 264.56573 266.877985 
L 268.683739 259.025324 
L 272.801748 258.286232 
L 276.919757 256.530976 
L 281.037766 260.503509 
L 285.155775 257.731948 
L 289.273784 261.427339 
L 293.391793 262.997857 
L 297.509802 261.981623 
L 301.627811 260.595842 
L 305.74582 258.101494 
L 309.863829 264.937921 
L 313.981838 271.220064 
L 318.099847 267.062794 
L 322.217856 263.274999 
L 326.335865 253.482273 
L 330.453874 264.568375 
L 334.571883 253.944153 
L 338.689893 256.808118 
L 342.807902 257.731948 
L 346.925911 262.813119 
L 351.04392 264.383637 
L 355.161929 257.177664 
L 359.279938 256.530976 
L 363.397947 252.743181 
L 367.515956 256.438572 
L 371.633965 254.406103 
L 375.751974 254.77565 
L 379.869983 256.62331 
L 383.987992 254.960387 
L 388.106001 257.362402 
L 392.22401 250.710713 
L 396.342019 251.819351 
L 400.460028 251.819351 
L 404.578037 251.265067 
L 408.696046 251.911755 
L 412.814055 258.655778 
L 416.932064 254.960387 
L 421.050074 253.020323 
L 425.168083 249.786883 
L 429.286092 250.987925 
L 433.404101 241.749484 
L 437.52211 242.765647 
L 441.640119 249.140195 
L 445.758128 242.765647 
L 449.876137 246.553442 
L 453.994146 245.35247 
L 458.112155 242.211363 
L 462.230164 247.015322 
L 466.348173 242.211363 
L 470.466182 251.819351 
L 474.584191 239.994157 
L 478.7022 245.075258 
L 482.820209 243.689477 
L 486.938218 243.874286 
L 491.056227 240.363703 
L 495.174236 240.456037 
L 499.292245 242.396101 
L 503.410255 243.597144 
L 507.528264 237.961689 
L 511.646273 241.379867 
L 515.764282 248.216365 
L 519.882291 239.624611 
L 524.0003 232.511042 
L 528.118309 234.358702 
L 532.236318 231.217595 
L 536.354327 231.032858 
L 540.472336 231.217595 
L 544.590345 233.712014 
L 548.708354 226.598375 
L 552.826363 233.15766 
L 556.944372 232.880518 
L 561.062381 238.331235 
L 565.18039 230.016623 
L 569.298399 230.016623 
L 573.416408 228.723247 
L 577.534417 230.293765 
L 581.652426 229.831815 
L 585.770436 227.707013 
L 589.888445 228.261297 
L 594.006454 227.245063 
L 598.124463 225.766949 
L 602.242472 228.446105 
L 606.360481 228.168963 
L 610.47849 229.092793 
L 614.596499 222.441104 
L 622.832517 224.565977 
L 626.950526 220.685778 
L 631.068535 224.473573 
L 635.186544 224.288764 
L 639.304553 222.441104 
L 643.422562 219.946756 
L 647.540571 222.441104 
L 651.65858 220.870586 
L 659.894598 218.930522 
L 664.012607 220.316232 
L 668.130617 216.713245 
L 672.248626 216.805649 
L 676.366635 216.713245 
L 680.484644 214.496039 
L 684.602653 213.110258 
L 688.720662 212.925521 
L 692.838671 211.816882 
L 696.95668 209.23013 
L 701.074689 211.447336 
L 705.192698 209.414938 
L 709.310707 206.458569 
L 717.546725 205.534739 
L 721.664734 202.947987 
L 725.782743 202.578441 
L 729.900752 200.176497 
L 734.018761 201.654611 
L 738.13677 197.312532 
L 742.254779 198.236362 
L 746.372788 195.926751 
L 750.490798 194.263829 
L 754.608807 193.247665 
L 758.726816 192.416169 
L 762.844825 188.536041 
L 766.962834 186.411168 
L 771.080843 185.672076 
L 775.198852 185.117792 
L 779.316861 180.775713 
L 783.43487 179.297599 
L 787.552879 176.433634 
L 791.670888 175.047924 
L 795.788897 174.216428 
L 799.906906 170.243895 
L 804.024915 168.950519 
L 808.142924 166.086625 
L 812.260933 166.640909 
L 816.378942 166.271363 
L 820.496951 164.14656 
L 824.61496 166.456171 
L 828.732969 164.793249 
L 832.850979 164.423702 
L 836.968988 164.238894 
L 841.086997 161.559738 
L 845.205006 170.521037 
L 849.323015 167.102859 
L 853.441024 164.238894 
L 853.441024 164.238894 
" clip-path="url(#p93c4ddf272)" style="fill: none; stroke: #2980b9; stroke-width: 2; stroke-linecap: square"/>
   </g>
   <g id="line2d_33">
    <path d="M 108.081386 210.431102 
L 112.199395 211.724549 
L 116.317404 211.170194 
L 120.435413 213.3874 
L 124.553422 211.909286 
L 128.671431 214.773181 
L 132.78944 222.071558 
L 136.907449 214.680777 
L 141.025458 216.528507 
L 145.143467 210.893052 
L 149.261476 211.354932 
L 153.379485 211.447336 
L 157.497494 216.436103 
L 161.615503 214.034159 
L 165.733512 219.207664 
L 169.851521 208.860584 
L 173.969531 213.202663 
L 178.08754 215.050323 
L 182.205549 212.001691 
L 186.323558 214.957989 
L 190.441567 212.46357 
L 194.559576 210.985456 
L 198.677585 210.985456 
L 202.795594 216.158961 
L 206.913603 215.327535 
L 211.031612 215.881819 
L 215.149621 215.789415 
L 219.26763 210.800648 
L 223.385639 214.403635 
L 227.503648 215.789415 
L 231.621657 214.034159 
L 235.739666 211.262598 
L 239.857675 215.604677 
L 243.975684 215.050323 
L 248.093693 220.03909 
L 252.211702 213.849351 
L 256.329712 214.034159 
L 260.447721 217.082791 
L 264.56573 221.055324 
L 268.683739 214.680777 
L 272.801748 213.756946 
L 276.919757 212.186428 
L 281.037766 215.697011 
L 285.155775 213.479805 
L 289.273784 216.713245 
L 293.391793 218.099025 
L 297.509802 216.620911 
L 301.627811 215.512273 
L 305.74582 213.295067 
L 309.863829 217.544741 
L 313.981838 222.163962 
L 318.099847 219.854352 
L 322.217856 216.158961 
L 326.335865 208.952988 
L 330.453874 218.283763 
L 334.571883 209.137726 
L 338.689893 212.001691 
L 342.807902 212.740712 
L 346.925911 216.713245 
L 351.04392 217.729479 
L 355.161929 212.740712 
L 359.279938 212.648379 
L 363.397947 209.969222 
L 367.515956 213.3874 
L 371.633965 211.816882 
L 375.751974 212.278833 
L 379.869983 213.479805 
L 383.987992 212.371166 
L 388.106001 214.218897 
L 392.22401 209.69208 
L 396.342019 210.893052 
L 400.460028 211.447336 
L 404.578037 210.61591 
L 408.696046 211.170194 
L 412.814055 217.452337 
L 416.932064 214.957989 
L 421.050074 213.3874 
L 425.168083 208.583442 
L 429.286092 212.186428 
L 433.404101 204.241363 
L 437.52211 205.904285 
L 441.640119 210.893052 
L 445.758128 205.627143 
L 449.876137 209.045322 
L 453.994146 208.675846 
L 458.112155 205.996689 
L 462.230164 210.246364 
L 466.348173 205.996689 
L 470.466182 214.218897 
L 474.584191 204.148959 
L 478.7022 208.860584 
L 482.820209 208.029158 
L 486.938218 208.398704 
L 491.056227 204.795717 
L 495.174236 205.072859 
L 499.292245 206.828115 
L 503.410255 207.38247 
L 507.528264 202.947987 
L 511.646273 206.458569 
L 515.764282 210.800648 
L 519.882291 204.241363 
L 524.0003 198.513504 
L 528.118309 200.730781 
L 532.236318 197.404936 
L 536.354327 197.589674 
L 540.472336 198.328766 
L 544.590345 201.007923 
L 548.708354 193.986687 
L 552.826363 200.26883 
L 556.944372 200.084092 
L 561.062381 204.518505 
L 565.18039 197.589674 
L 569.298399 197.589674 
L 573.416408 196.57344 
L 577.534417 198.328766 
L 581.652426 197.95922 
L 585.770436 195.002921 
L 589.888445 196.296298 
L 594.006454 195.280063 
L 598.124463 193.894283 
L 602.242472 196.019156 
L 606.360481 195.64961 
L 610.47849 196.481106 
L 614.596499 190.106559 
L 618.714508 191.030389 
L 622.832517 192.139027 
L 626.950526 188.720778 
L 631.068535 192.508573 
L 635.186544 191.215197 
L 639.304553 190.198963 
L 643.422562 188.443636 
L 647.540571 190.753247 
L 651.65858 189.737013 
L 659.894598 188.166494 
L 664.012607 189.459871 
L 668.130617 186.22643 
L 676.366635 186.503572 
L 680.484644 184.3787 
L 684.602653 183.547274 
L 688.720662 183.362465 
L 692.838671 182.346231 
L 696.95668 179.944287 
L 701.074689 182.253897 
L 705.192698 180.406167 
L 709.310707 177.819414 
L 713.428716 177.449868 
L 717.546725 177.357535 
L 721.664734 175.232662 
L 725.782743 175.509804 
L 729.900752 173.477336 
L 734.018761 175.325066 
L 738.13677 171.814413 
L 742.254779 173.200194 
L 746.372788 171.629676 
L 750.490798 170.521037 
L 754.608807 169.966753 
L 758.726816 169.689611 
L 762.844825 166.363767 
L 766.962834 164.977986 
L 775.198852 164.238894 
L 779.316861 160.266361 
L 783.43487 159.250127 
L 787.552879 156.663375 
L 791.670888 155.554807 
L 795.788897 155.092857 
L 799.906906 151.582274 
L 804.024915 150.658444 
L 808.142924 148.164026 
L 812.260933 148.995451 
L 816.378942 148.625976 
L 820.496951 146.685841 
L 824.61496 148.903118 
L 828.732969 147.055458 
L 832.850979 146.963054 
L 836.968988 146.685841 
L 841.086997 144.283897 
L 845.205006 151.95182 
L 849.323015 148.071621 
L 853.441024 146.408699 
L 853.441024 146.408699 
" clip-path="url(#p93c4ddf272)" style="fill: none; stroke: #6c3483; stroke-width: 2; stroke-linecap: square"/>
   </g>
  </g>
  <g id="text_38">
   <text style="font-size: 26px; font-family: 'DejaVu Sans', 'Bitstream Vera Sans', 'Computer Modern Sans Serif', 'Lucida Grande', 'Verdana', 'Geneva', 'Lucid', 'Arial', 'Helvetica', 'Avant Garde', sans-serif; text-anchor: start; fill: #333333" x="34.79125" y="26.955938" transform="rotate(-0 34.79125 26.955938)">Life expectancy by age in England and Wales, 1841–2022</text>
  </g>
  <g id="text_39">
   <text style="font-size: 13px; font-family: 'DejaVu Sans', 'Bitstream Vera Sans', 'Computer Modern Sans Serif', 'Lucida Grande', 'Verdana', 'Geneva', 'Lucid', 'Arial', 'Helvetica', 'Avant Garde', sans-serif; text-anchor: start; fill: #666666" x="34.79125" y="68.557969" transform="rotate(-0 34.79125 68.557969)">Shown is the total life expectancy given that a person reached a certain age.</text>
  </g>
  <g id="text_40">
   <text style="font-size: 9px; font-family: 'DejaVu Sans', 'Bitstream Vera Sans', 'Computer Modern Sans Serif', 'Lucida Grande', 'Verdana', 'Geneva', 'Lucid', 'Arial', 'Helvetica', 'Avant Garde', sans-serif; fill: #666666" transform="translate(34.79125 875.09025)">Data sources: HMD (2025)</text>
   <text style="font-size: 9px; font-family: 'DejaVu Sans', 'Bitstream Vera Sans', 'Computer Modern Sans Serif', 'Lucida Grande', 'Verdana', 'Geneva', 'Lucid', 'Arial', 'Helvetica', 'Avant Garde', sans-serif; fill: #666666" transform="translate(34.79125 885.168281)">OurWorldInData.org – Research and data to make progress against the world's largest problems.</text>
  </g>
 </g>
 <defs>
  <clipPath id="p93c4ddf272">
   <rect x="46.31125" y="91.44" width="910.08" height="711.36"/>
  </clipPath>
 </defs>
</svg>
