<?xml version="1.0" encoding="UTF-8"?>
<svg version="1.1" xmlns="http://www.w3.org/2000/svg" width="1392" height="796">
<path d="M0 0 C458.04 0 916.08 0 1388 0 C1388 33.99 1388 67.98 1388 103 C929.96 103 471.92 103 0 103 C0 69.01 0 35.02 0 0 Z " fill="#FCFCFC" transform="translate(0,690)"/>
<path d="M0 0 C23.43 0 46.86 0 71 0 C71.33 26.4 71.66 52.8 72 80 C76.455 75.545 76.455 75.545 81 71 C96.1210927 59.28671868 113.88362167 53.84873352 133 55 C134.98 55.33 136.96 55.66 139 56 C139 37.52 139 19.04 139 0 C162.43 0 185.86 0 210 0 C210 74.91 210 149.82 210 227 C163.85185185 227 163.85185185 227 156.75 223.3125 C152.00948088 221.04997951 147.75584938 223.35001144 143 225 C126.81588311 230.6148977 107.6390274 230.08587512 92 223 C84.39472429 219.05368565 78.23594098 213.82702682 72 208 C71.67 214.27 71.34 220.54 71 227 C47.57 227 24.14 227 0 227 C0 194 0 161 0 127 C-0.66 127.33 -1.32 127.66 -2 128 C-6.60221146 128.15089218 -10.49706736 127.90058653 -15 127 C-20.12554658 126.41371622 -20.12554658 126.41371622 -24.71768761 128.26571465 C-26.26612012 130.35991871 -26.37984644 131.41458392 -26.39199829 133.99856567 C-26.40309128 134.8090033 -26.41418427 135.61944092 -26.4256134 136.45443726 C-26.42260727 137.33975128 -26.41960114 138.22506531 -26.41650391 139.13720703 C-26.42508926 140.07238159 -26.43367462 141.00755615 -26.44252014 141.97106934 C-26.46764491 145.06672629 -26.47196436 148.1620628 -26.4765625 151.2578125 C-26.49086497 153.40348294 -26.50662061 155.54914415 -26.52377319 157.6947937 C-26.56568647 163.34639657 -26.59064548 168.99794221 -26.61126709 174.6496582 C-26.64704567 183.70402348 -26.70790087 192.75824772 -26.76975632 201.81246567 C-26.78891835 204.98395499 -26.80059699 208.15540659 -26.81118774 211.32693481 C-26.82139431 213.25848473 -26.83175175 215.19003387 -26.84228516 217.12158203 C-26.84332748 218.01094452 -26.84436981 218.90030701 -26.84544373 219.81661987 C-26.88657394 225.88657394 -26.88657394 225.88657394 -28 227 C-30.20867831 227.09432985 -32.42041521 227.11742431 -34.63110352 227.11352539 C-35.32375305 227.11367142 -36.01640259 227.11381744 -36.7300415 227.1139679 C-39.02969446 227.11326874 -41.32926737 227.10547628 -43.62890625 227.09765625 C-45.21931412 227.09579208 -46.80972257 227.09436817 -48.40013123 227.09336853 C-52.5939593 227.08954329 -56.78775295 227.07971295 -60.98156738 227.06866455 C-65.25788914 227.05845057 -69.53421644 227.05387094 -73.81054688 227.04882812 C-82.20704884 227.03809068 -90.60351618 227.02049384 -99 227 C-99.33 219.74 -99.66 212.48 -100 205 C-101.65 206.485 -103.3 207.97 -105 209.5 C-125.04440516 226.64557199 -149.5487325 229.28082082 -175 228 C-194.80706605 226.0410594 -213.74283682 214.87807324 -226.6484375 200.046875 C-235.37854697 188.73543748 -240.60066194 175.80106454 -244 162 C-244.37251137 163.1993644 -244.37251137 163.1993644 -244.75254822 164.42295837 C-247.08898672 171.94357124 -249.42840737 179.46324835 -251.77121639 186.98187923 C-252.97568401 190.84767582 -254.17897916 194.71382936 -255.37963867 198.58081055 C-256.53752606 202.30988502 -257.69843577 206.03800592 -258.86148262 209.76547432 C-259.30554436 211.19054918 -259.74850015 212.61596913 -260.19035149 214.04173088 C-260.80752362 216.03255961 -261.42855183 218.02214529 -262.05053711 220.01147461 C-262.40361435 221.14620712 -262.75669159 222.28093964 -263.12046814 223.45005798 C-264 226 -264 226 -265 227 C-266.8718094 227.09386381 -268.7471806 227.11743804 -270.62133789 227.11352539 C-271.82250748 227.11344986 -273.02367706 227.11337433 -274.26124573 227.11329651 C-275.5685112 227.10813522 -276.87577667 227.10297394 -278.22265625 227.09765625 C-279.56644132 227.09579198 -280.91022707 227.09436812 -282.25401306 227.09336853 C-285.79682277 227.08954402 -289.3395917 227.07971432 -292.88238525 227.06866455 C-296.49515227 227.05844899 -300.10792584 227.0538706 -303.72070312 227.04882812 C-310.8138188 227.03809198 -317.90690674 227.02101636 -325 227 C-326.69367373 221.98122862 -328.38027392 216.96011765 -330.0625 211.9375 C-330.32277985 211.16054779 -330.58305969 210.38359558 -330.85122681 209.58309937 C-336.47427626 192.77155766 -341.85355529 175.88401529 -347.18579102 158.97827148 C-347.49926483 157.98832184 -347.81273865 156.99837219 -348.13571167 155.97842407 C-348.72853544 154.10627031 -349.31883526 152.23331495 -349.90628052 150.35946655 C-350.16819183 149.53355011 -350.43010315 148.70763367 -350.69995117 147.85668945 C-350.92800949 147.13254349 -351.15606781 146.40839752 -351.39103699 145.66230774 C-351.87244052 143.98731762 -351.87244052 143.98731762 -353 143 C-355.48798135 150.57306277 -357.97482515 158.14649784 -360.46034336 165.72036934 C-361.61537126 169.239859 -362.77074425 172.75923447 -363.92700195 176.27832031 C-365.26623588 180.35445739 -366.60412674 184.43103385 -367.94140625 188.5078125 C-368.15968708 189.17287056 -368.37796791 189.83792862 -368.60286331 190.52313995 C-371.7878624 200.23148568 -374.92245012 209.95478417 -377.95448303 219.71218872 C-379.89304637 225.89304637 -379.89304637 225.89304637 -381 227 C-382.8718094 227.09386381 -384.7471806 227.11743804 -386.62133789 227.11352539 C-387.82250748 227.11344986 -389.02367706 227.11337433 -390.26124573 227.11329651 C-391.5685112 227.10813522 -392.87577667 227.10297394 -394.22265625 227.09765625 C-395.56644132 227.09579198 -396.91022707 227.09436812 -398.25401306 227.09336853 C-401.79682277 227.08954402 -405.3395917 227.07971432 -408.88238525 227.06866455 C-412.49515227 227.05844899 -416.10792584 227.0538706 -419.72070312 227.04882812 C-426.8138188 227.03809198 -433.90690674 227.02101636 -441 227 C-445.84844159 212.68478682 -450.44876569 198.30500938 -454.90454102 183.86303711 C-456.24338927 179.52364103 -457.58617582 175.18546891 -458.92905426 170.84731865 C-459.23118961 169.87124751 -459.23118961 169.87124751 -459.53942871 168.87545776 C-459.74327682 168.21691677 -459.94712494 167.55837578 -460.15715027 166.879879 C-460.78684195 164.84521249 -461.41622757 162.81045153 -462.04553223 160.77566528 C-466.69258554 145.75139611 -471.36300509 130.73440105 -476.03311157 115.71728516 C-478.46439502 107.89904727 -480.89422411 100.08035728 -483.32421875 92.26171875 C-484.04186739 89.95268492 -484.75951932 87.64365212 -485.4771719 85.33461952 C-485.95054148 83.81155812 -486.42390792 82.28849573 -486.89727116 80.76543236 C-488.0589013 77.02786353 -489.22058462 73.29031125 -490.38238525 69.55279541 C-492.76504921 61.88772334 -495.14730148 54.22252387 -497.52814674 46.55688667 C-498.50924513 43.39806861 -499.49068595 40.23935769 -500.47265625 37.08081055 C-501.54110631 33.64394734 -502.60857053 30.20677947 -503.67578125 26.76953125 C-503.98610794 25.77210403 -504.29643463 24.77467682 -504.61616516 23.74702454 C-505.41675612 21.1664714 -506.20998509 18.58380677 -507 16 C-507.21417572 15.3141684 -507.42835144 14.62833679 -507.64901733 13.92172241 C-508.61404032 10.73549681 -509 8.38635504 -509 5 C-501.34974999 4.93013543 -493.69953354 4.87700519 -486.04903603 4.84456348 C-482.49562849 4.82898398 -478.94244106 4.80788929 -475.38916016 4.77368164 C-471.29327418 4.73450224 -467.19761526 4.72022716 -463.1015625 4.70703125 C-461.8407486 4.69154739 -460.57993469 4.67606354 -459.28091431 4.66011047 C-447.77399605 4.65793854 -439.23060977 6.52922069 -430.4375 14.25 C-424.10666015 21.39248599 -421.53780815 28.82571873 -419.046875 37.9609375 C-418.52833954 39.80131088 -418.52833954 39.80131088 -417.99932861 41.67886353 C-417.08982227 44.91427534 -416.19110754 48.15227095 -415.29797363 51.39221191 C-414.03092639 55.97689632 -412.74245818 60.55562643 -411.45782471 65.13540649 C-410.77642795 67.56943377 -410.09855179 70.00444985 -409.42449951 72.44052124 C-409.12038147 73.53571075 -408.81626343 74.63090027 -408.50292969 75.75927734 C-408.23599304 76.72554047 -407.9690564 77.69180359 -407.69403076 78.68734741 C-407.07284825 80.99701127 -407.07284825 80.99701127 -406 83 C-405.77306961 82.29113647 -405.54613922 81.58227295 -405.31233215 80.85192871 C-403.16155988 74.1402913 -401.00020383 67.43217539 -398.82718372 60.72771454 C-397.71063757 57.28156391 -396.59808737 53.83423297 -395.49487305 50.38378906 C-394.42811808 47.04789725 -393.35060214 43.71565363 -392.26584435 40.38557434 C-391.65764767 38.5092157 -391.06036647 36.62933011 -390.46333313 34.74938965 C-387.09428571 24.46006554 -382.56577613 14.28987306 -372.7265625 8.7109375 C-361.93849621 3.729073 -347.6486412 3.02545874 -336.1875 6.25 C-328.35626195 9.19854904 -322.79661837 14.22461383 -318 21 C-316.79418945 23.72802734 -316.79418945 23.72802734 -315.73828125 26.8359375 C-315.10611694 28.68566162 -315.10611694 28.68566162 -314.46118164 30.57275391 C-313.97239476 32.04793172 -313.48548871 33.52373346 -313 35 C-312.71510712 35.8622821 -312.43021423 36.72456421 -312.13668823 37.61297607 C-309.81627554 44.65061864 -307.5306314 51.69938487 -305.25 58.75 C-304.22499983 61.91687054 -303.1993818 65.08353437 -302.17181396 68.24957275 C-301.53701207 70.20557533 -300.90369724 72.16206128 -300.27203369 74.11907959 C-299.9879364 74.99469543 -299.70383911 75.87031128 -299.41113281 76.77246094 C-299.16196106 77.54297791 -298.91278931 78.31349487 -298.65606689 79.10736084 C-298.02724389 81.05351429 -298.02724389 81.05351429 -297 83 C-296.71598076 81.98095078 -296.71598076 81.98095078 -296.42622375 80.9413147 C-294.62785438 74.49587651 -292.81961954 68.05329518 -291.00063801 61.61364174 C-290.06612971 58.30395348 -289.13528422 54.99333071 -288.21313477 51.68017578 C-287.14943624 47.85910394 -286.06921727 44.04279537 -284.98828125 40.2265625 C-284.50202019 38.46658432 -284.50202019 38.46658432 -284.00593567 36.67105103 C-280.75776367 25.29669811 -277.09939576 15.76042651 -267 9 C-258.1015257 5.19404822 -249.61406847 4.44492794 -240.04296875 4.609375 C-238.77399246 4.61503479 -237.50501617 4.62069458 -236.19758606 4.62652588 C-232.87148475 4.6449423 -229.54654698 4.68068557 -226.22076416 4.7253418 C-222.80808402 4.76672873 -219.39528221 4.78462817 -215.98242188 4.8046875 C-209.32130183 4.84849523 -202.66071783 4.91520949 -196 5 C-198.02831455 13.50684672 -200.40516775 21.85676992 -203.01171875 30.203125 C-203.38480667 31.4069281 -203.75789459 32.6107312 -204.14228821 33.85101318 C-205.12136266 37.00803978 -206.10323502 40.16417683 -207.08654785 43.31988525 C-208.09461627 46.55756021 -209.09889212 49.79641107 -210.10351562 53.03515625 C-212.06556985 59.35784371 -214.03132591 65.67937081 -216 72 C-215.67 72.33 -215.34 72.66 -215 73 C-214.14341797 72.34644531 -214.14341797 72.34644531 -213.26953125 71.6796875 C-192.80780616 56.65056669 -168.56549746 53.068702 -143.68359375 56.5078125 C-126.44498376 59.85922941 -113.22355366 67.81083921 -100 79 C-99.67 72.07 -99.34 65.14 -99 58 C-92.47055659 57.90785576 -85.94339541 57.82830976 -79.41381836 57.78027344 C-77.19564137 57.760236 -74.97751668 57.73299827 -72.75952148 57.69824219 C-69.55960128 57.64937747 -66.36038326 57.62695188 -63.16015625 57.609375 C-62.17854019 57.58872986 -61.19692413 57.56808472 -60.18556213 57.54681396 C-54.29966651 57.54492278 -50.14757905 58.38094997 -44.96702576 61.23638916 C-39.99624562 63.16607492 -33.27370499 58.90747494 -28.60546875 57.15625 C-23.43928269 55.49948827 -18.41222472 54.85719663 -13 54.875 C-12.21625 54.87242187 -11.4325 54.86984375 -10.625 54.8671875 C-7.39864896 55.0304255 -4.19801 55.54314143 -1 56 C-0.67 37.52 -0.34 19.04 0 0 Z M-170 125 C-172.05963621 130.67303306 -172.33513226 135.87292458 -172.3125 141.875 C-172.32861328 142.72191406 -172.34472656 143.56882812 -172.36132812 144.44140625 C-172.36635837 151.01090738 -171.59994828 157.82228544 -167.3125 163.0625 C-163.83181137 164.47358998 -160.64341675 164.74606745 -157 164 C-153.4471541 161.6056908 -151.81329314 159.2403553 -150.6875 155.1875 C-148.9393466 145.11880877 -148.41868983 132.35065919 -153 123 C-155.82596315 120.32807258 -156.93135805 120.00871644 -160.9375 119.5 C-165.44856202 119.69321122 -167.33527687 121.31641214 -170 125 Z M127.5625 122.25 C121.8378657 133.30717036 123.38287671 148.33603079 126 160 C126.66 160.99 127.32 161.98 128 163 C129.45922693 162.88590407 130.91740598 162.75834456 132.375 162.625 C133.18710938 162.55539062 133.99921875 162.48578125 134.8359375 162.4140625 C137.20334191 162.17107412 137.20334191 162.17107412 139 160 C139.17546482 156.98691049 139.23127445 154.06689546 139.1953125 151.0546875 C139.1924826 150.1696756 139.18965271 149.2846637 139.18673706 148.37283325 C139.1755224 145.54008588 139.1504157 142.70765216 139.125 139.875 C139.11497185 137.95703581 139.10584572 136.03906667 139.09765625 134.12109375 C139.07557889 129.41394124 139.04104045 124.70702384 139 120 C137.55130098 119.9391445 136.10186883 119.89555928 134.65234375 119.859375 C133.84531006 119.83327148 133.03827637 119.80716797 132.20678711 119.78027344 C129.72144688 119.80407397 129.72144688 119.80407397 127.5625 122.25 Z " fill="#010101" transform="translate(1067,128)"/>
<path d="M0 0 C139.88287824 0 139.88287824 0 173.59960938 33.52490234 C183.03313555 43.46168148 189.63399842 55.51098748 195 68 C195.51046875 67.63648438 196.0209375 67.27296875 196.546875 66.8984375 C206.64975652 59.91240241 217.09046435 55.04322287 229 52 C229.88429688 51.773125 230.76859375 51.54625 231.6796875 51.3125 C251.38512223 47.20006145 272.07336096 49.10304881 289.7421875 58.828125 C292.77826996 60.40394634 293.57551603 60.12919077 296.875 59.125 C303.69385024 57.11945581 310.88507815 55.81756611 318 56 C318.0825 54.700625 318.165 53.40125 318.25 52.0625 C319.37249602 41.26808626 320.89841578 27.91277612 329 20 C334.77933743 15.71121953 340.04354701 12.864589 347.30957031 12.88647461 C348.5704245 12.88658791 348.5704245 12.88658791 349.85675049 12.88670349 C351.20383087 12.89444542 351.20383087 12.89444542 352.578125 12.90234375 C353.5046991 12.9037587 354.43127319 12.90517365 355.38592529 12.90663147 C358.34064992 12.91222176 361.29529833 12.9247725 364.25 12.9375 C366.25520724 12.94251625 368.26041567 12.94707894 370.265625 12.95117188 C375.17713621 12.96133643 380.08848294 12.98091379 385 13 C385 26.2 385 39.4 385 53 C396.22 53 407.44 53 419 53 C419 56.3 419 59.6 419 63 C420.05316406 62.46890625 421.10632813 61.9378125 422.19140625 61.390625 C444.20819517 50.52095943 469.28306362 45.55995357 493.36328125 52.6875 C510.07627531 58.71925725 523.46680836 68.68302854 531.42578125 84.90625 C537.19326672 98.10851763 539.16659981 110.5515879 539.11352539 124.84399414 C539.11367142 125.88894043 539.11381744 126.93388672 539.1139679 128.01049805 C539.11327592 131.43540586 539.10551723 134.86025804 539.09765625 138.28515625 C539.09578953 140.67125926 539.09436682 143.05736266 539.09336853 145.44346619 C539.08956338 151.70202709 539.07975029 157.96056453 539.06866455 164.21911621 C539.05840727 170.6141732 539.05386168 177.00923401 539.04882812 183.40429688 C539.03812614 195.93620789 539.02126806 208.46810269 539 221 C533.22002052 221.09967465 527.44055312 221.17184583 521.65991211 221.21972656 C519.69790926 221.23970918 517.73596495 221.26690484 515.77416992 221.30175781 C495.35397602 221.65517425 495.35397602 221.65517425 486 217 C482.05827745 215.68609248 480.77484714 216.70183806 477 218.3125 C459.86536802 225.08359497 440.36839736 225.26401216 423 219 C419.96473695 217.52377479 417.09248047 215.964848 414.234375 214.171875 C411.83011374 212.6903535 411.83011374 212.6903535 408 213 C405.94893875 213.86937987 403.93050483 214.8172084 401.9375 215.8125 C386.19033387 223.31452072 366.73567387 226.14474276 349.76171875 221.03125 C338.33421867 216.76412126 329.37459485 210.83279313 322 201 C321.67 207.6 321.34 214.2 321 221 C315.36154493 221.09239162 309.72577029 221.17185652 304.0871582 221.21972656 C302.17365566 221.23970419 300.26021308 221.26689599 298.34692383 221.30175781 C278.43877529 221.65512615 278.43877529 221.65512615 269 217 C265.05827745 215.68609248 263.77484714 216.70183806 260 218.3125 C241.78712936 225.50968269 221.02614611 225.26565535 202.91796875 217.71484375 C188.63530232 210.5435469 181.81270062 199.79571876 175 186 C174.51273438 186.53367187 174.02546875 187.06734375 173.5234375 187.6171875 C154.11368152 208.01507651 130.39583816 216.43402697 103 221 C69.01 221 35.02 221 0 221 C0 148.07 0 75.14 0 0 Z M75 67 C75 95.71 75 124.42 75 154 C96.43622021 154.49489034 96.43622021 154.49489034 114.99609375 145.31640625 C125.77169487 134.17003176 126.38593909 120.04155972 126.2109375 105.48046875 C125.90252464 94.26147512 122.9066335 84.71734791 115.40625 76.1875 C104.24043757 65.65371469 89.50951526 67 75 67 Z M385 116 C385 128.21 385 140.42 385 153 C387.97 153 390.94 153 394 153 C394.31130859 152.07380859 394.31130859 152.07380859 394.62890625 151.12890625 C398.86718637 139.47806928 406.7222716 130.85181893 417 124 C417.19480199 121.9635042 417.19480199 121.9635042 415.92358398 120.50537109 C412.0971209 116.69799694 409.26484808 115.57943544 403.84765625 115.4140625 C401.58510005 115.44804744 399.32312417 115.52553195 397.0625 115.625 C393.081875 115.74875 389.10125 115.8725 385 116 Z " fill="#010101" transform="translate(547,383)"/>
<path d="M0 0 C9.03853573 8.06577852 17.52945559 17.05891119 23 28 C43.79 28.33 64.58 28.66 86 29 C86 63.98 86 98.96 86 135 C88.64 134.01 91.28 133.02 94 132 C94.33 98.01 94.66 64.02 95 29 C120.80333401 28.83956476 120.80333401 28.83956476 131.8359375 28.8046875 C139.35232901 28.78081308 146.86852486 28.75262516 154.38476562 28.69824219 C160.4472378 28.65465429 166.50950002 28.63083531 172.57211685 28.62049103 C174.88048734 28.61312293 177.18884686 28.59873489 179.49712753 28.57707977 C182.74035874 28.54787444 185.98273184 28.54405124 189.22607422 28.54589844 C190.17194901 28.53151733 191.11782379 28.51713623 192.09236145 28.50231934 C198.04144529 28.53877807 202.48408873 29.65789377 207.87350655 32.20161819 C210.14502182 33.26503892 210.14502182 33.26503892 213.25390625 32.37890625 C214.16011719 31.92386719 215.06632812 31.46882813 216 31 C229.06067057 26.43995033 229.06067057 26.43995033 235 26 C235.68707031 25.93683594 236.37414062 25.87367188 237.08203125 25.80859375 C250.07239447 25.14076413 261.68374645 29.39947815 272 37 C273.22486786 37.81896623 274.45322237 38.63278535 275.6875 39.4375 C276.450625 39.953125 277.21375 40.46875 278 41 C276.84331657 50.33978709 275.26459073 59.60978325 273.625 68.875 C273.42817627 70.03942627 273.23135254 71.20385254 273.02856445 72.40356445 C271.42960351 81.25343527 269.44446367 89.05691815 262.00390625 94.7421875 C253.98022524 99.7784941 246.05674614 99.11121232 236.95629883 98.15795898 C236.11736084 98.08391846 235.27842285 98.00987793 234.4140625 97.93359375 C233.6607666 97.85165771 232.9074707 97.76972168 232.13134766 97.68530273 C228.86442229 98.16767006 227.9634193 99.35633908 226 102 C225.38938876 105.08280672 225.43624981 108.13198383 225.45410156 111.26660156 C225.44376389 112.20352844 225.43342621 113.14045532 225.42277527 114.10577393 C225.39329081 117.20089855 225.39184688 120.29537083 225.390625 123.390625 C225.37564719 125.53726452 225.3589209 127.6838925 225.34051514 129.83050537 C225.29678475 135.47921267 225.27682982 141.1277645 225.26177979 146.77661133 C225.24222929 152.54127212 225.20025695 158.30576451 225.16015625 164.0703125 C225.08479242 175.38015646 225.03453825 186.68996285 225 198 C212.11707113 198.04641056 199.23416227 198.08191353 186.35116673 198.10362434 C180.36860252 198.11404623 174.38609566 198.12817636 168.40356445 198.15087891 C162.62640255 198.17266407 156.84929569 198.18458062 151.07209587 198.18975449 C148.87177604 198.19344005 146.6714591 198.20063699 144.4711628 198.21146011 C141.38118179 198.22605034 138.29142612 198.22797478 135.20141602 198.22705078 C134.29869965 198.23424133 133.39598328 198.24143188 132.46591187 198.24884033 C125.36196635 198.22596452 118.86538689 197.5629383 112.5625 194.125 C107.86363399 192.64114758 105.86610225 193.89395415 101.51953125 195.875 C87.28063908 202.23283092 68.64624277 201.11025249 54.1875 196.25 C36.19864823 188.9852714 25.4688669 176.5409641 17.84765625 159.01953125 C17.56792969 158.35308594 17.28820312 157.68664062 17 157 C14.28057745 159.6941491 11.60106329 162.41245491 8.9765625 165.19921875 C-12.21032364 187.42657482 -39.26660754 198.99066341 -70 200 C-103.14821778 200.29039445 -131.81797069 190.35730072 -156 167.375 C-170.49452408 152.44882082 -179.31191521 134.16353678 -184 114 C-184.27928345 112.81071899 -184.27928345 112.81071899 -184.56420898 111.59741211 C-186.25089708 103.53445802 -186.35822727 95.51367951 -186.3125 87.3125 C-186.31001251 86.60179352 -186.30752502 85.89108704 -186.30496216 85.15884399 C-186.13343539 53.51727948 -174.88286666 25.17349616 -152.20922852 2.72583008 C-111.81417472 -35.65669992 -41.90325665 -35.73615449 0 0 Z M-101 53 C-111.5268178 65.76656627 -111.90034206 81.17140569 -111 97 C-109.50827014 108.00591242 -105.26361382 117.12560657 -96.63671875 124.26953125 C-87.07178786 130.54695997 -75.16031144 131.53074668 -64.10546875 129.45703125 C-54.90532961 126.96044177 -48.4998105 121.71615204 -43 114 C-36.35976877 100.26290272 -35.70162144 82.02265785 -40.0859375 67.4765625 C-43.47449494 58.29559917 -47.82206474 51.80032304 -56.62109375 47.078125 C-70.39876736 40.83405617 -89.8059394 41.97427113 -101 53 Z " fill="#010101" transform="translate(286,157)"/>
<path d="M0 0 C458.04 0 916.08 0 1388 0 C1388 33.99 1388 67.98 1388 103 C929.96 103 471.92 103 0 103 C0 69.01 0 35.02 0 0 Z M16 20 C16 40.79 16 61.58 16 83 C462.16 83 908.32 83 1368 83 C1368 62.21 1368 41.42 1368 20 C921.84 20 475.68 20 16 20 Z " fill="#000000" transform="translate(0,690)"/>
<path d="M0 0 C8.66274351 6.79381342 13.87421013 15.63438871 16.125 26.375 C16.26768884 28.24641907 16.34529104 30.12338421 16.375 32 C16.40078125 32.96164062 16.4265625 33.92328125 16.453125 34.9140625 C16.00688159 39.62086796 14.60099997 43.89913583 13.125 48.375 C14.46292603 48.39687378 14.46292603 48.39687378 15.82788086 48.41918945 C19.1774139 48.48070661 22.52618709 48.55493981 25.87524414 48.63745117 C27.3171957 48.67044593 28.75926852 48.69855477 30.20141602 48.72143555 C38.32688267 48.85380883 45.50246906 49.23202231 53.125 52.375 C58.58388126 54.15506998 62.02010712 52.43218832 67.14453125 50.43359375 C83.10375865 44.76524431 102.04566116 46.02114536 117.36547852 52.98876953 C134.18416774 61.19697158 144.01678604 74.09609795 150.15234375 91.53515625 C153.69920851 105.53743763 153.38494941 119.35275869 153.3203125 133.70703125 C153.31657655 136.15467716 153.31373233 138.60232458 153.31173706 141.04997253 C153.3041464 147.4531781 153.28453767 153.85629113 153.2623291 160.25946045 C153.23814937 167.96309752 153.22906793 175.66676574 153.21742249 183.37042999 C153.19811025 195.0386841 153.15975571 206.70673568 153.125 218.375 C129.365 218.375 105.605 218.375 81.125 218.375 C81.125 183.395 81.125 148.415 81.125 112.375 C76.67 113.365 76.67 113.365 72.125 114.375 C72.125 148.695 72.125 183.015 72.125 218.375 C28.565 218.375 -14.995 218.375 -59.875 218.375 C-59.91238281 206.35191406 -59.94976562 194.32882812 -59.98828125 181.94140625 C-60.01855586 174.32616033 -60.0495787 166.71092965 -60.08398438 159.09570312 C-60.13845934 147.0075824 -60.18987284 134.919504 -60.22143555 122.83129883 C-60.24443729 114.02724373 -60.2778597 105.22329981 -60.32370156 96.41933292 C-60.34760438 91.75936712 -60.36635243 87.09951122 -60.37261391 82.43948555 C-60.37867806 78.04899913 -60.39872589 73.65879383 -60.42927551 69.26841164 C-60.43803444 67.66126714 -60.44178278 66.05408587 -60.44000816 64.44691849 C-60.35369216 53.58809459 -60.35369216 53.58809459 -63.18817425 43.19480801 C-66.08689363 35.51438437 -64.72920257 24.34207988 -61.9375 16.875 C-57.02101916 6.87584741 -48.6898252 -1.5665193 -38.25 -5.65234375 C-24.796732 -9.79916073 -11.72128482 -7.93193795 0 0 Z " fill="#010101" transform="translate(364.875,385.625)"/>
<path d="M0 0 C3.06233634 2.70225838 5.96956405 5.5361689 8.859375 8.421875 C9.601875 9.15277344 10.344375 9.88367188 11.109375 10.63671875 C19.15883429 19.07921804 24.32939613 29.22128901 28.234375 40.109375 C28.4730127 40.77324219 28.71165039 41.43710938 28.95751953 42.12109375 C32.16217735 51.61225675 33.22734795 61.06500735 33.171875 71.046875 C33.16768555 72.0894043 33.16349609 73.13193359 33.15917969 74.20605469 C32.81663983 97.91418571 25.64166135 121.81247779 8.53515625 138.84765625 C7.65214844 139.69714844 6.76914062 140.54664063 5.859375 141.421875 C5.13105469 142.15792969 4.40273438 142.89398438 3.65234375 143.65234375 C-15.25947704 161.79225348 -40.70334989 165.94550641 -65.8125 165.703125 C-88.43835214 165.12564026 -109.16652223 155.36848362 -125.140625 139.421875 C-125.83800781 138.73609375 -126.53539062 138.0503125 -127.25390625 137.34375 C-144.7460271 119.00249707 -150.69637637 94.09624347 -150.4921875 69.47021484 C-149.92579833 47.08604275 -141.98275852 26.29417096 -127.140625 9.421875 C-126.47417969 8.66003906 -125.80773437 7.89820313 -125.12109375 7.11328125 C-94.660901 -25.49438334 -34.07682706 -28.84073467 0 0 Z M-85.140625 39.421875 C-95.6674428 52.18844127 -96.04096706 67.59328069 -95.140625 83.421875 C-93.64889514 94.42778742 -89.40423882 103.54748157 -80.77734375 110.69140625 C-71.21241286 116.96883497 -59.30093644 117.95262168 -48.24609375 115.87890625 C-39.04595461 113.38231677 -32.6404355 108.13802704 -27.140625 100.421875 C-20.50039377 86.68477772 -19.84224644 68.44453285 -24.2265625 53.8984375 C-27.61511994 44.71747417 -31.96268974 38.22219804 -40.76171875 33.5 C-54.53939236 27.25593117 -73.9465644 28.39614613 -85.140625 39.421875 Z " fill="#FCFCFC" transform="translate(270.140625,170.578125)"/>
<path d="M0 0 C104.86504425 0 104.86504425 0 130 21 C130.66644531 21.52078125 131.33289063 22.0415625 132.01953125 22.578125 C148.30214299 35.80975426 157.33587486 56.57504059 160 77 C161.87594117 97.8560518 159.28772083 118.53290606 149 137 C148.48824219 137.92683594 147.97648438 138.85367188 147.44921875 139.80859375 C135.82823832 159.36179471 117.49055552 171.38752138 96 178 C64.47154263 183.56384542 32.01562119 181 0 181 C0 121.27 0 61.54 0 0 Z M54 47 C54 75.71 54 104.42 54 134 C75.43622021 134.49489034 75.43622021 134.49489034 93.99609375 125.31640625 C104.77169487 114.17003176 105.38593909 100.04155972 105.2109375 85.48046875 C104.90252464 74.26147512 101.9066335 64.71734791 94.40625 56.1875 C83.24043757 45.65371469 68.50951526 47 54 47 Z " fill="#FCFCFC" transform="translate(568,403)"/>
<path d="M0 0 C4.73207005 -0.1737205 9.46226568 -0.30037162 14.19677734 -0.38452148 C15.8051793 -0.4196133 17.41335968 -0.46730247 19.02099609 -0.52807617 C21.34007428 -0.61351589 23.65619178 -0.65279348 25.9765625 -0.68359375 C26.68930328 -0.71972275 27.40204407 -0.75585175 28.13638306 -0.79307556 C32.04337234 -0.79611222 34.49681536 -0.07765823 37.21386719 2.6328125 C41.3522941 8.17148301 42.80433953 14.99411283 44.6015625 21.55859375 C45.00784612 22.99043408 45.41570352 24.42182868 45.82504272 25.85279846 C46.89543808 29.61172699 47.94316744 33.37661531 48.98651123 37.14312744 C49.83051185 40.17599499 50.68996516 43.20436966 51.55047035 46.23258877 C55.2523795 59.26142756 58.88059355 72.29347359 62.10005188 85.4511261 C63.40799555 90.60889803 64.96441939 95.67616107 66.5625 100.75 C69.66134461 110.77151552 72.5950836 120.57807472 74 131 C74.23074219 130.07960938 74.46148438 129.15921875 74.69921875 128.2109375 C76.66537055 120.57947084 78.92165369 113.22229954 81.65893555 105.82348633 C83.00195395 102.08365579 84.10864912 98.28667862 85.19140625 94.46484375 C88.30760915 83.68350412 91.91536772 73.07013892 95.5 62.4375 C100.38498988 47.92123995 105.25139838 33.41287148 109.5546875 18.7109375 C109.99418004 17.2654389 110.43425281 15.82011654 110.875 14.375 C111.07996094 13.63894531 111.28492188 12.90289062 111.49609375 12.14453125 C113.22998663 6.60598198 115.7808553 2.77889575 121 0 C124.23408091 -0.78044661 127.24976857 -0.79939902 130.5625 -0.6875 C131.7990332 -0.70973633 131.7990332 -0.70973633 133.06054688 -0.73242188 C138.08174853 -0.66418812 140.74252804 0.00025689 144.65245056 3.48835754 C146.89682532 6.00603302 147.71522187 8.6973862 148.71875 11.88671875 C149.04805763 12.90209717 149.04805763 12.90209717 149.38401794 13.93798828 C150.10762312 16.18243179 150.80340285 18.43454272 151.5 20.6875 C152.01293824 22.29405313 152.52804407 23.8999156 153.04516602 25.50512695 C154.14194499 28.913838 155.22982881 32.32522001 156.31298828 35.73828125 C157.97043316 40.93614398 159.69199989 46.11105528 161.43359375 51.28125 C161.72129135 52.13558624 162.00898895 52.98992249 162.30540466 53.87014771 C162.88985986 55.60520865 163.47438866 57.3402448 164.05899048 59.07525635 C169.28327168 74.60963029 174.350219 90.19258287 179.3125 105.8125 C179.59543915 106.70061371 179.8783783 107.58872742 180.16989136 108.50375366 C180.96673565 111.00800869 181.75957042 113.51349139 182.55078125 116.01953125 C182.7855014 116.75712677 183.02022156 117.49472229 183.26205444 118.25466919 C184.37927507 121.81302079 185.36261292 125.32324987 186 129 C188.87825078 119.16746628 191.55713704 109.28527646 194.18579102 99.38330078 C196.18976293 91.87789737 198.30421447 84.40798921 200.44940186 76.94210815 C202.5429147 69.63934718 204.58526891 62.3229968 206.61714554 55.00287056 C207.71848126 51.04045176 208.82647176 47.07988826 209.93445778 43.11932468 C210.8833212 39.72565059 211.82801935 36.33091066 212.76464844 32.93383789 C213.68939328 29.5807146 214.62462413 26.2306761 215.56702805 22.8824749 C216.08829759 21.02004996 216.59869154 19.15459187 217.10879517 17.28907776 C220.83989244 4.10673837 220.83989244 4.10673837 227 0 C230.1862793 -0.22705078 230.1862793 -0.22705078 234.07421875 -0.1953125 C235.09996758 -0.19106766 235.09996758 -0.19106766 236.1464386 -0.18673706 C238.32697165 -0.17555684 240.50709145 -0.15045691 242.6875 -0.125 C244.16731177 -0.11496738 245.64712999 -0.10584202 247.12695312 -0.09765625 C250.751436 -0.07562481 254.37567766 -0.04111002 258 0 C255.61582523 10.25308864 252.55453545 20.26537554 249.4375 30.3125 C248.89829582 32.05890066 248.35915287 33.80532022 247.82006836 35.55175781 C244.646333 45.81093053 241.39188003 56.04022147 238.0625 66.25 C233.80366362 79.31140704 229.81644714 92.44711874 225.8682251 105.60540771 C221.16407339 121.27297166 216.2887172 136.88096197 211.31323242 152.46435547 C210.92745781 153.67262497 210.92745781 153.67262497 210.53388977 154.90530396 C210.03776339 156.45827429 209.54110822 158.01107581 209.04386902 159.56369019 C207.22256529 165.26238938 205.47281917 170.97984912 203.76391602 176.71337891 C203 179 203 179 202 180 C199.78144736 180.08783542 197.56011504 180.10694609 195.33984375 180.09765625 C194.34314415 180.09553383 194.34314415 180.09553383 193.3263092 180.09336853 C191.19666101 180.08775518 189.06711661 180.07520054 186.9375 180.0625 C185.49674631 180.05748671 184.05599097 180.05292351 182.61523438 180.04882812 C179.07678898 180.03778145 175.53840461 180.02050792 172 180 C164.63686055 158.20268057 157.48772679 136.33788268 150.4375 114.4375 C150.23264103 113.80130863 150.02778206 113.16511726 149.81671524 112.50964737 C145.63019875 99.5067115 141.45402902 86.50073756 137.37109375 73.46484375 C137.10673019 72.6208049 136.84236664 71.77676605 136.56999207 70.90715027 C135.38470292 67.11767172 134.20479414 63.32661936 133.03295898 59.53295898 C132.8286879 58.87546158 132.62441681 58.21796417 132.41395569 57.5405426 C131.88090681 55.82446041 131.35118821 54.10734472 130.82177734 52.39013672 C130.22122839 50.07496877 130.22122839 50.07496877 129 49 C128.65388672 50.12921875 128.65388672 50.12921875 128.30078125 51.28125 C124.4026935 63.97699823 120.50444268 76.6680981 116.25 89.25 C112.51959076 100.28739642 109.005478 111.38969004 105.5 122.5 C101.60762238 134.83604417 97.69338784 147.1585209 93.53515625 159.40820312 C91.22034736 166.2411367 89.12508845 173.09346254 87 180 C76.77 180 66.54 180 56 180 C44.59649063 146.33732734 44.59649063 146.33732734 41.01513672 133.20043945 C39.08413789 126.11880323 36.88125917 119.12658346 34.67181396 112.12814331 C34.01686454 110.05342277 33.36379562 107.97812085 32.71142578 105.90258789 C31.84386653 103.14271289 30.97570973 100.38302734 30.10693359 97.62353516 C25.06948092 81.62121647 20.07137443 65.60725728 15.11035156 49.58105469 C13.94940258 45.83681553 12.78388073 42.09401433 11.6171875 38.3515625 C7.64273156 25.596023 3.71290259 12.8343317 0 0 Z " fill="#FCFCFC" transform="translate(585,154)"/>
<path d="M0 0 C10.23 0 20.46 0 31 0 C31 61.05 31 122.1 31 185 C23.41 185 15.82 185 8 185 C4.52260261 180.65325326 3.4564588 179.19430401 2.25 174.1875 C2.00765625 173.21167969 1.7653125 172.23585938 1.515625 171.23046875 C1.34546875 170.49441406 1.1753125 169.75835937 1 169 C0.46632813 169.50789062 -0.06734375 170.01578125 -0.6171875 170.5390625 C-12.61824563 181.62654527 -25.31617286 187.67788752 -41.82446289 187.47265625 C-53.87025514 186.96978029 -63.8808044 181.5273784 -72.1875 172.9375 C-80.39346625 163.14907107 -83.3686292 151.19876512 -86 139 C-86.1757959 138.20295654 -86.3515918 137.40591309 -86.53271484 136.5847168 C-90.19614167 116.32102831 -86.07130911 94.29555106 -75 77 C-67.16329168 66.25453147 -56.64718746 58.77270507 -43.75 55.4140625 C-28.64270765 53.13938496 -15.64262245 55.27172796 -3 64 C-2.34 64.66 -1.68 65.32 -1 66 C-0.67 44.22 -0.34 22.44 0 0 Z M-31.4375 101.25 C-37.1621343 112.30717036 -35.61712329 127.33603079 -33 139 C-32.34 139.99 -31.68 140.98 -31 142 C-29.54077307 141.88590407 -28.08259402 141.75834456 -26.625 141.625 C-25.81289062 141.55539062 -25.00078125 141.48578125 -24.1640625 141.4140625 C-21.79665809 141.17107412 -21.79665809 141.17107412 -20 139 C-19.82453518 135.98691049 -19.76872555 133.06689546 -19.8046875 130.0546875 C-19.8075174 129.1696756 -19.81034729 128.2846637 -19.81326294 127.37283325 C-19.8244776 124.54008588 -19.8495843 121.70765216 -19.875 118.875 C-19.88502815 116.95703581 -19.89415428 115.03906667 -19.90234375 113.12109375 C-19.92442111 108.41394124 -19.95895955 103.70702384 -20 99 C-21.44869902 98.9391445 -22.89813117 98.89555928 -24.34765625 98.859375 C-25.15468994 98.83327148 -25.96172363 98.80716797 -26.79321289 98.78027344 C-29.27855312 98.80407397 -29.27855312 98.80407397 -31.4375 101.25 Z " fill="#FDFDFD" transform="translate(1226,149)"/>
<path d="M0 0 C0.99128906 0.35191406 1.98257813 0.70382813 3.00390625 1.06640625 C17.27328901 6.47769909 29.08127051 17.47063725 35.75 31.25 C43.97164538 51.05792451 43.65563223 74.4396843 35.6796875 94.28515625 C28.92451488 108.88445009 18.3098201 119.21828282 3.21484375 124.96875 C-16.29374137 131.22666795 -36.3987757 131.11551692 -54.875 121.8125 C-70.2763133 112.83475425 -78.71137608 99.69998359 -84 83 C-87.82801204 61.36942593 -86.10717322 39.54942458 -74 21 C-64.31218404 7.67475129 -50.97584439 0.83339022 -35.19140625 -2.61328125 C-23.62750762 -4.01453702 -10.93869518 -4.30289905 0 0 Z M-31 46 C-33.05963621 51.67303306 -33.33513226 56.87292458 -33.3125 62.875 C-33.32861328 63.72191406 -33.34472656 64.56882812 -33.36132812 65.44140625 C-33.36635837 72.01090738 -32.59994828 78.82228544 -28.3125 84.0625 C-24.83181137 85.47358998 -21.64341675 85.74606745 -18 85 C-14.4471541 82.6056908 -12.81329314 80.2403553 -11.6875 76.1875 C-9.9393466 66.11880877 -9.41868983 53.35065919 -14 44 C-16.82596315 41.32807258 -17.93135805 41.00871644 -21.9375 40.5 C-26.44856202 40.69321122 -28.33527687 42.31641214 -31 46 Z " fill="#FCFCFC" transform="translate(928,207)"/>
<path d="M0 0 C13.45706459 -0.6053523 25.19188263 2.38667807 35.97265625 10.9375 C44.56915925 19.02427446 50.93479829 30.11591055 51.49969673 42.13569069 C51.53310228 44.47492775 51.53377959 46.81215317 51.52368164 49.15161133 C51.52382767 50.03991638 51.52397369 50.92822144 51.52412415 51.84344482 C51.52342918 54.77065499 51.51565625 57.697801 51.5078125 60.625 C51.50594684 62.65809596 51.50452364 64.69119237 51.50352478 66.72428894 C51.49971124 72.06885016 51.48989087 77.41338411 51.4788208 82.75793457 C51.46858168 88.21427033 51.4640218 93.67061052 51.45898438 99.12695312 C51.44826757 109.82813697 51.4312051 120.52930059 51.41015625 131.23046875 C48.68072088 131.28463616 45.95237061 131.324221 43.22265625 131.35546875 C42.06926758 131.38060547 42.06926758 131.38060547 40.89257812 131.40625 C36.63356307 131.44280807 33.24212612 131.33257794 29.41015625 129.23046875 C26.44442708 125.35220752 25.03332082 120.79078826 23.41015625 116.23046875 C22.85070312 116.72675781 22.29125 117.22304688 21.71484375 117.734375 C11.61715149 126.28981523 0.75722895 132.27212802 -12.58984375 133.23046875 C-13.63914062 133.31167969 -14.6884375 133.39289063 -15.76953125 133.4765625 C-26.18927071 133.88885435 -36.71506315 131.84315372 -44.87890625 124.98828125 C-52.07760761 117.59235519 -55.60368365 109.14743152 -56.15234375 98.91796875 C-55.90889849 89.85757117 -52.05088203 82.56815963 -46.02734375 75.91796875 C-37.44690257 68.07159573 -26.67028231 64.10641921 -15.58984375 61.23046875 C-14.86925781 61.02808594 -14.14867187 60.82570313 -13.40625 60.6171875 C-2.25904698 57.77063078 9.95085312 56.86081381 21.41015625 57.23046875 C21.25961817 42.96431891 21.25961817 42.96431891 14.953125 30.546875 C9.05669551 25.27740763 1.62617414 25.51439977 -5.8984375 25.671875 C-13.64921977 26.2410504 -20.03806672 30.36002395 -26.58984375 34.23046875 C-30.52986381 36.43101187 -34.11469804 37.05554571 -38.58984375 36.23046875 C-44.0382741 32.46845732 -46.64835397 26.00225798 -49.58984375 20.23046875 C-34.5822422 8.10894442 -19.35569953 1.24264012 0 0 Z " fill="#FCFCFC" transform="translate(796.58984375,452.76953125)"/>
<path d="M0 0 C10.5545506 7.81156005 16.37509052 17.83154065 18.63937378 30.65753174 C19.57349623 38.58851092 19.30277226 46.60013793 19.2578125 54.57421875 C19.25407605 56.5314774 19.25123207 58.48873794 19.24923706 60.44599915 C19.24165032 65.56364225 19.22204515 70.68116938 19.1998291 75.79876709 C19.17926308 81.03444857 19.17021247 86.27014903 19.16015625 91.50585938 C19.138794 101.75395682 19.10471887 112.00196872 19.0625 122.25 C15.81280231 122.36638036 12.5636417 122.43730581 9.3125 122.5 C8.39210938 122.53351563 7.47171875 122.56703125 6.5234375 122.6015625 C-0.31624279 122.7006883 -0.31624279 122.7006883 -3.51269531 120.38183594 C-5.03167044 118.10909934 -5.91696153 116.11983081 -6.6875 113.5 C-6.92984375 112.70078125 -7.1721875 111.9015625 -7.421875 111.078125 C-7.59203125 110.47484375 -7.7621875 109.8715625 -7.9375 109.25 C-11.0787162 110.69924293 -13.67635895 112.48704231 -16.4375 114.5625 C-29.81979248 124.02273622 -44.83766876 127.09033389 -60.99609375 124.8203125 C-70.94058442 122.5351955 -78.35765454 117.15120865 -83.78125 108.55859375 C-88.18077826 99.77440049 -88.68818871 88.55716868 -86.0625 79.09765625 C-80.56004578 67.35064049 -69.63399014 60.77052119 -57.9375 56.0625 C-42.90076528 50.99197318 -26.74427732 48.94140782 -10.9375 49.25 C-10.88350136 35.43309219 -10.88350136 35.43309219 -16.5859375 23.41015625 C-23.43770919 17.26669008 -30.99517211 17.57141291 -39.78857422 18.01904297 C-46.80681926 18.77333288 -52.78844895 22.55570526 -58.75 26.0625 C-62.65961974 28.28547873 -65.38125133 29.10966956 -69.9375 28.25 C-75.15393065 25.015813 -79.07127878 20.17737307 -80.9375 14.25 C-78.82470796 7.35082105 -70.25635282 3.23523225 -64.3125 0.0625 C-57.4353362 -3.23924488 -50.35373455 -5.06252539 -42.9375 -6.75 C-42.13957031 -6.94207031 -41.34164062 -7.13414062 -40.51953125 -7.33203125 C-26.20695521 -9.64889303 -12.45227068 -7.6073599 0 0 Z " fill="#FCFCFC" transform="translate(1045.9375,460.75)"/>
<path d="M0 0 C10.23 0 20.46 0 31 0 C31.01458252 2.65417969 31.02916504 5.30835938 31.04418945 8.04296875 C31.09460417 16.82808871 31.16121147 25.6130327 31.23571491 34.39797974 C31.28037658 39.72249834 31.31964207 45.04694116 31.34643555 50.37158203 C31.3725103 55.51347371 31.41294246 60.65507314 31.46318626 65.79678345 C31.47982673 67.75505936 31.49135853 69.71338579 31.49761391 71.67172241 C31.50728566 74.4220824 31.53538159 77.17169944 31.56762695 79.921875 C31.56547432 81.12705528 31.56547432 81.12705528 31.5632782 82.35658264 C31.67321026 89.01886321 32.977247 94.539895 37.3125 99.8125 C44.47451693 105.64204866 51.06648945 105.86867285 60 105 C67.79552161 103.18356778 74.37495094 98.62504906 80 93 C80.12527187 90.10934764 80.18610202 87.24143213 80.20532227 84.34936523 C80.21522186 83.44213715 80.22512146 82.53490906 80.23532104 81.60018921 C80.26703595 78.58635106 80.29173278 75.57249711 80.31640625 72.55859375 C80.33696716 70.47493569 80.35796339 68.39128189 80.37937927 66.30763245 C80.43468909 60.81181269 80.48405894 55.31595474 80.53222656 49.82006836 C80.5823767 44.21659936 80.63809655 38.61318612 80.69335938 33.00976562 C80.80104988 22.00655618 80.9019561 11.00329963 81 0 C91.23 0 101.46 0 112 0 C112 42.24 112 84.48 112 128 C104.41 128 96.82 128 89 128 C84.5 122.375 84.5 122.375 83.25 118.1875 C83.00765625 117.39730469 82.7653125 116.60710937 82.515625 115.79296875 C82.34546875 115.20128906 82.1753125 114.60960937 82 114 C81.05253906 114.87011719 81.05253906 114.87011719 80.0859375 115.7578125 C67.22814814 126.98521935 54.03395704 130.75299452 37 130 C27.02356481 129.11158752 18.4063883 124.97678354 11.5625 117.625 C2.86304194 107.00811037 -0.17273465 94.56131832 -0.11352539 81.05712891 C-0.11367142 80.1784314 -0.11381744 79.29973389 -0.1139679 78.39440918 C-0.11327413 75.50510139 -0.1055069 72.61585896 -0.09765625 69.7265625 C-0.09579017 67.71731603 -0.09436716 65.70806911 -0.09336853 63.69882202 C-0.08955836 58.42167902 -0.0797409 53.14456373 -0.06866455 47.86743164 C-0.05841816 42.47803116 -0.053864 37.08862618 -0.04882812 31.69921875 C-0.03811726 21.13279839 -0.02053263 10.56640584 0 0 Z " fill="#FDFDFD" transform="translate(320,206)"/>
<path d="M0 0 C0.7940625 0.42410156 1.588125 0.84820312 2.40625 1.28515625 C12.82153483 7.51696834 18.25415047 17.46361143 21.55156612 28.91559982 C22.00635152 31.02952297 22.12314156 32.89011422 22.12025452 35.04962158 C22.12231651 36.24426529 22.12231651 36.24426529 22.12442017 37.46304321 C22.11902725 38.75992569 22.11902725 38.75992569 22.11352539 40.08300781 C22.11367142 41.00042755 22.11381744 41.91784729 22.1139679 42.86306763 C22.11327166 45.89311087 22.10549275 48.92309251 22.09765625 51.953125 C22.09579104 54.05491095 22.09436762 56.15669734 22.09336853 58.25848389 C22.08955144 63.78883058 22.07972801 69.31915099 22.06866455 74.8494873 C22.05843309 80.49340459 22.05386719 86.13732612 22.04882812 91.78125 C22.03810505 102.85418007 22.02051475 113.92708374 22 125 C12.1 125 2.2 125 -8 125 C-8.01458252 122.44193604 -8.02916504 119.88387207 -8.04418945 117.24829102 C-8.0946391 108.77450276 -8.16125238 100.30089627 -8.23571491 91.82728672 C-8.28034716 86.69224698 -8.31961899 81.55728527 -8.34643555 76.42211914 C-8.37253985 71.46176576 -8.41299249 66.50171382 -8.46318626 61.54154778 C-8.47980687 59.65387676 -8.49135096 57.76615367 -8.49761391 55.87841988 C-8.50730751 53.22404882 -8.53542865 50.57044065 -8.56762695 47.91625977 C-8.56619186 47.14445374 -8.56475677 46.37264771 -8.5632782 45.57745361 C-8.68084739 38.67614194 -10.11241796 31.32708393 -14.875 26.0625 C-15.34679687 25.51722656 -15.81859375 24.97195313 -16.3046875 24.41015625 C-22.0487763 19.63223907 -29.89149804 20.1909222 -36.96826172 20.70556641 C-42.20737898 21.46480402 -46.68399173 24.06536901 -51 27 C-52.02868195 27.67246262 -53.05736389 28.34492523 -54.11721802 29.0377655 C-56.73344144 31.25731304 -57.45086641 32.76049322 -57.75949097 36.1698761 C-57.79447739 37.84506917 -57.79672966 39.52114359 -57.77294922 41.1965332 C-57.78357895 42.11409897 -57.79420868 43.03166473 -57.80516052 43.97703552 C-57.83320824 47.00217568 -57.81915307 50.0255706 -57.8046875 53.05078125 C-57.81593748 55.15115381 -57.82981805 57.25151379 -57.84622192 59.35185242 C-57.88228734 64.87410641 -57.88262988 70.39580708 -57.87554932 75.91815186 C-57.874637 81.55556156 -57.90748656 87.19276324 -57.9375 92.83007812 C-57.99138843 103.8868427 -58.00442036 114.94310481 -58 126 C-68.23 126 -78.46 126 -89 126 C-89 83.76 -89 41.52 -89 -2 C-81.41 -2 -73.82 -2 -66 -2 C-61.5 3.625 -61.5 3.625 -61.25 8.3125 C-61.19328125 9.19550781 -61.1365625 10.07851563 -61.078125 10.98828125 C-61.05234375 11.65214844 -61.0265625 12.31601562 -61 13 C-60.36835938 12.43152344 -59.73671875 11.86304688 -59.0859375 11.27734375 C-43.12724576 -2.49680085 -20.0617205 -11.02707582 0 0 Z " fill="#FCFCFC" transform="translate(475,458)"/>
<path d="M0 0 C0 13.53 0 27.06 0 41 C10.89 41 21.78 41 33 41 C33 48.26 33 55.52 33 63 C22.11 63 11.22 63 0 63 C0.0907782 76.03044016 0.0907782 76.03044016 0.20898438 89.06054688 C0.26329128 94.37586788 0.31440189 99.69108381 0.34643555 105.0065918 C0.37246639 109.29263361 0.41286708 113.57832221 0.46318626 117.86414528 C0.47985649 119.49833593 0.49136982 121.13258768 0.49761391 122.76685143 C0.50725352 125.05807804 0.5353096 127.3484007 0.56762695 129.6394043 C0.58428154 131.59465279 0.58428154 131.59465279 0.60127258 133.58940125 C1.02778684 137.23768058 1.78029281 139.1059013 4 142 C7.70655547 144.47103698 10.69959724 144.56412128 15 144 C17.02323613 143.04788888 19.02699884 142.05226728 21 141 C23.453125 140.6171875 23.453125 140.6171875 26 141 C27.87890625 142.9765625 27.87890625 142.9765625 29.5625 145.625 C30.15289063 146.53507813 30.74328125 147.44515625 31.3515625 148.3828125 C31.89554688 149.24648438 32.43953125 150.11015625 33 151 C33.80925313 152.16892118 34.62103576 153.33610417 35.4375 154.5 C37 157 37 157 37 159 C30.19687952 164.37492589 22.26209741 166.81692548 14 169 C13.34902344 169.19335938 12.69804688 169.38671875 12.02734375 169.5859375 C1.0197131 171.83412411 -8.76570511 169.46349716 -18.375 164.125 C-25.48163569 158.3720092 -29.55141337 151.02286421 -31 142 C-31.08737769 139.3839135 -31.12657158 136.79574211 -31.11352539 134.18041992 C-31.11367142 133.40915771 -31.11381744 132.63789551 -31.1139679 131.84326172 C-31.11327378 129.305635 -31.10550492 126.76808258 -31.09765625 124.23046875 C-31.09579029 122.46641581 -31.09436723 120.70236236 -31.09336853 118.93830872 C-31.08955738 114.3039506 -31.07973909 109.66962401 -31.06866455 105.03527832 C-31.05842026 100.30282009 -31.05386445 95.57035675 -31.04882812 90.83789062 C-31.03811555 81.55857993 -31.02105599 72.27929259 -31 63 C-32.68029297 63.05220703 -32.68029297 63.05220703 -34.39453125 63.10546875 C-35.86717251 63.13360839 -37.33982998 63.16090837 -38.8125 63.1875 C-39.55048828 63.21263672 -40.28847656 63.23777344 -41.04882812 63.26367188 C-46.47250986 63.33729651 -46.47250986 63.33729651 -48.9934082 61.7253418 C-50.77261205 58.67570959 -50.30409229 55.23553009 -50.1875 51.8125 C-50.17396484 51.06291016 -50.16042969 50.31332031 -50.14648438 49.54101562 C-50.11118539 47.69370233 -50.05737917 45.84675934 -50 44 C-43.44723293 41.71415102 -36.89598561 41.39405632 -30 41 C-29.86424561 40.17387207 -29.72849121 39.34774414 -29.58862305 38.49658203 C-29.07379685 35.38322346 -28.55307838 32.27091964 -28.02856445 29.15917969 C-27.69493766 27.16935978 -27.36790087 25.17843851 -27.04101562 23.1875 C-24.29844147 6.97765874 -24.29844147 6.97765874 -22 2 C-19 0 -19 0 0 0 Z " fill="#FBFBFB" transform="translate(912,416)"/>
<path d="M0 0 C0.6084375 0.40347656 1.216875 0.80695313 1.84375 1.22265625 C13.5177874 9.89858859 19.06163142 25.20837476 21.3371582 39.05102539 C23.92892134 58.18790774 21.215604 79.84391073 10 96 C0.76173898 107.3820311 -10.39746552 113.97526192 -25 116 C-28.60985142 116.2968595 -32.19127221 116.38138327 -35.8125 116.375 C-36.7730127 116.37338867 -37.73352539 116.37177734 -38.72314453 116.37011719 C-46.46217139 116.23711285 -52.83892722 115.07208952 -60 112 C-61.09248047 111.58427734 -61.09248047 111.58427734 -62.20703125 111.16015625 C-74.49500482 105.90080662 -82.80647144 94.52827572 -87.82421875 82.61328125 C-91.13762822 72.43087674 -92.53126803 62.82267679 -92.4375 52.125 C-92.42920166 50.89773193 -92.42090332 49.67046387 -92.41235352 48.40600586 C-92.09742043 31.49712537 -87.67298115 16.73012106 -75.875 4.125 C-55.03329184 -15.40698333 -22.9497758 -16.48444717 0 0 Z M-62 19 C-72.5268178 31.76656627 -72.90034206 47.17140569 -72 63 C-70.50827014 74.00591242 -66.26361382 83.12560657 -57.63671875 90.26953125 C-48.07178786 96.54695997 -36.16031144 97.53074668 -25.10546875 95.45703125 C-15.90532961 92.96044177 -9.4998105 87.71615204 -4 80 C2.64023123 66.26290272 3.29837856 48.02265785 -1.0859375 33.4765625 C-4.47449494 24.29559917 -8.82206474 17.80032304 -17.62109375 13.078125 C-31.39876736 6.83405617 -50.8059394 7.97427113 -62 19 Z " fill="#010101" transform="translate(247,191)"/>
<path d="M0 0 C58.7659005 0 58.7659005 0 75.6875 15.0625 C84.36824471 24.43186147 88.41372341 35.74075672 91 48 C91.18949219 48.76957031 91.37898437 49.53914063 91.57421875 50.33203125 C94.49305735 68.6216346 91.27995259 89.38886849 81 105 C70.77191827 118.43654411 61.57859823 121.81918805 45 127 C30.15 127 15.3 127 0 127 C0 85.09 0 43.18 0 0 Z M20 20 C20 48.71 20 77.42 20 107 C41.43622021 107.49489034 41.43622021 107.49489034 59.99609375 98.31640625 C70.77169487 87.17003176 71.38593909 73.04155972 71.2109375 58.48046875 C70.90252464 47.26147512 67.9066335 37.71734791 60.40625 29.1875 C49.24043757 18.65371469 34.50951526 20 20 20 Z " fill="#010101" transform="translate(602,430)"/>
<path d="M0 0 C10.23 0 20.46 0 31 0 C31 61.05 31 122.1 31 185 C20.77 185 10.54 185 0 185 C0 123.95 0 62.9 0 0 Z " fill="#FDFDFD" transform="translate(1087,149)"/>
<path d="M0 0 C1.62819204 4.88457612 0.07977151 9.57485351 -0.8125 14.5625 C-0.99103516 15.62919922 -1.16957031 16.69589844 -1.35351562 17.79492188 C-1.53205078 18.81263672 -1.71058594 19.83035156 -1.89453125 20.87890625 C-2.13973511 22.27991577 -2.13973511 22.27991577 -2.38989258 23.70922852 C-3 26 -3 26 -5 28 C-7.39501953 28.16357422 -7.39501953 28.16357422 -10.3828125 28.0546875 C-12.01089844 28.01794922 -12.01089844 28.01794922 -13.671875 27.98046875 C-15.950797 27.91086367 -18.22948134 27.83291237 -20.5078125 27.74609375 C-28.81543923 27.57954935 -34.19039355 28.57074074 -40.42578125 34.18359375 C-41.04839844 34.92738281 -41.67101563 35.67117187 -42.3125 36.4375 C-42.94800781 37.17871094 -43.58351563 37.91992188 -44.23828125 38.68359375 C-48.17285862 43.85699593 -49.44501231 47.49075793 -49.43237305 54.00317383 C-49.4425647 54.79394318 -49.45275635 55.58471252 -49.46325684 56.39944458 C-49.49334772 59.00204591 -49.50264667 61.60427894 -49.51171875 64.20703125 C-49.52856835 66.01593749 -49.54671898 67.82483205 -49.56611633 69.63371277 C-49.61359194 74.38638659 -49.64341708 79.13901302 -49.66955566 83.8918457 C-49.69937348 88.74504964 -49.74589963 93.59809031 -49.79101562 98.45117188 C-49.87702116 107.96738124 -49.94283385 117.48357364 -50 127 C-60.23 127 -70.46 127 -81 127 C-81 84.76 -81 42.52 -81 -1 C-59 -1 -59 -1 -54 3 C-53.15698242 5.01464844 -53.15698242 5.01464844 -52.85546875 7.109375 C-52.73623047 7.86347656 -52.61699219 8.61757812 -52.49414062 9.39453125 C-52.39294922 10.17183594 -52.29175781 10.94914063 -52.1875 11.75 C-52.06697266 12.54277344 -51.94644531 13.33554688 -51.82226562 14.15234375 C-51.52912634 16.09878862 -51.26196385 18.04911476 -51 20 C-50.57589844 19.43152344 -50.15179687 18.86304688 -49.71484375 18.27734375 C-37.82780916 2.62825866 -20.35943214 -10.7785229 0 0 Z " fill="#FCFCFC" transform="translate(1069,207)"/>
<path d="M0 0 C0.66918457 -0.0103125 1.33836914 -0.020625 2.02783203 -0.03125 C6.77978645 0.05312502 12.34079234 0.90329234 15.875 4.4375 C15.82637641 10.58838392 15.3883359 26.9241641 10.875 31.4375 C9.18696061 31.48831622 7.49684342 31.47295758 5.80859375 31.4296875 C4.76509766 31.41292969 3.72160156 31.39617187 2.64648438 31.37890625 C0.45098959 31.33517642 -1.74436046 31.28330145 -3.93945312 31.22265625 C-11.76571873 31.11721973 -18.61470889 31.72334494 -24.8125 37.0625 C-31.92798652 44.0096601 -33.65487541 50.48537898 -33.82659435 60.30667782 C-33.84447689 62.88304554 -33.83866894 65.45874467 -33.83203125 68.03515625 C-33.84516177 69.83835001 -33.86047013 71.64152911 -33.87785339 73.44468689 C-33.91755804 78.16453882 -33.92788443 82.8840047 -33.93188477 87.60400391 C-33.94124372 92.43078209 -33.97867446 97.25733604 -34.01367188 102.08398438 C-34.07809991 111.53519897 -34.1088632 120.98607946 -34.125 130.4375 C-44.355 130.4375 -54.585 130.4375 -65.125 130.4375 C-65.125 88.1975 -65.125 45.9575 -65.125 2.4375 C-57.535 2.4375 -49.945 2.4375 -42.125 2.4375 C-38.12307346 7.43990817 -37.5728942 8.65481093 -36.9375 14.625 C-36.56716239 19.18701145 -36.56716239 19.18701145 -35.125 23.4375 C-34.43277344 22.385625 -34.43277344 22.385625 -33.7265625 21.3125 C-25.25311207 8.98748119 -15.39745077 0.19735803 0 0 Z " fill="#FCFCFC" transform="translate(525.125,203.5625)"/>
<path d="M0 0 C10.23 0 20.46 0 31 0 C31 42.24 31 84.48 31 128 C20.77 128 10.54 128 0 128 C0 85.76 0 43.52 0 0 Z " fill="#FDFDFD" transform="translate(325,456)"/>
<path d="M0 0 C1.1281311 0.0163147 1.1281311 0.0163147 2.27905273 0.03295898 C10.72577725 0.27644664 16.44611135 2.42955654 22.73828125 8.2890625 C33.76225056 20.89462912 32.54743613 38.75145066 31.5625 54.375 C30.30469343 64.85873715 26.61118115 72.32631885 19.25 79.6875 C10.70165547 85.05506517 1.38087185 85.40227432 -8.4375 84.375 C-15.8680036 82.29059899 -21.23463175 77.77456738 -25.4375 71.375 C-27.13337883 68.12678068 -28.36422567 64.87527657 -29.4375 61.375 C-29.66308594 60.65183594 -29.88867188 59.92867188 -30.12109375 59.18359375 C-33.94849416 44.00597142 -32.32486044 26.40953662 -24.94921875 12.6328125 C-19.01696393 3.77275233 -10.47558607 -0.20499022 0 0 Z M-8.4375 25.375 C-10.49713621 31.04803306 -10.77263226 36.24792458 -10.75 42.25 C-10.76611328 43.09691406 -10.78222656 43.94382812 -10.79882812 44.81640625 C-10.80385837 51.38590738 -10.03744828 58.19728544 -5.75 63.4375 C-2.26931137 64.84858998 0.91908325 65.12106745 4.5625 64.375 C8.1153459 61.9806908 9.74920686 59.6153553 10.875 55.5625 C12.6231534 45.49380877 13.14381017 32.72565919 8.5625 23.375 C5.73653685 20.70307258 4.63114195 20.38371644 0.625 19.875 C-3.88606202 20.06821122 -5.77277687 21.69141214 -8.4375 25.375 Z " fill="#020202" transform="translate(905.4375,227.625)"/>
<path d="M0 0 C3.38120979 2.49814374 5.48848863 4.40466021 6.58129883 8.55012512 C6.88903776 12.05933632 6.93849119 15.48470988 6.89208984 19.00718689 C6.89974365 20.28787552 6.90739746 21.56856415 6.9152832 22.88806152 C6.92703323 25.59107731 6.91009617 28.29196853 6.87255859 30.99473572 C6.827008 34.44031257 6.85320349 37.8808998 6.90113831 41.32629299 C6.93719862 44.63697813 6.91186164 47.94636043 6.89208984 51.25718689 C6.90828369 52.4844902 6.92447754 53.71179352 6.94116211 54.97628784 C6.80826847 61.07901971 6.4117577 64.86889478 2.06005859 69.35508728 C-8.17578445 78.22164451 -18.05832957 79.62664738 -31.17041016 78.69859314 C-36.84788282 77.16113725 -41.07280055 72.54196539 -44.17041016 67.69859314 C-51.58558001 52.08895214 -51.45701214 31.11433586 -46.36572266 14.80796814 C-43.10491328 6.32560127 -37.9945128 -0.35207619 -29.54541016 -4.17640686 C-19.1353872 -7.5455422 -9.13461373 -5.47723615 0 0 Z M-25.60791016 17.94859314 C-31.33254445 29.00576349 -29.78753344 44.03462393 -27.17041016 55.69859314 C-26.51041016 56.68859314 -25.85041016 57.67859314 -25.17041016 58.69859314 C-23.71118323 58.58449721 -22.25300418 58.4569377 -20.79541016 58.32359314 C-19.98330078 58.25398376 -19.17119141 58.18437439 -18.33447266 58.11265564 C-15.96706825 57.86966726 -15.96706825 57.86966726 -14.17041016 55.69859314 C-13.99494533 52.68550363 -13.93913571 49.7654886 -13.97509766 46.75328064 C-13.97792755 45.86826874 -13.98075745 44.98325684 -13.9836731 44.07142639 C-13.99488775 41.23867902 -14.01999445 38.4062453 -14.04541016 35.57359314 C-14.0554383 33.65562895 -14.06456444 31.73765981 -14.07275391 29.81968689 C-14.09483126 25.11253438 -14.12936971 20.40561698 -14.17041016 15.69859314 C-15.61910918 15.63773764 -17.06854133 15.59415242 -18.51806641 15.55796814 C-19.3251001 15.53186462 -20.13213379 15.50576111 -20.96362305 15.47886658 C-23.44896328 15.50266711 -23.44896328 15.50266711 -25.60791016 17.94859314 Z " fill="#010101" transform="translate(1220.17041015625,232.30140686035156)"/>
<path d="M0 0 C1.4579921 19.32026452 1.4579921 19.32026452 -1.6875 25.1015625 C-4.02737924 27.2058289 -6.17839396 28.61477045 -9 30 C-9.81210937 30.42925781 -10.62421875 30.85851562 -11.4609375 31.30078125 C-17.6151692 34.27566734 -23.04799646 35.21855041 -29.875 35.3125 C-30.56980469 35.34150391 -31.26460937 35.37050781 -31.98046875 35.40039062 C-37.17466744 35.46397309 -39.99609503 34.23668965 -44 31 C-47.55160646 27.0932329 -47.64135502 22.79789382 -47.45703125 17.71875 C-46.68031493 13.09828367 -44.75253636 10.7149032 -41 8 C-28.81942397 0.85562368 -13.81557011 -0.27569874 0 0 Z " fill="#030303" transform="translate(818,529)"/>
<path d="M0 0 C1.45239281 19.24606677 1.45239281 19.24606677 -1.6171875 25.06640625 C-3.96191484 27.19835584 -6.17131052 28.57944291 -9 30 C-9.80824219 30.51433594 -10.61648438 31.02867187 -11.44921875 31.55859375 C-17.09377452 34.74824318 -22.38648422 35.46891889 -28.75 35.5625 C-29.81347656 35.58473633 -29.81347656 35.58473633 -30.8984375 35.60742188 C-36.29420639 35.5013253 -39.53328207 34.01714154 -44 31 C-47.43649085 27.23094552 -47.52178586 23.33484681 -47.33984375 18.4296875 C-46.72360933 14.02396555 -44.76269807 11.58178959 -41.515625 8.66796875 C-30.31384402 0.46489462 -13.32468284 -0.22044512 0 0 Z " fill="#030303" transform="translate(1035,529)"/>
<path d="M0 0 C4.25249841 3.16464998 8.29552201 7.21604402 10.6875 12 C11.4186817 18.78954437 11.50248019 24.70238778 7.27734375 30.30859375 C2.26631463 35.63973776 -1.92954719 37.33217072 -9.3125 37.6875 C-14.93002538 37.4649642 -18.58671469 36.65909037 -22.7578125 32.828125 C-27.27567777 27.51566031 -29.07413272 22.47018626 -28.76171875 15.45703125 C-27.49418945 8.5241971 -22.78899576 4.01609689 -17.3125 0 C-12.36213871 -2.47518065 -5.13676126 -1.55072038 0 0 Z " fill="#FCFCFC" transform="translate(349.3125,400)"/>
</svg>
